%TF.GenerationSoftware,KiCad,Pcbnew,8.0.6*%
%TF.CreationDate,2025-04-20T20:46:24+08:00*%
%TF.ProjectId,external_chamber,65787465-726e-4616-9c5f-6368616d6265,rev?*%
%TF.SameCoordinates,Original*%
%TF.FileFunction,Legend,Top*%
%TF.FilePolarity,Positive*%
%FSLAX46Y46*%
G04 Gerber Fmt 4.6, Leading zero omitted, Abs format (unit mm)*
G04 Created by KiCad (PCBNEW 8.0.6) date 2025-04-20 20:46:24*
%MOMM*%
%LPD*%
G01*
G04 APERTURE LIST*
%ADD10C,0.100000*%
%ADD11C,0.200000*%
%ADD12C,0.125000*%
%ADD13C,0.150000*%
%ADD14C,0.120000*%
%ADD15C,0.127000*%
G04 APERTURE END LIST*
D10*
X142903884Y-55938665D02*
X143237217Y-55938665D01*
X143380074Y-56462475D02*
X142903884Y-56462475D01*
X142903884Y-56462475D02*
X142903884Y-55462475D01*
X142903884Y-55462475D02*
X143380074Y-55462475D01*
X143713408Y-56462475D02*
X144237217Y-55795808D01*
X143713408Y-55795808D02*
X144237217Y-56462475D01*
X144475313Y-55795808D02*
X144856265Y-55795808D01*
X144618170Y-55462475D02*
X144618170Y-56319617D01*
X144618170Y-56319617D02*
X144665789Y-56414856D01*
X144665789Y-56414856D02*
X144761027Y-56462475D01*
X144761027Y-56462475D02*
X144856265Y-56462475D01*
X145570551Y-56414856D02*
X145475313Y-56462475D01*
X145475313Y-56462475D02*
X145284837Y-56462475D01*
X145284837Y-56462475D02*
X145189599Y-56414856D01*
X145189599Y-56414856D02*
X145141980Y-56319617D01*
X145141980Y-56319617D02*
X145141980Y-55938665D01*
X145141980Y-55938665D02*
X145189599Y-55843427D01*
X145189599Y-55843427D02*
X145284837Y-55795808D01*
X145284837Y-55795808D02*
X145475313Y-55795808D01*
X145475313Y-55795808D02*
X145570551Y-55843427D01*
X145570551Y-55843427D02*
X145618170Y-55938665D01*
X145618170Y-55938665D02*
X145618170Y-56033903D01*
X145618170Y-56033903D02*
X145141980Y-56129141D01*
X146046742Y-56462475D02*
X146046742Y-55795808D01*
X146046742Y-55986284D02*
X146094361Y-55891046D01*
X146094361Y-55891046D02*
X146141980Y-55843427D01*
X146141980Y-55843427D02*
X146237218Y-55795808D01*
X146237218Y-55795808D02*
X146332456Y-55795808D01*
X146665790Y-55795808D02*
X146665790Y-56462475D01*
X146665790Y-55891046D02*
X146713409Y-55843427D01*
X146713409Y-55843427D02*
X146808647Y-55795808D01*
X146808647Y-55795808D02*
X146951504Y-55795808D01*
X146951504Y-55795808D02*
X147046742Y-55843427D01*
X147046742Y-55843427D02*
X147094361Y-55938665D01*
X147094361Y-55938665D02*
X147094361Y-56462475D01*
X147999123Y-56462475D02*
X147999123Y-55938665D01*
X147999123Y-55938665D02*
X147951504Y-55843427D01*
X147951504Y-55843427D02*
X147856266Y-55795808D01*
X147856266Y-55795808D02*
X147665790Y-55795808D01*
X147665790Y-55795808D02*
X147570552Y-55843427D01*
X147999123Y-56414856D02*
X147903885Y-56462475D01*
X147903885Y-56462475D02*
X147665790Y-56462475D01*
X147665790Y-56462475D02*
X147570552Y-56414856D01*
X147570552Y-56414856D02*
X147522933Y-56319617D01*
X147522933Y-56319617D02*
X147522933Y-56224379D01*
X147522933Y-56224379D02*
X147570552Y-56129141D01*
X147570552Y-56129141D02*
X147665790Y-56081522D01*
X147665790Y-56081522D02*
X147903885Y-56081522D01*
X147903885Y-56081522D02*
X147999123Y-56033903D01*
X148618171Y-56462475D02*
X148522933Y-56414856D01*
X148522933Y-56414856D02*
X148475314Y-56319617D01*
X148475314Y-56319617D02*
X148475314Y-55462475D01*
X150332457Y-56367236D02*
X150284838Y-56414856D01*
X150284838Y-56414856D02*
X150141981Y-56462475D01*
X150141981Y-56462475D02*
X150046743Y-56462475D01*
X150046743Y-56462475D02*
X149903886Y-56414856D01*
X149903886Y-56414856D02*
X149808648Y-56319617D01*
X149808648Y-56319617D02*
X149761029Y-56224379D01*
X149761029Y-56224379D02*
X149713410Y-56033903D01*
X149713410Y-56033903D02*
X149713410Y-55891046D01*
X149713410Y-55891046D02*
X149761029Y-55700570D01*
X149761029Y-55700570D02*
X149808648Y-55605332D01*
X149808648Y-55605332D02*
X149903886Y-55510094D01*
X149903886Y-55510094D02*
X150046743Y-55462475D01*
X150046743Y-55462475D02*
X150141981Y-55462475D01*
X150141981Y-55462475D02*
X150284838Y-55510094D01*
X150284838Y-55510094D02*
X150332457Y-55557713D01*
X150761029Y-56462475D02*
X150761029Y-55462475D01*
X151189600Y-56462475D02*
X151189600Y-55938665D01*
X151189600Y-55938665D02*
X151141981Y-55843427D01*
X151141981Y-55843427D02*
X151046743Y-55795808D01*
X151046743Y-55795808D02*
X150903886Y-55795808D01*
X150903886Y-55795808D02*
X150808648Y-55843427D01*
X150808648Y-55843427D02*
X150761029Y-55891046D01*
X152094362Y-56462475D02*
X152094362Y-55938665D01*
X152094362Y-55938665D02*
X152046743Y-55843427D01*
X152046743Y-55843427D02*
X151951505Y-55795808D01*
X151951505Y-55795808D02*
X151761029Y-55795808D01*
X151761029Y-55795808D02*
X151665791Y-55843427D01*
X152094362Y-56414856D02*
X151999124Y-56462475D01*
X151999124Y-56462475D02*
X151761029Y-56462475D01*
X151761029Y-56462475D02*
X151665791Y-56414856D01*
X151665791Y-56414856D02*
X151618172Y-56319617D01*
X151618172Y-56319617D02*
X151618172Y-56224379D01*
X151618172Y-56224379D02*
X151665791Y-56129141D01*
X151665791Y-56129141D02*
X151761029Y-56081522D01*
X151761029Y-56081522D02*
X151999124Y-56081522D01*
X151999124Y-56081522D02*
X152094362Y-56033903D01*
X152570553Y-56462475D02*
X152570553Y-55795808D01*
X152570553Y-55891046D02*
X152618172Y-55843427D01*
X152618172Y-55843427D02*
X152713410Y-55795808D01*
X152713410Y-55795808D02*
X152856267Y-55795808D01*
X152856267Y-55795808D02*
X152951505Y-55843427D01*
X152951505Y-55843427D02*
X152999124Y-55938665D01*
X152999124Y-55938665D02*
X152999124Y-56462475D01*
X152999124Y-55938665D02*
X153046743Y-55843427D01*
X153046743Y-55843427D02*
X153141981Y-55795808D01*
X153141981Y-55795808D02*
X153284838Y-55795808D01*
X153284838Y-55795808D02*
X153380077Y-55843427D01*
X153380077Y-55843427D02*
X153427696Y-55938665D01*
X153427696Y-55938665D02*
X153427696Y-56462475D01*
X153903886Y-56462475D02*
X153903886Y-55462475D01*
X153903886Y-55843427D02*
X153999124Y-55795808D01*
X153999124Y-55795808D02*
X154189600Y-55795808D01*
X154189600Y-55795808D02*
X154284838Y-55843427D01*
X154284838Y-55843427D02*
X154332457Y-55891046D01*
X154332457Y-55891046D02*
X154380076Y-55986284D01*
X154380076Y-55986284D02*
X154380076Y-56271998D01*
X154380076Y-56271998D02*
X154332457Y-56367236D01*
X154332457Y-56367236D02*
X154284838Y-56414856D01*
X154284838Y-56414856D02*
X154189600Y-56462475D01*
X154189600Y-56462475D02*
X153999124Y-56462475D01*
X153999124Y-56462475D02*
X153903886Y-56414856D01*
X155189600Y-56414856D02*
X155094362Y-56462475D01*
X155094362Y-56462475D02*
X154903886Y-56462475D01*
X154903886Y-56462475D02*
X154808648Y-56414856D01*
X154808648Y-56414856D02*
X154761029Y-56319617D01*
X154761029Y-56319617D02*
X154761029Y-55938665D01*
X154761029Y-55938665D02*
X154808648Y-55843427D01*
X154808648Y-55843427D02*
X154903886Y-55795808D01*
X154903886Y-55795808D02*
X155094362Y-55795808D01*
X155094362Y-55795808D02*
X155189600Y-55843427D01*
X155189600Y-55843427D02*
X155237219Y-55938665D01*
X155237219Y-55938665D02*
X155237219Y-56033903D01*
X155237219Y-56033903D02*
X154761029Y-56129141D01*
X155665791Y-56462475D02*
X155665791Y-55795808D01*
X155665791Y-55986284D02*
X155713410Y-55891046D01*
X155713410Y-55891046D02*
X155761029Y-55843427D01*
X155761029Y-55843427D02*
X155856267Y-55795808D01*
X155856267Y-55795808D02*
X155951505Y-55795808D01*
X157618172Y-56367236D02*
X157570553Y-56414856D01*
X157570553Y-56414856D02*
X157427696Y-56462475D01*
X157427696Y-56462475D02*
X157332458Y-56462475D01*
X157332458Y-56462475D02*
X157189601Y-56414856D01*
X157189601Y-56414856D02*
X157094363Y-56319617D01*
X157094363Y-56319617D02*
X157046744Y-56224379D01*
X157046744Y-56224379D02*
X156999125Y-56033903D01*
X156999125Y-56033903D02*
X156999125Y-55891046D01*
X156999125Y-55891046D02*
X157046744Y-55700570D01*
X157046744Y-55700570D02*
X157094363Y-55605332D01*
X157094363Y-55605332D02*
X157189601Y-55510094D01*
X157189601Y-55510094D02*
X157332458Y-55462475D01*
X157332458Y-55462475D02*
X157427696Y-55462475D01*
X157427696Y-55462475D02*
X157570553Y-55510094D01*
X157570553Y-55510094D02*
X157618172Y-55557713D01*
X158046744Y-56462475D02*
X158046744Y-55795808D01*
X158046744Y-55462475D02*
X157999125Y-55510094D01*
X157999125Y-55510094D02*
X158046744Y-55557713D01*
X158046744Y-55557713D02*
X158094363Y-55510094D01*
X158094363Y-55510094D02*
X158046744Y-55462475D01*
X158046744Y-55462475D02*
X158046744Y-55557713D01*
X158522934Y-56462475D02*
X158522934Y-55795808D01*
X158522934Y-55986284D02*
X158570553Y-55891046D01*
X158570553Y-55891046D02*
X158618172Y-55843427D01*
X158618172Y-55843427D02*
X158713410Y-55795808D01*
X158713410Y-55795808D02*
X158808648Y-55795808D01*
X159570553Y-56414856D02*
X159475315Y-56462475D01*
X159475315Y-56462475D02*
X159284839Y-56462475D01*
X159284839Y-56462475D02*
X159189601Y-56414856D01*
X159189601Y-56414856D02*
X159141982Y-56367236D01*
X159141982Y-56367236D02*
X159094363Y-56271998D01*
X159094363Y-56271998D02*
X159094363Y-55986284D01*
X159094363Y-55986284D02*
X159141982Y-55891046D01*
X159141982Y-55891046D02*
X159189601Y-55843427D01*
X159189601Y-55843427D02*
X159284839Y-55795808D01*
X159284839Y-55795808D02*
X159475315Y-55795808D01*
X159475315Y-55795808D02*
X159570553Y-55843427D01*
X160427696Y-55795808D02*
X160427696Y-56462475D01*
X159999125Y-55795808D02*
X159999125Y-56319617D01*
X159999125Y-56319617D02*
X160046744Y-56414856D01*
X160046744Y-56414856D02*
X160141982Y-56462475D01*
X160141982Y-56462475D02*
X160284839Y-56462475D01*
X160284839Y-56462475D02*
X160380077Y-56414856D01*
X160380077Y-56414856D02*
X160427696Y-56367236D01*
X160903887Y-56462475D02*
X160903887Y-55795808D01*
X160903887Y-55462475D02*
X160856268Y-55510094D01*
X160856268Y-55510094D02*
X160903887Y-55557713D01*
X160903887Y-55557713D02*
X160951506Y-55510094D01*
X160951506Y-55510094D02*
X160903887Y-55462475D01*
X160903887Y-55462475D02*
X160903887Y-55557713D01*
X161237220Y-55795808D02*
X161618172Y-55795808D01*
X161380077Y-55462475D02*
X161380077Y-56319617D01*
X161380077Y-56319617D02*
X161427696Y-56414856D01*
X161427696Y-56414856D02*
X161522934Y-56462475D01*
X161522934Y-56462475D02*
X161618172Y-56462475D01*
X162570554Y-55462475D02*
X162903887Y-56462475D01*
X162903887Y-56462475D02*
X163237220Y-55462475D01*
X163522935Y-55557713D02*
X163570554Y-55510094D01*
X163570554Y-55510094D02*
X163665792Y-55462475D01*
X163665792Y-55462475D02*
X163903887Y-55462475D01*
X163903887Y-55462475D02*
X163999125Y-55510094D01*
X163999125Y-55510094D02*
X164046744Y-55557713D01*
X164046744Y-55557713D02*
X164094363Y-55652951D01*
X164094363Y-55652951D02*
X164094363Y-55748189D01*
X164094363Y-55748189D02*
X164046744Y-55891046D01*
X164046744Y-55891046D02*
X163475316Y-56462475D01*
X163475316Y-56462475D02*
X164094363Y-56462475D01*
X142903884Y-58072419D02*
X142903884Y-57072419D01*
X142903884Y-57072419D02*
X143141979Y-57072419D01*
X143141979Y-57072419D02*
X143284836Y-57120038D01*
X143284836Y-57120038D02*
X143380074Y-57215276D01*
X143380074Y-57215276D02*
X143427693Y-57310514D01*
X143427693Y-57310514D02*
X143475312Y-57500990D01*
X143475312Y-57500990D02*
X143475312Y-57643847D01*
X143475312Y-57643847D02*
X143427693Y-57834323D01*
X143427693Y-57834323D02*
X143380074Y-57929561D01*
X143380074Y-57929561D02*
X143284836Y-58024800D01*
X143284836Y-58024800D02*
X143141979Y-58072419D01*
X143141979Y-58072419D02*
X142903884Y-58072419D01*
X144284836Y-58024800D02*
X144189598Y-58072419D01*
X144189598Y-58072419D02*
X143999122Y-58072419D01*
X143999122Y-58072419D02*
X143903884Y-58024800D01*
X143903884Y-58024800D02*
X143856265Y-57929561D01*
X143856265Y-57929561D02*
X143856265Y-57548609D01*
X143856265Y-57548609D02*
X143903884Y-57453371D01*
X143903884Y-57453371D02*
X143999122Y-57405752D01*
X143999122Y-57405752D02*
X144189598Y-57405752D01*
X144189598Y-57405752D02*
X144284836Y-57453371D01*
X144284836Y-57453371D02*
X144332455Y-57548609D01*
X144332455Y-57548609D02*
X144332455Y-57643847D01*
X144332455Y-57643847D02*
X143856265Y-57739085D01*
X144713408Y-58024800D02*
X144808646Y-58072419D01*
X144808646Y-58072419D02*
X144999122Y-58072419D01*
X144999122Y-58072419D02*
X145094360Y-58024800D01*
X145094360Y-58024800D02*
X145141979Y-57929561D01*
X145141979Y-57929561D02*
X145141979Y-57881942D01*
X145141979Y-57881942D02*
X145094360Y-57786704D01*
X145094360Y-57786704D02*
X144999122Y-57739085D01*
X144999122Y-57739085D02*
X144856265Y-57739085D01*
X144856265Y-57739085D02*
X144761027Y-57691466D01*
X144761027Y-57691466D02*
X144713408Y-57596228D01*
X144713408Y-57596228D02*
X144713408Y-57548609D01*
X144713408Y-57548609D02*
X144761027Y-57453371D01*
X144761027Y-57453371D02*
X144856265Y-57405752D01*
X144856265Y-57405752D02*
X144999122Y-57405752D01*
X144999122Y-57405752D02*
X145094360Y-57453371D01*
X145570551Y-58072419D02*
X145570551Y-57405752D01*
X145570551Y-57072419D02*
X145522932Y-57120038D01*
X145522932Y-57120038D02*
X145570551Y-57167657D01*
X145570551Y-57167657D02*
X145618170Y-57120038D01*
X145618170Y-57120038D02*
X145570551Y-57072419D01*
X145570551Y-57072419D02*
X145570551Y-57167657D01*
X146475312Y-57405752D02*
X146475312Y-58215276D01*
X146475312Y-58215276D02*
X146427693Y-58310514D01*
X146427693Y-58310514D02*
X146380074Y-58358133D01*
X146380074Y-58358133D02*
X146284836Y-58405752D01*
X146284836Y-58405752D02*
X146141979Y-58405752D01*
X146141979Y-58405752D02*
X146046741Y-58358133D01*
X146475312Y-58024800D02*
X146380074Y-58072419D01*
X146380074Y-58072419D02*
X146189598Y-58072419D01*
X146189598Y-58072419D02*
X146094360Y-58024800D01*
X146094360Y-58024800D02*
X146046741Y-57977180D01*
X146046741Y-57977180D02*
X145999122Y-57881942D01*
X145999122Y-57881942D02*
X145999122Y-57596228D01*
X145999122Y-57596228D02*
X146046741Y-57500990D01*
X146046741Y-57500990D02*
X146094360Y-57453371D01*
X146094360Y-57453371D02*
X146189598Y-57405752D01*
X146189598Y-57405752D02*
X146380074Y-57405752D01*
X146380074Y-57405752D02*
X146475312Y-57453371D01*
X146951503Y-57405752D02*
X146951503Y-58072419D01*
X146951503Y-57500990D02*
X146999122Y-57453371D01*
X146999122Y-57453371D02*
X147094360Y-57405752D01*
X147094360Y-57405752D02*
X147237217Y-57405752D01*
X147237217Y-57405752D02*
X147332455Y-57453371D01*
X147332455Y-57453371D02*
X147380074Y-57548609D01*
X147380074Y-57548609D02*
X147380074Y-58072419D01*
X148237217Y-58024800D02*
X148141979Y-58072419D01*
X148141979Y-58072419D02*
X147951503Y-58072419D01*
X147951503Y-58072419D02*
X147856265Y-58024800D01*
X147856265Y-58024800D02*
X147808646Y-57929561D01*
X147808646Y-57929561D02*
X147808646Y-57548609D01*
X147808646Y-57548609D02*
X147856265Y-57453371D01*
X147856265Y-57453371D02*
X147951503Y-57405752D01*
X147951503Y-57405752D02*
X148141979Y-57405752D01*
X148141979Y-57405752D02*
X148237217Y-57453371D01*
X148237217Y-57453371D02*
X148284836Y-57548609D01*
X148284836Y-57548609D02*
X148284836Y-57643847D01*
X148284836Y-57643847D02*
X147808646Y-57739085D01*
X149141979Y-58072419D02*
X149141979Y-57072419D01*
X149141979Y-58024800D02*
X149046741Y-58072419D01*
X149046741Y-58072419D02*
X148856265Y-58072419D01*
X148856265Y-58072419D02*
X148761027Y-58024800D01*
X148761027Y-58024800D02*
X148713408Y-57977180D01*
X148713408Y-57977180D02*
X148665789Y-57881942D01*
X148665789Y-57881942D02*
X148665789Y-57596228D01*
X148665789Y-57596228D02*
X148713408Y-57500990D01*
X148713408Y-57500990D02*
X148761027Y-57453371D01*
X148761027Y-57453371D02*
X148856265Y-57405752D01*
X148856265Y-57405752D02*
X149046741Y-57405752D01*
X149046741Y-57405752D02*
X149141979Y-57453371D01*
X150380075Y-58072419D02*
X150380075Y-57072419D01*
X150380075Y-57453371D02*
X150475313Y-57405752D01*
X150475313Y-57405752D02*
X150665789Y-57405752D01*
X150665789Y-57405752D02*
X150761027Y-57453371D01*
X150761027Y-57453371D02*
X150808646Y-57500990D01*
X150808646Y-57500990D02*
X150856265Y-57596228D01*
X150856265Y-57596228D02*
X150856265Y-57881942D01*
X150856265Y-57881942D02*
X150808646Y-57977180D01*
X150808646Y-57977180D02*
X150761027Y-58024800D01*
X150761027Y-58024800D02*
X150665789Y-58072419D01*
X150665789Y-58072419D02*
X150475313Y-58072419D01*
X150475313Y-58072419D02*
X150380075Y-58024800D01*
X151189599Y-57405752D02*
X151427694Y-58072419D01*
X151665789Y-57405752D02*
X151427694Y-58072419D01*
X151427694Y-58072419D02*
X151332456Y-58310514D01*
X151332456Y-58310514D02*
X151284837Y-58358133D01*
X151284837Y-58358133D02*
X151189599Y-58405752D01*
X153284837Y-58072419D02*
X152808647Y-58072419D01*
X152808647Y-58072419D02*
X152808647Y-57072419D01*
X153999123Y-58024800D02*
X153903885Y-58072419D01*
X153903885Y-58072419D02*
X153713409Y-58072419D01*
X153713409Y-58072419D02*
X153618171Y-58024800D01*
X153618171Y-58024800D02*
X153570552Y-57929561D01*
X153570552Y-57929561D02*
X153570552Y-57548609D01*
X153570552Y-57548609D02*
X153618171Y-57453371D01*
X153618171Y-57453371D02*
X153713409Y-57405752D01*
X153713409Y-57405752D02*
X153903885Y-57405752D01*
X153903885Y-57405752D02*
X153999123Y-57453371D01*
X153999123Y-57453371D02*
X154046742Y-57548609D01*
X154046742Y-57548609D02*
X154046742Y-57643847D01*
X154046742Y-57643847D02*
X153570552Y-57739085D01*
X154618171Y-58072419D02*
X154522933Y-58024800D01*
X154522933Y-58024800D02*
X154475314Y-57977180D01*
X154475314Y-57977180D02*
X154427695Y-57881942D01*
X154427695Y-57881942D02*
X154427695Y-57596228D01*
X154427695Y-57596228D02*
X154475314Y-57500990D01*
X154475314Y-57500990D02*
X154522933Y-57453371D01*
X154522933Y-57453371D02*
X154618171Y-57405752D01*
X154618171Y-57405752D02*
X154761028Y-57405752D01*
X154761028Y-57405752D02*
X154856266Y-57453371D01*
X154856266Y-57453371D02*
X154903885Y-57500990D01*
X154903885Y-57500990D02*
X154951504Y-57596228D01*
X154951504Y-57596228D02*
X154951504Y-57881942D01*
X154951504Y-57881942D02*
X154903885Y-57977180D01*
X154903885Y-57977180D02*
X154856266Y-58024800D01*
X154856266Y-58024800D02*
X154761028Y-58072419D01*
X154761028Y-58072419D02*
X154618171Y-58072419D01*
X155380076Y-57405752D02*
X155380076Y-58072419D01*
X155380076Y-57500990D02*
X155427695Y-57453371D01*
X155427695Y-57453371D02*
X155522933Y-57405752D01*
X155522933Y-57405752D02*
X155665790Y-57405752D01*
X155665790Y-57405752D02*
X155761028Y-57453371D01*
X155761028Y-57453371D02*
X155808647Y-57548609D01*
X155808647Y-57548609D02*
X155808647Y-58072419D01*
X156713409Y-57405752D02*
X156713409Y-58215276D01*
X156713409Y-58215276D02*
X156665790Y-58310514D01*
X156665790Y-58310514D02*
X156618171Y-58358133D01*
X156618171Y-58358133D02*
X156522933Y-58405752D01*
X156522933Y-58405752D02*
X156380076Y-58405752D01*
X156380076Y-58405752D02*
X156284838Y-58358133D01*
X156713409Y-58024800D02*
X156618171Y-58072419D01*
X156618171Y-58072419D02*
X156427695Y-58072419D01*
X156427695Y-58072419D02*
X156332457Y-58024800D01*
X156332457Y-58024800D02*
X156284838Y-57977180D01*
X156284838Y-57977180D02*
X156237219Y-57881942D01*
X156237219Y-57881942D02*
X156237219Y-57596228D01*
X156237219Y-57596228D02*
X156284838Y-57500990D01*
X156284838Y-57500990D02*
X156332457Y-57453371D01*
X156332457Y-57453371D02*
X156427695Y-57405752D01*
X156427695Y-57405752D02*
X156618171Y-57405752D01*
X156618171Y-57405752D02*
X156713409Y-57453371D01*
X157808648Y-57072419D02*
X158141981Y-58072419D01*
X158141981Y-58072419D02*
X158475314Y-57072419D01*
X159237219Y-58072419D02*
X159237219Y-57548609D01*
X159237219Y-57548609D02*
X159189600Y-57453371D01*
X159189600Y-57453371D02*
X159094362Y-57405752D01*
X159094362Y-57405752D02*
X158903886Y-57405752D01*
X158903886Y-57405752D02*
X158808648Y-57453371D01*
X159237219Y-58024800D02*
X159141981Y-58072419D01*
X159141981Y-58072419D02*
X158903886Y-58072419D01*
X158903886Y-58072419D02*
X158808648Y-58024800D01*
X158808648Y-58024800D02*
X158761029Y-57929561D01*
X158761029Y-57929561D02*
X158761029Y-57834323D01*
X158761029Y-57834323D02*
X158808648Y-57739085D01*
X158808648Y-57739085D02*
X158903886Y-57691466D01*
X158903886Y-57691466D02*
X159141981Y-57691466D01*
X159141981Y-57691466D02*
X159237219Y-57643847D01*
X159713410Y-57405752D02*
X159713410Y-58072419D01*
X159713410Y-57500990D02*
X159761029Y-57453371D01*
X159761029Y-57453371D02*
X159856267Y-57405752D01*
X159856267Y-57405752D02*
X159999124Y-57405752D01*
X159999124Y-57405752D02*
X160094362Y-57453371D01*
X160094362Y-57453371D02*
X160141981Y-57548609D01*
X160141981Y-57548609D02*
X160141981Y-58072419D01*
X161665791Y-57072419D02*
X161665791Y-57786704D01*
X161665791Y-57786704D02*
X161618172Y-57929561D01*
X161618172Y-57929561D02*
X161522934Y-58024800D01*
X161522934Y-58024800D02*
X161380077Y-58072419D01*
X161380077Y-58072419D02*
X161284839Y-58072419D01*
X162570553Y-57405752D02*
X162570553Y-58072419D01*
X162141982Y-57405752D02*
X162141982Y-57929561D01*
X162141982Y-57929561D02*
X162189601Y-58024800D01*
X162189601Y-58024800D02*
X162284839Y-58072419D01*
X162284839Y-58072419D02*
X162427696Y-58072419D01*
X162427696Y-58072419D02*
X162522934Y-58024800D01*
X162522934Y-58024800D02*
X162570553Y-57977180D01*
X163046744Y-57405752D02*
X163046744Y-58072419D01*
X163046744Y-57500990D02*
X163094363Y-57453371D01*
X163094363Y-57453371D02*
X163189601Y-57405752D01*
X163189601Y-57405752D02*
X163332458Y-57405752D01*
X163332458Y-57405752D02*
X163427696Y-57453371D01*
X163427696Y-57453371D02*
X163475315Y-57548609D01*
X163475315Y-57548609D02*
X163475315Y-58072419D01*
X123561027Y-86072419D02*
X124132455Y-86072419D01*
X123846741Y-87072419D02*
X123846741Y-86072419D01*
X124846741Y-87024800D02*
X124751503Y-87072419D01*
X124751503Y-87072419D02*
X124561027Y-87072419D01*
X124561027Y-87072419D02*
X124465789Y-87024800D01*
X124465789Y-87024800D02*
X124418170Y-86929561D01*
X124418170Y-86929561D02*
X124418170Y-86548609D01*
X124418170Y-86548609D02*
X124465789Y-86453371D01*
X124465789Y-86453371D02*
X124561027Y-86405752D01*
X124561027Y-86405752D02*
X124751503Y-86405752D01*
X124751503Y-86405752D02*
X124846741Y-86453371D01*
X124846741Y-86453371D02*
X124894360Y-86548609D01*
X124894360Y-86548609D02*
X124894360Y-86643847D01*
X124894360Y-86643847D02*
X124418170Y-86739085D01*
X125322932Y-87072419D02*
X125322932Y-86405752D01*
X125322932Y-86500990D02*
X125370551Y-86453371D01*
X125370551Y-86453371D02*
X125465789Y-86405752D01*
X125465789Y-86405752D02*
X125608646Y-86405752D01*
X125608646Y-86405752D02*
X125703884Y-86453371D01*
X125703884Y-86453371D02*
X125751503Y-86548609D01*
X125751503Y-86548609D02*
X125751503Y-87072419D01*
X125751503Y-86548609D02*
X125799122Y-86453371D01*
X125799122Y-86453371D02*
X125894360Y-86405752D01*
X125894360Y-86405752D02*
X126037217Y-86405752D01*
X126037217Y-86405752D02*
X126132456Y-86453371D01*
X126132456Y-86453371D02*
X126180075Y-86548609D01*
X126180075Y-86548609D02*
X126180075Y-87072419D01*
X126656265Y-86405752D02*
X126656265Y-87405752D01*
X126656265Y-86453371D02*
X126751503Y-86405752D01*
X126751503Y-86405752D02*
X126941979Y-86405752D01*
X126941979Y-86405752D02*
X127037217Y-86453371D01*
X127037217Y-86453371D02*
X127084836Y-86500990D01*
X127084836Y-86500990D02*
X127132455Y-86596228D01*
X127132455Y-86596228D02*
X127132455Y-86881942D01*
X127132455Y-86881942D02*
X127084836Y-86977180D01*
X127084836Y-86977180D02*
X127037217Y-87024800D01*
X127037217Y-87024800D02*
X126941979Y-87072419D01*
X126941979Y-87072419D02*
X126751503Y-87072419D01*
X126751503Y-87072419D02*
X126656265Y-87024800D01*
X123200000Y-77800000D02*
X127200000Y-77800000D01*
X127200000Y-85800000D01*
X123200000Y-85800000D01*
X123200000Y-77800000D01*
X133361027Y-51272419D02*
X133694360Y-52272419D01*
X133694360Y-52272419D02*
X134027693Y-51272419D01*
X134361027Y-52272419D02*
X134361027Y-51272419D01*
X134361027Y-51272419D02*
X134599122Y-51272419D01*
X134599122Y-51272419D02*
X134741979Y-51320038D01*
X134741979Y-51320038D02*
X134837217Y-51415276D01*
X134837217Y-51415276D02*
X134884836Y-51510514D01*
X134884836Y-51510514D02*
X134932455Y-51700990D01*
X134932455Y-51700990D02*
X134932455Y-51843847D01*
X134932455Y-51843847D02*
X134884836Y-52034323D01*
X134884836Y-52034323D02*
X134837217Y-52129561D01*
X134837217Y-52129561D02*
X134741979Y-52224800D01*
X134741979Y-52224800D02*
X134599122Y-52272419D01*
X134599122Y-52272419D02*
X134361027Y-52272419D01*
X135361027Y-52272419D02*
X135361027Y-51272419D01*
X135361027Y-51272419D02*
X135599122Y-51272419D01*
X135599122Y-51272419D02*
X135741979Y-51320038D01*
X135741979Y-51320038D02*
X135837217Y-51415276D01*
X135837217Y-51415276D02*
X135884836Y-51510514D01*
X135884836Y-51510514D02*
X135932455Y-51700990D01*
X135932455Y-51700990D02*
X135932455Y-51843847D01*
X135932455Y-51843847D02*
X135884836Y-52034323D01*
X135884836Y-52034323D02*
X135837217Y-52129561D01*
X135837217Y-52129561D02*
X135741979Y-52224800D01*
X135741979Y-52224800D02*
X135599122Y-52272419D01*
X135599122Y-52272419D02*
X135361027Y-52272419D01*
X129000000Y-51000000D02*
X133000000Y-51000000D01*
X133000000Y-61800000D01*
X129000000Y-61800000D01*
X129000000Y-51000000D01*
X129827693Y-116920038D02*
X129732455Y-116872419D01*
X129732455Y-116872419D02*
X129589598Y-116872419D01*
X129589598Y-116872419D02*
X129446741Y-116920038D01*
X129446741Y-116920038D02*
X129351503Y-117015276D01*
X129351503Y-117015276D02*
X129303884Y-117110514D01*
X129303884Y-117110514D02*
X129256265Y-117300990D01*
X129256265Y-117300990D02*
X129256265Y-117443847D01*
X129256265Y-117443847D02*
X129303884Y-117634323D01*
X129303884Y-117634323D02*
X129351503Y-117729561D01*
X129351503Y-117729561D02*
X129446741Y-117824800D01*
X129446741Y-117824800D02*
X129589598Y-117872419D01*
X129589598Y-117872419D02*
X129684836Y-117872419D01*
X129684836Y-117872419D02*
X129827693Y-117824800D01*
X129827693Y-117824800D02*
X129875312Y-117777180D01*
X129875312Y-117777180D02*
X129875312Y-117443847D01*
X129875312Y-117443847D02*
X129684836Y-117443847D01*
X130303884Y-117872419D02*
X130303884Y-116872419D01*
X130303884Y-116872419D02*
X130875312Y-117872419D01*
X130875312Y-117872419D02*
X130875312Y-116872419D01*
X131351503Y-117872419D02*
X131351503Y-116872419D01*
X131351503Y-116872419D02*
X131589598Y-116872419D01*
X131589598Y-116872419D02*
X131732455Y-116920038D01*
X131732455Y-116920038D02*
X131827693Y-117015276D01*
X131827693Y-117015276D02*
X131875312Y-117110514D01*
X131875312Y-117110514D02*
X131922931Y-117300990D01*
X131922931Y-117300990D02*
X131922931Y-117443847D01*
X131922931Y-117443847D02*
X131875312Y-117634323D01*
X131875312Y-117634323D02*
X131827693Y-117729561D01*
X131827693Y-117729561D02*
X131732455Y-117824800D01*
X131732455Y-117824800D02*
X131589598Y-117872419D01*
X131589598Y-117872419D02*
X131351503Y-117872419D01*
X128400000Y-118200000D02*
X132200000Y-118200000D01*
X132200000Y-128800000D01*
X128400000Y-128800000D01*
X128400000Y-118200000D01*
D11*
X144200000Y-133800000D02*
X148800000Y-133800000D01*
X148800000Y-142600000D01*
X144200000Y-142600000D01*
X144200000Y-133800000D01*
D12*
X143672712Y-133295595D02*
X143672712Y-132495595D01*
X144053664Y-133295595D02*
X144053664Y-132495595D01*
X144053664Y-132495595D02*
X144244140Y-132495595D01*
X144244140Y-132495595D02*
X144358426Y-132533690D01*
X144358426Y-132533690D02*
X144434616Y-132609880D01*
X144434616Y-132609880D02*
X144472711Y-132686071D01*
X144472711Y-132686071D02*
X144510807Y-132838452D01*
X144510807Y-132838452D02*
X144510807Y-132952738D01*
X144510807Y-132952738D02*
X144472711Y-133105119D01*
X144472711Y-133105119D02*
X144434616Y-133181309D01*
X144434616Y-133181309D02*
X144358426Y-133257500D01*
X144358426Y-133257500D02*
X144244140Y-133295595D01*
X144244140Y-133295595D02*
X144053664Y-133295595D01*
X144853664Y-132876547D02*
X145120330Y-132876547D01*
X145234616Y-133295595D02*
X144853664Y-133295595D01*
X144853664Y-133295595D02*
X144853664Y-132495595D01*
X144853664Y-132495595D02*
X145234616Y-132495595D01*
X146644141Y-133219404D02*
X146606045Y-133257500D01*
X146606045Y-133257500D02*
X146491760Y-133295595D01*
X146491760Y-133295595D02*
X146415569Y-133295595D01*
X146415569Y-133295595D02*
X146301283Y-133257500D01*
X146301283Y-133257500D02*
X146225093Y-133181309D01*
X146225093Y-133181309D02*
X146186998Y-133105119D01*
X146186998Y-133105119D02*
X146148902Y-132952738D01*
X146148902Y-132952738D02*
X146148902Y-132838452D01*
X146148902Y-132838452D02*
X146186998Y-132686071D01*
X146186998Y-132686071D02*
X146225093Y-132609880D01*
X146225093Y-132609880D02*
X146301283Y-132533690D01*
X146301283Y-132533690D02*
X146415569Y-132495595D01*
X146415569Y-132495595D02*
X146491760Y-132495595D01*
X146491760Y-132495595D02*
X146606045Y-132533690D01*
X146606045Y-132533690D02*
X146644141Y-132571785D01*
X147329855Y-133295595D02*
X147329855Y-132876547D01*
X147329855Y-132876547D02*
X147291760Y-132800357D01*
X147291760Y-132800357D02*
X147215569Y-132762261D01*
X147215569Y-132762261D02*
X147063188Y-132762261D01*
X147063188Y-132762261D02*
X146986998Y-132800357D01*
X147329855Y-133257500D02*
X147253664Y-133295595D01*
X147253664Y-133295595D02*
X147063188Y-133295595D01*
X147063188Y-133295595D02*
X146986998Y-133257500D01*
X146986998Y-133257500D02*
X146948902Y-133181309D01*
X146948902Y-133181309D02*
X146948902Y-133105119D01*
X146948902Y-133105119D02*
X146986998Y-133028928D01*
X146986998Y-133028928D02*
X147063188Y-132990833D01*
X147063188Y-132990833D02*
X147253664Y-132990833D01*
X147253664Y-132990833D02*
X147329855Y-132952738D01*
X147710808Y-132762261D02*
X147710808Y-133562261D01*
X147710808Y-132800357D02*
X147786998Y-132762261D01*
X147786998Y-132762261D02*
X147939379Y-132762261D01*
X147939379Y-132762261D02*
X148015570Y-132800357D01*
X148015570Y-132800357D02*
X148053665Y-132838452D01*
X148053665Y-132838452D02*
X148091760Y-132914642D01*
X148091760Y-132914642D02*
X148091760Y-133143214D01*
X148091760Y-133143214D02*
X148053665Y-133219404D01*
X148053665Y-133219404D02*
X148015570Y-133257500D01*
X148015570Y-133257500D02*
X147939379Y-133295595D01*
X147939379Y-133295595D02*
X147786998Y-133295595D01*
X147786998Y-133295595D02*
X147710808Y-133257500D01*
X148777475Y-133295595D02*
X148777475Y-132876547D01*
X148777475Y-132876547D02*
X148739380Y-132800357D01*
X148739380Y-132800357D02*
X148663189Y-132762261D01*
X148663189Y-132762261D02*
X148510808Y-132762261D01*
X148510808Y-132762261D02*
X148434618Y-132800357D01*
X148777475Y-133257500D02*
X148701284Y-133295595D01*
X148701284Y-133295595D02*
X148510808Y-133295595D01*
X148510808Y-133295595D02*
X148434618Y-133257500D01*
X148434618Y-133257500D02*
X148396522Y-133181309D01*
X148396522Y-133181309D02*
X148396522Y-133105119D01*
X148396522Y-133105119D02*
X148434618Y-133028928D01*
X148434618Y-133028928D02*
X148510808Y-132990833D01*
X148510808Y-132990833D02*
X148701284Y-132990833D01*
X148701284Y-132990833D02*
X148777475Y-132952738D01*
X149501285Y-133257500D02*
X149425094Y-133295595D01*
X149425094Y-133295595D02*
X149272713Y-133295595D01*
X149272713Y-133295595D02*
X149196523Y-133257500D01*
X149196523Y-133257500D02*
X149158428Y-133219404D01*
X149158428Y-133219404D02*
X149120332Y-133143214D01*
X149120332Y-133143214D02*
X149120332Y-132914642D01*
X149120332Y-132914642D02*
X149158428Y-132838452D01*
X149158428Y-132838452D02*
X149196523Y-132800357D01*
X149196523Y-132800357D02*
X149272713Y-132762261D01*
X149272713Y-132762261D02*
X149425094Y-132762261D01*
X149425094Y-132762261D02*
X149501285Y-132800357D01*
X149844142Y-133295595D02*
X149844142Y-132762261D01*
X149844142Y-132495595D02*
X149806046Y-132533690D01*
X149806046Y-132533690D02*
X149844142Y-132571785D01*
X149844142Y-132571785D02*
X149882237Y-132533690D01*
X149882237Y-132533690D02*
X149844142Y-132495595D01*
X149844142Y-132495595D02*
X149844142Y-132571785D01*
X150110808Y-132762261D02*
X150415570Y-132762261D01*
X150225094Y-132495595D02*
X150225094Y-133181309D01*
X150225094Y-133181309D02*
X150263189Y-133257500D01*
X150263189Y-133257500D02*
X150339379Y-133295595D01*
X150339379Y-133295595D02*
X150415570Y-133295595D01*
X151025094Y-133295595D02*
X151025094Y-132876547D01*
X151025094Y-132876547D02*
X150986999Y-132800357D01*
X150986999Y-132800357D02*
X150910808Y-132762261D01*
X150910808Y-132762261D02*
X150758427Y-132762261D01*
X150758427Y-132762261D02*
X150682237Y-132800357D01*
X151025094Y-133257500D02*
X150948903Y-133295595D01*
X150948903Y-133295595D02*
X150758427Y-133295595D01*
X150758427Y-133295595D02*
X150682237Y-133257500D01*
X150682237Y-133257500D02*
X150644141Y-133181309D01*
X150644141Y-133181309D02*
X150644141Y-133105119D01*
X150644141Y-133105119D02*
X150682237Y-133028928D01*
X150682237Y-133028928D02*
X150758427Y-132990833D01*
X150758427Y-132990833D02*
X150948903Y-132990833D01*
X150948903Y-132990833D02*
X151025094Y-132952738D01*
X151406047Y-132762261D02*
X151406047Y-133295595D01*
X151406047Y-132838452D02*
X151444142Y-132800357D01*
X151444142Y-132800357D02*
X151520332Y-132762261D01*
X151520332Y-132762261D02*
X151634618Y-132762261D01*
X151634618Y-132762261D02*
X151710809Y-132800357D01*
X151710809Y-132800357D02*
X151748904Y-132876547D01*
X151748904Y-132876547D02*
X151748904Y-133295595D01*
X152472714Y-133257500D02*
X152396523Y-133295595D01*
X152396523Y-133295595D02*
X152244142Y-133295595D01*
X152244142Y-133295595D02*
X152167952Y-133257500D01*
X152167952Y-133257500D02*
X152129857Y-133219404D01*
X152129857Y-133219404D02*
X152091761Y-133143214D01*
X152091761Y-133143214D02*
X152091761Y-132914642D01*
X152091761Y-132914642D02*
X152129857Y-132838452D01*
X152129857Y-132838452D02*
X152167952Y-132800357D01*
X152167952Y-132800357D02*
X152244142Y-132762261D01*
X152244142Y-132762261D02*
X152396523Y-132762261D01*
X152396523Y-132762261D02*
X152472714Y-132800357D01*
X153120333Y-133257500D02*
X153044142Y-133295595D01*
X153044142Y-133295595D02*
X152891761Y-133295595D01*
X152891761Y-133295595D02*
X152815571Y-133257500D01*
X152815571Y-133257500D02*
X152777475Y-133181309D01*
X152777475Y-133181309D02*
X152777475Y-132876547D01*
X152777475Y-132876547D02*
X152815571Y-132800357D01*
X152815571Y-132800357D02*
X152891761Y-132762261D01*
X152891761Y-132762261D02*
X153044142Y-132762261D01*
X153044142Y-132762261D02*
X153120333Y-132800357D01*
X153120333Y-132800357D02*
X153158428Y-132876547D01*
X153158428Y-132876547D02*
X153158428Y-132952738D01*
X153158428Y-132952738D02*
X152777475Y-133028928D01*
D13*
X84666666Y-94564819D02*
X84666666Y-95279104D01*
X84666666Y-95279104D02*
X84619047Y-95421961D01*
X84619047Y-95421961D02*
X84523809Y-95517200D01*
X84523809Y-95517200D02*
X84380952Y-95564819D01*
X84380952Y-95564819D02*
X84285714Y-95564819D01*
X85047619Y-94564819D02*
X85714285Y-94564819D01*
X85714285Y-94564819D02*
X85285714Y-95564819D01*
X129590476Y-118404819D02*
X129590476Y-119119104D01*
X129590476Y-119119104D02*
X129542857Y-119261961D01*
X129542857Y-119261961D02*
X129447619Y-119357200D01*
X129447619Y-119357200D02*
X129304762Y-119404819D01*
X129304762Y-119404819D02*
X129209524Y-119404819D01*
X130590476Y-119404819D02*
X130019048Y-119404819D01*
X130304762Y-119404819D02*
X130304762Y-118404819D01*
X130304762Y-118404819D02*
X130209524Y-118547676D01*
X130209524Y-118547676D02*
X130114286Y-118642914D01*
X130114286Y-118642914D02*
X130019048Y-118690533D01*
X131542857Y-119404819D02*
X130971429Y-119404819D01*
X131257143Y-119404819D02*
X131257143Y-118404819D01*
X131257143Y-118404819D02*
X131161905Y-118547676D01*
X131161905Y-118547676D02*
X131066667Y-118642914D01*
X131066667Y-118642914D02*
X130971429Y-118690533D01*
X130190476Y-51404819D02*
X130190476Y-52119104D01*
X130190476Y-52119104D02*
X130142857Y-52261961D01*
X130142857Y-52261961D02*
X130047619Y-52357200D01*
X130047619Y-52357200D02*
X129904762Y-52404819D01*
X129904762Y-52404819D02*
X129809524Y-52404819D01*
X131190476Y-52404819D02*
X130619048Y-52404819D01*
X130904762Y-52404819D02*
X130904762Y-51404819D01*
X130904762Y-51404819D02*
X130809524Y-51547676D01*
X130809524Y-51547676D02*
X130714286Y-51642914D01*
X130714286Y-51642914D02*
X130619048Y-51690533D01*
X131809524Y-51404819D02*
X131904762Y-51404819D01*
X131904762Y-51404819D02*
X132000000Y-51452438D01*
X132000000Y-51452438D02*
X132047619Y-51500057D01*
X132047619Y-51500057D02*
X132095238Y-51595295D01*
X132095238Y-51595295D02*
X132142857Y-51785771D01*
X132142857Y-51785771D02*
X132142857Y-52023866D01*
X132142857Y-52023866D02*
X132095238Y-52214342D01*
X132095238Y-52214342D02*
X132047619Y-52309580D01*
X132047619Y-52309580D02*
X132000000Y-52357200D01*
X132000000Y-52357200D02*
X131904762Y-52404819D01*
X131904762Y-52404819D02*
X131809524Y-52404819D01*
X131809524Y-52404819D02*
X131714286Y-52357200D01*
X131714286Y-52357200D02*
X131666667Y-52309580D01*
X131666667Y-52309580D02*
X131619048Y-52214342D01*
X131619048Y-52214342D02*
X131571429Y-52023866D01*
X131571429Y-52023866D02*
X131571429Y-51785771D01*
X131571429Y-51785771D02*
X131619048Y-51595295D01*
X131619048Y-51595295D02*
X131666667Y-51500057D01*
X131666667Y-51500057D02*
X131714286Y-51452438D01*
X131714286Y-51452438D02*
X131809524Y-51404819D01*
X134059580Y-72066666D02*
X134107200Y-72114285D01*
X134107200Y-72114285D02*
X134154819Y-72257142D01*
X134154819Y-72257142D02*
X134154819Y-72352380D01*
X134154819Y-72352380D02*
X134107200Y-72495237D01*
X134107200Y-72495237D02*
X134011961Y-72590475D01*
X134011961Y-72590475D02*
X133916723Y-72638094D01*
X133916723Y-72638094D02*
X133726247Y-72685713D01*
X133726247Y-72685713D02*
X133583390Y-72685713D01*
X133583390Y-72685713D02*
X133392914Y-72638094D01*
X133392914Y-72638094D02*
X133297676Y-72590475D01*
X133297676Y-72590475D02*
X133202438Y-72495237D01*
X133202438Y-72495237D02*
X133154819Y-72352380D01*
X133154819Y-72352380D02*
X133154819Y-72257142D01*
X133154819Y-72257142D02*
X133202438Y-72114285D01*
X133202438Y-72114285D02*
X133250057Y-72066666D01*
X133250057Y-71685713D02*
X133202438Y-71638094D01*
X133202438Y-71638094D02*
X133154819Y-71542856D01*
X133154819Y-71542856D02*
X133154819Y-71304761D01*
X133154819Y-71304761D02*
X133202438Y-71209523D01*
X133202438Y-71209523D02*
X133250057Y-71161904D01*
X133250057Y-71161904D02*
X133345295Y-71114285D01*
X133345295Y-71114285D02*
X133440533Y-71114285D01*
X133440533Y-71114285D02*
X133583390Y-71161904D01*
X133583390Y-71161904D02*
X134154819Y-71733332D01*
X134154819Y-71733332D02*
X134154819Y-71114285D01*
X117866666Y-119124819D02*
X117866666Y-119839104D01*
X117866666Y-119839104D02*
X117819047Y-119981961D01*
X117819047Y-119981961D02*
X117723809Y-120077200D01*
X117723809Y-120077200D02*
X117580952Y-120124819D01*
X117580952Y-120124819D02*
X117485714Y-120124819D01*
X118771428Y-119124819D02*
X118580952Y-119124819D01*
X118580952Y-119124819D02*
X118485714Y-119172438D01*
X118485714Y-119172438D02*
X118438095Y-119220057D01*
X118438095Y-119220057D02*
X118342857Y-119362914D01*
X118342857Y-119362914D02*
X118295238Y-119553390D01*
X118295238Y-119553390D02*
X118295238Y-119934342D01*
X118295238Y-119934342D02*
X118342857Y-120029580D01*
X118342857Y-120029580D02*
X118390476Y-120077200D01*
X118390476Y-120077200D02*
X118485714Y-120124819D01*
X118485714Y-120124819D02*
X118676190Y-120124819D01*
X118676190Y-120124819D02*
X118771428Y-120077200D01*
X118771428Y-120077200D02*
X118819047Y-120029580D01*
X118819047Y-120029580D02*
X118866666Y-119934342D01*
X118866666Y-119934342D02*
X118866666Y-119696247D01*
X118866666Y-119696247D02*
X118819047Y-119601009D01*
X118819047Y-119601009D02*
X118771428Y-119553390D01*
X118771428Y-119553390D02*
X118676190Y-119505771D01*
X118676190Y-119505771D02*
X118485714Y-119505771D01*
X118485714Y-119505771D02*
X118390476Y-119553390D01*
X118390476Y-119553390D02*
X118342857Y-119601009D01*
X118342857Y-119601009D02*
X118295238Y-119696247D01*
X117866666Y-58984819D02*
X117866666Y-59699104D01*
X117866666Y-59699104D02*
X117819047Y-59841961D01*
X117819047Y-59841961D02*
X117723809Y-59937200D01*
X117723809Y-59937200D02*
X117580952Y-59984819D01*
X117580952Y-59984819D02*
X117485714Y-59984819D01*
X118295238Y-59080057D02*
X118342857Y-59032438D01*
X118342857Y-59032438D02*
X118438095Y-58984819D01*
X118438095Y-58984819D02*
X118676190Y-58984819D01*
X118676190Y-58984819D02*
X118771428Y-59032438D01*
X118771428Y-59032438D02*
X118819047Y-59080057D01*
X118819047Y-59080057D02*
X118866666Y-59175295D01*
X118866666Y-59175295D02*
X118866666Y-59270533D01*
X118866666Y-59270533D02*
X118819047Y-59413390D01*
X118819047Y-59413390D02*
X118247619Y-59984819D01*
X118247619Y-59984819D02*
X118866666Y-59984819D01*
X124866666Y-84384819D02*
X124866666Y-85099104D01*
X124866666Y-85099104D02*
X124819047Y-85241961D01*
X124819047Y-85241961D02*
X124723809Y-85337200D01*
X124723809Y-85337200D02*
X124580952Y-85384819D01*
X124580952Y-85384819D02*
X124485714Y-85384819D01*
X125866666Y-85384819D02*
X125295238Y-85384819D01*
X125580952Y-85384819D02*
X125580952Y-84384819D01*
X125580952Y-84384819D02*
X125485714Y-84527676D01*
X125485714Y-84527676D02*
X125390476Y-84622914D01*
X125390476Y-84622914D02*
X125295238Y-84670533D01*
X135670595Y-130919819D02*
X135670595Y-131729342D01*
X135670595Y-131729342D02*
X135718214Y-131824580D01*
X135718214Y-131824580D02*
X135765833Y-131872200D01*
X135765833Y-131872200D02*
X135861071Y-131919819D01*
X135861071Y-131919819D02*
X136051547Y-131919819D01*
X136051547Y-131919819D02*
X136146785Y-131872200D01*
X136146785Y-131872200D02*
X136194404Y-131824580D01*
X136194404Y-131824580D02*
X136242023Y-131729342D01*
X136242023Y-131729342D02*
X136242023Y-130919819D01*
X136670595Y-131015057D02*
X136718214Y-130967438D01*
X136718214Y-130967438D02*
X136813452Y-130919819D01*
X136813452Y-130919819D02*
X137051547Y-130919819D01*
X137051547Y-130919819D02*
X137146785Y-130967438D01*
X137146785Y-130967438D02*
X137194404Y-131015057D01*
X137194404Y-131015057D02*
X137242023Y-131110295D01*
X137242023Y-131110295D02*
X137242023Y-131205533D01*
X137242023Y-131205533D02*
X137194404Y-131348390D01*
X137194404Y-131348390D02*
X136622976Y-131919819D01*
X136622976Y-131919819D02*
X137242023Y-131919819D01*
X127624819Y-147966666D02*
X127148628Y-148299999D01*
X127624819Y-148538094D02*
X126624819Y-148538094D01*
X126624819Y-148538094D02*
X126624819Y-148157142D01*
X126624819Y-148157142D02*
X126672438Y-148061904D01*
X126672438Y-148061904D02*
X126720057Y-148014285D01*
X126720057Y-148014285D02*
X126815295Y-147966666D01*
X126815295Y-147966666D02*
X126958152Y-147966666D01*
X126958152Y-147966666D02*
X127053390Y-148014285D01*
X127053390Y-148014285D02*
X127101009Y-148061904D01*
X127101009Y-148061904D02*
X127148628Y-148157142D01*
X127148628Y-148157142D02*
X127148628Y-148538094D01*
X126624819Y-147633332D02*
X126624819Y-147014285D01*
X126624819Y-147014285D02*
X127005771Y-147347618D01*
X127005771Y-147347618D02*
X127005771Y-147204761D01*
X127005771Y-147204761D02*
X127053390Y-147109523D01*
X127053390Y-147109523D02*
X127101009Y-147061904D01*
X127101009Y-147061904D02*
X127196247Y-147014285D01*
X127196247Y-147014285D02*
X127434342Y-147014285D01*
X127434342Y-147014285D02*
X127529580Y-147061904D01*
X127529580Y-147061904D02*
X127577200Y-147109523D01*
X127577200Y-147109523D02*
X127624819Y-147204761D01*
X127624819Y-147204761D02*
X127624819Y-147490475D01*
X127624819Y-147490475D02*
X127577200Y-147585713D01*
X127577200Y-147585713D02*
X127529580Y-147633332D01*
X128024819Y-58756666D02*
X127548628Y-59089999D01*
X128024819Y-59328094D02*
X127024819Y-59328094D01*
X127024819Y-59328094D02*
X127024819Y-58947142D01*
X127024819Y-58947142D02*
X127072438Y-58851904D01*
X127072438Y-58851904D02*
X127120057Y-58804285D01*
X127120057Y-58804285D02*
X127215295Y-58756666D01*
X127215295Y-58756666D02*
X127358152Y-58756666D01*
X127358152Y-58756666D02*
X127453390Y-58804285D01*
X127453390Y-58804285D02*
X127501009Y-58851904D01*
X127501009Y-58851904D02*
X127548628Y-58947142D01*
X127548628Y-58947142D02*
X127548628Y-59328094D01*
X128024819Y-57804285D02*
X128024819Y-58375713D01*
X128024819Y-58089999D02*
X127024819Y-58089999D01*
X127024819Y-58089999D02*
X127167676Y-58185237D01*
X127167676Y-58185237D02*
X127262914Y-58280475D01*
X127262914Y-58280475D02*
X127310533Y-58375713D01*
X146291666Y-134234819D02*
X146291666Y-134949104D01*
X146291666Y-134949104D02*
X146244047Y-135091961D01*
X146244047Y-135091961D02*
X146148809Y-135187200D01*
X146148809Y-135187200D02*
X146005952Y-135234819D01*
X146005952Y-135234819D02*
X145910714Y-135234819D01*
X146815476Y-135234819D02*
X147005952Y-135234819D01*
X147005952Y-135234819D02*
X147101190Y-135187200D01*
X147101190Y-135187200D02*
X147148809Y-135139580D01*
X147148809Y-135139580D02*
X147244047Y-134996723D01*
X147244047Y-134996723D02*
X147291666Y-134806247D01*
X147291666Y-134806247D02*
X147291666Y-134425295D01*
X147291666Y-134425295D02*
X147244047Y-134330057D01*
X147244047Y-134330057D02*
X147196428Y-134282438D01*
X147196428Y-134282438D02*
X147101190Y-134234819D01*
X147101190Y-134234819D02*
X146910714Y-134234819D01*
X146910714Y-134234819D02*
X146815476Y-134282438D01*
X146815476Y-134282438D02*
X146767857Y-134330057D01*
X146767857Y-134330057D02*
X146720238Y-134425295D01*
X146720238Y-134425295D02*
X146720238Y-134663390D01*
X146720238Y-134663390D02*
X146767857Y-134758628D01*
X146767857Y-134758628D02*
X146815476Y-134806247D01*
X146815476Y-134806247D02*
X146910714Y-134853866D01*
X146910714Y-134853866D02*
X147101190Y-134853866D01*
X147101190Y-134853866D02*
X147196428Y-134806247D01*
X147196428Y-134806247D02*
X147244047Y-134758628D01*
X147244047Y-134758628D02*
X147291666Y-134663390D01*
X84666666Y-67104819D02*
X84666666Y-67819104D01*
X84666666Y-67819104D02*
X84619047Y-67961961D01*
X84619047Y-67961961D02*
X84523809Y-68057200D01*
X84523809Y-68057200D02*
X84380952Y-68104819D01*
X84380952Y-68104819D02*
X84285714Y-68104819D01*
X85571428Y-67438152D02*
X85571428Y-68104819D01*
X85333333Y-67057200D02*
X85095238Y-67771485D01*
X85095238Y-67771485D02*
X85714285Y-67771485D01*
X84641666Y-73274819D02*
X84641666Y-73989104D01*
X84641666Y-73989104D02*
X84594047Y-74131961D01*
X84594047Y-74131961D02*
X84498809Y-74227200D01*
X84498809Y-74227200D02*
X84355952Y-74274819D01*
X84355952Y-74274819D02*
X84260714Y-74274819D01*
X85594047Y-73274819D02*
X85117857Y-73274819D01*
X85117857Y-73274819D02*
X85070238Y-73751009D01*
X85070238Y-73751009D02*
X85117857Y-73703390D01*
X85117857Y-73703390D02*
X85213095Y-73655771D01*
X85213095Y-73655771D02*
X85451190Y-73655771D01*
X85451190Y-73655771D02*
X85546428Y-73703390D01*
X85546428Y-73703390D02*
X85594047Y-73751009D01*
X85594047Y-73751009D02*
X85641666Y-73846247D01*
X85641666Y-73846247D02*
X85641666Y-74084342D01*
X85641666Y-74084342D02*
X85594047Y-74179580D01*
X85594047Y-74179580D02*
X85546428Y-74227200D01*
X85546428Y-74227200D02*
X85451190Y-74274819D01*
X85451190Y-74274819D02*
X85213095Y-74274819D01*
X85213095Y-74274819D02*
X85117857Y-74227200D01*
X85117857Y-74227200D02*
X85070238Y-74179580D01*
X84666666Y-117384819D02*
X84666666Y-118099104D01*
X84666666Y-118099104D02*
X84619047Y-118241961D01*
X84619047Y-118241961D02*
X84523809Y-118337200D01*
X84523809Y-118337200D02*
X84380952Y-118384819D01*
X84380952Y-118384819D02*
X84285714Y-118384819D01*
X85047619Y-117384819D02*
X85666666Y-117384819D01*
X85666666Y-117384819D02*
X85333333Y-117765771D01*
X85333333Y-117765771D02*
X85476190Y-117765771D01*
X85476190Y-117765771D02*
X85571428Y-117813390D01*
X85571428Y-117813390D02*
X85619047Y-117861009D01*
X85619047Y-117861009D02*
X85666666Y-117956247D01*
X85666666Y-117956247D02*
X85666666Y-118194342D01*
X85666666Y-118194342D02*
X85619047Y-118289580D01*
X85619047Y-118289580D02*
X85571428Y-118337200D01*
X85571428Y-118337200D02*
X85476190Y-118384819D01*
X85476190Y-118384819D02*
X85190476Y-118384819D01*
X85190476Y-118384819D02*
X85095238Y-118337200D01*
X85095238Y-118337200D02*
X85047619Y-118289580D01*
X120552080Y-126526666D02*
X120599700Y-126574285D01*
X120599700Y-126574285D02*
X120647319Y-126717142D01*
X120647319Y-126717142D02*
X120647319Y-126812380D01*
X120647319Y-126812380D02*
X120599700Y-126955237D01*
X120599700Y-126955237D02*
X120504461Y-127050475D01*
X120504461Y-127050475D02*
X120409223Y-127098094D01*
X120409223Y-127098094D02*
X120218747Y-127145713D01*
X120218747Y-127145713D02*
X120075890Y-127145713D01*
X120075890Y-127145713D02*
X119885414Y-127098094D01*
X119885414Y-127098094D02*
X119790176Y-127050475D01*
X119790176Y-127050475D02*
X119694938Y-126955237D01*
X119694938Y-126955237D02*
X119647319Y-126812380D01*
X119647319Y-126812380D02*
X119647319Y-126717142D01*
X119647319Y-126717142D02*
X119694938Y-126574285D01*
X119694938Y-126574285D02*
X119742557Y-126526666D01*
X120647319Y-125574285D02*
X120647319Y-126145713D01*
X120647319Y-125859999D02*
X119647319Y-125859999D01*
X119647319Y-125859999D02*
X119790176Y-125955237D01*
X119790176Y-125955237D02*
X119885414Y-126050475D01*
X119885414Y-126050475D02*
X119933033Y-126145713D01*
X127517319Y-127826666D02*
X127041128Y-128159999D01*
X127517319Y-128398094D02*
X126517319Y-128398094D01*
X126517319Y-128398094D02*
X126517319Y-128017142D01*
X126517319Y-128017142D02*
X126564938Y-127921904D01*
X126564938Y-127921904D02*
X126612557Y-127874285D01*
X126612557Y-127874285D02*
X126707795Y-127826666D01*
X126707795Y-127826666D02*
X126850652Y-127826666D01*
X126850652Y-127826666D02*
X126945890Y-127874285D01*
X126945890Y-127874285D02*
X126993509Y-127921904D01*
X126993509Y-127921904D02*
X127041128Y-128017142D01*
X127041128Y-128017142D02*
X127041128Y-128398094D01*
X126612557Y-127445713D02*
X126564938Y-127398094D01*
X126564938Y-127398094D02*
X126517319Y-127302856D01*
X126517319Y-127302856D02*
X126517319Y-127064761D01*
X126517319Y-127064761D02*
X126564938Y-126969523D01*
X126564938Y-126969523D02*
X126612557Y-126921904D01*
X126612557Y-126921904D02*
X126707795Y-126874285D01*
X126707795Y-126874285D02*
X126803033Y-126874285D01*
X126803033Y-126874285D02*
X126945890Y-126921904D01*
X126945890Y-126921904D02*
X127517319Y-127493332D01*
X127517319Y-127493332D02*
X127517319Y-126874285D01*
X87279819Y-147586904D02*
X88089342Y-147586904D01*
X88089342Y-147586904D02*
X88184580Y-147539285D01*
X88184580Y-147539285D02*
X88232200Y-147491666D01*
X88232200Y-147491666D02*
X88279819Y-147396428D01*
X88279819Y-147396428D02*
X88279819Y-147205952D01*
X88279819Y-147205952D02*
X88232200Y-147110714D01*
X88232200Y-147110714D02*
X88184580Y-147063095D01*
X88184580Y-147063095D02*
X88089342Y-147015476D01*
X88089342Y-147015476D02*
X87279819Y-147015476D01*
X88279819Y-146015476D02*
X88279819Y-146586904D01*
X88279819Y-146301190D02*
X87279819Y-146301190D01*
X87279819Y-146301190D02*
X87422676Y-146396428D01*
X87422676Y-146396428D02*
X87517914Y-146491666D01*
X87517914Y-146491666D02*
X87565533Y-146586904D01*
X117866666Y-97584819D02*
X117866666Y-98299104D01*
X117866666Y-98299104D02*
X117819047Y-98441961D01*
X117819047Y-98441961D02*
X117723809Y-98537200D01*
X117723809Y-98537200D02*
X117580952Y-98584819D01*
X117580952Y-98584819D02*
X117485714Y-98584819D01*
X118485714Y-98013390D02*
X118390476Y-97965771D01*
X118390476Y-97965771D02*
X118342857Y-97918152D01*
X118342857Y-97918152D02*
X118295238Y-97822914D01*
X118295238Y-97822914D02*
X118295238Y-97775295D01*
X118295238Y-97775295D02*
X118342857Y-97680057D01*
X118342857Y-97680057D02*
X118390476Y-97632438D01*
X118390476Y-97632438D02*
X118485714Y-97584819D01*
X118485714Y-97584819D02*
X118676190Y-97584819D01*
X118676190Y-97584819D02*
X118771428Y-97632438D01*
X118771428Y-97632438D02*
X118819047Y-97680057D01*
X118819047Y-97680057D02*
X118866666Y-97775295D01*
X118866666Y-97775295D02*
X118866666Y-97822914D01*
X118866666Y-97822914D02*
X118819047Y-97918152D01*
X118819047Y-97918152D02*
X118771428Y-97965771D01*
X118771428Y-97965771D02*
X118676190Y-98013390D01*
X118676190Y-98013390D02*
X118485714Y-98013390D01*
X118485714Y-98013390D02*
X118390476Y-98061009D01*
X118390476Y-98061009D02*
X118342857Y-98108628D01*
X118342857Y-98108628D02*
X118295238Y-98203866D01*
X118295238Y-98203866D02*
X118295238Y-98394342D01*
X118295238Y-98394342D02*
X118342857Y-98489580D01*
X118342857Y-98489580D02*
X118390476Y-98537200D01*
X118390476Y-98537200D02*
X118485714Y-98584819D01*
X118485714Y-98584819D02*
X118676190Y-98584819D01*
X118676190Y-98584819D02*
X118771428Y-98537200D01*
X118771428Y-98537200D02*
X118819047Y-98489580D01*
X118819047Y-98489580D02*
X118866666Y-98394342D01*
X118866666Y-98394342D02*
X118866666Y-98203866D01*
X118866666Y-98203866D02*
X118819047Y-98108628D01*
X118819047Y-98108628D02*
X118771428Y-98061009D01*
X118771428Y-98061009D02*
X118676190Y-98013390D01*
D14*
%TO.C,J7*%
X86330000Y-94110000D02*
X85000000Y-94110000D01*
X86330000Y-92780000D02*
X86330000Y-94110000D01*
X86330000Y-91510000D02*
X86330000Y-73670000D01*
X86330000Y-91510000D02*
X83670000Y-91510000D01*
X86330000Y-73670000D02*
X83670000Y-73670000D01*
X83670000Y-91510000D02*
X83670000Y-73670000D01*
%TO.C,J11*%
X129070000Y-122990000D02*
X129070000Y-128130000D01*
X129070000Y-122990000D02*
X131730000Y-122990000D01*
X129070000Y-128130000D02*
X131730000Y-128130000D01*
X130400000Y-120390000D02*
X131730000Y-120390000D01*
X131730000Y-120390000D02*
X131730000Y-121720000D01*
X131730000Y-122990000D02*
X131730000Y-128130000D01*
%TO.C,J10*%
X129670000Y-55990000D02*
X129670000Y-61130000D01*
X129670000Y-55990000D02*
X132330000Y-55990000D01*
X129670000Y-61130000D02*
X132330000Y-61130000D01*
X131000000Y-53390000D02*
X132330000Y-53390000D01*
X132330000Y-53390000D02*
X132330000Y-54720000D01*
X132330000Y-55990000D02*
X132330000Y-61130000D01*
%TO.C,C2*%
X132570000Y-69280000D02*
X132255000Y-69280000D01*
X132570000Y-69280000D02*
X132570000Y-74520000D01*
X130145000Y-69280000D02*
X129830000Y-69280000D01*
X129830000Y-69280000D02*
X129830000Y-74520000D01*
X132570000Y-74520000D02*
X132255000Y-74520000D01*
X130145000Y-74520000D02*
X129830000Y-74520000D01*
%TO.C,J6*%
X116870000Y-115630000D02*
X116870000Y-97790000D01*
X116870000Y-118230000D02*
X116870000Y-116900000D01*
X118200000Y-118230000D02*
X116870000Y-118230000D01*
X119530000Y-97790000D02*
X116870000Y-97790000D01*
X119530000Y-115630000D02*
X116870000Y-115630000D01*
X119530000Y-115630000D02*
X119530000Y-97790000D01*
%TO.C,J2*%
X116870000Y-63570000D02*
X116870000Y-78870000D01*
X116870000Y-63570000D02*
X119530000Y-63570000D01*
X116870000Y-78870000D02*
X119530000Y-78870000D01*
X118200000Y-60970000D02*
X119530000Y-60970000D01*
X119530000Y-60970000D02*
X119530000Y-62300000D01*
X119530000Y-63570000D02*
X119530000Y-78870000D01*
%TO.C,J1*%
X123870000Y-81330000D02*
X123870000Y-78730000D01*
X126530000Y-78730000D02*
X123870000Y-78730000D01*
X126530000Y-81330000D02*
X123870000Y-81330000D01*
X126530000Y-81330000D02*
X126530000Y-78730000D01*
X126530000Y-82600000D02*
X126530000Y-83930000D01*
X126530000Y-83930000D02*
X125200000Y-83930000D01*
D15*
%TO.C,U2*%
X134887500Y-132947500D02*
X141237500Y-132947500D01*
X134887500Y-134075000D02*
X134887500Y-132947500D01*
X134887500Y-152252500D02*
X134887500Y-151125000D01*
X141237500Y-132947500D02*
X141237500Y-134075000D01*
X141237500Y-151125000D02*
X141237500Y-152252500D01*
X141237500Y-152252500D02*
X134887500Y-152252500D01*
D11*
X132607500Y-134980000D02*
G75*
G02*
X132407500Y-134980000I-100000J0D01*
G01*
X132407500Y-134980000D02*
G75*
G02*
X132607500Y-134980000I100000J0D01*
G01*
D14*
%TO.C,R3*%
X123430000Y-144530000D02*
X123430000Y-151070000D01*
X123430000Y-151070000D02*
X123760000Y-151070000D01*
X123760000Y-144530000D02*
X123430000Y-144530000D01*
X125840000Y-144530000D02*
X126170000Y-144530000D01*
X126170000Y-144530000D02*
X126170000Y-151070000D01*
X126170000Y-151070000D02*
X125840000Y-151070000D01*
%TO.C,R1*%
X123830000Y-55320000D02*
X123830000Y-61860000D01*
X123830000Y-61860000D02*
X124160000Y-61860000D01*
X124160000Y-55320000D02*
X123830000Y-55320000D01*
X126240000Y-55320000D02*
X126570000Y-55320000D01*
X126570000Y-55320000D02*
X126570000Y-61860000D01*
X126570000Y-61860000D02*
X126240000Y-61860000D01*
%TO.C,J9*%
X145295000Y-138820000D02*
X145295000Y-141420000D01*
X145295000Y-138820000D02*
X147955000Y-138820000D01*
X145295000Y-141420000D02*
X147955000Y-141420000D01*
X146625000Y-136220000D02*
X147955000Y-136220000D01*
X147955000Y-136220000D02*
X147955000Y-137550000D01*
X147955000Y-138820000D02*
X147955000Y-141420000D01*
%TO.C,J4*%
X83670000Y-63610000D02*
X83670000Y-53390000D01*
X83670000Y-66210000D02*
X83670000Y-64880000D01*
X85000000Y-66210000D02*
X83670000Y-66210000D01*
X86330000Y-53390000D02*
X83670000Y-53390000D01*
X86330000Y-63610000D02*
X83670000Y-63610000D01*
X86330000Y-63610000D02*
X86330000Y-53390000D01*
%TO.C,J5*%
X83645000Y-69780000D02*
X83645000Y-67180000D01*
X83645000Y-72380000D02*
X83645000Y-71050000D01*
X84975000Y-72380000D02*
X83645000Y-72380000D01*
X86305000Y-67180000D02*
X83645000Y-67180000D01*
X86305000Y-69780000D02*
X83645000Y-69780000D01*
X86305000Y-69780000D02*
X86305000Y-67180000D01*
%TO.C,J3*%
X83670000Y-113890000D02*
X83670000Y-96050000D01*
X83670000Y-116490000D02*
X83670000Y-115160000D01*
X85000000Y-116490000D02*
X83670000Y-116490000D01*
X86330000Y-96050000D02*
X83670000Y-96050000D01*
X86330000Y-113890000D02*
X83670000Y-113890000D01*
X86330000Y-113890000D02*
X86330000Y-96050000D01*
%TO.C,C1*%
X116322500Y-123740000D02*
X116322500Y-128980000D01*
X116637500Y-123740000D02*
X116322500Y-123740000D01*
X116637500Y-128980000D02*
X116322500Y-128980000D01*
X119062500Y-123740000D02*
X118747500Y-123740000D01*
X119062500Y-123740000D02*
X119062500Y-128980000D01*
X119062500Y-128980000D02*
X118747500Y-128980000D01*
%TO.C,R2*%
X123322500Y-124390000D02*
X123322500Y-130930000D01*
X123322500Y-130930000D02*
X123652500Y-130930000D01*
X123652500Y-124390000D02*
X123322500Y-124390000D01*
X125732500Y-124390000D02*
X126062500Y-124390000D01*
X126062500Y-124390000D02*
X126062500Y-130930000D01*
X126062500Y-130930000D02*
X125732500Y-130930000D01*
D15*
%TO.C,U1*%
X89102600Y-52210000D02*
X89102600Y-149746000D01*
X89102600Y-149746000D02*
X113225000Y-149746000D01*
X113225000Y-52210000D02*
X89102600Y-52210000D01*
X113225000Y-149746000D02*
X113225000Y-52210000D01*
D14*
%TO.C,J8*%
X116870000Y-94090000D02*
X116870000Y-81330000D01*
X116870000Y-96690000D02*
X116870000Y-95360000D01*
X118200000Y-96690000D02*
X116870000Y-96690000D01*
X119530000Y-81330000D02*
X116870000Y-81330000D01*
X119530000Y-94090000D02*
X116870000Y-94090000D01*
X119530000Y-94090000D02*
X119530000Y-81330000D01*
%TD*%
M02*
