%TF.GenerationSoftware,KiCad,Pcbnew,8.0.6*%
%TF.CreationDate,2025-04-20T20:46:27+08:00*%
%TF.ProjectId,external_chamber,65787465-726e-4616-9c5f-6368616d6265,rev?*%
%TF.SameCoordinates,Original*%
%TF.FileFunction,Plated,1,2,PTH,Drill*%
%TF.FilePolarity,Positive*%
%FSLAX46Y46*%
G04 Gerber Fmt 4.6, Leading zero omitted, Abs format (unit mm)*
G04 Created by KiCad (PCBNEW 8.0.6) date 2025-04-20 20:46:27*
%MOMM*%
%LPD*%
G01*
G04 APERTURE LIST*
%TA.AperFunction,ComponentDrill*%
%ADD10C,0.740000*%
%TD*%
%TA.AperFunction,ComponentDrill*%
%ADD11C,0.800000*%
%TD*%
%TA.AperFunction,ComponentDrill*%
%ADD12C,1.000000*%
%TD*%
%TA.AperFunction,ComponentDrill*%
%ADD13C,1.020000*%
%TD*%
G04 APERTURE END LIST*
D10*
%TO.C,U2*%
X134092500Y-134980000D03*
X134092500Y-137520000D03*
X134092500Y-140060000D03*
X134092500Y-142600000D03*
X134092500Y-145140000D03*
X134092500Y-147680000D03*
X134092500Y-150220000D03*
X142032500Y-134980000D03*
X142032500Y-137520000D03*
X142032500Y-140060000D03*
X142032500Y-142600000D03*
X142032500Y-145140000D03*
X142032500Y-147680000D03*
X142032500Y-150220000D03*
D11*
%TO.C,C1*%
X117692500Y-123860000D03*
X117692500Y-128860000D03*
%TO.C,R2*%
X124692500Y-123850000D03*
X124692500Y-131470000D03*
%TO.C,R3*%
X124800000Y-143990000D03*
X124800000Y-151610000D03*
%TO.C,R1*%
X125200000Y-54780000D03*
X125200000Y-62400000D03*
%TO.C,C2*%
X131200000Y-69400000D03*
X131200000Y-74400000D03*
D12*
%TO.C,J5*%
X84975000Y-68510000D03*
X84975000Y-71050000D03*
%TO.C,J4*%
X85000000Y-54720000D03*
X85000000Y-57260000D03*
X85000000Y-59800000D03*
X85000000Y-62340000D03*
X85000000Y-64880000D03*
%TO.C,J7*%
X85000000Y-75000000D03*
X85000000Y-77540000D03*
X85000000Y-80080000D03*
X85000000Y-82620000D03*
X85000000Y-85160000D03*
X85000000Y-87700000D03*
X85000000Y-90240000D03*
X85000000Y-92780000D03*
%TO.C,J3*%
X85000000Y-97380000D03*
X85000000Y-99920000D03*
X85000000Y-102460000D03*
X85000000Y-105000000D03*
X85000000Y-107540000D03*
X85000000Y-110080000D03*
X85000000Y-112620000D03*
X85000000Y-115160000D03*
%TO.C,J2*%
X118200000Y-62300000D03*
X118200000Y-64840000D03*
X118200000Y-67380000D03*
X118200000Y-69920000D03*
X118200000Y-72460000D03*
X118200000Y-75000000D03*
X118200000Y-77540000D03*
%TO.C,J8*%
X118200000Y-82660000D03*
X118200000Y-85200000D03*
X118200000Y-87740000D03*
X118200000Y-90280000D03*
X118200000Y-92820000D03*
X118200000Y-95360000D03*
%TO.C,J6*%
X118200000Y-99120000D03*
X118200000Y-101660000D03*
X118200000Y-104200000D03*
X118200000Y-106740000D03*
X118200000Y-109280000D03*
X118200000Y-111820000D03*
X118200000Y-114360000D03*
X118200000Y-116900000D03*
%TO.C,J1*%
X125200000Y-80060000D03*
X125200000Y-82600000D03*
%TO.C,J11*%
X130400000Y-121720000D03*
X130400000Y-124260000D03*
X130400000Y-126800000D03*
%TO.C,J10*%
X131000000Y-54720000D03*
X131000000Y-57260000D03*
X131000000Y-59800000D03*
%TO.C,J9*%
X146625000Y-137550000D03*
X146625000Y-140090000D03*
D13*
%TO.C,U1*%
X91000000Y-54750000D03*
X91000000Y-57290000D03*
X91000000Y-59830000D03*
X91000000Y-62370000D03*
X91000000Y-64910000D03*
X91000000Y-67450000D03*
X91000000Y-69990000D03*
X91000000Y-72530000D03*
X91000000Y-75070000D03*
X91000000Y-77610000D03*
X91000000Y-80150000D03*
X91000000Y-82690000D03*
X91000000Y-85230000D03*
X91000000Y-87770000D03*
X91000000Y-90310000D03*
X91000000Y-92850000D03*
X91000000Y-95390000D03*
X91000000Y-97930000D03*
X91000000Y-100470000D03*
X91000000Y-103010000D03*
X91000000Y-105550000D03*
X91000000Y-108090000D03*
X91000000Y-110630000D03*
X91000000Y-113170000D03*
X91000000Y-115710000D03*
X91000000Y-118250000D03*
X91000000Y-130950000D03*
X91000000Y-133490000D03*
X91000000Y-136030000D03*
X91000000Y-138570000D03*
X91000000Y-141110000D03*
X91000000Y-143650000D03*
X91000000Y-146190000D03*
X111320000Y-54750000D03*
X111320000Y-57290000D03*
X111320000Y-59830000D03*
X111320000Y-62370000D03*
X111320000Y-64910000D03*
X111320000Y-67450000D03*
X111320000Y-69990000D03*
X111320000Y-72530000D03*
X111320000Y-75070000D03*
X111320000Y-77610000D03*
X111320000Y-80150000D03*
X111320000Y-82690000D03*
X111320000Y-85230000D03*
X111320000Y-87770000D03*
X111320000Y-90310000D03*
X111320000Y-92850000D03*
X111320000Y-95390000D03*
X111320000Y-97930000D03*
X111320000Y-100470000D03*
X111320000Y-103010000D03*
X111320000Y-105550000D03*
X111320000Y-108090000D03*
X111320000Y-110630000D03*
X111320000Y-113170000D03*
X111320000Y-115710000D03*
X111320000Y-118250000D03*
X111320000Y-130950000D03*
X111320000Y-133490000D03*
X111320000Y-136030000D03*
X111320000Y-138570000D03*
X111320000Y-141110000D03*
X111320000Y-143650000D03*
X111320000Y-146190000D03*
M02*
