%TF.GenerationSoftware,KiCad,Pcbnew,8.0.6*%
%TF.CreationDate,2025-03-25T14:01:10+08:00*%
%TF.ProjectId,external_chamber,65787465-726e-4616-9c5f-6368616d6265,rev?*%
%TF.SameCoordinates,Original*%
%TF.FileFunction,Legend,Top*%
%TF.FilePolarity,Positive*%
%FSLAX46Y46*%
G04 Gerber Fmt 4.6, Leading zero omitted, Abs format (unit mm)*
G04 Created by KiCad (PCBNEW 8.0.6) date 2025-03-25 14:01:10*
%MOMM*%
%LPD*%
G01*
G04 APERTURE LIST*
%ADD10C,0.125000*%
%ADD11C,0.200000*%
%ADD12C,0.150000*%
%ADD13C,0.120000*%
%ADD14C,0.127000*%
G04 APERTURE END LIST*
D10*
X82295595Y-92327287D02*
X81495595Y-92327287D01*
X81571785Y-91984431D02*
X81533690Y-91946335D01*
X81533690Y-91946335D02*
X81495595Y-91870145D01*
X81495595Y-91870145D02*
X81495595Y-91679669D01*
X81495595Y-91679669D02*
X81533690Y-91603478D01*
X81533690Y-91603478D02*
X81571785Y-91565383D01*
X81571785Y-91565383D02*
X81647976Y-91527288D01*
X81647976Y-91527288D02*
X81724166Y-91527288D01*
X81724166Y-91527288D02*
X81838452Y-91565383D01*
X81838452Y-91565383D02*
X82295595Y-92022526D01*
X82295595Y-92022526D02*
X82295595Y-91527288D01*
X82219404Y-90727287D02*
X82257500Y-90765383D01*
X82257500Y-90765383D02*
X82295595Y-90879668D01*
X82295595Y-90879668D02*
X82295595Y-90955859D01*
X82295595Y-90955859D02*
X82257500Y-91070145D01*
X82257500Y-91070145D02*
X82181309Y-91146335D01*
X82181309Y-91146335D02*
X82105119Y-91184430D01*
X82105119Y-91184430D02*
X81952738Y-91222526D01*
X81952738Y-91222526D02*
X81838452Y-91222526D01*
X81838452Y-91222526D02*
X81686071Y-91184430D01*
X81686071Y-91184430D02*
X81609880Y-91146335D01*
X81609880Y-91146335D02*
X81533690Y-91070145D01*
X81533690Y-91070145D02*
X81495595Y-90955859D01*
X81495595Y-90955859D02*
X81495595Y-90879668D01*
X81495595Y-90879668D02*
X81533690Y-90765383D01*
X81533690Y-90765383D02*
X81571785Y-90727287D01*
D11*
X83000000Y-89000000D02*
X87000000Y-89000000D01*
X87000000Y-94800000D01*
X83000000Y-94800000D01*
X83000000Y-89000000D01*
D10*
X143672712Y-133295595D02*
X143672712Y-132495595D01*
X144053664Y-133295595D02*
X144053664Y-132495595D01*
X144053664Y-132495595D02*
X144244140Y-132495595D01*
X144244140Y-132495595D02*
X144358426Y-132533690D01*
X144358426Y-132533690D02*
X144434616Y-132609880D01*
X144434616Y-132609880D02*
X144472711Y-132686071D01*
X144472711Y-132686071D02*
X144510807Y-132838452D01*
X144510807Y-132838452D02*
X144510807Y-132952738D01*
X144510807Y-132952738D02*
X144472711Y-133105119D01*
X144472711Y-133105119D02*
X144434616Y-133181309D01*
X144434616Y-133181309D02*
X144358426Y-133257500D01*
X144358426Y-133257500D02*
X144244140Y-133295595D01*
X144244140Y-133295595D02*
X144053664Y-133295595D01*
X144853664Y-132876547D02*
X145120330Y-132876547D01*
X145234616Y-133295595D02*
X144853664Y-133295595D01*
X144853664Y-133295595D02*
X144853664Y-132495595D01*
X144853664Y-132495595D02*
X145234616Y-132495595D01*
X146644141Y-133219404D02*
X146606045Y-133257500D01*
X146606045Y-133257500D02*
X146491760Y-133295595D01*
X146491760Y-133295595D02*
X146415569Y-133295595D01*
X146415569Y-133295595D02*
X146301283Y-133257500D01*
X146301283Y-133257500D02*
X146225093Y-133181309D01*
X146225093Y-133181309D02*
X146186998Y-133105119D01*
X146186998Y-133105119D02*
X146148902Y-132952738D01*
X146148902Y-132952738D02*
X146148902Y-132838452D01*
X146148902Y-132838452D02*
X146186998Y-132686071D01*
X146186998Y-132686071D02*
X146225093Y-132609880D01*
X146225093Y-132609880D02*
X146301283Y-132533690D01*
X146301283Y-132533690D02*
X146415569Y-132495595D01*
X146415569Y-132495595D02*
X146491760Y-132495595D01*
X146491760Y-132495595D02*
X146606045Y-132533690D01*
X146606045Y-132533690D02*
X146644141Y-132571785D01*
X147329855Y-133295595D02*
X147329855Y-132876547D01*
X147329855Y-132876547D02*
X147291760Y-132800357D01*
X147291760Y-132800357D02*
X147215569Y-132762261D01*
X147215569Y-132762261D02*
X147063188Y-132762261D01*
X147063188Y-132762261D02*
X146986998Y-132800357D01*
X147329855Y-133257500D02*
X147253664Y-133295595D01*
X147253664Y-133295595D02*
X147063188Y-133295595D01*
X147063188Y-133295595D02*
X146986998Y-133257500D01*
X146986998Y-133257500D02*
X146948902Y-133181309D01*
X146948902Y-133181309D02*
X146948902Y-133105119D01*
X146948902Y-133105119D02*
X146986998Y-133028928D01*
X146986998Y-133028928D02*
X147063188Y-132990833D01*
X147063188Y-132990833D02*
X147253664Y-132990833D01*
X147253664Y-132990833D02*
X147329855Y-132952738D01*
X147710808Y-132762261D02*
X147710808Y-133562261D01*
X147710808Y-132800357D02*
X147786998Y-132762261D01*
X147786998Y-132762261D02*
X147939379Y-132762261D01*
X147939379Y-132762261D02*
X148015570Y-132800357D01*
X148015570Y-132800357D02*
X148053665Y-132838452D01*
X148053665Y-132838452D02*
X148091760Y-132914642D01*
X148091760Y-132914642D02*
X148091760Y-133143214D01*
X148091760Y-133143214D02*
X148053665Y-133219404D01*
X148053665Y-133219404D02*
X148015570Y-133257500D01*
X148015570Y-133257500D02*
X147939379Y-133295595D01*
X147939379Y-133295595D02*
X147786998Y-133295595D01*
X147786998Y-133295595D02*
X147710808Y-133257500D01*
X148777475Y-133295595D02*
X148777475Y-132876547D01*
X148777475Y-132876547D02*
X148739380Y-132800357D01*
X148739380Y-132800357D02*
X148663189Y-132762261D01*
X148663189Y-132762261D02*
X148510808Y-132762261D01*
X148510808Y-132762261D02*
X148434618Y-132800357D01*
X148777475Y-133257500D02*
X148701284Y-133295595D01*
X148701284Y-133295595D02*
X148510808Y-133295595D01*
X148510808Y-133295595D02*
X148434618Y-133257500D01*
X148434618Y-133257500D02*
X148396522Y-133181309D01*
X148396522Y-133181309D02*
X148396522Y-133105119D01*
X148396522Y-133105119D02*
X148434618Y-133028928D01*
X148434618Y-133028928D02*
X148510808Y-132990833D01*
X148510808Y-132990833D02*
X148701284Y-132990833D01*
X148701284Y-132990833D02*
X148777475Y-132952738D01*
X149501285Y-133257500D02*
X149425094Y-133295595D01*
X149425094Y-133295595D02*
X149272713Y-133295595D01*
X149272713Y-133295595D02*
X149196523Y-133257500D01*
X149196523Y-133257500D02*
X149158428Y-133219404D01*
X149158428Y-133219404D02*
X149120332Y-133143214D01*
X149120332Y-133143214D02*
X149120332Y-132914642D01*
X149120332Y-132914642D02*
X149158428Y-132838452D01*
X149158428Y-132838452D02*
X149196523Y-132800357D01*
X149196523Y-132800357D02*
X149272713Y-132762261D01*
X149272713Y-132762261D02*
X149425094Y-132762261D01*
X149425094Y-132762261D02*
X149501285Y-132800357D01*
X149844142Y-133295595D02*
X149844142Y-132762261D01*
X149844142Y-132495595D02*
X149806046Y-132533690D01*
X149806046Y-132533690D02*
X149844142Y-132571785D01*
X149844142Y-132571785D02*
X149882237Y-132533690D01*
X149882237Y-132533690D02*
X149844142Y-132495595D01*
X149844142Y-132495595D02*
X149844142Y-132571785D01*
X150110808Y-132762261D02*
X150415570Y-132762261D01*
X150225094Y-132495595D02*
X150225094Y-133181309D01*
X150225094Y-133181309D02*
X150263189Y-133257500D01*
X150263189Y-133257500D02*
X150339379Y-133295595D01*
X150339379Y-133295595D02*
X150415570Y-133295595D01*
X151025094Y-133295595D02*
X151025094Y-132876547D01*
X151025094Y-132876547D02*
X150986999Y-132800357D01*
X150986999Y-132800357D02*
X150910808Y-132762261D01*
X150910808Y-132762261D02*
X150758427Y-132762261D01*
X150758427Y-132762261D02*
X150682237Y-132800357D01*
X151025094Y-133257500D02*
X150948903Y-133295595D01*
X150948903Y-133295595D02*
X150758427Y-133295595D01*
X150758427Y-133295595D02*
X150682237Y-133257500D01*
X150682237Y-133257500D02*
X150644141Y-133181309D01*
X150644141Y-133181309D02*
X150644141Y-133105119D01*
X150644141Y-133105119D02*
X150682237Y-133028928D01*
X150682237Y-133028928D02*
X150758427Y-132990833D01*
X150758427Y-132990833D02*
X150948903Y-132990833D01*
X150948903Y-132990833D02*
X151025094Y-132952738D01*
X151406047Y-132762261D02*
X151406047Y-133295595D01*
X151406047Y-132838452D02*
X151444142Y-132800357D01*
X151444142Y-132800357D02*
X151520332Y-132762261D01*
X151520332Y-132762261D02*
X151634618Y-132762261D01*
X151634618Y-132762261D02*
X151710809Y-132800357D01*
X151710809Y-132800357D02*
X151748904Y-132876547D01*
X151748904Y-132876547D02*
X151748904Y-133295595D01*
X152472714Y-133257500D02*
X152396523Y-133295595D01*
X152396523Y-133295595D02*
X152244142Y-133295595D01*
X152244142Y-133295595D02*
X152167952Y-133257500D01*
X152167952Y-133257500D02*
X152129857Y-133219404D01*
X152129857Y-133219404D02*
X152091761Y-133143214D01*
X152091761Y-133143214D02*
X152091761Y-132914642D01*
X152091761Y-132914642D02*
X152129857Y-132838452D01*
X152129857Y-132838452D02*
X152167952Y-132800357D01*
X152167952Y-132800357D02*
X152244142Y-132762261D01*
X152244142Y-132762261D02*
X152396523Y-132762261D01*
X152396523Y-132762261D02*
X152472714Y-132800357D01*
X153120333Y-133257500D02*
X153044142Y-133295595D01*
X153044142Y-133295595D02*
X152891761Y-133295595D01*
X152891761Y-133295595D02*
X152815571Y-133257500D01*
X152815571Y-133257500D02*
X152777475Y-133181309D01*
X152777475Y-133181309D02*
X152777475Y-132876547D01*
X152777475Y-132876547D02*
X152815571Y-132800357D01*
X152815571Y-132800357D02*
X152891761Y-132762261D01*
X152891761Y-132762261D02*
X153044142Y-132762261D01*
X153044142Y-132762261D02*
X153120333Y-132800357D01*
X153120333Y-132800357D02*
X153158428Y-132876547D01*
X153158428Y-132876547D02*
X153158428Y-132952738D01*
X153158428Y-132952738D02*
X152777475Y-133028928D01*
D11*
X144200000Y-133800000D02*
X148800000Y-133800000D01*
X148800000Y-142600000D01*
X144200000Y-142600000D01*
X144200000Y-133800000D01*
X121600000Y-74000000D02*
X128000000Y-74000000D01*
X128000000Y-83600000D01*
X121600000Y-83600000D01*
X121600000Y-74000000D01*
D10*
X121358426Y-72495595D02*
X121815569Y-72495595D01*
X121586997Y-73295595D02*
X121586997Y-72495595D01*
X122386998Y-73257500D02*
X122310807Y-73295595D01*
X122310807Y-73295595D02*
X122158426Y-73295595D01*
X122158426Y-73295595D02*
X122082236Y-73257500D01*
X122082236Y-73257500D02*
X122044140Y-73181309D01*
X122044140Y-73181309D02*
X122044140Y-72876547D01*
X122044140Y-72876547D02*
X122082236Y-72800357D01*
X122082236Y-72800357D02*
X122158426Y-72762261D01*
X122158426Y-72762261D02*
X122310807Y-72762261D01*
X122310807Y-72762261D02*
X122386998Y-72800357D01*
X122386998Y-72800357D02*
X122425093Y-72876547D01*
X122425093Y-72876547D02*
X122425093Y-72952738D01*
X122425093Y-72952738D02*
X122044140Y-73028928D01*
X122767950Y-73295595D02*
X122767950Y-72762261D01*
X122767950Y-72838452D02*
X122806045Y-72800357D01*
X122806045Y-72800357D02*
X122882235Y-72762261D01*
X122882235Y-72762261D02*
X122996521Y-72762261D01*
X122996521Y-72762261D02*
X123072712Y-72800357D01*
X123072712Y-72800357D02*
X123110807Y-72876547D01*
X123110807Y-72876547D02*
X123110807Y-73295595D01*
X123110807Y-72876547D02*
X123148902Y-72800357D01*
X123148902Y-72800357D02*
X123225093Y-72762261D01*
X123225093Y-72762261D02*
X123339378Y-72762261D01*
X123339378Y-72762261D02*
X123415569Y-72800357D01*
X123415569Y-72800357D02*
X123453664Y-72876547D01*
X123453664Y-72876547D02*
X123453664Y-73295595D01*
X123834617Y-72762261D02*
X123834617Y-73562261D01*
X123834617Y-72800357D02*
X123910807Y-72762261D01*
X123910807Y-72762261D02*
X124063188Y-72762261D01*
X124063188Y-72762261D02*
X124139379Y-72800357D01*
X124139379Y-72800357D02*
X124177474Y-72838452D01*
X124177474Y-72838452D02*
X124215569Y-72914642D01*
X124215569Y-72914642D02*
X124215569Y-73143214D01*
X124215569Y-73143214D02*
X124177474Y-73219404D01*
X124177474Y-73219404D02*
X124139379Y-73257500D01*
X124139379Y-73257500D02*
X124063188Y-73295595D01*
X124063188Y-73295595D02*
X123910807Y-73295595D01*
X123910807Y-73295595D02*
X123834617Y-73257500D01*
X124863189Y-73257500D02*
X124786998Y-73295595D01*
X124786998Y-73295595D02*
X124634617Y-73295595D01*
X124634617Y-73295595D02*
X124558427Y-73257500D01*
X124558427Y-73257500D02*
X124520331Y-73181309D01*
X124520331Y-73181309D02*
X124520331Y-72876547D01*
X124520331Y-72876547D02*
X124558427Y-72800357D01*
X124558427Y-72800357D02*
X124634617Y-72762261D01*
X124634617Y-72762261D02*
X124786998Y-72762261D01*
X124786998Y-72762261D02*
X124863189Y-72800357D01*
X124863189Y-72800357D02*
X124901284Y-72876547D01*
X124901284Y-72876547D02*
X124901284Y-72952738D01*
X124901284Y-72952738D02*
X124520331Y-73028928D01*
X125244141Y-73295595D02*
X125244141Y-72762261D01*
X125244141Y-72914642D02*
X125282236Y-72838452D01*
X125282236Y-72838452D02*
X125320331Y-72800357D01*
X125320331Y-72800357D02*
X125396522Y-72762261D01*
X125396522Y-72762261D02*
X125472712Y-72762261D01*
X126082236Y-73295595D02*
X126082236Y-72876547D01*
X126082236Y-72876547D02*
X126044141Y-72800357D01*
X126044141Y-72800357D02*
X125967950Y-72762261D01*
X125967950Y-72762261D02*
X125815569Y-72762261D01*
X125815569Y-72762261D02*
X125739379Y-72800357D01*
X126082236Y-73257500D02*
X126006045Y-73295595D01*
X126006045Y-73295595D02*
X125815569Y-73295595D01*
X125815569Y-73295595D02*
X125739379Y-73257500D01*
X125739379Y-73257500D02*
X125701283Y-73181309D01*
X125701283Y-73181309D02*
X125701283Y-73105119D01*
X125701283Y-73105119D02*
X125739379Y-73028928D01*
X125739379Y-73028928D02*
X125815569Y-72990833D01*
X125815569Y-72990833D02*
X126006045Y-72990833D01*
X126006045Y-72990833D02*
X126082236Y-72952738D01*
X126348903Y-72762261D02*
X126653665Y-72762261D01*
X126463189Y-72495595D02*
X126463189Y-73181309D01*
X126463189Y-73181309D02*
X126501284Y-73257500D01*
X126501284Y-73257500D02*
X126577474Y-73295595D01*
X126577474Y-73295595D02*
X126653665Y-73295595D01*
X127263189Y-72762261D02*
X127263189Y-73295595D01*
X126920332Y-72762261D02*
X126920332Y-73181309D01*
X126920332Y-73181309D02*
X126958427Y-73257500D01*
X126958427Y-73257500D02*
X127034617Y-73295595D01*
X127034617Y-73295595D02*
X127148903Y-73295595D01*
X127148903Y-73295595D02*
X127225094Y-73257500D01*
X127225094Y-73257500D02*
X127263189Y-73219404D01*
X127644142Y-73295595D02*
X127644142Y-72762261D01*
X127644142Y-72914642D02*
X127682237Y-72838452D01*
X127682237Y-72838452D02*
X127720332Y-72800357D01*
X127720332Y-72800357D02*
X127796523Y-72762261D01*
X127796523Y-72762261D02*
X127872713Y-72762261D01*
X128444142Y-73257500D02*
X128367951Y-73295595D01*
X128367951Y-73295595D02*
X128215570Y-73295595D01*
X128215570Y-73295595D02*
X128139380Y-73257500D01*
X128139380Y-73257500D02*
X128101284Y-73181309D01*
X128101284Y-73181309D02*
X128101284Y-72876547D01*
X128101284Y-72876547D02*
X128139380Y-72800357D01*
X128139380Y-72800357D02*
X128215570Y-72762261D01*
X128215570Y-72762261D02*
X128367951Y-72762261D01*
X128367951Y-72762261D02*
X128444142Y-72800357D01*
X128444142Y-72800357D02*
X128482237Y-72876547D01*
X128482237Y-72876547D02*
X128482237Y-72952738D01*
X128482237Y-72952738D02*
X128101284Y-73028928D01*
X129434618Y-73295595D02*
X129434618Y-72495595D01*
X129434618Y-72495595D02*
X129739380Y-72495595D01*
X129739380Y-72495595D02*
X129815570Y-72533690D01*
X129815570Y-72533690D02*
X129853665Y-72571785D01*
X129853665Y-72571785D02*
X129891761Y-72647976D01*
X129891761Y-72647976D02*
X129891761Y-72762261D01*
X129891761Y-72762261D02*
X129853665Y-72838452D01*
X129853665Y-72838452D02*
X129815570Y-72876547D01*
X129815570Y-72876547D02*
X129739380Y-72914642D01*
X129739380Y-72914642D02*
X129434618Y-72914642D01*
X130234618Y-73295595D02*
X130234618Y-72762261D01*
X130234618Y-72914642D02*
X130272713Y-72838452D01*
X130272713Y-72838452D02*
X130310808Y-72800357D01*
X130310808Y-72800357D02*
X130386999Y-72762261D01*
X130386999Y-72762261D02*
X130463189Y-72762261D01*
X130844141Y-73295595D02*
X130767951Y-73257500D01*
X130767951Y-73257500D02*
X130729856Y-73219404D01*
X130729856Y-73219404D02*
X130691760Y-73143214D01*
X130691760Y-73143214D02*
X130691760Y-72914642D01*
X130691760Y-72914642D02*
X130729856Y-72838452D01*
X130729856Y-72838452D02*
X130767951Y-72800357D01*
X130767951Y-72800357D02*
X130844141Y-72762261D01*
X130844141Y-72762261D02*
X130958427Y-72762261D01*
X130958427Y-72762261D02*
X131034618Y-72800357D01*
X131034618Y-72800357D02*
X131072713Y-72838452D01*
X131072713Y-72838452D02*
X131110808Y-72914642D01*
X131110808Y-72914642D02*
X131110808Y-73143214D01*
X131110808Y-73143214D02*
X131072713Y-73219404D01*
X131072713Y-73219404D02*
X131034618Y-73257500D01*
X131034618Y-73257500D02*
X130958427Y-73295595D01*
X130958427Y-73295595D02*
X130844141Y-73295595D01*
X131453666Y-73295595D02*
X131453666Y-72495595D01*
X131453666Y-72800357D02*
X131529856Y-72762261D01*
X131529856Y-72762261D02*
X131682237Y-72762261D01*
X131682237Y-72762261D02*
X131758428Y-72800357D01*
X131758428Y-72800357D02*
X131796523Y-72838452D01*
X131796523Y-72838452D02*
X131834618Y-72914642D01*
X131834618Y-72914642D02*
X131834618Y-73143214D01*
X131834618Y-73143214D02*
X131796523Y-73219404D01*
X131796523Y-73219404D02*
X131758428Y-73257500D01*
X131758428Y-73257500D02*
X131682237Y-73295595D01*
X131682237Y-73295595D02*
X131529856Y-73295595D01*
X131529856Y-73295595D02*
X131453666Y-73257500D01*
X132482238Y-73257500D02*
X132406047Y-73295595D01*
X132406047Y-73295595D02*
X132253666Y-73295595D01*
X132253666Y-73295595D02*
X132177476Y-73257500D01*
X132177476Y-73257500D02*
X132139380Y-73181309D01*
X132139380Y-73181309D02*
X132139380Y-72876547D01*
X132139380Y-72876547D02*
X132177476Y-72800357D01*
X132177476Y-72800357D02*
X132253666Y-72762261D01*
X132253666Y-72762261D02*
X132406047Y-72762261D01*
X132406047Y-72762261D02*
X132482238Y-72800357D01*
X132482238Y-72800357D02*
X132520333Y-72876547D01*
X132520333Y-72876547D02*
X132520333Y-72952738D01*
X132520333Y-72952738D02*
X132139380Y-73028928D01*
D12*
X117866666Y-119124819D02*
X117866666Y-119839104D01*
X117866666Y-119839104D02*
X117819047Y-119981961D01*
X117819047Y-119981961D02*
X117723809Y-120077200D01*
X117723809Y-120077200D02*
X117580952Y-120124819D01*
X117580952Y-120124819D02*
X117485714Y-120124819D01*
X118771428Y-119124819D02*
X118580952Y-119124819D01*
X118580952Y-119124819D02*
X118485714Y-119172438D01*
X118485714Y-119172438D02*
X118438095Y-119220057D01*
X118438095Y-119220057D02*
X118342857Y-119362914D01*
X118342857Y-119362914D02*
X118295238Y-119553390D01*
X118295238Y-119553390D02*
X118295238Y-119934342D01*
X118295238Y-119934342D02*
X118342857Y-120029580D01*
X118342857Y-120029580D02*
X118390476Y-120077200D01*
X118390476Y-120077200D02*
X118485714Y-120124819D01*
X118485714Y-120124819D02*
X118676190Y-120124819D01*
X118676190Y-120124819D02*
X118771428Y-120077200D01*
X118771428Y-120077200D02*
X118819047Y-120029580D01*
X118819047Y-120029580D02*
X118866666Y-119934342D01*
X118866666Y-119934342D02*
X118866666Y-119696247D01*
X118866666Y-119696247D02*
X118819047Y-119601009D01*
X118819047Y-119601009D02*
X118771428Y-119553390D01*
X118771428Y-119553390D02*
X118676190Y-119505771D01*
X118676190Y-119505771D02*
X118485714Y-119505771D01*
X118485714Y-119505771D02*
X118390476Y-119553390D01*
X118390476Y-119553390D02*
X118342857Y-119601009D01*
X118342857Y-119601009D02*
X118295238Y-119696247D01*
X117866666Y-58984819D02*
X117866666Y-59699104D01*
X117866666Y-59699104D02*
X117819047Y-59841961D01*
X117819047Y-59841961D02*
X117723809Y-59937200D01*
X117723809Y-59937200D02*
X117580952Y-59984819D01*
X117580952Y-59984819D02*
X117485714Y-59984819D01*
X118295238Y-59080057D02*
X118342857Y-59032438D01*
X118342857Y-59032438D02*
X118438095Y-58984819D01*
X118438095Y-58984819D02*
X118676190Y-58984819D01*
X118676190Y-58984819D02*
X118771428Y-59032438D01*
X118771428Y-59032438D02*
X118819047Y-59080057D01*
X118819047Y-59080057D02*
X118866666Y-59175295D01*
X118866666Y-59175295D02*
X118866666Y-59270533D01*
X118866666Y-59270533D02*
X118819047Y-59413390D01*
X118819047Y-59413390D02*
X118247619Y-59984819D01*
X118247619Y-59984819D02*
X118866666Y-59984819D01*
X124466666Y-81859819D02*
X124466666Y-82574104D01*
X124466666Y-82574104D02*
X124419047Y-82716961D01*
X124419047Y-82716961D02*
X124323809Y-82812200D01*
X124323809Y-82812200D02*
X124180952Y-82859819D01*
X124180952Y-82859819D02*
X124085714Y-82859819D01*
X125466666Y-82859819D02*
X124895238Y-82859819D01*
X125180952Y-82859819D02*
X125180952Y-81859819D01*
X125180952Y-81859819D02*
X125085714Y-82002676D01*
X125085714Y-82002676D02*
X124990476Y-82097914D01*
X124990476Y-82097914D02*
X124895238Y-82145533D01*
X135670595Y-130919819D02*
X135670595Y-131729342D01*
X135670595Y-131729342D02*
X135718214Y-131824580D01*
X135718214Y-131824580D02*
X135765833Y-131872200D01*
X135765833Y-131872200D02*
X135861071Y-131919819D01*
X135861071Y-131919819D02*
X136051547Y-131919819D01*
X136051547Y-131919819D02*
X136146785Y-131872200D01*
X136146785Y-131872200D02*
X136194404Y-131824580D01*
X136194404Y-131824580D02*
X136242023Y-131729342D01*
X136242023Y-131729342D02*
X136242023Y-130919819D01*
X136670595Y-131015057D02*
X136718214Y-130967438D01*
X136718214Y-130967438D02*
X136813452Y-130919819D01*
X136813452Y-130919819D02*
X137051547Y-130919819D01*
X137051547Y-130919819D02*
X137146785Y-130967438D01*
X137146785Y-130967438D02*
X137194404Y-131015057D01*
X137194404Y-131015057D02*
X137242023Y-131110295D01*
X137242023Y-131110295D02*
X137242023Y-131205533D01*
X137242023Y-131205533D02*
X137194404Y-131348390D01*
X137194404Y-131348390D02*
X136622976Y-131919819D01*
X136622976Y-131919819D02*
X137242023Y-131919819D01*
X127624819Y-147966666D02*
X127148628Y-148299999D01*
X127624819Y-148538094D02*
X126624819Y-148538094D01*
X126624819Y-148538094D02*
X126624819Y-148157142D01*
X126624819Y-148157142D02*
X126672438Y-148061904D01*
X126672438Y-148061904D02*
X126720057Y-148014285D01*
X126720057Y-148014285D02*
X126815295Y-147966666D01*
X126815295Y-147966666D02*
X126958152Y-147966666D01*
X126958152Y-147966666D02*
X127053390Y-148014285D01*
X127053390Y-148014285D02*
X127101009Y-148061904D01*
X127101009Y-148061904D02*
X127148628Y-148157142D01*
X127148628Y-148157142D02*
X127148628Y-148538094D01*
X126624819Y-147633332D02*
X126624819Y-147014285D01*
X126624819Y-147014285D02*
X127005771Y-147347618D01*
X127005771Y-147347618D02*
X127005771Y-147204761D01*
X127005771Y-147204761D02*
X127053390Y-147109523D01*
X127053390Y-147109523D02*
X127101009Y-147061904D01*
X127101009Y-147061904D02*
X127196247Y-147014285D01*
X127196247Y-147014285D02*
X127434342Y-147014285D01*
X127434342Y-147014285D02*
X127529580Y-147061904D01*
X127529580Y-147061904D02*
X127577200Y-147109523D01*
X127577200Y-147109523D02*
X127624819Y-147204761D01*
X127624819Y-147204761D02*
X127624819Y-147490475D01*
X127624819Y-147490475D02*
X127577200Y-147585713D01*
X127577200Y-147585713D02*
X127529580Y-147633332D01*
X84666666Y-95004819D02*
X84666666Y-95719104D01*
X84666666Y-95719104D02*
X84619047Y-95861961D01*
X84619047Y-95861961D02*
X84523809Y-95957200D01*
X84523809Y-95957200D02*
X84380952Y-96004819D01*
X84380952Y-96004819D02*
X84285714Y-96004819D01*
X85047619Y-95004819D02*
X85714285Y-95004819D01*
X85714285Y-95004819D02*
X85285714Y-96004819D01*
X127624819Y-90566666D02*
X127148628Y-90899999D01*
X127624819Y-91138094D02*
X126624819Y-91138094D01*
X126624819Y-91138094D02*
X126624819Y-90757142D01*
X126624819Y-90757142D02*
X126672438Y-90661904D01*
X126672438Y-90661904D02*
X126720057Y-90614285D01*
X126720057Y-90614285D02*
X126815295Y-90566666D01*
X126815295Y-90566666D02*
X126958152Y-90566666D01*
X126958152Y-90566666D02*
X127053390Y-90614285D01*
X127053390Y-90614285D02*
X127101009Y-90661904D01*
X127101009Y-90661904D02*
X127148628Y-90757142D01*
X127148628Y-90757142D02*
X127148628Y-91138094D01*
X127624819Y-89614285D02*
X127624819Y-90185713D01*
X127624819Y-89899999D02*
X126624819Y-89899999D01*
X126624819Y-89899999D02*
X126767676Y-89995237D01*
X126767676Y-89995237D02*
X126862914Y-90090475D01*
X126862914Y-90090475D02*
X126910533Y-90185713D01*
X146291666Y-134234819D02*
X146291666Y-134949104D01*
X146291666Y-134949104D02*
X146244047Y-135091961D01*
X146244047Y-135091961D02*
X146148809Y-135187200D01*
X146148809Y-135187200D02*
X146005952Y-135234819D01*
X146005952Y-135234819D02*
X145910714Y-135234819D01*
X146815476Y-135234819D02*
X147005952Y-135234819D01*
X147005952Y-135234819D02*
X147101190Y-135187200D01*
X147101190Y-135187200D02*
X147148809Y-135139580D01*
X147148809Y-135139580D02*
X147244047Y-134996723D01*
X147244047Y-134996723D02*
X147291666Y-134806247D01*
X147291666Y-134806247D02*
X147291666Y-134425295D01*
X147291666Y-134425295D02*
X147244047Y-134330057D01*
X147244047Y-134330057D02*
X147196428Y-134282438D01*
X147196428Y-134282438D02*
X147101190Y-134234819D01*
X147101190Y-134234819D02*
X146910714Y-134234819D01*
X146910714Y-134234819D02*
X146815476Y-134282438D01*
X146815476Y-134282438D02*
X146767857Y-134330057D01*
X146767857Y-134330057D02*
X146720238Y-134425295D01*
X146720238Y-134425295D02*
X146720238Y-134663390D01*
X146720238Y-134663390D02*
X146767857Y-134758628D01*
X146767857Y-134758628D02*
X146815476Y-134806247D01*
X146815476Y-134806247D02*
X146910714Y-134853866D01*
X146910714Y-134853866D02*
X147101190Y-134853866D01*
X147101190Y-134853866D02*
X147196428Y-134806247D01*
X147196428Y-134806247D02*
X147244047Y-134758628D01*
X147244047Y-134758628D02*
X147291666Y-134663390D01*
X84666666Y-67104819D02*
X84666666Y-67819104D01*
X84666666Y-67819104D02*
X84619047Y-67961961D01*
X84619047Y-67961961D02*
X84523809Y-68057200D01*
X84523809Y-68057200D02*
X84380952Y-68104819D01*
X84380952Y-68104819D02*
X84285714Y-68104819D01*
X85571428Y-67438152D02*
X85571428Y-68104819D01*
X85333333Y-67057200D02*
X85095238Y-67771485D01*
X85095238Y-67771485D02*
X85714285Y-67771485D01*
X84641666Y-73274819D02*
X84641666Y-73989104D01*
X84641666Y-73989104D02*
X84594047Y-74131961D01*
X84594047Y-74131961D02*
X84498809Y-74227200D01*
X84498809Y-74227200D02*
X84355952Y-74274819D01*
X84355952Y-74274819D02*
X84260714Y-74274819D01*
X85594047Y-73274819D02*
X85117857Y-73274819D01*
X85117857Y-73274819D02*
X85070238Y-73751009D01*
X85070238Y-73751009D02*
X85117857Y-73703390D01*
X85117857Y-73703390D02*
X85213095Y-73655771D01*
X85213095Y-73655771D02*
X85451190Y-73655771D01*
X85451190Y-73655771D02*
X85546428Y-73703390D01*
X85546428Y-73703390D02*
X85594047Y-73751009D01*
X85594047Y-73751009D02*
X85641666Y-73846247D01*
X85641666Y-73846247D02*
X85641666Y-74084342D01*
X85641666Y-74084342D02*
X85594047Y-74179580D01*
X85594047Y-74179580D02*
X85546428Y-74227200D01*
X85546428Y-74227200D02*
X85451190Y-74274819D01*
X85451190Y-74274819D02*
X85213095Y-74274819D01*
X85213095Y-74274819D02*
X85117857Y-74227200D01*
X85117857Y-74227200D02*
X85070238Y-74179580D01*
X84666666Y-117384819D02*
X84666666Y-118099104D01*
X84666666Y-118099104D02*
X84619047Y-118241961D01*
X84619047Y-118241961D02*
X84523809Y-118337200D01*
X84523809Y-118337200D02*
X84380952Y-118384819D01*
X84380952Y-118384819D02*
X84285714Y-118384819D01*
X85047619Y-117384819D02*
X85666666Y-117384819D01*
X85666666Y-117384819D02*
X85333333Y-117765771D01*
X85333333Y-117765771D02*
X85476190Y-117765771D01*
X85476190Y-117765771D02*
X85571428Y-117813390D01*
X85571428Y-117813390D02*
X85619047Y-117861009D01*
X85619047Y-117861009D02*
X85666666Y-117956247D01*
X85666666Y-117956247D02*
X85666666Y-118194342D01*
X85666666Y-118194342D02*
X85619047Y-118289580D01*
X85619047Y-118289580D02*
X85571428Y-118337200D01*
X85571428Y-118337200D02*
X85476190Y-118384819D01*
X85476190Y-118384819D02*
X85190476Y-118384819D01*
X85190476Y-118384819D02*
X85095238Y-118337200D01*
X85095238Y-118337200D02*
X85047619Y-118289580D01*
X120552080Y-126526666D02*
X120599700Y-126574285D01*
X120599700Y-126574285D02*
X120647319Y-126717142D01*
X120647319Y-126717142D02*
X120647319Y-126812380D01*
X120647319Y-126812380D02*
X120599700Y-126955237D01*
X120599700Y-126955237D02*
X120504461Y-127050475D01*
X120504461Y-127050475D02*
X120409223Y-127098094D01*
X120409223Y-127098094D02*
X120218747Y-127145713D01*
X120218747Y-127145713D02*
X120075890Y-127145713D01*
X120075890Y-127145713D02*
X119885414Y-127098094D01*
X119885414Y-127098094D02*
X119790176Y-127050475D01*
X119790176Y-127050475D02*
X119694938Y-126955237D01*
X119694938Y-126955237D02*
X119647319Y-126812380D01*
X119647319Y-126812380D02*
X119647319Y-126717142D01*
X119647319Y-126717142D02*
X119694938Y-126574285D01*
X119694938Y-126574285D02*
X119742557Y-126526666D01*
X120647319Y-125574285D02*
X120647319Y-126145713D01*
X120647319Y-125859999D02*
X119647319Y-125859999D01*
X119647319Y-125859999D02*
X119790176Y-125955237D01*
X119790176Y-125955237D02*
X119885414Y-126050475D01*
X119885414Y-126050475D02*
X119933033Y-126145713D01*
X127517319Y-127826666D02*
X127041128Y-128159999D01*
X127517319Y-128398094D02*
X126517319Y-128398094D01*
X126517319Y-128398094D02*
X126517319Y-128017142D01*
X126517319Y-128017142D02*
X126564938Y-127921904D01*
X126564938Y-127921904D02*
X126612557Y-127874285D01*
X126612557Y-127874285D02*
X126707795Y-127826666D01*
X126707795Y-127826666D02*
X126850652Y-127826666D01*
X126850652Y-127826666D02*
X126945890Y-127874285D01*
X126945890Y-127874285D02*
X126993509Y-127921904D01*
X126993509Y-127921904D02*
X127041128Y-128017142D01*
X127041128Y-128017142D02*
X127041128Y-128398094D01*
X126612557Y-127445713D02*
X126564938Y-127398094D01*
X126564938Y-127398094D02*
X126517319Y-127302856D01*
X126517319Y-127302856D02*
X126517319Y-127064761D01*
X126517319Y-127064761D02*
X126564938Y-126969523D01*
X126564938Y-126969523D02*
X126612557Y-126921904D01*
X126612557Y-126921904D02*
X126707795Y-126874285D01*
X126707795Y-126874285D02*
X126803033Y-126874285D01*
X126803033Y-126874285D02*
X126945890Y-126921904D01*
X126945890Y-126921904D02*
X127517319Y-127493332D01*
X127517319Y-127493332D02*
X127517319Y-126874285D01*
X87279819Y-147586904D02*
X88089342Y-147586904D01*
X88089342Y-147586904D02*
X88184580Y-147539285D01*
X88184580Y-147539285D02*
X88232200Y-147491666D01*
X88232200Y-147491666D02*
X88279819Y-147396428D01*
X88279819Y-147396428D02*
X88279819Y-147205952D01*
X88279819Y-147205952D02*
X88232200Y-147110714D01*
X88232200Y-147110714D02*
X88184580Y-147063095D01*
X88184580Y-147063095D02*
X88089342Y-147015476D01*
X88089342Y-147015476D02*
X87279819Y-147015476D01*
X88279819Y-146015476D02*
X88279819Y-146586904D01*
X88279819Y-146301190D02*
X87279819Y-146301190D01*
X87279819Y-146301190D02*
X87422676Y-146396428D01*
X87422676Y-146396428D02*
X87517914Y-146491666D01*
X87517914Y-146491666D02*
X87565533Y-146586904D01*
X117866666Y-97584819D02*
X117866666Y-98299104D01*
X117866666Y-98299104D02*
X117819047Y-98441961D01*
X117819047Y-98441961D02*
X117723809Y-98537200D01*
X117723809Y-98537200D02*
X117580952Y-98584819D01*
X117580952Y-98584819D02*
X117485714Y-98584819D01*
X118485714Y-98013390D02*
X118390476Y-97965771D01*
X118390476Y-97965771D02*
X118342857Y-97918152D01*
X118342857Y-97918152D02*
X118295238Y-97822914D01*
X118295238Y-97822914D02*
X118295238Y-97775295D01*
X118295238Y-97775295D02*
X118342857Y-97680057D01*
X118342857Y-97680057D02*
X118390476Y-97632438D01*
X118390476Y-97632438D02*
X118485714Y-97584819D01*
X118485714Y-97584819D02*
X118676190Y-97584819D01*
X118676190Y-97584819D02*
X118771428Y-97632438D01*
X118771428Y-97632438D02*
X118819047Y-97680057D01*
X118819047Y-97680057D02*
X118866666Y-97775295D01*
X118866666Y-97775295D02*
X118866666Y-97822914D01*
X118866666Y-97822914D02*
X118819047Y-97918152D01*
X118819047Y-97918152D02*
X118771428Y-97965771D01*
X118771428Y-97965771D02*
X118676190Y-98013390D01*
X118676190Y-98013390D02*
X118485714Y-98013390D01*
X118485714Y-98013390D02*
X118390476Y-98061009D01*
X118390476Y-98061009D02*
X118342857Y-98108628D01*
X118342857Y-98108628D02*
X118295238Y-98203866D01*
X118295238Y-98203866D02*
X118295238Y-98394342D01*
X118295238Y-98394342D02*
X118342857Y-98489580D01*
X118342857Y-98489580D02*
X118390476Y-98537200D01*
X118390476Y-98537200D02*
X118485714Y-98584819D01*
X118485714Y-98584819D02*
X118676190Y-98584819D01*
X118676190Y-98584819D02*
X118771428Y-98537200D01*
X118771428Y-98537200D02*
X118819047Y-98489580D01*
X118819047Y-98489580D02*
X118866666Y-98394342D01*
X118866666Y-98394342D02*
X118866666Y-98203866D01*
X118866666Y-98203866D02*
X118819047Y-98108628D01*
X118819047Y-98108628D02*
X118771428Y-98061009D01*
X118771428Y-98061009D02*
X118676190Y-98013390D01*
D13*
%TO.C,J6*%
X116870000Y-115630000D02*
X116870000Y-97790000D01*
X116870000Y-118230000D02*
X116870000Y-116900000D01*
X118200000Y-118230000D02*
X116870000Y-118230000D01*
X119530000Y-97790000D02*
X116870000Y-97790000D01*
X119530000Y-115630000D02*
X116870000Y-115630000D01*
X119530000Y-115630000D02*
X119530000Y-97790000D01*
%TO.C,J2*%
X119530000Y-63570000D02*
X119530000Y-78870000D01*
X119530000Y-60970000D02*
X119530000Y-62300000D01*
X118200000Y-60970000D02*
X119530000Y-60970000D01*
X116870000Y-78870000D02*
X119530000Y-78870000D01*
X116870000Y-63570000D02*
X119530000Y-63570000D01*
X116870000Y-63570000D02*
X116870000Y-78870000D01*
%TO.C,J1*%
X126130000Y-81405000D02*
X124800000Y-81405000D01*
X126130000Y-80075000D02*
X126130000Y-81405000D01*
X126130000Y-78805000D02*
X126130000Y-76205000D01*
X126130000Y-78805000D02*
X123470000Y-78805000D01*
X126130000Y-76205000D02*
X123470000Y-76205000D01*
X123470000Y-78805000D02*
X123470000Y-76205000D01*
D14*
%TO.C,U2*%
X134887500Y-132947500D02*
X141237500Y-132947500D01*
X134887500Y-134075000D02*
X134887500Y-132947500D01*
X134887500Y-152252500D02*
X134887500Y-151125000D01*
X141237500Y-132947500D02*
X141237500Y-134075000D01*
X141237500Y-151125000D02*
X141237500Y-152252500D01*
X141237500Y-152252500D02*
X134887500Y-152252500D01*
D11*
X132607500Y-134980000D02*
G75*
G02*
X132407500Y-134980000I-100000J0D01*
G01*
X132407500Y-134980000D02*
G75*
G02*
X132607500Y-134980000I100000J0D01*
G01*
D13*
%TO.C,R3*%
X123430000Y-144530000D02*
X123430000Y-151070000D01*
X123430000Y-151070000D02*
X123760000Y-151070000D01*
X123760000Y-144530000D02*
X123430000Y-144530000D01*
X125840000Y-144530000D02*
X126170000Y-144530000D01*
X126170000Y-144530000D02*
X126170000Y-151070000D01*
X126170000Y-151070000D02*
X125840000Y-151070000D01*
%TO.C,J7*%
X86330000Y-91510000D02*
X86330000Y-73670000D01*
X86330000Y-91510000D02*
X83670000Y-91510000D01*
X86330000Y-73670000D02*
X83670000Y-73670000D01*
X85000000Y-94110000D02*
X83670000Y-94110000D01*
X83670000Y-94110000D02*
X83670000Y-92780000D01*
X83670000Y-91510000D02*
X83670000Y-73670000D01*
%TO.C,R1*%
X123430000Y-87130000D02*
X123430000Y-93670000D01*
X123430000Y-93670000D02*
X123760000Y-93670000D01*
X123760000Y-87130000D02*
X123430000Y-87130000D01*
X125840000Y-87130000D02*
X126170000Y-87130000D01*
X126170000Y-87130000D02*
X126170000Y-93670000D01*
X126170000Y-93670000D02*
X125840000Y-93670000D01*
%TO.C,J9*%
X145295000Y-138820000D02*
X145295000Y-141420000D01*
X145295000Y-138820000D02*
X147955000Y-138820000D01*
X145295000Y-141420000D02*
X147955000Y-141420000D01*
X146625000Y-136220000D02*
X147955000Y-136220000D01*
X147955000Y-136220000D02*
X147955000Y-137550000D01*
X147955000Y-138820000D02*
X147955000Y-141420000D01*
%TO.C,J4*%
X83670000Y-63610000D02*
X83670000Y-53390000D01*
X83670000Y-66210000D02*
X83670000Y-64880000D01*
X85000000Y-66210000D02*
X83670000Y-66210000D01*
X86330000Y-53390000D02*
X83670000Y-53390000D01*
X86330000Y-63610000D02*
X83670000Y-63610000D01*
X86330000Y-63610000D02*
X86330000Y-53390000D01*
%TO.C,J5*%
X86305000Y-69780000D02*
X86305000Y-67180000D01*
X86305000Y-69780000D02*
X83645000Y-69780000D01*
X86305000Y-67180000D02*
X83645000Y-67180000D01*
X84975000Y-72380000D02*
X83645000Y-72380000D01*
X83645000Y-72380000D02*
X83645000Y-71050000D01*
X83645000Y-69780000D02*
X83645000Y-67180000D01*
%TO.C,J3*%
X86330000Y-113890000D02*
X86330000Y-96050000D01*
X86330000Y-113890000D02*
X83670000Y-113890000D01*
X86330000Y-96050000D02*
X83670000Y-96050000D01*
X85000000Y-116490000D02*
X83670000Y-116490000D01*
X83670000Y-116490000D02*
X83670000Y-115160000D01*
X83670000Y-113890000D02*
X83670000Y-96050000D01*
%TO.C,C1*%
X116322500Y-123740000D02*
X116322500Y-128980000D01*
X116637500Y-123740000D02*
X116322500Y-123740000D01*
X116637500Y-128980000D02*
X116322500Y-128980000D01*
X119062500Y-123740000D02*
X118747500Y-123740000D01*
X119062500Y-123740000D02*
X119062500Y-128980000D01*
X119062500Y-128980000D02*
X118747500Y-128980000D01*
%TO.C,R2*%
X123322500Y-124390000D02*
X123322500Y-130930000D01*
X123322500Y-130930000D02*
X123652500Y-130930000D01*
X123652500Y-124390000D02*
X123322500Y-124390000D01*
X125732500Y-124390000D02*
X126062500Y-124390000D01*
X126062500Y-124390000D02*
X126062500Y-130930000D01*
X126062500Y-130930000D02*
X125732500Y-130930000D01*
D14*
%TO.C,U1*%
X89102600Y-52210000D02*
X89102600Y-149746000D01*
X89102600Y-149746000D02*
X113225000Y-149746000D01*
X113225000Y-52210000D02*
X89102600Y-52210000D01*
X113225000Y-149746000D02*
X113225000Y-52210000D01*
D13*
%TO.C,J8*%
X116870000Y-94090000D02*
X116870000Y-81330000D01*
X116870000Y-96690000D02*
X116870000Y-95360000D01*
X118200000Y-96690000D02*
X116870000Y-96690000D01*
X119530000Y-81330000D02*
X116870000Y-81330000D01*
X119530000Y-94090000D02*
X116870000Y-94090000D01*
X119530000Y-94090000D02*
X119530000Y-81330000D01*
%TD*%
M02*
