%TF.GenerationSoftware,KiCad,Pcbnew,8.0.6*%
%TF.CreationDate,2025-03-25T14:01:10+08:00*%
%TF.ProjectId,external_chamber,65787465-726e-4616-9c5f-6368616d6265,rev?*%
%TF.SameCoordinates,Original*%
%TF.FileFunction,Copper,L1,Top*%
%TF.FilePolarity,Positive*%
%FSLAX46Y46*%
G04 Gerber Fmt 4.6, Leading zero omitted, Abs format (unit mm)*
G04 Created by KiCad (PCBNEW 8.0.6) date 2025-03-25 14:01:10*
%MOMM*%
%LPD*%
G01*
G04 APERTURE LIST*
%TA.AperFunction,ComponentPad*%
%ADD10R,1.700000X1.700000*%
%TD*%
%TA.AperFunction,ComponentPad*%
%ADD11O,1.700000X1.700000*%
%TD*%
%TA.AperFunction,ComponentPad*%
%ADD12R,1.248000X1.248000*%
%TD*%
%TA.AperFunction,ComponentPad*%
%ADD13C,1.248000*%
%TD*%
%TA.AperFunction,ComponentPad*%
%ADD14C,1.600000*%
%TD*%
%TA.AperFunction,ComponentPad*%
%ADD15O,1.600000X1.600000*%
%TD*%
%TA.AperFunction,ComponentPad*%
%ADD16R,1.530000X1.530000*%
%TD*%
%TA.AperFunction,ComponentPad*%
%ADD17C,1.530000*%
%TD*%
%TA.AperFunction,ViaPad*%
%ADD18C,0.800000*%
%TD*%
%TA.AperFunction,Conductor*%
%ADD19C,0.300000*%
%TD*%
%TA.AperFunction,Conductor*%
%ADD20C,0.500000*%
%TD*%
G04 APERTURE END LIST*
D10*
%TO.P,J6,1,Pin_1*%
%TO.N,Net-(J6-Pin_1)*%
X118200000Y-116900000D03*
D11*
%TO.P,J6,2,Pin_2*%
%TO.N,Net-(J6-Pin_2)*%
X118200000Y-114360000D03*
%TO.P,J6,3,Pin_3*%
%TO.N,Net-(J6-Pin_3)*%
X118200000Y-111820000D03*
%TO.P,J6,4,Pin_4*%
%TO.N,Net-(J6-Pin_4)*%
X118200000Y-109280000D03*
%TO.P,J6,5,Pin_5*%
%TO.N,Net-(J6-Pin_5)*%
X118200000Y-106740000D03*
%TO.P,J6,6,Pin_6*%
%TO.N,Net-(J6-Pin_6)*%
X118200000Y-104200000D03*
%TO.P,J6,7,Pin_7*%
%TO.N,Net-(J6-Pin_7)*%
X118200000Y-101660000D03*
%TO.P,J6,8,Pin_8*%
%TO.N,Net-(J6-Pin_8)*%
X118200000Y-99120000D03*
%TD*%
%TO.P,J2,7,Pin_7*%
%TO.N,Net-(J2-Pin_7)*%
X118200000Y-77540000D03*
%TO.P,J2,6,Pin_6*%
%TO.N,Net-(J2-Pin_6)*%
X118200000Y-75000000D03*
%TO.P,J2,5,Pin_5*%
%TO.N,Net-(J2-Pin_5)*%
X118200000Y-72460000D03*
%TO.P,J2,4,Pin_4*%
%TO.N,Net-(J2-Pin_4)*%
X118200000Y-69920000D03*
%TO.P,J2,3,Pin_3*%
%TO.N,Net-(J2-Pin_3)*%
X118200000Y-67380000D03*
%TO.P,J2,2,Pin_2*%
%TO.N,Net-(J2-Pin_2)*%
X118200000Y-64840000D03*
D10*
%TO.P,J2,1,Pin_1*%
%TO.N,Net-(J2-Pin_1)*%
X118200000Y-62300000D03*
%TD*%
D11*
%TO.P,J1,2,Pin_2*%
%TO.N,unconnected-(J1-Pin_2-Pad2)*%
X124800000Y-77535000D03*
D10*
%TO.P,J1,1,Pin_1*%
%TO.N,/Temp*%
X124800000Y-80075000D03*
%TD*%
D12*
%TO.P,U2,1,1DISCH*%
%TO.N,/TimerDisch*%
X134092500Y-134980000D03*
D13*
%TO.P,U2,2,1THRES*%
%TO.N,/TimerThresh*%
X134092500Y-137520000D03*
%TO.P,U2,3,1CONT*%
%TO.N,/TimerCont*%
X134092500Y-140060000D03*
%TO.P,U2,4,1RESET*%
%TO.N,+5V*%
X134092500Y-142600000D03*
%TO.P,U2,5,1OUT*%
%TO.N,/TimerOut*%
X134092500Y-145140000D03*
%TO.P,U2,6,1TRIG*%
%TO.N,/TimerThresh*%
X134092500Y-147680000D03*
%TO.P,U2,7,GND*%
%TO.N,GND*%
X134092500Y-150220000D03*
%TO.P,U2,8,2TRIG*%
%TO.N,unconnected-(U2-2TRIG-Pad8)*%
X142032500Y-150220000D03*
%TO.P,U2,9,2OUT*%
%TO.N,unconnected-(U2-2OUT-Pad9)*%
X142032500Y-147680000D03*
%TO.P,U2,10,2RESET*%
%TO.N,unconnected-(U2-2RESET-Pad10)*%
X142032500Y-145140000D03*
%TO.P,U2,11,2CONT*%
%TO.N,unconnected-(U2-2CONT-Pad11)*%
X142032500Y-142600000D03*
%TO.P,U2,12,2THRES*%
%TO.N,unconnected-(U2-2THRES-Pad12)*%
X142032500Y-140060000D03*
%TO.P,U2,13,2DISCH*%
%TO.N,unconnected-(U2-2DISCH-Pad13)*%
X142032500Y-137520000D03*
%TO.P,U2,14,VCC*%
%TO.N,+5V*%
X142032500Y-134980000D03*
%TD*%
D14*
%TO.P,R3,1*%
%TO.N,/TimerDisch*%
X124800000Y-143990000D03*
D15*
%TO.P,R3,2*%
%TO.N,/TimerThresh*%
X124800000Y-151610000D03*
%TD*%
D11*
%TO.P,J7,8,Pin_8*%
%TO.N,Net-(J7-Pin_8)*%
X85000000Y-75000000D03*
%TO.P,J7,7,Pin_7*%
%TO.N,Net-(J7-Pin_7)*%
X85000000Y-77540000D03*
%TO.P,J7,6,Pin_6*%
%TO.N,Net-(J7-Pin_6)*%
X85000000Y-80080000D03*
%TO.P,J7,5,Pin_5*%
%TO.N,Net-(J7-Pin_5)*%
X85000000Y-82620000D03*
%TO.P,J7,4,Pin_4*%
%TO.N,Net-(J7-Pin_4)*%
X85000000Y-85160000D03*
%TO.P,J7,3,Pin_3*%
%TO.N,Net-(J7-Pin_3)*%
X85000000Y-87700000D03*
%TO.P,J7,2,Pin_2*%
%TO.N,Net-(J7-Pin_2)*%
X85000000Y-90240000D03*
D10*
%TO.P,J7,1,Pin_1*%
%TO.N,Net-(J7-Pin_1)*%
X85000000Y-92780000D03*
%TD*%
D14*
%TO.P,R1,1*%
%TO.N,/Temp*%
X124800000Y-86590000D03*
D15*
%TO.P,R1,2*%
%TO.N,GND*%
X124800000Y-94210000D03*
%TD*%
D10*
%TO.P,J9,1,Pin_1*%
%TO.N,/TimerThresh*%
X146625000Y-137550000D03*
D11*
%TO.P,J9,2,Pin_2*%
%TO.N,GND*%
X146625000Y-140090000D03*
%TD*%
D10*
%TO.P,J4,1,Pin_1*%
%TO.N,Net-(J4-Pin_1)*%
X85000000Y-64880000D03*
D11*
%TO.P,J4,2,Pin_2*%
%TO.N,Net-(J4-Pin_2)*%
X85000000Y-62340000D03*
%TO.P,J4,3,Pin_3*%
%TO.N,Net-(J4-Pin_3)*%
X85000000Y-59800000D03*
%TO.P,J4,4,Pin_4*%
%TO.N,Net-(J4-Pin_4)*%
X85000000Y-57260000D03*
%TO.P,J4,5,Pin_5*%
%TO.N,Net-(J4-Pin_5)*%
X85000000Y-54720000D03*
%TD*%
%TO.P,J5,2,Pin_2*%
%TO.N,Net-(J5-Pin_2)*%
X84975000Y-68510000D03*
D10*
%TO.P,J5,1,Pin_1*%
%TO.N,Net-(J5-Pin_1)*%
X84975000Y-71050000D03*
%TD*%
D11*
%TO.P,J3,8,Pin_8*%
%TO.N,Net-(J3-Pin_8)*%
X85000000Y-97380000D03*
%TO.P,J3,7,Pin_7*%
%TO.N,Net-(J3-Pin_7)*%
X85000000Y-99920000D03*
%TO.P,J3,6,Pin_6*%
%TO.N,Net-(J3-Pin_6)*%
X85000000Y-102460000D03*
%TO.P,J3,5,Pin_5*%
%TO.N,Net-(J3-Pin_5)*%
X85000000Y-105000000D03*
%TO.P,J3,4,Pin_4*%
%TO.N,Net-(J3-Pin_4)*%
X85000000Y-107540000D03*
%TO.P,J3,3,Pin_3*%
%TO.N,Net-(J3-Pin_3)*%
X85000000Y-110080000D03*
%TO.P,J3,2,Pin_2*%
%TO.N,Net-(J3-Pin_2)*%
X85000000Y-112620000D03*
D10*
%TO.P,J3,1,Pin_1*%
%TO.N,Net-(J3-Pin_1)*%
X85000000Y-115160000D03*
%TD*%
D14*
%TO.P,C1,1*%
%TO.N,+5V*%
X117692500Y-123860000D03*
%TO.P,C1,2*%
%TO.N,/TimerCont*%
X117692500Y-128860000D03*
%TD*%
%TO.P,R2,1*%
%TO.N,+5V*%
X124692500Y-123850000D03*
D15*
%TO.P,R2,2*%
%TO.N,/TimerDisch*%
X124692500Y-131470000D03*
%TD*%
D16*
%TO.P,U1,J1.1,P2.0/GPIO*%
%TO.N,Net-(J4-Pin_5)*%
X91000000Y-54750000D03*
D17*
%TO.P,U1,J1.2,P2.1/GPIO/LED*%
%TO.N,Net-(J4-Pin_4)*%
X91000000Y-57290000D03*
%TO.P,U1,J1.3,P2.2/GPIO/SW*%
%TO.N,Net-(J4-Pin_3)*%
X91000000Y-59830000D03*
%TO.P,U1,J1.4,P2.3/GPIO*%
%TO.N,Net-(J4-Pin_2)*%
X91000000Y-62370000D03*
%TO.P,U1,J1.5,P2.4/GPIO*%
%TO.N,Net-(J4-Pin_1)*%
X91000000Y-64910000D03*
%TO.P,U1,J1.6,P2.5/GPIO*%
%TO.N,/TimerOut*%
X91000000Y-67450000D03*
%TO.P,U1,J1.7,P2.6/GPIO*%
%TO.N,Net-(J5-Pin_2)*%
X91000000Y-69990000D03*
%TO.P,U1,J1.8,P2.7/GPIO*%
%TO.N,Net-(J5-Pin_1)*%
X91000000Y-72530000D03*
%TO.P,U1,J1.9,P12.7/GPIO/UART_TX*%
%TO.N,Net-(J7-Pin_8)*%
X91000000Y-75070000D03*
%TO.P,U1,J1.10,P12.6/GPIO/UART_RX*%
%TO.N,Net-(J7-Pin_7)*%
X91000000Y-77610000D03*
%TO.P,U1,J1.11,P12.5/GPIO*%
%TO.N,Net-(J7-Pin_6)*%
X91000000Y-80150000D03*
%TO.P,U1,J1.12,P12.4/GPIO*%
%TO.N,Net-(J7-Pin_5)*%
X91000000Y-82690000D03*
%TO.P,U1,J1.13,P12.3/GPIO*%
%TO.N,Net-(J7-Pin_4)*%
X91000000Y-85230000D03*
%TO.P,U1,J1.14,P12.2/GPIO*%
%TO.N,Net-(J7-Pin_3)*%
X91000000Y-87770000D03*
%TO.P,U1,J1.15,P12.1/GPIO/I2C_SDA*%
%TO.N,Net-(J7-Pin_2)*%
X91000000Y-90310000D03*
%TO.P,U1,J1.16,P12.0/GPIO/I2C_SCL*%
%TO.N,Net-(J7-Pin_1)*%
X91000000Y-92850000D03*
%TO.P,U1,J1.17,P1.0/GPIO*%
%TO.N,Net-(J3-Pin_8)*%
X91000000Y-95390000D03*
%TO.P,U1,J1.18,P1.1/GPIO*%
%TO.N,Net-(J3-Pin_7)*%
X91000000Y-97930000D03*
%TO.P,U1,J1.19,P1.2/GPIO*%
%TO.N,Net-(J3-Pin_6)*%
X91000000Y-100470000D03*
%TO.P,U1,J1.20,P1.3/GPIO*%
%TO.N,Net-(J3-Pin_5)*%
X91000000Y-103010000D03*
%TO.P,U1,J1.21,P1.4/GPIO*%
%TO.N,Net-(J3-Pin_4)*%
X91000000Y-105550000D03*
%TO.P,U1,J1.22,P1.5/GPIO*%
%TO.N,Net-(J3-Pin_3)*%
X91000000Y-108090000D03*
%TO.P,U1,J1.23,P1.6/GPIO*%
%TO.N,Net-(J3-Pin_2)*%
X91000000Y-110630000D03*
%TO.P,U1,J1.24,P1.7/GPIO*%
%TO.N,Net-(J3-Pin_1)*%
X91000000Y-113170000D03*
%TO.P,U1,J1.25,GND_J1*%
%TO.N,GND*%
X91000000Y-115710000D03*
%TO.P,U1,J1.26,VDDIO*%
%TO.N,+5V*%
X91000000Y-118250000D03*
D16*
%TO.P,U1,J2.1,VDD*%
X111320000Y-54750000D03*
D17*
%TO.P,U1,J2.2,GND_J2*%
%TO.N,GND*%
X111320000Y-57290000D03*
%TO.P,U1,J2.3,RESET*%
%TO.N,unconnected-(U1B-RESET-PadJ2.3)*%
X111320000Y-59830000D03*
%TO.P,U1,J2.4,P0.7/GPIO*%
%TO.N,Net-(J2-Pin_1)*%
X111320000Y-62370000D03*
%TO.P,U1,J2.5,P0.6/GPIO*%
%TO.N,Net-(J2-Pin_2)*%
X111320000Y-64910000D03*
%TO.P,U1,J2.6,P0.5/GPIO*%
%TO.N,Net-(J2-Pin_3)*%
X111320000Y-67450000D03*
%TO.P,U1,J2.7,P0.4/GPIO/BYPASSCAP*%
%TO.N,Net-(J2-Pin_4)*%
X111320000Y-69990000D03*
%TO.P,U1,J2.8,P0.3/GPIO/BYPASSCAP*%
%TO.N,Net-(J2-Pin_5)*%
X111320000Y-72530000D03*
%TO.P,U1,J2.9,P0.2/GPIO/BYPASSCAP*%
%TO.N,Net-(J2-Pin_6)*%
X111320000Y-75070000D03*
%TO.P,U1,J2.10,P0.1/GPIO*%
%TO.N,Net-(J2-Pin_7)*%
X111320000Y-77610000D03*
%TO.P,U1,J2.11,P0.0/GPIO*%
%TO.N,/Temp*%
X111320000Y-80150000D03*
%TO.P,U1,J2.12,P15.5/GPIO*%
%TO.N,Net-(J8-Pin_6)*%
X111320000Y-82690000D03*
%TO.P,U1,J2.13,P15.4/GPIO/CMOD*%
%TO.N,Net-(J8-Pin_5)*%
X111320000Y-85230000D03*
%TO.P,U1,J2.14,P15.3/GPIO/XTAL_IN*%
%TO.N,Net-(J8-Pin_4)*%
X111320000Y-87770000D03*
%TO.P,U1,J2.15,P15.2/GPIO/XTAL_OUT*%
%TO.N,Net-(J8-Pin_3)*%
X111320000Y-90310000D03*
%TO.P,U1,J2.16,P15.1/GPIO*%
%TO.N,Net-(J8-Pin_2)*%
X111320000Y-92850000D03*
%TO.P,U1,J2.17,P15.0/GPIO*%
%TO.N,Net-(J8-Pin_1)*%
X111320000Y-95390000D03*
%TO.P,U1,J2.18,P3.7/GPIO*%
%TO.N,Net-(J6-Pin_8)*%
X111320000Y-97930000D03*
%TO.P,U1,J2.19,P3.6/GPIO*%
%TO.N,Net-(J6-Pin_7)*%
X111320000Y-100470000D03*
%TO.P,U1,J2.20,P3.5/GPIO*%
%TO.N,Net-(J6-Pin_6)*%
X111320000Y-103010000D03*
%TO.P,U1,J2.21,P3.4/GPIO*%
%TO.N,Net-(J6-Pin_5)*%
X111320000Y-105550000D03*
%TO.P,U1,J2.22,P3.3/GPIO*%
%TO.N,Net-(J6-Pin_4)*%
X111320000Y-108090000D03*
%TO.P,U1,J2.23,P3.2/GPIO/BYPASSCAP*%
%TO.N,Net-(J6-Pin_3)*%
X111320000Y-110630000D03*
%TO.P,U1,J2.24,P3.1/GPIO*%
%TO.N,Net-(J6-Pin_2)*%
X111320000Y-113170000D03*
%TO.P,U1,J2.25,P3.0/GPIO*%
%TO.N,Net-(J6-Pin_1)*%
X111320000Y-115710000D03*
%TO.P,U1,J2.26,GND_J2*%
%TO.N,GND*%
X111320000Y-118250000D03*
D16*
%TO.P,U1,J8.1*%
%TO.N,N/C*%
X111320000Y-130950000D03*
D17*
%TO.P,U1,J8.2*%
X111320000Y-133490000D03*
%TO.P,U1,J8.3*%
X111320000Y-136030000D03*
%TO.P,U1,J8.4*%
X111320000Y-138570000D03*
%TO.P,U1,J8.5*%
X111320000Y-141110000D03*
%TO.P,U1,J8.6*%
X111320000Y-143650000D03*
%TO.P,U1,J8.7*%
X111320000Y-146190000D03*
D16*
%TO.P,U1,J9.1*%
X91000000Y-130950000D03*
D17*
%TO.P,U1,J9.2*%
X91000000Y-133490000D03*
%TO.P,U1,J9.3*%
X91000000Y-136030000D03*
%TO.P,U1,J9.4*%
X91000000Y-138570000D03*
%TO.P,U1,J9.5*%
X91000000Y-141110000D03*
%TO.P,U1,J9.6*%
X91000000Y-143650000D03*
%TO.P,U1,J9.7*%
X91000000Y-146190000D03*
%TD*%
D10*
%TO.P,J8,1,Pin_1*%
%TO.N,Net-(J8-Pin_1)*%
X118200000Y-95360000D03*
D11*
%TO.P,J8,2,Pin_2*%
%TO.N,Net-(J8-Pin_2)*%
X118200000Y-92820000D03*
%TO.P,J8,3,Pin_3*%
%TO.N,Net-(J8-Pin_3)*%
X118200000Y-90280000D03*
%TO.P,J8,4,Pin_4*%
%TO.N,Net-(J8-Pin_4)*%
X118200000Y-87740000D03*
%TO.P,J8,5,Pin_5*%
%TO.N,Net-(J8-Pin_5)*%
X118200000Y-85200000D03*
%TO.P,J8,6,Pin_6*%
%TO.N,Net-(J8-Pin_6)*%
X118200000Y-82660000D03*
%TD*%
D18*
%TO.N,/TimerOut*%
X92571600Y-144920000D03*
%TO.N,GND*%
X126914500Y-118267500D03*
%TD*%
D19*
%TO.N,/TimerOut*%
X92571600Y-69021600D02*
X92571600Y-144920000D01*
X91000000Y-67450000D02*
X92571600Y-69021600D01*
%TO.N,/TimerDisch*%
X124692500Y-143882500D02*
X124800000Y-143990000D01*
X124692500Y-131470000D02*
X124692500Y-143882500D01*
%TO.N,/TimerThresh*%
X133113900Y-146701400D02*
X134092500Y-147680000D01*
X133113900Y-138498600D02*
X133113900Y-146701400D01*
X134092500Y-137520000D02*
X133113900Y-138498600D01*
D20*
%TO.N,+5V*%
X134412500Y-142600000D02*
X134092500Y-142600000D01*
X142032500Y-134980000D02*
X134412500Y-142600000D01*
X111776300Y-55966700D02*
X111320000Y-55966700D01*
X114803500Y-58993900D02*
X111776300Y-55966700D01*
X114803500Y-120971000D02*
X114803500Y-58993900D01*
X117692500Y-123860000D02*
X114803500Y-120971000D01*
X111320000Y-54750000D02*
X111320000Y-55966700D01*
D19*
%TO.N,/Temp*%
X124800000Y-86590000D02*
X124800000Y-80075000D01*
D20*
%TO.N,GND*%
X124800000Y-94210000D02*
X124800000Y-95461700D01*
X124800000Y-116153000D02*
X124800000Y-95461700D01*
X126914500Y-118267500D02*
X124800000Y-116153000D01*
X126914500Y-143042000D02*
X126914500Y-118267500D01*
X134092500Y-150220000D02*
X126914500Y-143042000D01*
%TD*%
%TA.AperFunction,Conductor*%
%TO.N,GND*%
G36*
X156492539Y-49670185D02*
G01*
X156538294Y-49722989D01*
X156549500Y-49774500D01*
X156549500Y-155425500D01*
X156529815Y-155492539D01*
X156477011Y-155538294D01*
X156425500Y-155549500D01*
X80974500Y-155549500D01*
X80907461Y-155529815D01*
X80861706Y-155477011D01*
X80850500Y-155425500D01*
X80850500Y-151609998D01*
X123494532Y-151609998D01*
X123494532Y-151610001D01*
X123514364Y-151836686D01*
X123514366Y-151836697D01*
X123573258Y-152056488D01*
X123573261Y-152056497D01*
X123669431Y-152262732D01*
X123669432Y-152262734D01*
X123799954Y-152449141D01*
X123960858Y-152610045D01*
X123960861Y-152610047D01*
X124147266Y-152740568D01*
X124353504Y-152836739D01*
X124573308Y-152895635D01*
X124735230Y-152909801D01*
X124799998Y-152915468D01*
X124800000Y-152915468D01*
X124800002Y-152915468D01*
X124856673Y-152910509D01*
X125026692Y-152895635D01*
X125246496Y-152836739D01*
X125452734Y-152740568D01*
X125639139Y-152610047D01*
X125800047Y-152449139D01*
X125930568Y-152262734D01*
X126026739Y-152056496D01*
X126085635Y-151836692D01*
X126105468Y-151610000D01*
X126085635Y-151383308D01*
X126026739Y-151163504D01*
X125930568Y-150957266D01*
X125800047Y-150770861D01*
X125800045Y-150770858D01*
X125639141Y-150609954D01*
X125452734Y-150479432D01*
X125452732Y-150479431D01*
X125246497Y-150383261D01*
X125246488Y-150383258D01*
X125026697Y-150324366D01*
X125026693Y-150324365D01*
X125026692Y-150324365D01*
X125026691Y-150324364D01*
X125026686Y-150324364D01*
X124800002Y-150304532D01*
X124799998Y-150304532D01*
X124573313Y-150324364D01*
X124573302Y-150324366D01*
X124353511Y-150383258D01*
X124353502Y-150383261D01*
X124147267Y-150479431D01*
X124147265Y-150479432D01*
X123960858Y-150609954D01*
X123799954Y-150770858D01*
X123669432Y-150957265D01*
X123669431Y-150957267D01*
X123573261Y-151163502D01*
X123573258Y-151163511D01*
X123514366Y-151383302D01*
X123514364Y-151383313D01*
X123494532Y-151609998D01*
X80850500Y-151609998D01*
X80850500Y-150219999D01*
X132963685Y-150219999D01*
X132963685Y-150220000D01*
X132982904Y-150427414D01*
X133039912Y-150627778D01*
X133132761Y-150814242D01*
X133132762Y-150814245D01*
X133137899Y-150821046D01*
X133722500Y-150236446D01*
X133722500Y-150268711D01*
X133747715Y-150362815D01*
X133796426Y-150447186D01*
X133865314Y-150516074D01*
X133949685Y-150564785D01*
X134043789Y-150590000D01*
X134076053Y-150590000D01*
X133494377Y-151171673D01*
X133494378Y-151171674D01*
X133589338Y-151230470D01*
X133589345Y-151230474D01*
X133783582Y-151305721D01*
X133988348Y-151344000D01*
X134196652Y-151344000D01*
X134401417Y-151305721D01*
X134595653Y-151230475D01*
X134595654Y-151230474D01*
X134690621Y-151171673D01*
X134108948Y-150590000D01*
X134141211Y-150590000D01*
X134235315Y-150564785D01*
X134319686Y-150516074D01*
X134388574Y-150447186D01*
X134437285Y-150362815D01*
X134462500Y-150268711D01*
X134462500Y-150236447D01*
X135047099Y-150821046D01*
X135052238Y-150814244D01*
X135145087Y-150627778D01*
X135202095Y-150427414D01*
X135221315Y-150220000D01*
X135221315Y-150219999D01*
X140903183Y-150219999D01*
X140903183Y-150220000D01*
X140922411Y-150427506D01*
X140922411Y-150427508D01*
X140922412Y-150427511D01*
X140979443Y-150627956D01*
X140979444Y-150627959D01*
X141072335Y-150814509D01*
X141197926Y-150980818D01*
X141351933Y-151121213D01*
X141351935Y-151121215D01*
X141529116Y-151230921D01*
X141529118Y-151230922D01*
X141529120Y-151230923D01*
X141723448Y-151306206D01*
X141928300Y-151344500D01*
X141928302Y-151344500D01*
X142136698Y-151344500D01*
X142136700Y-151344500D01*
X142341552Y-151306206D01*
X142535880Y-151230923D01*
X142713066Y-151121214D01*
X142867075Y-150980816D01*
X142992665Y-150814509D01*
X143085557Y-150627956D01*
X143142588Y-150427511D01*
X143161817Y-150220000D01*
X143142588Y-150012489D01*
X143085557Y-149812044D01*
X142992665Y-149625491D01*
X142867075Y-149459184D01*
X142867073Y-149459181D01*
X142713066Y-149318786D01*
X142713064Y-149318784D01*
X142535883Y-149209078D01*
X142535874Y-149209074D01*
X142342801Y-149134278D01*
X142341552Y-149133794D01*
X142136700Y-149095500D01*
X141928300Y-149095500D01*
X141723448Y-149133794D01*
X141723445Y-149133794D01*
X141723445Y-149133795D01*
X141529125Y-149209074D01*
X141529116Y-149209078D01*
X141351935Y-149318784D01*
X141351933Y-149318786D01*
X141197926Y-149459181D01*
X141072335Y-149625490D01*
X140979444Y-149812040D01*
X140922411Y-150012493D01*
X140903183Y-150219999D01*
X135221315Y-150219999D01*
X135202095Y-150012585D01*
X135145087Y-149812221D01*
X135052238Y-149625757D01*
X135052236Y-149625752D01*
X135047100Y-149618952D01*
X135047099Y-149618952D01*
X134462500Y-150203551D01*
X134462500Y-150171289D01*
X134437285Y-150077185D01*
X134388574Y-149992814D01*
X134319686Y-149923926D01*
X134235315Y-149875215D01*
X134141211Y-149850000D01*
X134108948Y-149850000D01*
X134690621Y-149268325D01*
X134595653Y-149209525D01*
X134595654Y-149209525D01*
X134401417Y-149134278D01*
X134196652Y-149096000D01*
X133988348Y-149096000D01*
X133783582Y-149134278D01*
X133589347Y-149209524D01*
X133589344Y-149209526D01*
X133494377Y-149268325D01*
X134076053Y-149850000D01*
X134043789Y-149850000D01*
X133949685Y-149875215D01*
X133865314Y-149923926D01*
X133796426Y-149992814D01*
X133747715Y-150077185D01*
X133722500Y-150171289D01*
X133722500Y-150203552D01*
X133137899Y-149618951D01*
X133132763Y-149625752D01*
X133039912Y-149812221D01*
X132982904Y-150012585D01*
X132963685Y-150219999D01*
X80850500Y-150219999D01*
X80850500Y-97379999D01*
X83644341Y-97379999D01*
X83644341Y-97380000D01*
X83664936Y-97615403D01*
X83664938Y-97615413D01*
X83726094Y-97843655D01*
X83726096Y-97843659D01*
X83726097Y-97843663D01*
X83825965Y-98057830D01*
X83825967Y-98057834D01*
X83961501Y-98251395D01*
X83961506Y-98251402D01*
X84128597Y-98418493D01*
X84128603Y-98418498D01*
X84314158Y-98548425D01*
X84357783Y-98603002D01*
X84364977Y-98672500D01*
X84333454Y-98734855D01*
X84314158Y-98751575D01*
X84128597Y-98881505D01*
X83961505Y-99048597D01*
X83825965Y-99242169D01*
X83825964Y-99242171D01*
X83726098Y-99456335D01*
X83726094Y-99456344D01*
X83664938Y-99684586D01*
X83664936Y-99684596D01*
X83644341Y-99919999D01*
X83644341Y-99920000D01*
X83664936Y-100155403D01*
X83664938Y-100155413D01*
X83726094Y-100383655D01*
X83726096Y-100383659D01*
X83726097Y-100383663D01*
X83825965Y-100597830D01*
X83825967Y-100597834D01*
X83961501Y-100791395D01*
X83961506Y-100791402D01*
X84128597Y-100958493D01*
X84128603Y-100958498D01*
X84314158Y-101088425D01*
X84357783Y-101143002D01*
X84364977Y-101212500D01*
X84333454Y-101274855D01*
X84314158Y-101291575D01*
X84128597Y-101421505D01*
X83961505Y-101588597D01*
X83825965Y-101782169D01*
X83825964Y-101782171D01*
X83726098Y-101996335D01*
X83726094Y-101996344D01*
X83664938Y-102224586D01*
X83664936Y-102224596D01*
X83644341Y-102459999D01*
X83644341Y-102460000D01*
X83664936Y-102695403D01*
X83664938Y-102695413D01*
X83726094Y-102923655D01*
X83726096Y-102923659D01*
X83726097Y-102923663D01*
X83825965Y-103137830D01*
X83825967Y-103137834D01*
X83961501Y-103331395D01*
X83961506Y-103331402D01*
X84128597Y-103498493D01*
X84128603Y-103498498D01*
X84314158Y-103628425D01*
X84357783Y-103683002D01*
X84364977Y-103752500D01*
X84333454Y-103814855D01*
X84314158Y-103831575D01*
X84128597Y-103961505D01*
X83961505Y-104128597D01*
X83825965Y-104322169D01*
X83825964Y-104322171D01*
X83726098Y-104536335D01*
X83726094Y-104536344D01*
X83664938Y-104764586D01*
X83664936Y-104764596D01*
X83644341Y-104999999D01*
X83644341Y-105000000D01*
X83664936Y-105235403D01*
X83664938Y-105235413D01*
X83726094Y-105463655D01*
X83726096Y-105463659D01*
X83726097Y-105463663D01*
X83825965Y-105677830D01*
X83825967Y-105677834D01*
X83961501Y-105871395D01*
X83961506Y-105871402D01*
X84128597Y-106038493D01*
X84128603Y-106038498D01*
X84314158Y-106168425D01*
X84357783Y-106223002D01*
X84364977Y-106292500D01*
X84333454Y-106354855D01*
X84314158Y-106371575D01*
X84128597Y-106501505D01*
X83961505Y-106668597D01*
X83825965Y-106862169D01*
X83825964Y-106862171D01*
X83726098Y-107076335D01*
X83726094Y-107076344D01*
X83664938Y-107304586D01*
X83664936Y-107304596D01*
X83644341Y-107539999D01*
X83644341Y-107540000D01*
X83664936Y-107775403D01*
X83664938Y-107775413D01*
X83726094Y-108003655D01*
X83726096Y-108003659D01*
X83726097Y-108003663D01*
X83825965Y-108217830D01*
X83825967Y-108217834D01*
X83961501Y-108411395D01*
X83961506Y-108411402D01*
X84128597Y-108578493D01*
X84128603Y-108578498D01*
X84314158Y-108708425D01*
X84357783Y-108763002D01*
X84364977Y-108832500D01*
X84333454Y-108894855D01*
X84314158Y-108911575D01*
X84128597Y-109041505D01*
X83961505Y-109208597D01*
X83825965Y-109402169D01*
X83825964Y-109402171D01*
X83726098Y-109616335D01*
X83726094Y-109616344D01*
X83664938Y-109844586D01*
X83664936Y-109844596D01*
X83644341Y-110079999D01*
X83644341Y-110080000D01*
X83664936Y-110315403D01*
X83664938Y-110315413D01*
X83726094Y-110543655D01*
X83726096Y-110543659D01*
X83726097Y-110543663D01*
X83825965Y-110757830D01*
X83825967Y-110757834D01*
X83961501Y-110951395D01*
X83961506Y-110951402D01*
X84128597Y-111118493D01*
X84128603Y-111118498D01*
X84314158Y-111248425D01*
X84357783Y-111303002D01*
X84364977Y-111372500D01*
X84333454Y-111434855D01*
X84314158Y-111451575D01*
X84128597Y-111581505D01*
X83961505Y-111748597D01*
X83825965Y-111942169D01*
X83825964Y-111942171D01*
X83726098Y-112156335D01*
X83726094Y-112156344D01*
X83664938Y-112384586D01*
X83664936Y-112384596D01*
X83644341Y-112619999D01*
X83644341Y-112620000D01*
X83664936Y-112855403D01*
X83664938Y-112855413D01*
X83726094Y-113083655D01*
X83726096Y-113083659D01*
X83726097Y-113083663D01*
X83825965Y-113297830D01*
X83825967Y-113297834D01*
X83934281Y-113452521D01*
X83961501Y-113491396D01*
X83961506Y-113491402D01*
X84083430Y-113613326D01*
X84116915Y-113674649D01*
X84111931Y-113744341D01*
X84070059Y-113800274D01*
X84039083Y-113817189D01*
X83907669Y-113866203D01*
X83907664Y-113866206D01*
X83792455Y-113952452D01*
X83792452Y-113952455D01*
X83706206Y-114067664D01*
X83706202Y-114067671D01*
X83655908Y-114202517D01*
X83650569Y-114252185D01*
X83649501Y-114262123D01*
X83649500Y-114262135D01*
X83649500Y-116057870D01*
X83649501Y-116057876D01*
X83655908Y-116117483D01*
X83706202Y-116252328D01*
X83706206Y-116252335D01*
X83792452Y-116367544D01*
X83792455Y-116367547D01*
X83907664Y-116453793D01*
X83907671Y-116453797D01*
X84042517Y-116504091D01*
X84042516Y-116504091D01*
X84049444Y-116504835D01*
X84102127Y-116510500D01*
X85897872Y-116510499D01*
X85957483Y-116504091D01*
X86092331Y-116453796D01*
X86207546Y-116367546D01*
X86293796Y-116252331D01*
X86344091Y-116117483D01*
X86350500Y-116057873D01*
X86350499Y-114262128D01*
X86344091Y-114202517D01*
X86321941Y-114143131D01*
X86293797Y-114067671D01*
X86293793Y-114067664D01*
X86207547Y-113952455D01*
X86207544Y-113952452D01*
X86092335Y-113866206D01*
X86092328Y-113866202D01*
X85960917Y-113817189D01*
X85904983Y-113775318D01*
X85880566Y-113709853D01*
X85895418Y-113641580D01*
X85916563Y-113613332D01*
X86038495Y-113491401D01*
X86174035Y-113297830D01*
X86273903Y-113083663D01*
X86335063Y-112855408D01*
X86355659Y-112620000D01*
X86335063Y-112384592D01*
X86273903Y-112156337D01*
X86174035Y-111942171D01*
X86143819Y-111899017D01*
X86038494Y-111748597D01*
X85871402Y-111581506D01*
X85871396Y-111581501D01*
X85685842Y-111451575D01*
X85642217Y-111396998D01*
X85635023Y-111327500D01*
X85666546Y-111265145D01*
X85685842Y-111248425D01*
X85837588Y-111142171D01*
X85871401Y-111118495D01*
X86038495Y-110951401D01*
X86174035Y-110757830D01*
X86273903Y-110543663D01*
X86335063Y-110315408D01*
X86355659Y-110080000D01*
X86335063Y-109844592D01*
X86273903Y-109616337D01*
X86174035Y-109402171D01*
X86143819Y-109359017D01*
X86038494Y-109208597D01*
X85871402Y-109041506D01*
X85871396Y-109041501D01*
X85685842Y-108911575D01*
X85642217Y-108856998D01*
X85635023Y-108787500D01*
X85666546Y-108725145D01*
X85685842Y-108708425D01*
X85837588Y-108602171D01*
X85871401Y-108578495D01*
X86038495Y-108411401D01*
X86174035Y-108217830D01*
X86273903Y-108003663D01*
X86335063Y-107775408D01*
X86355659Y-107540000D01*
X86335063Y-107304592D01*
X86273903Y-107076337D01*
X86174035Y-106862171D01*
X86143819Y-106819017D01*
X86038494Y-106668597D01*
X85871402Y-106501506D01*
X85871396Y-106501501D01*
X85685842Y-106371575D01*
X85642217Y-106316998D01*
X85635023Y-106247500D01*
X85666546Y-106185145D01*
X85685842Y-106168425D01*
X85837588Y-106062171D01*
X85871401Y-106038495D01*
X86038495Y-105871401D01*
X86174035Y-105677830D01*
X86273903Y-105463663D01*
X86335063Y-105235408D01*
X86355659Y-105000000D01*
X86335063Y-104764592D01*
X86273903Y-104536337D01*
X86174035Y-104322171D01*
X86143819Y-104279017D01*
X86038494Y-104128597D01*
X85871402Y-103961506D01*
X85871396Y-103961501D01*
X85685842Y-103831575D01*
X85642217Y-103776998D01*
X85635023Y-103707500D01*
X85666546Y-103645145D01*
X85685842Y-103628425D01*
X85837588Y-103522171D01*
X85871401Y-103498495D01*
X86038495Y-103331401D01*
X86174035Y-103137830D01*
X86273903Y-102923663D01*
X86335063Y-102695408D01*
X86355659Y-102460000D01*
X86335063Y-102224592D01*
X86273903Y-101996337D01*
X86174035Y-101782171D01*
X86143819Y-101739017D01*
X86038494Y-101588597D01*
X85871402Y-101421506D01*
X85871396Y-101421501D01*
X85685842Y-101291575D01*
X85642217Y-101236998D01*
X85635023Y-101167500D01*
X85666546Y-101105145D01*
X85685842Y-101088425D01*
X85837588Y-100982171D01*
X85871401Y-100958495D01*
X86038495Y-100791401D01*
X86174035Y-100597830D01*
X86273903Y-100383663D01*
X86335063Y-100155408D01*
X86355659Y-99920000D01*
X86335063Y-99684592D01*
X86273903Y-99456337D01*
X86174035Y-99242171D01*
X86143819Y-99199017D01*
X86038494Y-99048597D01*
X85871402Y-98881506D01*
X85871396Y-98881501D01*
X85685842Y-98751575D01*
X85642217Y-98696998D01*
X85635023Y-98627500D01*
X85666546Y-98565145D01*
X85685842Y-98548425D01*
X85837588Y-98442171D01*
X85871401Y-98418495D01*
X86038495Y-98251401D01*
X86174035Y-98057830D01*
X86273903Y-97843663D01*
X86335063Y-97615408D01*
X86355659Y-97380000D01*
X86335063Y-97144592D01*
X86273903Y-96916337D01*
X86174035Y-96702171D01*
X86143819Y-96659017D01*
X86038494Y-96508597D01*
X85871402Y-96341506D01*
X85871395Y-96341501D01*
X85677834Y-96205967D01*
X85677830Y-96205965D01*
X85677828Y-96205964D01*
X85463663Y-96106097D01*
X85463659Y-96106096D01*
X85463655Y-96106094D01*
X85235413Y-96044938D01*
X85235403Y-96044936D01*
X85000001Y-96024341D01*
X84999999Y-96024341D01*
X84764596Y-96044936D01*
X84764586Y-96044938D01*
X84536344Y-96106094D01*
X84536335Y-96106098D01*
X84322171Y-96205964D01*
X84322169Y-96205965D01*
X84128597Y-96341505D01*
X83961505Y-96508597D01*
X83825965Y-96702169D01*
X83825964Y-96702171D01*
X83726098Y-96916335D01*
X83726094Y-96916344D01*
X83664938Y-97144586D01*
X83664936Y-97144596D01*
X83644341Y-97379999D01*
X80850500Y-97379999D01*
X80850500Y-74999999D01*
X83644341Y-74999999D01*
X83644341Y-75000000D01*
X83664936Y-75235403D01*
X83664938Y-75235413D01*
X83726094Y-75463655D01*
X83726096Y-75463659D01*
X83726097Y-75463663D01*
X83825965Y-75677830D01*
X83825967Y-75677834D01*
X83961501Y-75871395D01*
X83961506Y-75871402D01*
X84128597Y-76038493D01*
X84128603Y-76038498D01*
X84314158Y-76168425D01*
X84357783Y-76223002D01*
X84364977Y-76292500D01*
X84333454Y-76354855D01*
X84314158Y-76371575D01*
X84128597Y-76501505D01*
X83961505Y-76668597D01*
X83825965Y-76862169D01*
X83825964Y-76862171D01*
X83773429Y-76974833D01*
X83728430Y-77071335D01*
X83726098Y-77076335D01*
X83726094Y-77076344D01*
X83664938Y-77304586D01*
X83664936Y-77304596D01*
X83644341Y-77539999D01*
X83644341Y-77540000D01*
X83664936Y-77775403D01*
X83664938Y-77775413D01*
X83726094Y-78003655D01*
X83726096Y-78003659D01*
X83726097Y-78003663D01*
X83823633Y-78212830D01*
X83825965Y-78217830D01*
X83825967Y-78217834D01*
X83934281Y-78372521D01*
X83958000Y-78406396D01*
X83961501Y-78411395D01*
X83961506Y-78411402D01*
X84128597Y-78578493D01*
X84128603Y-78578498D01*
X84314158Y-78708425D01*
X84357783Y-78763002D01*
X84364977Y-78832500D01*
X84333454Y-78894855D01*
X84314158Y-78911575D01*
X84128597Y-79041505D01*
X83961505Y-79208597D01*
X83825965Y-79402169D01*
X83825964Y-79402171D01*
X83726098Y-79616335D01*
X83726094Y-79616344D01*
X83664938Y-79844586D01*
X83664936Y-79844596D01*
X83644341Y-80079999D01*
X83644341Y-80080000D01*
X83664936Y-80315403D01*
X83664938Y-80315413D01*
X83726094Y-80543655D01*
X83726096Y-80543659D01*
X83726097Y-80543663D01*
X83825965Y-80757830D01*
X83825967Y-80757834D01*
X83961501Y-80951395D01*
X83961506Y-80951402D01*
X84128597Y-81118493D01*
X84128603Y-81118498D01*
X84314158Y-81248425D01*
X84357783Y-81303002D01*
X84364977Y-81372500D01*
X84333454Y-81434855D01*
X84314158Y-81451575D01*
X84128597Y-81581505D01*
X83961505Y-81748597D01*
X83825965Y-81942169D01*
X83825964Y-81942171D01*
X83726098Y-82156335D01*
X83726094Y-82156344D01*
X83664938Y-82384586D01*
X83664936Y-82384596D01*
X83644341Y-82619999D01*
X83644341Y-82620000D01*
X83664936Y-82855403D01*
X83664938Y-82855413D01*
X83726094Y-83083655D01*
X83726096Y-83083659D01*
X83726097Y-83083663D01*
X83825965Y-83297830D01*
X83825967Y-83297834D01*
X83961501Y-83491395D01*
X83961506Y-83491402D01*
X84128597Y-83658493D01*
X84128603Y-83658498D01*
X84314158Y-83788425D01*
X84357783Y-83843002D01*
X84364977Y-83912500D01*
X84333454Y-83974855D01*
X84314158Y-83991575D01*
X84128597Y-84121505D01*
X83961505Y-84288597D01*
X83825965Y-84482169D01*
X83825964Y-84482171D01*
X83726098Y-84696335D01*
X83726094Y-84696344D01*
X83664938Y-84924586D01*
X83664936Y-84924596D01*
X83644341Y-85159999D01*
X83644341Y-85160000D01*
X83664936Y-85395403D01*
X83664938Y-85395413D01*
X83726094Y-85623655D01*
X83726096Y-85623659D01*
X83726097Y-85623663D01*
X83785409Y-85750858D01*
X83825965Y-85837830D01*
X83825967Y-85837834D01*
X83961501Y-86031395D01*
X83961506Y-86031402D01*
X84128597Y-86198493D01*
X84128603Y-86198498D01*
X84314158Y-86328425D01*
X84357783Y-86383002D01*
X84364977Y-86452500D01*
X84333454Y-86514855D01*
X84314158Y-86531575D01*
X84128597Y-86661505D01*
X83961505Y-86828597D01*
X83825965Y-87022169D01*
X83825964Y-87022171D01*
X83726098Y-87236335D01*
X83726094Y-87236344D01*
X83664938Y-87464586D01*
X83664936Y-87464596D01*
X83644341Y-87699999D01*
X83644341Y-87700000D01*
X83664936Y-87935403D01*
X83664938Y-87935413D01*
X83726094Y-88163655D01*
X83726096Y-88163659D01*
X83726097Y-88163663D01*
X83825965Y-88377830D01*
X83825967Y-88377834D01*
X83961501Y-88571395D01*
X83961506Y-88571402D01*
X84128597Y-88738493D01*
X84128603Y-88738498D01*
X84314158Y-88868425D01*
X84357783Y-88923002D01*
X84364977Y-88992500D01*
X84333454Y-89054855D01*
X84314158Y-89071575D01*
X84128597Y-89201505D01*
X83961505Y-89368597D01*
X83825965Y-89562169D01*
X83825964Y-89562171D01*
X83726098Y-89776335D01*
X83726094Y-89776344D01*
X83664938Y-90004586D01*
X83664936Y-90004596D01*
X83644341Y-90239999D01*
X83644341Y-90240000D01*
X83664936Y-90475403D01*
X83664938Y-90475413D01*
X83726094Y-90703655D01*
X83726096Y-90703659D01*
X83726097Y-90703663D01*
X83825965Y-90917830D01*
X83825967Y-90917834D01*
X83853973Y-90957830D01*
X83961501Y-91111396D01*
X83961506Y-91111402D01*
X84083430Y-91233326D01*
X84116915Y-91294649D01*
X84111931Y-91364341D01*
X84070059Y-91420274D01*
X84039083Y-91437189D01*
X83907669Y-91486203D01*
X83907664Y-91486206D01*
X83792455Y-91572452D01*
X83792452Y-91572455D01*
X83706206Y-91687664D01*
X83706202Y-91687671D01*
X83655908Y-91822517D01*
X83650065Y-91876868D01*
X83649501Y-91882123D01*
X83649500Y-91882135D01*
X83649500Y-93677870D01*
X83649501Y-93677876D01*
X83655908Y-93737483D01*
X83706202Y-93872328D01*
X83706206Y-93872335D01*
X83792452Y-93987544D01*
X83792455Y-93987547D01*
X83907664Y-94073793D01*
X83907671Y-94073797D01*
X84042517Y-94124091D01*
X84042516Y-94124091D01*
X84049444Y-94124835D01*
X84102127Y-94130500D01*
X85897872Y-94130499D01*
X85957483Y-94124091D01*
X86092331Y-94073796D01*
X86207546Y-93987546D01*
X86293796Y-93872331D01*
X86344091Y-93737483D01*
X86350500Y-93677873D01*
X86350499Y-91882128D01*
X86344091Y-91822517D01*
X86316990Y-91749856D01*
X86293797Y-91687671D01*
X86293793Y-91687664D01*
X86207547Y-91572455D01*
X86207544Y-91572452D01*
X86092335Y-91486206D01*
X86092328Y-91486202D01*
X85960917Y-91437189D01*
X85904983Y-91395318D01*
X85880566Y-91329853D01*
X85895418Y-91261580D01*
X85916563Y-91233332D01*
X86038495Y-91111401D01*
X86174035Y-90917830D01*
X86273903Y-90703663D01*
X86335063Y-90475408D01*
X86355659Y-90240000D01*
X86335063Y-90004592D01*
X86273903Y-89776337D01*
X86174035Y-89562171D01*
X86066504Y-89408599D01*
X86038494Y-89368597D01*
X85871402Y-89201506D01*
X85871396Y-89201501D01*
X85685842Y-89071575D01*
X85642217Y-89016998D01*
X85635023Y-88947500D01*
X85666546Y-88885145D01*
X85685842Y-88868425D01*
X85781796Y-88801237D01*
X85871401Y-88738495D01*
X86038495Y-88571401D01*
X86174035Y-88377830D01*
X86273903Y-88163663D01*
X86335063Y-87935408D01*
X86355659Y-87700000D01*
X86335063Y-87464592D01*
X86273903Y-87236337D01*
X86174035Y-87022171D01*
X86066504Y-86868599D01*
X86038494Y-86828597D01*
X85871402Y-86661506D01*
X85871396Y-86661501D01*
X85685842Y-86531575D01*
X85642217Y-86476998D01*
X85635023Y-86407500D01*
X85666546Y-86345145D01*
X85685842Y-86328425D01*
X85781796Y-86261237D01*
X85871401Y-86198495D01*
X86038495Y-86031401D01*
X86174035Y-85837830D01*
X86273903Y-85623663D01*
X86335063Y-85395408D01*
X86355659Y-85160000D01*
X86335063Y-84924592D01*
X86273903Y-84696337D01*
X86174035Y-84482171D01*
X86066504Y-84328599D01*
X86038494Y-84288597D01*
X85871402Y-84121506D01*
X85871396Y-84121501D01*
X85685842Y-83991575D01*
X85642217Y-83936998D01*
X85635023Y-83867500D01*
X85666546Y-83805145D01*
X85685842Y-83788425D01*
X85781796Y-83721237D01*
X85871401Y-83658495D01*
X86038495Y-83491401D01*
X86174035Y-83297830D01*
X86273903Y-83083663D01*
X86335063Y-82855408D01*
X86355659Y-82620000D01*
X86335063Y-82384592D01*
X86273903Y-82156337D01*
X86174035Y-81942171D01*
X86066504Y-81788599D01*
X86038494Y-81748597D01*
X85871402Y-81581506D01*
X85871396Y-81581501D01*
X85685842Y-81451575D01*
X85642217Y-81396998D01*
X85635023Y-81327500D01*
X85666546Y-81265145D01*
X85685842Y-81248425D01*
X85801660Y-81167328D01*
X85871401Y-81118495D01*
X86038495Y-80951401D01*
X86174035Y-80757830D01*
X86273903Y-80543663D01*
X86335063Y-80315408D01*
X86355659Y-80080000D01*
X86335063Y-79844592D01*
X86273903Y-79616337D01*
X86174035Y-79402171D01*
X86038495Y-79208599D01*
X86038494Y-79208597D01*
X85871402Y-79041506D01*
X85871396Y-79041501D01*
X85685842Y-78911575D01*
X85642217Y-78856998D01*
X85635023Y-78787500D01*
X85666546Y-78725145D01*
X85685842Y-78708425D01*
X85805195Y-78624853D01*
X85871401Y-78578495D01*
X86038495Y-78411401D01*
X86174035Y-78217830D01*
X86273903Y-78003663D01*
X86335063Y-77775408D01*
X86355659Y-77540000D01*
X86355221Y-77534999D01*
X86342484Y-77389409D01*
X86335063Y-77304592D01*
X86273903Y-77076337D01*
X86174035Y-76862171D01*
X86038495Y-76668599D01*
X86038494Y-76668597D01*
X85871402Y-76501506D01*
X85871396Y-76501501D01*
X85685842Y-76371575D01*
X85642217Y-76316998D01*
X85635023Y-76247500D01*
X85666546Y-76185145D01*
X85685842Y-76168425D01*
X85781796Y-76101237D01*
X85871401Y-76038495D01*
X86038495Y-75871401D01*
X86174035Y-75677830D01*
X86273903Y-75463663D01*
X86335063Y-75235408D01*
X86355659Y-75000000D01*
X86335063Y-74764592D01*
X86273903Y-74536337D01*
X86174035Y-74322171D01*
X86038495Y-74128599D01*
X86038494Y-74128597D01*
X85871402Y-73961506D01*
X85871395Y-73961501D01*
X85677834Y-73825967D01*
X85677830Y-73825965D01*
X85662818Y-73818965D01*
X85463663Y-73726097D01*
X85463659Y-73726096D01*
X85463655Y-73726094D01*
X85235413Y-73664938D01*
X85235403Y-73664936D01*
X85000001Y-73644341D01*
X84999999Y-73644341D01*
X84764596Y-73664936D01*
X84764586Y-73664938D01*
X84536344Y-73726094D01*
X84536335Y-73726098D01*
X84322171Y-73825964D01*
X84322169Y-73825965D01*
X84128597Y-73961505D01*
X83961505Y-74128597D01*
X83825965Y-74322169D01*
X83825964Y-74322171D01*
X83726098Y-74536335D01*
X83726094Y-74536344D01*
X83664938Y-74764586D01*
X83664936Y-74764596D01*
X83644341Y-74999999D01*
X80850500Y-74999999D01*
X80850500Y-68509999D01*
X83619341Y-68509999D01*
X83619341Y-68510000D01*
X83639936Y-68745403D01*
X83639938Y-68745413D01*
X83701094Y-68973655D01*
X83701096Y-68973659D01*
X83701097Y-68973663D01*
X83794257Y-69173444D01*
X83800965Y-69187830D01*
X83800967Y-69187834D01*
X83909281Y-69342521D01*
X83936501Y-69381396D01*
X83936506Y-69381402D01*
X84058430Y-69503326D01*
X84091915Y-69564649D01*
X84086931Y-69634341D01*
X84045059Y-69690274D01*
X84014083Y-69707189D01*
X83882669Y-69756203D01*
X83882664Y-69756206D01*
X83767455Y-69842452D01*
X83767452Y-69842455D01*
X83681206Y-69957664D01*
X83681202Y-69957671D01*
X83630908Y-70092517D01*
X83624501Y-70152116D01*
X83624501Y-70152123D01*
X83624500Y-70152135D01*
X83624500Y-71947870D01*
X83624501Y-71947876D01*
X83630908Y-72007483D01*
X83681202Y-72142328D01*
X83681206Y-72142335D01*
X83767452Y-72257544D01*
X83767455Y-72257547D01*
X83882664Y-72343793D01*
X83882671Y-72343797D01*
X84017517Y-72394091D01*
X84017516Y-72394091D01*
X84024444Y-72394835D01*
X84077127Y-72400500D01*
X85872872Y-72400499D01*
X85932483Y-72394091D01*
X86067331Y-72343796D01*
X86182546Y-72257546D01*
X86268796Y-72142331D01*
X86319091Y-72007483D01*
X86325500Y-71947873D01*
X86325499Y-70152128D01*
X86319091Y-70092517D01*
X86268796Y-69957669D01*
X86268795Y-69957668D01*
X86268793Y-69957664D01*
X86182547Y-69842455D01*
X86182544Y-69842452D01*
X86067335Y-69756206D01*
X86067328Y-69756202D01*
X85935917Y-69707189D01*
X85879983Y-69665318D01*
X85855566Y-69599853D01*
X85870418Y-69531580D01*
X85891563Y-69503332D01*
X86013495Y-69381401D01*
X86149035Y-69187830D01*
X86248903Y-68973663D01*
X86310063Y-68745408D01*
X86330659Y-68510000D01*
X86310063Y-68274592D01*
X86248903Y-68046337D01*
X86149035Y-67832171D01*
X86132363Y-67808360D01*
X86013494Y-67638597D01*
X85846402Y-67471506D01*
X85846395Y-67471501D01*
X85652834Y-67335967D01*
X85652830Y-67335965D01*
X85652828Y-67335964D01*
X85438663Y-67236097D01*
X85438659Y-67236096D01*
X85438655Y-67236094D01*
X85210413Y-67174938D01*
X85210403Y-67174936D01*
X84975001Y-67154341D01*
X84974999Y-67154341D01*
X84739596Y-67174936D01*
X84739586Y-67174938D01*
X84511344Y-67236094D01*
X84511335Y-67236098D01*
X84297171Y-67335964D01*
X84297169Y-67335965D01*
X84103597Y-67471505D01*
X83936505Y-67638597D01*
X83800965Y-67832169D01*
X83800964Y-67832171D01*
X83701098Y-68046335D01*
X83701094Y-68046344D01*
X83639938Y-68274586D01*
X83639936Y-68274596D01*
X83619341Y-68509999D01*
X80850500Y-68509999D01*
X80850500Y-54719999D01*
X83644341Y-54719999D01*
X83644341Y-54720000D01*
X83664936Y-54955403D01*
X83664938Y-54955413D01*
X83726094Y-55183655D01*
X83726096Y-55183659D01*
X83726097Y-55183663D01*
X83825965Y-55397830D01*
X83825967Y-55397834D01*
X83934281Y-55552521D01*
X83941536Y-55562883D01*
X83961501Y-55591395D01*
X83961506Y-55591402D01*
X84128597Y-55758493D01*
X84128603Y-55758498D01*
X84314158Y-55888425D01*
X84357783Y-55943002D01*
X84364977Y-56012500D01*
X84333454Y-56074855D01*
X84314158Y-56091575D01*
X84128597Y-56221505D01*
X83961505Y-56388597D01*
X83825965Y-56582169D01*
X83825964Y-56582171D01*
X83726098Y-56796335D01*
X83726094Y-56796344D01*
X83664938Y-57024586D01*
X83664936Y-57024596D01*
X83644341Y-57259999D01*
X83644341Y-57260000D01*
X83664936Y-57495403D01*
X83664938Y-57495413D01*
X83726094Y-57723655D01*
X83726096Y-57723659D01*
X83726097Y-57723663D01*
X83820058Y-57925163D01*
X83825965Y-57937830D01*
X83825967Y-57937834D01*
X83961501Y-58131395D01*
X83961506Y-58131402D01*
X84128597Y-58298493D01*
X84128603Y-58298498D01*
X84314158Y-58428425D01*
X84357783Y-58483002D01*
X84364977Y-58552500D01*
X84333454Y-58614855D01*
X84314158Y-58631575D01*
X84128597Y-58761505D01*
X83961505Y-58928597D01*
X83825965Y-59122169D01*
X83825964Y-59122171D01*
X83726098Y-59336335D01*
X83726094Y-59336344D01*
X83664938Y-59564586D01*
X83664936Y-59564596D01*
X83644341Y-59799999D01*
X83644341Y-59800000D01*
X83664936Y-60035403D01*
X83664938Y-60035413D01*
X83726094Y-60263655D01*
X83726096Y-60263659D01*
X83726097Y-60263663D01*
X83726481Y-60264486D01*
X83825965Y-60477830D01*
X83825967Y-60477834D01*
X83961501Y-60671395D01*
X83961506Y-60671402D01*
X84128597Y-60838493D01*
X84128603Y-60838498D01*
X84314158Y-60968425D01*
X84357783Y-61023002D01*
X84364977Y-61092500D01*
X84333454Y-61154855D01*
X84314158Y-61171575D01*
X84128597Y-61301505D01*
X83961505Y-61468597D01*
X83825965Y-61662169D01*
X83825964Y-61662171D01*
X83726098Y-61876335D01*
X83726094Y-61876344D01*
X83664938Y-62104586D01*
X83664936Y-62104596D01*
X83644341Y-62339999D01*
X83644341Y-62340000D01*
X83664936Y-62575403D01*
X83664938Y-62575413D01*
X83726094Y-62803655D01*
X83726096Y-62803659D01*
X83726097Y-62803663D01*
X83726481Y-62804486D01*
X83825965Y-63017830D01*
X83825967Y-63017834D01*
X83934281Y-63172521D01*
X83961501Y-63211396D01*
X83961506Y-63211402D01*
X84083430Y-63333326D01*
X84116915Y-63394649D01*
X84111931Y-63464341D01*
X84070059Y-63520274D01*
X84039083Y-63537189D01*
X83907669Y-63586203D01*
X83907664Y-63586206D01*
X83792455Y-63672452D01*
X83792452Y-63672455D01*
X83706206Y-63787664D01*
X83706202Y-63787671D01*
X83655908Y-63922517D01*
X83650954Y-63968599D01*
X83649501Y-63982123D01*
X83649500Y-63982135D01*
X83649500Y-65777870D01*
X83649501Y-65777876D01*
X83655908Y-65837483D01*
X83706202Y-65972328D01*
X83706206Y-65972335D01*
X83792452Y-66087544D01*
X83792455Y-66087547D01*
X83907664Y-66173793D01*
X83907671Y-66173797D01*
X84042517Y-66224091D01*
X84042516Y-66224091D01*
X84049444Y-66224835D01*
X84102127Y-66230500D01*
X85897872Y-66230499D01*
X85957483Y-66224091D01*
X86092331Y-66173796D01*
X86207546Y-66087546D01*
X86293796Y-65972331D01*
X86344091Y-65837483D01*
X86350500Y-65777873D01*
X86350499Y-63982128D01*
X86344091Y-63922517D01*
X86315803Y-63846674D01*
X86293797Y-63787671D01*
X86293793Y-63787664D01*
X86207547Y-63672455D01*
X86207544Y-63672452D01*
X86092335Y-63586206D01*
X86092328Y-63586202D01*
X85960917Y-63537189D01*
X85904983Y-63495318D01*
X85880566Y-63429853D01*
X85895418Y-63361580D01*
X85916563Y-63333332D01*
X86038495Y-63211401D01*
X86174035Y-63017830D01*
X86273903Y-62803663D01*
X86335063Y-62575408D01*
X86355659Y-62340000D01*
X86335063Y-62104592D01*
X86273903Y-61876337D01*
X86174035Y-61662171D01*
X86038495Y-61468599D01*
X86038494Y-61468597D01*
X85871402Y-61301506D01*
X85871396Y-61301501D01*
X85685842Y-61171575D01*
X85642217Y-61116998D01*
X85635023Y-61047500D01*
X85666546Y-60985145D01*
X85685842Y-60968425D01*
X85740514Y-60930143D01*
X85871401Y-60838495D01*
X86038495Y-60671401D01*
X86174035Y-60477830D01*
X86273903Y-60263663D01*
X86335063Y-60035408D01*
X86355659Y-59800000D01*
X86335063Y-59564592D01*
X86273903Y-59336337D01*
X86174035Y-59122171D01*
X86038495Y-58928599D01*
X86038494Y-58928597D01*
X85871402Y-58761506D01*
X85871396Y-58761501D01*
X85685842Y-58631575D01*
X85642217Y-58576998D01*
X85635023Y-58507500D01*
X85666546Y-58445145D01*
X85685842Y-58428425D01*
X85740514Y-58390143D01*
X85871401Y-58298495D01*
X86038495Y-58131401D01*
X86174035Y-57937830D01*
X86273903Y-57723663D01*
X86335063Y-57495408D01*
X86353034Y-57289998D01*
X89729666Y-57289998D01*
X89729666Y-57290001D01*
X89748964Y-57510585D01*
X89748965Y-57510592D01*
X89806275Y-57724475D01*
X89806279Y-57724486D01*
X89841492Y-57800000D01*
X89899858Y-57925167D01*
X90026868Y-58106555D01*
X90183445Y-58263132D01*
X90364833Y-58390142D01*
X90426828Y-58419050D01*
X90488091Y-58447618D01*
X90540531Y-58493790D01*
X90559683Y-58560983D01*
X90539467Y-58627865D01*
X90488091Y-58672382D01*
X90364836Y-58729856D01*
X90364834Y-58729857D01*
X90183444Y-58856868D01*
X90026868Y-59013444D01*
X89899857Y-59194834D01*
X89899856Y-59194836D01*
X89806279Y-59395513D01*
X89806275Y-59395524D01*
X89748965Y-59609407D01*
X89748964Y-59609414D01*
X89729666Y-59829998D01*
X89729666Y-59830001D01*
X89748964Y-60050585D01*
X89748965Y-60050592D01*
X89806275Y-60264475D01*
X89806279Y-60264486D01*
X89899856Y-60465163D01*
X89899858Y-60465167D01*
X90026868Y-60646555D01*
X90183445Y-60803132D01*
X90364833Y-60930142D01*
X90406347Y-60949500D01*
X90488091Y-60987618D01*
X90540531Y-61033790D01*
X90559683Y-61100983D01*
X90539467Y-61167865D01*
X90488091Y-61212382D01*
X90364836Y-61269856D01*
X90364834Y-61269857D01*
X90183444Y-61396868D01*
X90026868Y-61553444D01*
X89899857Y-61734834D01*
X89899856Y-61734836D01*
X89806279Y-61935513D01*
X89806275Y-61935524D01*
X89748965Y-62149407D01*
X89748964Y-62149414D01*
X89729666Y-62369998D01*
X89729666Y-62370001D01*
X89748964Y-62590585D01*
X89748965Y-62590592D01*
X89806275Y-62804475D01*
X89806279Y-62804486D01*
X89899856Y-63005163D01*
X89899858Y-63005167D01*
X90026868Y-63186555D01*
X90183445Y-63343132D01*
X90364833Y-63470142D01*
X90418824Y-63495318D01*
X90488091Y-63527618D01*
X90540531Y-63573790D01*
X90559683Y-63640983D01*
X90539467Y-63707865D01*
X90488091Y-63752382D01*
X90364836Y-63809856D01*
X90364834Y-63809857D01*
X90183444Y-63936868D01*
X90026868Y-64093444D01*
X89899857Y-64274834D01*
X89899856Y-64274836D01*
X89806279Y-64475513D01*
X89806275Y-64475524D01*
X89748965Y-64689407D01*
X89748964Y-64689414D01*
X89729666Y-64909998D01*
X89729666Y-64910001D01*
X89748964Y-65130585D01*
X89748965Y-65130592D01*
X89806275Y-65344475D01*
X89806279Y-65344486D01*
X89899856Y-65545163D01*
X89899858Y-65545167D01*
X90026868Y-65726555D01*
X90183445Y-65883132D01*
X90364833Y-66010142D01*
X90426828Y-66039050D01*
X90488091Y-66067618D01*
X90540531Y-66113790D01*
X90559683Y-66180983D01*
X90539467Y-66247865D01*
X90488091Y-66292382D01*
X90364836Y-66349856D01*
X90364834Y-66349857D01*
X90183444Y-66476868D01*
X90026868Y-66633444D01*
X89899857Y-66814834D01*
X89899856Y-66814836D01*
X89806279Y-67015513D01*
X89806275Y-67015524D01*
X89748965Y-67229407D01*
X89748964Y-67229414D01*
X89729666Y-67449998D01*
X89729666Y-67450001D01*
X89748964Y-67670585D01*
X89748965Y-67670592D01*
X89806275Y-67884475D01*
X89806279Y-67884486D01*
X89899856Y-68085163D01*
X89899858Y-68085167D01*
X90026868Y-68266555D01*
X90183445Y-68423132D01*
X90364833Y-68550142D01*
X90426828Y-68579050D01*
X90488091Y-68607618D01*
X90540531Y-68653790D01*
X90559683Y-68720983D01*
X90539467Y-68787865D01*
X90488091Y-68832382D01*
X90364836Y-68889856D01*
X90364834Y-68889857D01*
X90183444Y-69016868D01*
X90026868Y-69173444D01*
X89899857Y-69354834D01*
X89899856Y-69354836D01*
X89806279Y-69555513D01*
X89806275Y-69555524D01*
X89748965Y-69769407D01*
X89748964Y-69769414D01*
X89729666Y-69989998D01*
X89729666Y-69990001D01*
X89748964Y-70210585D01*
X89748965Y-70210592D01*
X89806275Y-70424475D01*
X89806279Y-70424486D01*
X89899856Y-70625163D01*
X89899858Y-70625167D01*
X90026868Y-70806555D01*
X90183445Y-70963132D01*
X90364833Y-71090142D01*
X90426828Y-71119050D01*
X90488091Y-71147618D01*
X90540531Y-71193790D01*
X90559683Y-71260983D01*
X90539467Y-71327865D01*
X90488091Y-71372382D01*
X90364836Y-71429856D01*
X90364834Y-71429857D01*
X90183444Y-71556868D01*
X90026868Y-71713444D01*
X89899857Y-71894834D01*
X89899856Y-71894836D01*
X89806279Y-72095513D01*
X89806275Y-72095524D01*
X89748965Y-72309407D01*
X89748964Y-72309414D01*
X89729666Y-72529998D01*
X89729666Y-72530001D01*
X89748964Y-72750585D01*
X89748965Y-72750592D01*
X89806275Y-72964475D01*
X89806279Y-72964486D01*
X89899856Y-73165163D01*
X89899858Y-73165167D01*
X90026868Y-73346555D01*
X90183445Y-73503132D01*
X90364833Y-73630142D01*
X90426828Y-73659050D01*
X90488091Y-73687618D01*
X90540531Y-73733790D01*
X90559683Y-73800983D01*
X90539467Y-73867865D01*
X90488091Y-73912382D01*
X90364836Y-73969856D01*
X90364834Y-73969857D01*
X90183444Y-74096868D01*
X90026868Y-74253444D01*
X89899857Y-74434834D01*
X89899856Y-74434836D01*
X89806279Y-74635513D01*
X89806275Y-74635524D01*
X89748965Y-74849407D01*
X89748964Y-74849414D01*
X89729666Y-75069998D01*
X89729666Y-75070001D01*
X89748964Y-75290585D01*
X89748965Y-75290592D01*
X89806275Y-75504475D01*
X89806279Y-75504486D01*
X89899856Y-75705163D01*
X89899858Y-75705167D01*
X90026868Y-75886555D01*
X90183445Y-76043132D01*
X90364833Y-76170142D01*
X90426828Y-76199050D01*
X90488091Y-76227618D01*
X90540531Y-76273790D01*
X90559683Y-76340983D01*
X90539467Y-76407865D01*
X90488091Y-76452382D01*
X90364836Y-76509856D01*
X90364834Y-76509857D01*
X90183444Y-76636868D01*
X90026868Y-76793444D01*
X89899857Y-76974834D01*
X89899856Y-76974836D01*
X89806279Y-77175513D01*
X89806275Y-77175524D01*
X89748965Y-77389407D01*
X89748964Y-77389414D01*
X89729666Y-77609998D01*
X89729666Y-77610001D01*
X89748964Y-77830585D01*
X89748965Y-77830592D01*
X89806275Y-78044475D01*
X89806279Y-78044486D01*
X89899856Y-78245163D01*
X89899858Y-78245167D01*
X90026868Y-78426555D01*
X90183445Y-78583132D01*
X90364833Y-78710142D01*
X90426828Y-78739050D01*
X90488091Y-78767618D01*
X90540531Y-78813790D01*
X90559683Y-78880983D01*
X90539467Y-78947865D01*
X90488091Y-78992382D01*
X90364836Y-79049856D01*
X90364834Y-79049857D01*
X90183444Y-79176868D01*
X90026868Y-79333444D01*
X89899857Y-79514834D01*
X89899856Y-79514836D01*
X89806279Y-79715513D01*
X89806275Y-79715524D01*
X89748965Y-79929407D01*
X89748964Y-79929414D01*
X89729666Y-80149998D01*
X89729666Y-80150001D01*
X89748964Y-80370585D01*
X89748965Y-80370592D01*
X89806275Y-80584475D01*
X89806279Y-80584486D01*
X89899856Y-80785163D01*
X89899858Y-80785167D01*
X90026868Y-80966555D01*
X90183445Y-81123132D01*
X90364833Y-81250142D01*
X90426828Y-81279050D01*
X90488091Y-81307618D01*
X90540531Y-81353790D01*
X90559683Y-81420983D01*
X90539467Y-81487865D01*
X90488091Y-81532382D01*
X90364836Y-81589856D01*
X90364834Y-81589857D01*
X90183444Y-81716868D01*
X90026868Y-81873444D01*
X89899857Y-82054834D01*
X89899856Y-82054836D01*
X89806279Y-82255513D01*
X89806275Y-82255524D01*
X89748965Y-82469407D01*
X89748964Y-82469414D01*
X89729666Y-82689998D01*
X89729666Y-82690001D01*
X89748964Y-82910585D01*
X89748965Y-82910592D01*
X89806275Y-83124475D01*
X89806279Y-83124486D01*
X89899856Y-83325163D01*
X89899858Y-83325167D01*
X90026868Y-83506555D01*
X90183445Y-83663132D01*
X90364833Y-83790142D01*
X90426828Y-83819050D01*
X90488091Y-83847618D01*
X90540531Y-83893790D01*
X90559683Y-83960983D01*
X90539467Y-84027865D01*
X90488091Y-84072382D01*
X90364836Y-84129856D01*
X90364834Y-84129857D01*
X90183444Y-84256868D01*
X90026868Y-84413444D01*
X89899857Y-84594834D01*
X89899856Y-84594836D01*
X89806279Y-84795513D01*
X89806275Y-84795524D01*
X89748965Y-85009407D01*
X89748964Y-85009414D01*
X89729666Y-85229998D01*
X89729666Y-85230001D01*
X89748964Y-85450585D01*
X89748965Y-85450592D01*
X89806275Y-85664475D01*
X89806279Y-85664486D01*
X89899856Y-85865163D01*
X89899858Y-85865167D01*
X90026868Y-86046555D01*
X90183445Y-86203132D01*
X90364833Y-86330142D01*
X90426828Y-86359050D01*
X90488091Y-86387618D01*
X90540531Y-86433790D01*
X90559683Y-86500983D01*
X90539467Y-86567865D01*
X90488091Y-86612382D01*
X90364836Y-86669856D01*
X90364834Y-86669857D01*
X90183444Y-86796868D01*
X90026868Y-86953444D01*
X89899857Y-87134834D01*
X89899856Y-87134836D01*
X89806279Y-87335513D01*
X89806275Y-87335524D01*
X89748965Y-87549407D01*
X89748964Y-87549414D01*
X89729666Y-87769998D01*
X89729666Y-87770001D01*
X89748964Y-87990585D01*
X89748965Y-87990592D01*
X89806275Y-88204475D01*
X89806279Y-88204486D01*
X89899856Y-88405163D01*
X89899858Y-88405167D01*
X90026868Y-88586555D01*
X90183445Y-88743132D01*
X90364833Y-88870142D01*
X90426828Y-88899050D01*
X90488091Y-88927618D01*
X90540531Y-88973790D01*
X90559683Y-89040983D01*
X90539467Y-89107865D01*
X90488091Y-89152382D01*
X90364836Y-89209856D01*
X90364834Y-89209857D01*
X90183444Y-89336868D01*
X90026868Y-89493444D01*
X89899857Y-89674834D01*
X89899856Y-89674836D01*
X89806279Y-89875513D01*
X89806275Y-89875524D01*
X89748965Y-90089407D01*
X89748964Y-90089414D01*
X89729666Y-90309998D01*
X89729666Y-90310001D01*
X89748964Y-90530585D01*
X89748965Y-90530592D01*
X89806275Y-90744475D01*
X89806279Y-90744486D01*
X89899856Y-90945163D01*
X89899858Y-90945167D01*
X90026868Y-91126555D01*
X90183445Y-91283132D01*
X90364833Y-91410142D01*
X90406347Y-91429500D01*
X90488091Y-91467618D01*
X90540531Y-91513790D01*
X90559683Y-91580983D01*
X90539467Y-91647865D01*
X90488091Y-91692382D01*
X90364836Y-91749856D01*
X90364834Y-91749857D01*
X90183444Y-91876868D01*
X90026868Y-92033444D01*
X89899857Y-92214834D01*
X89899856Y-92214836D01*
X89806279Y-92415513D01*
X89806275Y-92415524D01*
X89748965Y-92629407D01*
X89748964Y-92629414D01*
X89729666Y-92849998D01*
X89729666Y-92850001D01*
X89748964Y-93070585D01*
X89748965Y-93070592D01*
X89806275Y-93284475D01*
X89806279Y-93284486D01*
X89846705Y-93371179D01*
X89899858Y-93485167D01*
X90026868Y-93666555D01*
X90183445Y-93823132D01*
X90364833Y-93950142D01*
X90385972Y-93959999D01*
X90488091Y-94007618D01*
X90540531Y-94053790D01*
X90559683Y-94120983D01*
X90539467Y-94187865D01*
X90488091Y-94232382D01*
X90364836Y-94289856D01*
X90364834Y-94289857D01*
X90183444Y-94416868D01*
X90026868Y-94573444D01*
X89899857Y-94754834D01*
X89899856Y-94754836D01*
X89806279Y-94955513D01*
X89806275Y-94955524D01*
X89748965Y-95169407D01*
X89748964Y-95169414D01*
X89729666Y-95389998D01*
X89729666Y-95390001D01*
X89748964Y-95610585D01*
X89748965Y-95610592D01*
X89806275Y-95824475D01*
X89806279Y-95824486D01*
X89899473Y-96024341D01*
X89899858Y-96025167D01*
X90026868Y-96206555D01*
X90183445Y-96363132D01*
X90364833Y-96490142D01*
X90404415Y-96508599D01*
X90488091Y-96547618D01*
X90540531Y-96593790D01*
X90559683Y-96660983D01*
X90539467Y-96727865D01*
X90488091Y-96772382D01*
X90364836Y-96829856D01*
X90364834Y-96829857D01*
X90183444Y-96956868D01*
X90026868Y-97113444D01*
X89899857Y-97294834D01*
X89899856Y-97294836D01*
X89806279Y-97495513D01*
X89806275Y-97495524D01*
X89748965Y-97709407D01*
X89748964Y-97709414D01*
X89729666Y-97929998D01*
X89729666Y-97930001D01*
X89748964Y-98150585D01*
X89748965Y-98150592D01*
X89806275Y-98364475D01*
X89806279Y-98364486D01*
X89892051Y-98548425D01*
X89899858Y-98565167D01*
X90026868Y-98746555D01*
X90183445Y-98903132D01*
X90364833Y-99030142D01*
X90404415Y-99048599D01*
X90488091Y-99087618D01*
X90540531Y-99133790D01*
X90559683Y-99200983D01*
X90539467Y-99267865D01*
X90488091Y-99312382D01*
X90364836Y-99369856D01*
X90364834Y-99369857D01*
X90183444Y-99496868D01*
X90026868Y-99653444D01*
X89899857Y-99834834D01*
X89899856Y-99834836D01*
X89806279Y-100035513D01*
X89806275Y-100035524D01*
X89748965Y-100249407D01*
X89748964Y-100249414D01*
X89729666Y-100469998D01*
X89729666Y-100470001D01*
X89748964Y-100690585D01*
X89748965Y-100690592D01*
X89806275Y-100904475D01*
X89806279Y-100904486D01*
X89892051Y-101088425D01*
X89899858Y-101105167D01*
X90026868Y-101286555D01*
X90183445Y-101443132D01*
X90364833Y-101570142D01*
X90404415Y-101588599D01*
X90488091Y-101627618D01*
X90540531Y-101673790D01*
X90559683Y-101740983D01*
X90539467Y-101807865D01*
X90488091Y-101852382D01*
X90364836Y-101909856D01*
X90364834Y-101909857D01*
X90183444Y-102036868D01*
X90026868Y-102193444D01*
X89899857Y-102374834D01*
X89899856Y-102374836D01*
X89806279Y-102575513D01*
X89806275Y-102575524D01*
X89748965Y-102789407D01*
X89748964Y-102789414D01*
X89729666Y-103009998D01*
X89729666Y-103010001D01*
X89748964Y-103230585D01*
X89748965Y-103230592D01*
X89806275Y-103444475D01*
X89806279Y-103444486D01*
X89892051Y-103628425D01*
X89899858Y-103645167D01*
X90026868Y-103826555D01*
X90183445Y-103983132D01*
X90364833Y-104110142D01*
X90404415Y-104128599D01*
X90488091Y-104167618D01*
X90540531Y-104213790D01*
X90559683Y-104280983D01*
X90539467Y-104347865D01*
X90488091Y-104392382D01*
X90364836Y-104449856D01*
X90364834Y-104449857D01*
X90183444Y-104576868D01*
X90026868Y-104733444D01*
X89899857Y-104914834D01*
X89899856Y-104914836D01*
X89806279Y-105115513D01*
X89806275Y-105115524D01*
X89748965Y-105329407D01*
X89748964Y-105329414D01*
X89729666Y-105549998D01*
X89729666Y-105550001D01*
X89748964Y-105770585D01*
X89748965Y-105770592D01*
X89806275Y-105984475D01*
X89806279Y-105984486D01*
X89892051Y-106168425D01*
X89899858Y-106185167D01*
X90026868Y-106366555D01*
X90183445Y-106523132D01*
X90364833Y-106650142D01*
X90404415Y-106668599D01*
X90488091Y-106707618D01*
X90540531Y-106753790D01*
X90559683Y-106820983D01*
X90539467Y-106887865D01*
X90488091Y-106932382D01*
X90364836Y-106989856D01*
X90364834Y-106989857D01*
X90183444Y-107116868D01*
X90026868Y-107273444D01*
X89899857Y-107454834D01*
X89899856Y-107454836D01*
X89806279Y-107655513D01*
X89806275Y-107655524D01*
X89748965Y-107869407D01*
X89748964Y-107869414D01*
X89729666Y-108089998D01*
X89729666Y-108090001D01*
X89748964Y-108310585D01*
X89748965Y-108310592D01*
X89806275Y-108524475D01*
X89806279Y-108524486D01*
X89892051Y-108708425D01*
X89899858Y-108725167D01*
X90026868Y-108906555D01*
X90183445Y-109063132D01*
X90364833Y-109190142D01*
X90404415Y-109208599D01*
X90488091Y-109247618D01*
X90540531Y-109293790D01*
X90559683Y-109360983D01*
X90539467Y-109427865D01*
X90488091Y-109472382D01*
X90364836Y-109529856D01*
X90364834Y-109529857D01*
X90183444Y-109656868D01*
X90026868Y-109813444D01*
X89899857Y-109994834D01*
X89899856Y-109994836D01*
X89806279Y-110195513D01*
X89806275Y-110195524D01*
X89748965Y-110409407D01*
X89748964Y-110409414D01*
X89729666Y-110629998D01*
X89729666Y-110630001D01*
X89748964Y-110850585D01*
X89748965Y-110850592D01*
X89806275Y-111064475D01*
X89806279Y-111064486D01*
X89892051Y-111248425D01*
X89899858Y-111265167D01*
X90026868Y-111446555D01*
X90183445Y-111603132D01*
X90364833Y-111730142D01*
X90404415Y-111748599D01*
X90488091Y-111787618D01*
X90540531Y-111833790D01*
X90559683Y-111900983D01*
X90539467Y-111967865D01*
X90488091Y-112012382D01*
X90364836Y-112069856D01*
X90364834Y-112069857D01*
X90183444Y-112196868D01*
X90026868Y-112353444D01*
X89899857Y-112534834D01*
X89899856Y-112534836D01*
X89806279Y-112735513D01*
X89806275Y-112735524D01*
X89748965Y-112949407D01*
X89748964Y-112949414D01*
X89729666Y-113169998D01*
X89729666Y-113170001D01*
X89748964Y-113390585D01*
X89748965Y-113390592D01*
X89806275Y-113604475D01*
X89806279Y-113604486D01*
X89885939Y-113775318D01*
X89899858Y-113805167D01*
X90026868Y-113986555D01*
X90183445Y-114143132D01*
X90364833Y-114270142D01*
X90488682Y-114327893D01*
X90541122Y-114374065D01*
X90560274Y-114441258D01*
X90540059Y-114508139D01*
X90488683Y-114552657D01*
X90365084Y-114610293D01*
X90299657Y-114656104D01*
X90862424Y-115218871D01*
X90803147Y-115234755D01*
X90686853Y-115301898D01*
X90591898Y-115396853D01*
X90524755Y-115513147D01*
X90508871Y-115572424D01*
X89946104Y-115009657D01*
X89900293Y-115075084D01*
X89806749Y-115275690D01*
X89806745Y-115275699D01*
X89749461Y-115489490D01*
X89749459Y-115489500D01*
X89730168Y-115709999D01*
X89730168Y-115710000D01*
X89749459Y-115930499D01*
X89749461Y-115930509D01*
X89806745Y-116144300D01*
X89806749Y-116144309D01*
X89900295Y-116344919D01*
X89946103Y-116410341D01*
X89946105Y-116410342D01*
X90508871Y-115847575D01*
X90524755Y-115906853D01*
X90591898Y-116023147D01*
X90686853Y-116118102D01*
X90803147Y-116185245D01*
X90862422Y-116201127D01*
X90299656Y-116763894D01*
X90365083Y-116809706D01*
X90365085Y-116809707D01*
X90488683Y-116867342D01*
X90541122Y-116913514D01*
X90560274Y-116980708D01*
X90540058Y-117047589D01*
X90488683Y-117092106D01*
X90364833Y-117149857D01*
X90183444Y-117276868D01*
X90026868Y-117433444D01*
X89899857Y-117614834D01*
X89899856Y-117614836D01*
X89806279Y-117815513D01*
X89806275Y-117815524D01*
X89748965Y-118029407D01*
X89748964Y-118029414D01*
X89729666Y-118249998D01*
X89729666Y-118250001D01*
X89748964Y-118470585D01*
X89748965Y-118470592D01*
X89806275Y-118684475D01*
X89806279Y-118684486D01*
X89841492Y-118760000D01*
X89899858Y-118885167D01*
X90026868Y-119066555D01*
X90183445Y-119223132D01*
X90364833Y-119350142D01*
X90485572Y-119406443D01*
X90565513Y-119443720D01*
X90565515Y-119443720D01*
X90565520Y-119443723D01*
X90779409Y-119501035D01*
X90936974Y-119514820D01*
X90999998Y-119520334D01*
X91000000Y-119520334D01*
X91000002Y-119520334D01*
X91055147Y-119515509D01*
X91220591Y-119501035D01*
X91434480Y-119443723D01*
X91635167Y-119350142D01*
X91725978Y-119286554D01*
X91792181Y-119264228D01*
X91859949Y-119281237D01*
X91907762Y-119332185D01*
X91921100Y-119388130D01*
X91921100Y-129560500D01*
X91901415Y-129627539D01*
X91848611Y-129673294D01*
X91797100Y-129684500D01*
X90187129Y-129684500D01*
X90187123Y-129684501D01*
X90127516Y-129690908D01*
X89992671Y-129741202D01*
X89992664Y-129741206D01*
X89877455Y-129827452D01*
X89877452Y-129827455D01*
X89791206Y-129942664D01*
X89791202Y-129942671D01*
X89740908Y-130077517D01*
X89734501Y-130137116D01*
X89734501Y-130137123D01*
X89734500Y-130137135D01*
X89734500Y-131762870D01*
X89734501Y-131762876D01*
X89740908Y-131822483D01*
X89791202Y-131957328D01*
X89791206Y-131957335D01*
X89877452Y-132072544D01*
X89877455Y-132072547D01*
X89992664Y-132158793D01*
X89992671Y-132158797D01*
X90127517Y-132209091D01*
X90127516Y-132209091D01*
X90134444Y-132209835D01*
X90187127Y-132215500D01*
X90220564Y-132215499D01*
X90287601Y-132235182D01*
X90333357Y-132287984D01*
X90343302Y-132357143D01*
X90314279Y-132420699D01*
X90291689Y-132441073D01*
X90183447Y-132516866D01*
X90183441Y-132516871D01*
X90026868Y-132673444D01*
X89899857Y-132854834D01*
X89899856Y-132854836D01*
X89806279Y-133055513D01*
X89806275Y-133055524D01*
X89748965Y-133269407D01*
X89748964Y-133269414D01*
X89729666Y-133489998D01*
X89729666Y-133490001D01*
X89748964Y-133710585D01*
X89748965Y-133710592D01*
X89806275Y-133924475D01*
X89806279Y-133924486D01*
X89878229Y-134078784D01*
X89899858Y-134125167D01*
X90026868Y-134306555D01*
X90183445Y-134463132D01*
X90364833Y-134590142D01*
X90426828Y-134619050D01*
X90488091Y-134647618D01*
X90540531Y-134693790D01*
X90559683Y-134760983D01*
X90539467Y-134827865D01*
X90488091Y-134872382D01*
X90364836Y-134929856D01*
X90364834Y-134929857D01*
X90183444Y-135056868D01*
X90026868Y-135213444D01*
X89899857Y-135394834D01*
X89899856Y-135394836D01*
X89806279Y-135595513D01*
X89806275Y-135595524D01*
X89748965Y-135809407D01*
X89748964Y-135809414D01*
X89729666Y-136029998D01*
X89729666Y-136030001D01*
X89748964Y-136250585D01*
X89748965Y-136250592D01*
X89806275Y-136464475D01*
X89806279Y-136464486D01*
X89893777Y-136652127D01*
X89899858Y-136665167D01*
X90026868Y-136846555D01*
X90183445Y-137003132D01*
X90364833Y-137130142D01*
X90426828Y-137159050D01*
X90488091Y-137187618D01*
X90540531Y-137233790D01*
X90559683Y-137300983D01*
X90539467Y-137367865D01*
X90488091Y-137412382D01*
X90364836Y-137469856D01*
X90364834Y-137469857D01*
X90183444Y-137596868D01*
X90026868Y-137753444D01*
X89899857Y-137934834D01*
X89899856Y-137934836D01*
X89806279Y-138135513D01*
X89806275Y-138135524D01*
X89748965Y-138349407D01*
X89748964Y-138349414D01*
X89729666Y-138569998D01*
X89729666Y-138570001D01*
X89748964Y-138790585D01*
X89748965Y-138790592D01*
X89806275Y-139004475D01*
X89806279Y-139004486D01*
X89849356Y-139096865D01*
X89899858Y-139205167D01*
X90026868Y-139386555D01*
X90183445Y-139543132D01*
X90364833Y-139670142D01*
X90407207Y-139689901D01*
X90488091Y-139727618D01*
X90540531Y-139773790D01*
X90559683Y-139840983D01*
X90539467Y-139907865D01*
X90488091Y-139952382D01*
X90364836Y-140009856D01*
X90364834Y-140009857D01*
X90183444Y-140136868D01*
X90026868Y-140293444D01*
X89899857Y-140474834D01*
X89899856Y-140474836D01*
X89806279Y-140675513D01*
X89806275Y-140675524D01*
X89748965Y-140889407D01*
X89748964Y-140889414D01*
X89729666Y-141109998D01*
X89729666Y-141110001D01*
X89748964Y-141330585D01*
X89748965Y-141330592D01*
X89806275Y-141544475D01*
X89806279Y-141544486D01*
X89827073Y-141589078D01*
X89899858Y-141745167D01*
X90026868Y-141926555D01*
X90183445Y-142083132D01*
X90364833Y-142210142D01*
X90426828Y-142239050D01*
X90488091Y-142267618D01*
X90540531Y-142313790D01*
X90559683Y-142380983D01*
X90539467Y-142447865D01*
X90488091Y-142492382D01*
X90364836Y-142549856D01*
X90364834Y-142549857D01*
X90183444Y-142676868D01*
X90026868Y-142833444D01*
X89899857Y-143014834D01*
X89899856Y-143014836D01*
X89806279Y-143215513D01*
X89806275Y-143215524D01*
X89748965Y-143429407D01*
X89748964Y-143429414D01*
X89729666Y-143649998D01*
X89729666Y-143650001D01*
X89748964Y-143870585D01*
X89748965Y-143870592D01*
X89806275Y-144084475D01*
X89806279Y-144084486D01*
X89892346Y-144269058D01*
X89899858Y-144285167D01*
X90026868Y-144466555D01*
X90183445Y-144623132D01*
X90364833Y-144750142D01*
X90426828Y-144779050D01*
X90488091Y-144807618D01*
X90540531Y-144853790D01*
X90559683Y-144920983D01*
X90539467Y-144987865D01*
X90488091Y-145032382D01*
X90364836Y-145089856D01*
X90364834Y-145089857D01*
X90183444Y-145216868D01*
X90026868Y-145373444D01*
X89899857Y-145554834D01*
X89899856Y-145554836D01*
X89806279Y-145755513D01*
X89806275Y-145755524D01*
X89748965Y-145969407D01*
X89748964Y-145969414D01*
X89729666Y-146189998D01*
X89729666Y-146190001D01*
X89748964Y-146410585D01*
X89748965Y-146410592D01*
X89806275Y-146624475D01*
X89806279Y-146624486D01*
X89872021Y-146765470D01*
X89899858Y-146825167D01*
X90026868Y-147006555D01*
X90183445Y-147163132D01*
X90364833Y-147290142D01*
X90485572Y-147346443D01*
X90565513Y-147383720D01*
X90565515Y-147383720D01*
X90565520Y-147383723D01*
X90779409Y-147441035D01*
X90936974Y-147454820D01*
X90999998Y-147460334D01*
X91000000Y-147460334D01*
X91000002Y-147460334D01*
X91055147Y-147455509D01*
X91220591Y-147441035D01*
X91434480Y-147383723D01*
X91635167Y-147290142D01*
X91816555Y-147163132D01*
X91973132Y-147006555D01*
X92100142Y-146825167D01*
X92193723Y-146624480D01*
X92251035Y-146410591D01*
X92270334Y-146190000D01*
X92251035Y-145969409D01*
X92247453Y-145956041D01*
X92249114Y-145886192D01*
X92288275Y-145828329D01*
X92352503Y-145800823D01*
X92393002Y-145802655D01*
X92476954Y-145820500D01*
X92476956Y-145820500D01*
X92666244Y-145820500D01*
X92666246Y-145820500D01*
X92851403Y-145781144D01*
X93024330Y-145704151D01*
X93177471Y-145592888D01*
X93304133Y-145452216D01*
X93398779Y-145288284D01*
X93457274Y-145108256D01*
X93477060Y-144920000D01*
X93457274Y-144731744D01*
X93398779Y-144551716D01*
X93304133Y-144387784D01*
X93253950Y-144332050D01*
X93223720Y-144269058D01*
X93222100Y-144249078D01*
X93222100Y-133489998D01*
X110049666Y-133489998D01*
X110049666Y-133490001D01*
X110068964Y-133710585D01*
X110068965Y-133710592D01*
X110126275Y-133924475D01*
X110126279Y-133924486D01*
X110198229Y-134078784D01*
X110219858Y-134125167D01*
X110346868Y-134306555D01*
X110503445Y-134463132D01*
X110684833Y-134590142D01*
X110746828Y-134619050D01*
X110808091Y-134647618D01*
X110860531Y-134693790D01*
X110879683Y-134760983D01*
X110859467Y-134827865D01*
X110808091Y-134872382D01*
X110684836Y-134929856D01*
X110684834Y-134929857D01*
X110503444Y-135056868D01*
X110346868Y-135213444D01*
X110219857Y-135394834D01*
X110219856Y-135394836D01*
X110126279Y-135595513D01*
X110126275Y-135595524D01*
X110068965Y-135809407D01*
X110068964Y-135809414D01*
X110049666Y-136029998D01*
X110049666Y-136030001D01*
X110068964Y-136250585D01*
X110068965Y-136250592D01*
X110126275Y-136464475D01*
X110126279Y-136464486D01*
X110213777Y-136652127D01*
X110219858Y-136665167D01*
X110346868Y-136846555D01*
X110503445Y-137003132D01*
X110684833Y-137130142D01*
X110746828Y-137159050D01*
X110808091Y-137187618D01*
X110860531Y-137233790D01*
X110879683Y-137300983D01*
X110859467Y-137367865D01*
X110808091Y-137412382D01*
X110684836Y-137469856D01*
X110684834Y-137469857D01*
X110503444Y-137596868D01*
X110346868Y-137753444D01*
X110219857Y-137934834D01*
X110219856Y-137934836D01*
X110126279Y-138135513D01*
X110126275Y-138135524D01*
X110068965Y-138349407D01*
X110068964Y-138349414D01*
X110049666Y-138569998D01*
X110049666Y-138570001D01*
X110068964Y-138790585D01*
X110068965Y-138790592D01*
X110126275Y-139004475D01*
X110126279Y-139004486D01*
X110169356Y-139096865D01*
X110219858Y-139205167D01*
X110346868Y-139386555D01*
X110503445Y-139543132D01*
X110684833Y-139670142D01*
X110727207Y-139689901D01*
X110808091Y-139727618D01*
X110860531Y-139773790D01*
X110879683Y-139840983D01*
X110859467Y-139907865D01*
X110808091Y-139952382D01*
X110684836Y-140009856D01*
X110684834Y-140009857D01*
X110503444Y-140136868D01*
X110346868Y-140293444D01*
X110219857Y-140474834D01*
X110219856Y-140474836D01*
X110126279Y-140675513D01*
X110126275Y-140675524D01*
X110068965Y-140889407D01*
X110068964Y-140889414D01*
X110049666Y-141109998D01*
X110049666Y-141110001D01*
X110068964Y-141330585D01*
X110068965Y-141330592D01*
X110126275Y-141544475D01*
X110126279Y-141544486D01*
X110147073Y-141589078D01*
X110219858Y-141745167D01*
X110346868Y-141926555D01*
X110503445Y-142083132D01*
X110684833Y-142210142D01*
X110746828Y-142239050D01*
X110808091Y-142267618D01*
X110860531Y-142313790D01*
X110879683Y-142380983D01*
X110859467Y-142447865D01*
X110808091Y-142492382D01*
X110684836Y-142549856D01*
X110684834Y-142549857D01*
X110503444Y-142676868D01*
X110346868Y-142833444D01*
X110219857Y-143014834D01*
X110219856Y-143014836D01*
X110126279Y-143215513D01*
X110126275Y-143215524D01*
X110068965Y-143429407D01*
X110068964Y-143429414D01*
X110049666Y-143649998D01*
X110049666Y-143650001D01*
X110068964Y-143870585D01*
X110068965Y-143870592D01*
X110126275Y-144084475D01*
X110126279Y-144084486D01*
X110212346Y-144269058D01*
X110219858Y-144285167D01*
X110346868Y-144466555D01*
X110503445Y-144623132D01*
X110684833Y-144750142D01*
X110746828Y-144779050D01*
X110808091Y-144807618D01*
X110860531Y-144853790D01*
X110879683Y-144920983D01*
X110859467Y-144987865D01*
X110808091Y-145032382D01*
X110684836Y-145089856D01*
X110684834Y-145089857D01*
X110503444Y-145216868D01*
X110346868Y-145373444D01*
X110219857Y-145554834D01*
X110219856Y-145554836D01*
X110126279Y-145755513D01*
X110126275Y-145755524D01*
X110068965Y-145969407D01*
X110068964Y-145969414D01*
X110049666Y-146189998D01*
X110049666Y-146190001D01*
X110068964Y-146410585D01*
X110068965Y-146410592D01*
X110126275Y-146624475D01*
X110126279Y-146624486D01*
X110192021Y-146765470D01*
X110219858Y-146825167D01*
X110346868Y-147006555D01*
X110503445Y-147163132D01*
X110684833Y-147290142D01*
X110805572Y-147346443D01*
X110885513Y-147383720D01*
X110885515Y-147383720D01*
X110885520Y-147383723D01*
X111099409Y-147441035D01*
X111256974Y-147454820D01*
X111319998Y-147460334D01*
X111320000Y-147460334D01*
X111320002Y-147460334D01*
X111375147Y-147455509D01*
X111540591Y-147441035D01*
X111754480Y-147383723D01*
X111955167Y-147290142D01*
X112136555Y-147163132D01*
X112293132Y-147006555D01*
X112420142Y-146825167D01*
X112513723Y-146624480D01*
X112571035Y-146410591D01*
X112590334Y-146190000D01*
X112571035Y-145969409D01*
X112513723Y-145755520D01*
X112489769Y-145704151D01*
X112420143Y-145554836D01*
X112420142Y-145554834D01*
X112420142Y-145554833D01*
X112293132Y-145373445D01*
X112136555Y-145216868D01*
X111955167Y-145089858D01*
X111831907Y-145032381D01*
X111779468Y-144986210D01*
X111760316Y-144919017D01*
X111780531Y-144852136D01*
X111831908Y-144807618D01*
X111955167Y-144750142D01*
X112136555Y-144623132D01*
X112293132Y-144466555D01*
X112420142Y-144285167D01*
X112513723Y-144084480D01*
X112571035Y-143870591D01*
X112590334Y-143650000D01*
X112571035Y-143429409D01*
X112513723Y-143215520D01*
X112420142Y-143014833D01*
X112293132Y-142833445D01*
X112136555Y-142676868D01*
X111955167Y-142549858D01*
X111831907Y-142492381D01*
X111779468Y-142446210D01*
X111760316Y-142379017D01*
X111780531Y-142312136D01*
X111831908Y-142267618D01*
X111955167Y-142210142D01*
X112136555Y-142083132D01*
X112293132Y-141926555D01*
X112420142Y-141745167D01*
X112513723Y-141544480D01*
X112571035Y-141330591D01*
X112590334Y-141110000D01*
X112571035Y-140889409D01*
X112513723Y-140675520D01*
X112495719Y-140636911D01*
X112443344Y-140524591D01*
X112420142Y-140474833D01*
X112293132Y-140293445D01*
X112136555Y-140136868D01*
X111955167Y-140009858D01*
X111831907Y-139952381D01*
X111779468Y-139906210D01*
X111760316Y-139839017D01*
X111780531Y-139772136D01*
X111831908Y-139727618D01*
X111955167Y-139670142D01*
X112136555Y-139543132D01*
X112293132Y-139386555D01*
X112420142Y-139205167D01*
X112513723Y-139004480D01*
X112571035Y-138790591D01*
X112590334Y-138570000D01*
X112571035Y-138349409D01*
X112513723Y-138135520D01*
X112493125Y-138091348D01*
X112420143Y-137934836D01*
X112420142Y-137934834D01*
X112420142Y-137934833D01*
X112293132Y-137753445D01*
X112136555Y-137596868D01*
X111955167Y-137469858D01*
X111831907Y-137412381D01*
X111779468Y-137366210D01*
X111760316Y-137299017D01*
X111780531Y-137232136D01*
X111831908Y-137187618D01*
X111955167Y-137130142D01*
X112136555Y-137003132D01*
X112293132Y-136846555D01*
X112420142Y-136665167D01*
X112513723Y-136464480D01*
X112571035Y-136250591D01*
X112590334Y-136030000D01*
X112571035Y-135809409D01*
X112513723Y-135595520D01*
X112420142Y-135394833D01*
X112293132Y-135213445D01*
X112136555Y-135056868D01*
X111955167Y-134929858D01*
X111831907Y-134872381D01*
X111779468Y-134826210D01*
X111760316Y-134759017D01*
X111780531Y-134692136D01*
X111831908Y-134647618D01*
X111955167Y-134590142D01*
X112136555Y-134463132D01*
X112293132Y-134306555D01*
X112420142Y-134125167D01*
X112513723Y-133924480D01*
X112571035Y-133710591D01*
X112590334Y-133490000D01*
X112571035Y-133269409D01*
X112513723Y-133055520D01*
X112420142Y-132854833D01*
X112293132Y-132673445D01*
X112136555Y-132516868D01*
X112136552Y-132516866D01*
X112136550Y-132516864D01*
X112069681Y-132470042D01*
X112028309Y-132441073D01*
X111984685Y-132386497D01*
X111977491Y-132316999D01*
X112009014Y-132254644D01*
X112069244Y-132219230D01*
X112099432Y-132215499D01*
X112132872Y-132215499D01*
X112192483Y-132209091D01*
X112327331Y-132158796D01*
X112442546Y-132072546D01*
X112528796Y-131957331D01*
X112579091Y-131822483D01*
X112585500Y-131762873D01*
X112585500Y-131469998D01*
X123387032Y-131469998D01*
X123387032Y-131470001D01*
X123406864Y-131696686D01*
X123406866Y-131696697D01*
X123465758Y-131916488D01*
X123465761Y-131916497D01*
X123561931Y-132122732D01*
X123561932Y-132122734D01*
X123692454Y-132309141D01*
X123853355Y-132470042D01*
X123853358Y-132470044D01*
X123853361Y-132470047D01*
X123989126Y-132565109D01*
X124032748Y-132619683D01*
X124042000Y-132666682D01*
X124042000Y-142868588D01*
X124022315Y-142935627D01*
X123989124Y-142970162D01*
X123960860Y-142989952D01*
X123799954Y-143150858D01*
X123669432Y-143337265D01*
X123669431Y-143337267D01*
X123573261Y-143543502D01*
X123573258Y-143543511D01*
X123514366Y-143763302D01*
X123514364Y-143763313D01*
X123494532Y-143989998D01*
X123494532Y-143990001D01*
X123514364Y-144216686D01*
X123514366Y-144216697D01*
X123573258Y-144436488D01*
X123573261Y-144436497D01*
X123669431Y-144642732D01*
X123669432Y-144642734D01*
X123799954Y-144829141D01*
X123960858Y-144990045D01*
X123960861Y-144990047D01*
X124147266Y-145120568D01*
X124353504Y-145216739D01*
X124573308Y-145275635D01*
X124717807Y-145288277D01*
X124799998Y-145295468D01*
X124800000Y-145295468D01*
X124800002Y-145295468D01*
X124882193Y-145288277D01*
X125026692Y-145275635D01*
X125246496Y-145216739D01*
X125452734Y-145120568D01*
X125639139Y-144990047D01*
X125800047Y-144829139D01*
X125930568Y-144642734D01*
X126026739Y-144436496D01*
X126085635Y-144216692D01*
X126105468Y-143990000D01*
X126104539Y-143979386D01*
X126095021Y-143870591D01*
X126085635Y-143763308D01*
X126026739Y-143543504D01*
X125930568Y-143337266D01*
X125800047Y-143150861D01*
X125800045Y-143150858D01*
X125639141Y-142989954D01*
X125452735Y-142859432D01*
X125452731Y-142859430D01*
X125414593Y-142841645D01*
X125362154Y-142795471D01*
X125343000Y-142729264D01*
X125343000Y-138434528D01*
X132463400Y-138434528D01*
X132463400Y-146765470D01*
X132478813Y-146842952D01*
X132478813Y-146842954D01*
X132488397Y-146891136D01*
X132488399Y-146891144D01*
X132537434Y-147009525D01*
X132608626Y-147116073D01*
X132608627Y-147116074D01*
X132939777Y-147447223D01*
X132973262Y-147508546D01*
X132975567Y-147546344D01*
X132963183Y-147679998D01*
X132963183Y-147680000D01*
X132982411Y-147887506D01*
X133039444Y-148087959D01*
X133132335Y-148274509D01*
X133257926Y-148440818D01*
X133411933Y-148581213D01*
X133411935Y-148581215D01*
X133589116Y-148690921D01*
X133589118Y-148690922D01*
X133589120Y-148690923D01*
X133783448Y-148766206D01*
X133988300Y-148804500D01*
X133988302Y-148804500D01*
X134196698Y-148804500D01*
X134196700Y-148804500D01*
X134401552Y-148766206D01*
X134595880Y-148690923D01*
X134773066Y-148581214D01*
X134927075Y-148440816D01*
X135052665Y-148274509D01*
X135145557Y-148087956D01*
X135202588Y-147887511D01*
X135221817Y-147680000D01*
X135221817Y-147679999D01*
X140903183Y-147679999D01*
X140903183Y-147680000D01*
X140922411Y-147887506D01*
X140979444Y-148087959D01*
X141072335Y-148274509D01*
X141197926Y-148440818D01*
X141351933Y-148581213D01*
X141351935Y-148581215D01*
X141529116Y-148690921D01*
X141529118Y-148690922D01*
X141529120Y-148690923D01*
X141723448Y-148766206D01*
X141928300Y-148804500D01*
X141928302Y-148804500D01*
X142136698Y-148804500D01*
X142136700Y-148804500D01*
X142341552Y-148766206D01*
X142535880Y-148690923D01*
X142713066Y-148581214D01*
X142867075Y-148440816D01*
X142992665Y-148274509D01*
X143085557Y-148087956D01*
X143142588Y-147887511D01*
X143161817Y-147680000D01*
X143142588Y-147472489D01*
X143085557Y-147272044D01*
X142992665Y-147085491D01*
X142867075Y-146919184D01*
X142867073Y-146919181D01*
X142713066Y-146778786D01*
X142713064Y-146778784D01*
X142535883Y-146669078D01*
X142535874Y-146669074D01*
X142390134Y-146612614D01*
X142341552Y-146593794D01*
X142136700Y-146555500D01*
X141928300Y-146555500D01*
X141723448Y-146593794D01*
X141723445Y-146593794D01*
X141723445Y-146593795D01*
X141529125Y-146669074D01*
X141529116Y-146669078D01*
X141351935Y-146778784D01*
X141351933Y-146778786D01*
X141197926Y-146919181D01*
X141072335Y-147085490D01*
X140979444Y-147272040D01*
X140922411Y-147472493D01*
X140903183Y-147679999D01*
X135221817Y-147679999D01*
X135202588Y-147472489D01*
X135145557Y-147272044D01*
X135052665Y-147085491D01*
X134927075Y-146919184D01*
X134927073Y-146919181D01*
X134773066Y-146778786D01*
X134773064Y-146778784D01*
X134595883Y-146669078D01*
X134595874Y-146669074D01*
X134450134Y-146612614D01*
X134401552Y-146593794D01*
X134196700Y-146555500D01*
X133988300Y-146555500D01*
X133975697Y-146557855D01*
X133967998Y-146559295D01*
X133898483Y-146552263D01*
X133857533Y-146525087D01*
X133800719Y-146468273D01*
X133767234Y-146406950D01*
X133764400Y-146380592D01*
X133764400Y-146371973D01*
X133784085Y-146304934D01*
X133836889Y-146259179D01*
X133906047Y-146249235D01*
X133911161Y-146250080D01*
X133988300Y-146264500D01*
X133988302Y-146264500D01*
X134196698Y-146264500D01*
X134196700Y-146264500D01*
X134401552Y-146226206D01*
X134595880Y-146150923D01*
X134773066Y-146041214D01*
X134927075Y-145900816D01*
X135052665Y-145734509D01*
X135145557Y-145547956D01*
X135202588Y-145347511D01*
X135221817Y-145140000D01*
X135221817Y-145139999D01*
X140903183Y-145139999D01*
X140903183Y-145140000D01*
X140922411Y-145347506D01*
X140922411Y-145347508D01*
X140922412Y-145347511D01*
X140952203Y-145452216D01*
X140979444Y-145547959D01*
X141072335Y-145734509D01*
X141197926Y-145900818D01*
X141351933Y-146041213D01*
X141351935Y-146041215D01*
X141529116Y-146150921D01*
X141529118Y-146150922D01*
X141529120Y-146150923D01*
X141723448Y-146226206D01*
X141928300Y-146264500D01*
X141928302Y-146264500D01*
X142136698Y-146264500D01*
X142136700Y-146264500D01*
X142341552Y-146226206D01*
X142535880Y-146150923D01*
X142713066Y-146041214D01*
X142867075Y-145900816D01*
X142992665Y-145734509D01*
X143085557Y-145547956D01*
X143142588Y-145347511D01*
X143161817Y-145140000D01*
X143142588Y-144932489D01*
X143085557Y-144732044D01*
X142992665Y-144545491D01*
X142873570Y-144387785D01*
X142867073Y-144379181D01*
X142713066Y-144238786D01*
X142713064Y-144238784D01*
X142535883Y-144129078D01*
X142535874Y-144129074D01*
X142360599Y-144061173D01*
X142341552Y-144053794D01*
X142136700Y-144015500D01*
X141928300Y-144015500D01*
X141723448Y-144053794D01*
X141723445Y-144053794D01*
X141723445Y-144053795D01*
X141529125Y-144129074D01*
X141529116Y-144129078D01*
X141351935Y-144238784D01*
X141351933Y-144238786D01*
X141197926Y-144379181D01*
X141072335Y-144545490D01*
X140979444Y-144732040D01*
X140979443Y-144732044D01*
X140925966Y-144920000D01*
X140922411Y-144932493D01*
X140903183Y-145139999D01*
X135221817Y-145139999D01*
X135202588Y-144932489D01*
X135145557Y-144732044D01*
X135052665Y-144545491D01*
X134933570Y-144387785D01*
X134927073Y-144379181D01*
X134773066Y-144238786D01*
X134773064Y-144238784D01*
X134595883Y-144129078D01*
X134595874Y-144129074D01*
X134420599Y-144061173D01*
X134401552Y-144053794D01*
X134196700Y-144015500D01*
X133988300Y-144015500D01*
X133971599Y-144018621D01*
X133911184Y-144029915D01*
X133841669Y-144022883D01*
X133786991Y-143979386D01*
X133764509Y-143913232D01*
X133764400Y-143908026D01*
X133764400Y-143831973D01*
X133784085Y-143764934D01*
X133836889Y-143719179D01*
X133906047Y-143709235D01*
X133911161Y-143710080D01*
X133988300Y-143724500D01*
X133988302Y-143724500D01*
X134196698Y-143724500D01*
X134196700Y-143724500D01*
X134401552Y-143686206D01*
X134595880Y-143610923D01*
X134773066Y-143501214D01*
X134927075Y-143360816D01*
X135052665Y-143194509D01*
X135145557Y-143007956D01*
X135168416Y-142927610D01*
X135200000Y-142873866D01*
X135473867Y-142599999D01*
X140903183Y-142599999D01*
X140903183Y-142600000D01*
X140922411Y-142807506D01*
X140922411Y-142807508D01*
X140922412Y-142807511D01*
X140974321Y-142989953D01*
X140979444Y-143007959D01*
X141072335Y-143194509D01*
X141197926Y-143360818D01*
X141351933Y-143501213D01*
X141351935Y-143501215D01*
X141529116Y-143610921D01*
X141529118Y-143610922D01*
X141529120Y-143610923D01*
X141723448Y-143686206D01*
X141928300Y-143724500D01*
X141928302Y-143724500D01*
X142136698Y-143724500D01*
X142136700Y-143724500D01*
X142341552Y-143686206D01*
X142535880Y-143610923D01*
X142713066Y-143501214D01*
X142867075Y-143360816D01*
X142992665Y-143194509D01*
X143085557Y-143007956D01*
X143142588Y-142807511D01*
X143161817Y-142600000D01*
X143142588Y-142392489D01*
X143085557Y-142192044D01*
X142992665Y-142005491D01*
X142867075Y-141839184D01*
X142867073Y-141839181D01*
X142713066Y-141698786D01*
X142713064Y-141698784D01*
X142535883Y-141589078D01*
X142535874Y-141589074D01*
X142360599Y-141521173D01*
X142341552Y-141513794D01*
X142136700Y-141475500D01*
X141928300Y-141475500D01*
X141723448Y-141513794D01*
X141723445Y-141513794D01*
X141723445Y-141513795D01*
X141529125Y-141589074D01*
X141529116Y-141589078D01*
X141351935Y-141698784D01*
X141351933Y-141698786D01*
X141197926Y-141839181D01*
X141072335Y-142005490D01*
X140979444Y-142192040D01*
X140979443Y-142192044D01*
X140925966Y-142380000D01*
X140922411Y-142392493D01*
X140903183Y-142599999D01*
X135473867Y-142599999D01*
X138013867Y-140059999D01*
X140903183Y-140059999D01*
X140903183Y-140060000D01*
X140922411Y-140267506D01*
X140922411Y-140267508D01*
X140922412Y-140267511D01*
X140979443Y-140467956D01*
X140979444Y-140467959D01*
X141072335Y-140654509D01*
X141197926Y-140820818D01*
X141351933Y-140961213D01*
X141351935Y-140961215D01*
X141529116Y-141070921D01*
X141529118Y-141070922D01*
X141529120Y-141070923D01*
X141723448Y-141146206D01*
X141928300Y-141184500D01*
X141928302Y-141184500D01*
X142136698Y-141184500D01*
X142136700Y-141184500D01*
X142341552Y-141146206D01*
X142535880Y-141070923D01*
X142713066Y-140961214D01*
X142867075Y-140820816D01*
X142992665Y-140654509D01*
X143085557Y-140467956D01*
X143142588Y-140267511D01*
X143161817Y-140060000D01*
X143142588Y-139852489D01*
X143085557Y-139652044D01*
X142992665Y-139465491D01*
X142867075Y-139299184D01*
X142867073Y-139299181D01*
X142713066Y-139158786D01*
X142713064Y-139158784D01*
X142535883Y-139049078D01*
X142535874Y-139049074D01*
X142360599Y-138981173D01*
X142341552Y-138973794D01*
X142136700Y-138935500D01*
X141928300Y-138935500D01*
X141723448Y-138973794D01*
X141723445Y-138973794D01*
X141723445Y-138973795D01*
X141529125Y-139049074D01*
X141529116Y-139049078D01*
X141351935Y-139158784D01*
X141351933Y-139158786D01*
X141197926Y-139299181D01*
X141072335Y-139465490D01*
X140979444Y-139652040D01*
X140979443Y-139652044D01*
X140925966Y-139840000D01*
X140922411Y-139852493D01*
X140903183Y-140059999D01*
X138013867Y-140059999D01*
X140696020Y-137377846D01*
X140757341Y-137344363D01*
X140827033Y-137349347D01*
X140882966Y-137391219D01*
X140907383Y-137456683D01*
X140907170Y-137476970D01*
X140903183Y-137519998D01*
X140903183Y-137520000D01*
X140922411Y-137727506D01*
X140922411Y-137727508D01*
X140922412Y-137727511D01*
X140929791Y-137753444D01*
X140979444Y-137927959D01*
X141072335Y-138114509D01*
X141197926Y-138280818D01*
X141351933Y-138421213D01*
X141351935Y-138421215D01*
X141529116Y-138530921D01*
X141529118Y-138530922D01*
X141529120Y-138530923D01*
X141723448Y-138606206D01*
X141928300Y-138644500D01*
X141928302Y-138644500D01*
X142136698Y-138644500D01*
X142136700Y-138644500D01*
X142341552Y-138606206D01*
X142535880Y-138530923D01*
X142713066Y-138421214D01*
X142867075Y-138280816D01*
X142992665Y-138114509D01*
X143085557Y-137927956D01*
X143142588Y-137727511D01*
X143161817Y-137520000D01*
X143142588Y-137312489D01*
X143085557Y-137112044D01*
X142992665Y-136925491D01*
X142867075Y-136759184D01*
X142867073Y-136759181D01*
X142749648Y-136652135D01*
X145274500Y-136652135D01*
X145274500Y-138447870D01*
X145274501Y-138447876D01*
X145280908Y-138507483D01*
X145331202Y-138642328D01*
X145331206Y-138642335D01*
X145417452Y-138757544D01*
X145417455Y-138757547D01*
X145532664Y-138843793D01*
X145532671Y-138843797D01*
X145532674Y-138843798D01*
X145664598Y-138893002D01*
X145720531Y-138934873D01*
X145744949Y-139000337D01*
X145730098Y-139068610D01*
X145708947Y-139096865D01*
X145586886Y-139218926D01*
X145451400Y-139412420D01*
X145451399Y-139412422D01*
X145351570Y-139626507D01*
X145351567Y-139626513D01*
X145294364Y-139839999D01*
X145294364Y-139840000D01*
X146191988Y-139840000D01*
X146159075Y-139897007D01*
X146125000Y-140024174D01*
X146125000Y-140155826D01*
X146159075Y-140282993D01*
X146191988Y-140340000D01*
X145294364Y-140340000D01*
X145351567Y-140553486D01*
X145351570Y-140553492D01*
X145451399Y-140767578D01*
X145586894Y-140961082D01*
X145753917Y-141128105D01*
X145947421Y-141263600D01*
X146161507Y-141363429D01*
X146161516Y-141363433D01*
X146375000Y-141420634D01*
X146375000Y-140523012D01*
X146432007Y-140555925D01*
X146559174Y-140590000D01*
X146690826Y-140590000D01*
X146817993Y-140555925D01*
X146875000Y-140523012D01*
X146875000Y-141420633D01*
X147088483Y-141363433D01*
X147088492Y-141363429D01*
X147302578Y-141263600D01*
X147496082Y-141128105D01*
X147663105Y-140961082D01*
X147798600Y-140767578D01*
X147898429Y-140553492D01*
X147898432Y-140553486D01*
X147955636Y-140340000D01*
X147058012Y-140340000D01*
X147090925Y-140282993D01*
X147125000Y-140155826D01*
X147125000Y-140024174D01*
X147090925Y-139897007D01*
X147058012Y-139840000D01*
X147955636Y-139840000D01*
X147955635Y-139839999D01*
X147898432Y-139626513D01*
X147898429Y-139626507D01*
X147798600Y-139412422D01*
X147798599Y-139412420D01*
X147663113Y-139218926D01*
X147663108Y-139218920D01*
X147541053Y-139096865D01*
X147507568Y-139035542D01*
X147512552Y-138965850D01*
X147554424Y-138909917D01*
X147585400Y-138893002D01*
X147717331Y-138843796D01*
X147832546Y-138757546D01*
X147918796Y-138642331D01*
X147969091Y-138507483D01*
X147975500Y-138447873D01*
X147975499Y-136652128D01*
X147969091Y-136592517D01*
X147937970Y-136509078D01*
X147918797Y-136457671D01*
X147918793Y-136457664D01*
X147832547Y-136342455D01*
X147832544Y-136342452D01*
X147717335Y-136256206D01*
X147717328Y-136256202D01*
X147582482Y-136205908D01*
X147582483Y-136205908D01*
X147522883Y-136199501D01*
X147522881Y-136199500D01*
X147522873Y-136199500D01*
X147522864Y-136199500D01*
X145727129Y-136199500D01*
X145727123Y-136199501D01*
X145667516Y-136205908D01*
X145532671Y-136256202D01*
X145532664Y-136256206D01*
X145417455Y-136342452D01*
X145417452Y-136342455D01*
X145331206Y-136457664D01*
X145331202Y-136457671D01*
X145280908Y-136592517D01*
X145274501Y-136652116D01*
X145274501Y-136652123D01*
X145274500Y-136652135D01*
X142749648Y-136652135D01*
X142713066Y-136618786D01*
X142713064Y-136618784D01*
X142535883Y-136509078D01*
X142535874Y-136509074D01*
X142390134Y-136452614D01*
X142341552Y-136433794D01*
X142136700Y-136395500D01*
X141977729Y-136395500D01*
X141910690Y-136375815D01*
X141864935Y-136323011D01*
X141854991Y-136253853D01*
X141884016Y-136190297D01*
X141890048Y-136183819D01*
X141933048Y-136140819D01*
X141994371Y-136107334D01*
X142020729Y-136104500D01*
X142136698Y-136104500D01*
X142136700Y-136104500D01*
X142341552Y-136066206D01*
X142535880Y-135990923D01*
X142713066Y-135881214D01*
X142867075Y-135740816D01*
X142992665Y-135574509D01*
X143085557Y-135387956D01*
X143142588Y-135187511D01*
X143161817Y-134980000D01*
X143142588Y-134772489D01*
X143085557Y-134572044D01*
X142992665Y-134385491D01*
X142932412Y-134305704D01*
X142867073Y-134219181D01*
X142713066Y-134078786D01*
X142713064Y-134078784D01*
X142535883Y-133969078D01*
X142535874Y-133969074D01*
X142389069Y-133912202D01*
X142341552Y-133893794D01*
X142136700Y-133855500D01*
X141928300Y-133855500D01*
X141723448Y-133893794D01*
X141723445Y-133893794D01*
X141723445Y-133893795D01*
X141529125Y-133969074D01*
X141529116Y-133969078D01*
X141351935Y-134078784D01*
X141351933Y-134078786D01*
X141197926Y-134219181D01*
X141072335Y-134385490D01*
X140979444Y-134572040D01*
X140979443Y-134572044D01*
X140925966Y-134760000D01*
X140922411Y-134772493D01*
X140903183Y-134979998D01*
X140903575Y-134984231D01*
X140890156Y-135052800D01*
X140867784Y-135083347D01*
X135347704Y-140603426D01*
X135286381Y-140636911D01*
X135216689Y-140631927D01*
X135160756Y-140590055D01*
X135136339Y-140524591D01*
X135144018Y-140473478D01*
X135143988Y-140473470D01*
X135144056Y-140473229D01*
X135144400Y-140470943D01*
X135145555Y-140467961D01*
X135145555Y-140467958D01*
X135145557Y-140467956D01*
X135202588Y-140267511D01*
X135221817Y-140060000D01*
X135202588Y-139852489D01*
X135145557Y-139652044D01*
X135052665Y-139465491D01*
X134927075Y-139299184D01*
X134927073Y-139299181D01*
X134773066Y-139158786D01*
X134773064Y-139158784D01*
X134595883Y-139049078D01*
X134595874Y-139049074D01*
X134420599Y-138981173D01*
X134401552Y-138973794D01*
X134196700Y-138935500D01*
X133988300Y-138935500D01*
X133971599Y-138938621D01*
X133911184Y-138949915D01*
X133841669Y-138942883D01*
X133786991Y-138899386D01*
X133764509Y-138833232D01*
X133764400Y-138828026D01*
X133764400Y-138819408D01*
X133784085Y-138752369D01*
X133800718Y-138731728D01*
X133857532Y-138674913D01*
X133918855Y-138641427D01*
X133968000Y-138640705D01*
X133988300Y-138644500D01*
X133988301Y-138644500D01*
X134196698Y-138644500D01*
X134196700Y-138644500D01*
X134401552Y-138606206D01*
X134595880Y-138530923D01*
X134773066Y-138421214D01*
X134927075Y-138280816D01*
X135052665Y-138114509D01*
X135145557Y-137927956D01*
X135202588Y-137727511D01*
X135221817Y-137520000D01*
X135202588Y-137312489D01*
X135145557Y-137112044D01*
X135052665Y-136925491D01*
X134927075Y-136759184D01*
X134927073Y-136759181D01*
X134773066Y-136618786D01*
X134773064Y-136618784D01*
X134595883Y-136509078D01*
X134595874Y-136509074D01*
X134450134Y-136452614D01*
X134401552Y-136433794D01*
X134196700Y-136395500D01*
X133988300Y-136395500D01*
X133783448Y-136433794D01*
X133783445Y-136433794D01*
X133783445Y-136433795D01*
X133589125Y-136509074D01*
X133589116Y-136509078D01*
X133411935Y-136618784D01*
X133411933Y-136618786D01*
X133257926Y-136759181D01*
X133132335Y-136925490D01*
X133039444Y-137112040D01*
X133039443Y-137112044D01*
X132985966Y-137300000D01*
X132982411Y-137312493D01*
X132963183Y-137519999D01*
X132963183Y-137520000D01*
X132975567Y-137653653D01*
X132962152Y-137722223D01*
X132939777Y-137752775D01*
X132608625Y-138083927D01*
X132603668Y-138091348D01*
X132603663Y-138091354D01*
X132537435Y-138190470D01*
X132488399Y-138308855D01*
X132488397Y-138308861D01*
X132463400Y-138434528D01*
X125343000Y-138434528D01*
X125343000Y-134308135D01*
X132968000Y-134308135D01*
X132968000Y-135651870D01*
X132968001Y-135651876D01*
X132974408Y-135711483D01*
X133024702Y-135846328D01*
X133024706Y-135846335D01*
X133110952Y-135961544D01*
X133110955Y-135961547D01*
X133226164Y-136047793D01*
X133226171Y-136047797D01*
X133361017Y-136098091D01*
X133361016Y-136098091D01*
X133367944Y-136098835D01*
X133420627Y-136104500D01*
X134764372Y-136104499D01*
X134823983Y-136098091D01*
X134958831Y-136047796D01*
X135074046Y-135961546D01*
X135160296Y-135846331D01*
X135210591Y-135711483D01*
X135217000Y-135651873D01*
X135216999Y-134308128D01*
X135210591Y-134248517D01*
X135199649Y-134219181D01*
X135160297Y-134113671D01*
X135160293Y-134113664D01*
X135074047Y-133998455D01*
X135074044Y-133998452D01*
X134958835Y-133912206D01*
X134958828Y-133912202D01*
X134823982Y-133861908D01*
X134823983Y-133861908D01*
X134764383Y-133855501D01*
X134764381Y-133855500D01*
X134764373Y-133855500D01*
X134764364Y-133855500D01*
X133420629Y-133855500D01*
X133420623Y-133855501D01*
X133361016Y-133861908D01*
X133226171Y-133912202D01*
X133226164Y-133912206D01*
X133110955Y-133998452D01*
X133110952Y-133998455D01*
X133024706Y-134113664D01*
X133024702Y-134113671D01*
X132974408Y-134248517D01*
X132968169Y-134306555D01*
X132968001Y-134308123D01*
X132968000Y-134308135D01*
X125343000Y-134308135D01*
X125343000Y-132666682D01*
X125362685Y-132599643D01*
X125395871Y-132565111D01*
X125531639Y-132470047D01*
X125692547Y-132309139D01*
X125823068Y-132122734D01*
X125919239Y-131916496D01*
X125978135Y-131696692D01*
X125997968Y-131470000D01*
X125978135Y-131243308D01*
X125919239Y-131023504D01*
X125823068Y-130817266D01*
X125692547Y-130630861D01*
X125692545Y-130630858D01*
X125531641Y-130469954D01*
X125345234Y-130339432D01*
X125345232Y-130339431D01*
X125138997Y-130243261D01*
X125138988Y-130243258D01*
X124919197Y-130184366D01*
X124919193Y-130184365D01*
X124919192Y-130184365D01*
X124919191Y-130184364D01*
X124919186Y-130184364D01*
X124692502Y-130164532D01*
X124692498Y-130164532D01*
X124465813Y-130184364D01*
X124465802Y-130184366D01*
X124246011Y-130243258D01*
X124246002Y-130243261D01*
X124039767Y-130339431D01*
X124039765Y-130339432D01*
X123853358Y-130469954D01*
X123692454Y-130630858D01*
X123561932Y-130817265D01*
X123561931Y-130817267D01*
X123465761Y-131023502D01*
X123465758Y-131023511D01*
X123406866Y-131243302D01*
X123406864Y-131243313D01*
X123387032Y-131469998D01*
X112585500Y-131469998D01*
X112585499Y-130137128D01*
X112579091Y-130077517D01*
X112528796Y-129942669D01*
X112528795Y-129942668D01*
X112528793Y-129942664D01*
X112442547Y-129827455D01*
X112442544Y-129827452D01*
X112327335Y-129741206D01*
X112327328Y-129741202D01*
X112192482Y-129690908D01*
X112192483Y-129690908D01*
X112132883Y-129684501D01*
X112132881Y-129684500D01*
X112132873Y-129684500D01*
X112132864Y-129684500D01*
X110507129Y-129684500D01*
X110507123Y-129684501D01*
X110447516Y-129690908D01*
X110312671Y-129741202D01*
X110312664Y-129741206D01*
X110197455Y-129827452D01*
X110197452Y-129827455D01*
X110111206Y-129942664D01*
X110111202Y-129942671D01*
X110060908Y-130077517D01*
X110054501Y-130137116D01*
X110054501Y-130137123D01*
X110054500Y-130137135D01*
X110054500Y-131762870D01*
X110054501Y-131762876D01*
X110060908Y-131822483D01*
X110111202Y-131957328D01*
X110111206Y-131957335D01*
X110197452Y-132072544D01*
X110197455Y-132072547D01*
X110312664Y-132158793D01*
X110312671Y-132158797D01*
X110447517Y-132209091D01*
X110447516Y-132209091D01*
X110454444Y-132209835D01*
X110507127Y-132215500D01*
X110540564Y-132215499D01*
X110607601Y-132235182D01*
X110653357Y-132287984D01*
X110663302Y-132357143D01*
X110634279Y-132420699D01*
X110611689Y-132441073D01*
X110503447Y-132516866D01*
X110503441Y-132516871D01*
X110346868Y-132673444D01*
X110219857Y-132854834D01*
X110219856Y-132854836D01*
X110126279Y-133055513D01*
X110126275Y-133055524D01*
X110068965Y-133269407D01*
X110068964Y-133269414D01*
X110049666Y-133489998D01*
X93222100Y-133489998D01*
X93222100Y-128859998D01*
X116387032Y-128859998D01*
X116387032Y-128860001D01*
X116406864Y-129086686D01*
X116406866Y-129086697D01*
X116465758Y-129306488D01*
X116465761Y-129306497D01*
X116561931Y-129512732D01*
X116561932Y-129512734D01*
X116692454Y-129699141D01*
X116853358Y-129860045D01*
X116853361Y-129860047D01*
X117039766Y-129990568D01*
X117246004Y-130086739D01*
X117465808Y-130145635D01*
X117627730Y-130159801D01*
X117692498Y-130165468D01*
X117692500Y-130165468D01*
X117692502Y-130165468D01*
X117749173Y-130160509D01*
X117919192Y-130145635D01*
X118138996Y-130086739D01*
X118345234Y-129990568D01*
X118531639Y-129860047D01*
X118692547Y-129699139D01*
X118823068Y-129512734D01*
X118919239Y-129306496D01*
X118978135Y-129086692D01*
X118997968Y-128860000D01*
X118978135Y-128633308D01*
X118919239Y-128413504D01*
X118823068Y-128207266D01*
X118692547Y-128020861D01*
X118692545Y-128020858D01*
X118531641Y-127859954D01*
X118345234Y-127729432D01*
X118345232Y-127729431D01*
X118138997Y-127633261D01*
X118138988Y-127633258D01*
X117919197Y-127574366D01*
X117919193Y-127574365D01*
X117919192Y-127574365D01*
X117919191Y-127574364D01*
X117919186Y-127574364D01*
X117692502Y-127554532D01*
X117692498Y-127554532D01*
X117465813Y-127574364D01*
X117465802Y-127574366D01*
X117246011Y-127633258D01*
X117246002Y-127633261D01*
X117039767Y-127729431D01*
X117039765Y-127729432D01*
X116853358Y-127859954D01*
X116692454Y-128020858D01*
X116561932Y-128207265D01*
X116561931Y-128207267D01*
X116465761Y-128413502D01*
X116465758Y-128413511D01*
X116406866Y-128633302D01*
X116406864Y-128633313D01*
X116387032Y-128859998D01*
X93222100Y-128859998D01*
X93222100Y-68957528D01*
X93197102Y-68831861D01*
X93197101Y-68831860D01*
X93197101Y-68831856D01*
X93148065Y-68713473D01*
X93101460Y-68643723D01*
X93101460Y-68643722D01*
X93101458Y-68643720D01*
X93076882Y-68606937D01*
X93076877Y-68606931D01*
X92278306Y-67808360D01*
X92244821Y-67747037D01*
X92246213Y-67688582D01*
X92251035Y-67670591D01*
X92270334Y-67450000D01*
X92251035Y-67229409D01*
X92193723Y-67015520D01*
X92100142Y-66814833D01*
X91973132Y-66633445D01*
X91816555Y-66476868D01*
X91635167Y-66349858D01*
X91511907Y-66292381D01*
X91459468Y-66246210D01*
X91440316Y-66179017D01*
X91460531Y-66112136D01*
X91511908Y-66067618D01*
X91521807Y-66063002D01*
X91635167Y-66010142D01*
X91816555Y-65883132D01*
X91973132Y-65726555D01*
X92100142Y-65545167D01*
X92193723Y-65344480D01*
X92251035Y-65130591D01*
X92270334Y-64910000D01*
X92251035Y-64689409D01*
X92193723Y-64475520D01*
X92100142Y-64274833D01*
X91973132Y-64093445D01*
X91816555Y-63936868D01*
X91635167Y-63809858D01*
X91511907Y-63752381D01*
X91459468Y-63706210D01*
X91440316Y-63639017D01*
X91460531Y-63572136D01*
X91511908Y-63527618D01*
X91635167Y-63470142D01*
X91816555Y-63343132D01*
X91973132Y-63186555D01*
X92100142Y-63005167D01*
X92193723Y-62804480D01*
X92251035Y-62590591D01*
X92270334Y-62370000D01*
X92251035Y-62149409D01*
X92193723Y-61935520D01*
X92100142Y-61734833D01*
X91973132Y-61553445D01*
X91816555Y-61396868D01*
X91635167Y-61269858D01*
X91511907Y-61212381D01*
X91459468Y-61166210D01*
X91440316Y-61099017D01*
X91460531Y-61032136D01*
X91511908Y-60987618D01*
X91635167Y-60930142D01*
X91816555Y-60803132D01*
X91973132Y-60646555D01*
X92100142Y-60465167D01*
X92193723Y-60264480D01*
X92251035Y-60050591D01*
X92270334Y-59830000D01*
X92270334Y-59829998D01*
X110049666Y-59829998D01*
X110049666Y-59830001D01*
X110068964Y-60050585D01*
X110068965Y-60050592D01*
X110126275Y-60264475D01*
X110126279Y-60264486D01*
X110219856Y-60465163D01*
X110219858Y-60465167D01*
X110346868Y-60646555D01*
X110503445Y-60803132D01*
X110684833Y-60930142D01*
X110726347Y-60949500D01*
X110808091Y-60987618D01*
X110860531Y-61033790D01*
X110879683Y-61100983D01*
X110859467Y-61167865D01*
X110808091Y-61212382D01*
X110684836Y-61269856D01*
X110684834Y-61269857D01*
X110503444Y-61396868D01*
X110346868Y-61553444D01*
X110219857Y-61734834D01*
X110219856Y-61734836D01*
X110126279Y-61935513D01*
X110126275Y-61935524D01*
X110068965Y-62149407D01*
X110068964Y-62149414D01*
X110049666Y-62369998D01*
X110049666Y-62370001D01*
X110068964Y-62590585D01*
X110068965Y-62590592D01*
X110126275Y-62804475D01*
X110126279Y-62804486D01*
X110219856Y-63005163D01*
X110219858Y-63005167D01*
X110346868Y-63186555D01*
X110503445Y-63343132D01*
X110684833Y-63470142D01*
X110738824Y-63495318D01*
X110808091Y-63527618D01*
X110860531Y-63573790D01*
X110879683Y-63640983D01*
X110859467Y-63707865D01*
X110808091Y-63752382D01*
X110684836Y-63809856D01*
X110684834Y-63809857D01*
X110503444Y-63936868D01*
X110346868Y-64093444D01*
X110219857Y-64274834D01*
X110219856Y-64274836D01*
X110126279Y-64475513D01*
X110126275Y-64475524D01*
X110068965Y-64689407D01*
X110068964Y-64689414D01*
X110049666Y-64909998D01*
X110049666Y-64910001D01*
X110068964Y-65130585D01*
X110068965Y-65130592D01*
X110126275Y-65344475D01*
X110126279Y-65344486D01*
X110219856Y-65545163D01*
X110219858Y-65545167D01*
X110346868Y-65726555D01*
X110503445Y-65883132D01*
X110684833Y-66010142D01*
X110746828Y-66039050D01*
X110808091Y-66067618D01*
X110860531Y-66113790D01*
X110879683Y-66180983D01*
X110859467Y-66247865D01*
X110808091Y-66292382D01*
X110684836Y-66349856D01*
X110684834Y-66349857D01*
X110503444Y-66476868D01*
X110346868Y-66633444D01*
X110219857Y-66814834D01*
X110219856Y-66814836D01*
X110126279Y-67015513D01*
X110126275Y-67015524D01*
X110068965Y-67229407D01*
X110068964Y-67229414D01*
X110049666Y-67449998D01*
X110049666Y-67450001D01*
X110068964Y-67670585D01*
X110068965Y-67670592D01*
X110126275Y-67884475D01*
X110126279Y-67884486D01*
X110219856Y-68085163D01*
X110219858Y-68085167D01*
X110346868Y-68266555D01*
X110503445Y-68423132D01*
X110684833Y-68550142D01*
X110746828Y-68579050D01*
X110808091Y-68607618D01*
X110860531Y-68653790D01*
X110879683Y-68720983D01*
X110859467Y-68787865D01*
X110808091Y-68832382D01*
X110684836Y-68889856D01*
X110684834Y-68889857D01*
X110503444Y-69016868D01*
X110346868Y-69173444D01*
X110219857Y-69354834D01*
X110219856Y-69354836D01*
X110126279Y-69555513D01*
X110126275Y-69555524D01*
X110068965Y-69769407D01*
X110068964Y-69769414D01*
X110049666Y-69989998D01*
X110049666Y-69990001D01*
X110068964Y-70210585D01*
X110068965Y-70210592D01*
X110126275Y-70424475D01*
X110126279Y-70424486D01*
X110219856Y-70625163D01*
X110219858Y-70625167D01*
X110346868Y-70806555D01*
X110503445Y-70963132D01*
X110684833Y-71090142D01*
X110746828Y-71119050D01*
X110808091Y-71147618D01*
X110860531Y-71193790D01*
X110879683Y-71260983D01*
X110859467Y-71327865D01*
X110808091Y-71372382D01*
X110684836Y-71429856D01*
X110684834Y-71429857D01*
X110503444Y-71556868D01*
X110346868Y-71713444D01*
X110219857Y-71894834D01*
X110219856Y-71894836D01*
X110126279Y-72095513D01*
X110126275Y-72095524D01*
X110068965Y-72309407D01*
X110068964Y-72309414D01*
X110049666Y-72529998D01*
X110049666Y-72530001D01*
X110068964Y-72750585D01*
X110068965Y-72750592D01*
X110126275Y-72964475D01*
X110126279Y-72964486D01*
X110219856Y-73165163D01*
X110219858Y-73165167D01*
X110346868Y-73346555D01*
X110503445Y-73503132D01*
X110684833Y-73630142D01*
X110746828Y-73659050D01*
X110808091Y-73687618D01*
X110860531Y-73733790D01*
X110879683Y-73800983D01*
X110859467Y-73867865D01*
X110808091Y-73912382D01*
X110684836Y-73969856D01*
X110684834Y-73969857D01*
X110503444Y-74096868D01*
X110346868Y-74253444D01*
X110219857Y-74434834D01*
X110219856Y-74434836D01*
X110126279Y-74635513D01*
X110126275Y-74635524D01*
X110068965Y-74849407D01*
X110068964Y-74849414D01*
X110049666Y-75069998D01*
X110049666Y-75070001D01*
X110068964Y-75290585D01*
X110068965Y-75290592D01*
X110126275Y-75504475D01*
X110126279Y-75504486D01*
X110219856Y-75705163D01*
X110219858Y-75705167D01*
X110346868Y-75886555D01*
X110503445Y-76043132D01*
X110684833Y-76170142D01*
X110746828Y-76199050D01*
X110808091Y-76227618D01*
X110860531Y-76273790D01*
X110879683Y-76340983D01*
X110859467Y-76407865D01*
X110808091Y-76452382D01*
X110684836Y-76509856D01*
X110684834Y-76509857D01*
X110503444Y-76636868D01*
X110346868Y-76793444D01*
X110219857Y-76974834D01*
X110219856Y-76974836D01*
X110126279Y-77175513D01*
X110126275Y-77175524D01*
X110068965Y-77389407D01*
X110068964Y-77389414D01*
X110049666Y-77609998D01*
X110049666Y-77610001D01*
X110068964Y-77830585D01*
X110068965Y-77830592D01*
X110126275Y-78044475D01*
X110126279Y-78044486D01*
X110219856Y-78245163D01*
X110219858Y-78245167D01*
X110346868Y-78426555D01*
X110503445Y-78583132D01*
X110684833Y-78710142D01*
X110746828Y-78739050D01*
X110808091Y-78767618D01*
X110860531Y-78813790D01*
X110879683Y-78880983D01*
X110859467Y-78947865D01*
X110808091Y-78992382D01*
X110684836Y-79049856D01*
X110684834Y-79049857D01*
X110503444Y-79176868D01*
X110346868Y-79333444D01*
X110219857Y-79514834D01*
X110219856Y-79514836D01*
X110126279Y-79715513D01*
X110126275Y-79715524D01*
X110068965Y-79929407D01*
X110068964Y-79929414D01*
X110049666Y-80149998D01*
X110049666Y-80150001D01*
X110068964Y-80370585D01*
X110068965Y-80370592D01*
X110126275Y-80584475D01*
X110126279Y-80584486D01*
X110219856Y-80785163D01*
X110219858Y-80785167D01*
X110346868Y-80966555D01*
X110503445Y-81123132D01*
X110684833Y-81250142D01*
X110746828Y-81279050D01*
X110808091Y-81307618D01*
X110860531Y-81353790D01*
X110879683Y-81420983D01*
X110859467Y-81487865D01*
X110808091Y-81532382D01*
X110684836Y-81589856D01*
X110684834Y-81589857D01*
X110503444Y-81716868D01*
X110346868Y-81873444D01*
X110219857Y-82054834D01*
X110219856Y-82054836D01*
X110126279Y-82255513D01*
X110126275Y-82255524D01*
X110068965Y-82469407D01*
X110068964Y-82469414D01*
X110049666Y-82689998D01*
X110049666Y-82690001D01*
X110068964Y-82910585D01*
X110068965Y-82910592D01*
X110126275Y-83124475D01*
X110126279Y-83124486D01*
X110219856Y-83325163D01*
X110219858Y-83325167D01*
X110346868Y-83506555D01*
X110503445Y-83663132D01*
X110684833Y-83790142D01*
X110746828Y-83819050D01*
X110808091Y-83847618D01*
X110860531Y-83893790D01*
X110879683Y-83960983D01*
X110859467Y-84027865D01*
X110808091Y-84072382D01*
X110684836Y-84129856D01*
X110684834Y-84129857D01*
X110503444Y-84256868D01*
X110346868Y-84413444D01*
X110219857Y-84594834D01*
X110219856Y-84594836D01*
X110126279Y-84795513D01*
X110126275Y-84795524D01*
X110068965Y-85009407D01*
X110068964Y-85009414D01*
X110049666Y-85229998D01*
X110049666Y-85230001D01*
X110068964Y-85450585D01*
X110068965Y-85450592D01*
X110126275Y-85664475D01*
X110126279Y-85664486D01*
X110219856Y-85865163D01*
X110219858Y-85865167D01*
X110346868Y-86046555D01*
X110503445Y-86203132D01*
X110684833Y-86330142D01*
X110746828Y-86359050D01*
X110808091Y-86387618D01*
X110860531Y-86433790D01*
X110879683Y-86500983D01*
X110859467Y-86567865D01*
X110808091Y-86612382D01*
X110684836Y-86669856D01*
X110684834Y-86669857D01*
X110503444Y-86796868D01*
X110346868Y-86953444D01*
X110219857Y-87134834D01*
X110219856Y-87134836D01*
X110126279Y-87335513D01*
X110126275Y-87335524D01*
X110068965Y-87549407D01*
X110068964Y-87549414D01*
X110049666Y-87769998D01*
X110049666Y-87770001D01*
X110068964Y-87990585D01*
X110068965Y-87990592D01*
X110126275Y-88204475D01*
X110126279Y-88204486D01*
X110219856Y-88405163D01*
X110219858Y-88405167D01*
X110346868Y-88586555D01*
X110503445Y-88743132D01*
X110684833Y-88870142D01*
X110746828Y-88899050D01*
X110808091Y-88927618D01*
X110860531Y-88973790D01*
X110879683Y-89040983D01*
X110859467Y-89107865D01*
X110808091Y-89152382D01*
X110684836Y-89209856D01*
X110684834Y-89209857D01*
X110503444Y-89336868D01*
X110346868Y-89493444D01*
X110219857Y-89674834D01*
X110219856Y-89674836D01*
X110126279Y-89875513D01*
X110126275Y-89875524D01*
X110068965Y-90089407D01*
X110068964Y-90089414D01*
X110049666Y-90309998D01*
X110049666Y-90310001D01*
X110068964Y-90530585D01*
X110068965Y-90530592D01*
X110126275Y-90744475D01*
X110126279Y-90744486D01*
X110219856Y-90945163D01*
X110219858Y-90945167D01*
X110346868Y-91126555D01*
X110503445Y-91283132D01*
X110684833Y-91410142D01*
X110726347Y-91429500D01*
X110808091Y-91467618D01*
X110860531Y-91513790D01*
X110879683Y-91580983D01*
X110859467Y-91647865D01*
X110808091Y-91692382D01*
X110684836Y-91749856D01*
X110684834Y-91749857D01*
X110503444Y-91876868D01*
X110346868Y-92033444D01*
X110219857Y-92214834D01*
X110219856Y-92214836D01*
X110126279Y-92415513D01*
X110126275Y-92415524D01*
X110068965Y-92629407D01*
X110068964Y-92629414D01*
X110049666Y-92849998D01*
X110049666Y-92850001D01*
X110068964Y-93070585D01*
X110068965Y-93070592D01*
X110126275Y-93284475D01*
X110126279Y-93284486D01*
X110166705Y-93371179D01*
X110219858Y-93485167D01*
X110346868Y-93666555D01*
X110503445Y-93823132D01*
X110684833Y-93950142D01*
X110705972Y-93959999D01*
X110808091Y-94007618D01*
X110860531Y-94053790D01*
X110879683Y-94120983D01*
X110859467Y-94187865D01*
X110808091Y-94232382D01*
X110684836Y-94289856D01*
X110684834Y-94289857D01*
X110503444Y-94416868D01*
X110346868Y-94573444D01*
X110219857Y-94754834D01*
X110219856Y-94754836D01*
X110126279Y-94955513D01*
X110126275Y-94955524D01*
X110068965Y-95169407D01*
X110068964Y-95169414D01*
X110049666Y-95389998D01*
X110049666Y-95390001D01*
X110068964Y-95610585D01*
X110068965Y-95610592D01*
X110126275Y-95824475D01*
X110126279Y-95824486D01*
X110219473Y-96024341D01*
X110219858Y-96025167D01*
X110346868Y-96206555D01*
X110503445Y-96363132D01*
X110684833Y-96490142D01*
X110724415Y-96508599D01*
X110808091Y-96547618D01*
X110860531Y-96593790D01*
X110879683Y-96660983D01*
X110859467Y-96727865D01*
X110808091Y-96772382D01*
X110684836Y-96829856D01*
X110684834Y-96829857D01*
X110503444Y-96956868D01*
X110346868Y-97113444D01*
X110219857Y-97294834D01*
X110219856Y-97294836D01*
X110126279Y-97495513D01*
X110126275Y-97495524D01*
X110068965Y-97709407D01*
X110068964Y-97709414D01*
X110049666Y-97929998D01*
X110049666Y-97930001D01*
X110068964Y-98150585D01*
X110068965Y-98150592D01*
X110126275Y-98364475D01*
X110126279Y-98364486D01*
X110212051Y-98548425D01*
X110219858Y-98565167D01*
X110346868Y-98746555D01*
X110503445Y-98903132D01*
X110684833Y-99030142D01*
X110724415Y-99048599D01*
X110808091Y-99087618D01*
X110860531Y-99133790D01*
X110879683Y-99200983D01*
X110859467Y-99267865D01*
X110808091Y-99312382D01*
X110684836Y-99369856D01*
X110684834Y-99369857D01*
X110503444Y-99496868D01*
X110346868Y-99653444D01*
X110219857Y-99834834D01*
X110219856Y-99834836D01*
X110126279Y-100035513D01*
X110126275Y-100035524D01*
X110068965Y-100249407D01*
X110068964Y-100249414D01*
X110049666Y-100469998D01*
X110049666Y-100470001D01*
X110068964Y-100690585D01*
X110068965Y-100690592D01*
X110126275Y-100904475D01*
X110126279Y-100904486D01*
X110212051Y-101088425D01*
X110219858Y-101105167D01*
X110346868Y-101286555D01*
X110503445Y-101443132D01*
X110684833Y-101570142D01*
X110724415Y-101588599D01*
X110808091Y-101627618D01*
X110860531Y-101673790D01*
X110879683Y-101740983D01*
X110859467Y-101807865D01*
X110808091Y-101852382D01*
X110684836Y-101909856D01*
X110684834Y-101909857D01*
X110503444Y-102036868D01*
X110346868Y-102193444D01*
X110219857Y-102374834D01*
X110219856Y-102374836D01*
X110126279Y-102575513D01*
X110126275Y-102575524D01*
X110068965Y-102789407D01*
X110068964Y-102789414D01*
X110049666Y-103009998D01*
X110049666Y-103010001D01*
X110068964Y-103230585D01*
X110068965Y-103230592D01*
X110126275Y-103444475D01*
X110126279Y-103444486D01*
X110212051Y-103628425D01*
X110219858Y-103645167D01*
X110346868Y-103826555D01*
X110503445Y-103983132D01*
X110684833Y-104110142D01*
X110724415Y-104128599D01*
X110808091Y-104167618D01*
X110860531Y-104213790D01*
X110879683Y-104280983D01*
X110859467Y-104347865D01*
X110808091Y-104392382D01*
X110684836Y-104449856D01*
X110684834Y-104449857D01*
X110503444Y-104576868D01*
X110346868Y-104733444D01*
X110219857Y-104914834D01*
X110219856Y-104914836D01*
X110126279Y-105115513D01*
X110126275Y-105115524D01*
X110068965Y-105329407D01*
X110068964Y-105329414D01*
X110049666Y-105549998D01*
X110049666Y-105550001D01*
X110068964Y-105770585D01*
X110068965Y-105770592D01*
X110126275Y-105984475D01*
X110126279Y-105984486D01*
X110212051Y-106168425D01*
X110219858Y-106185167D01*
X110346868Y-106366555D01*
X110503445Y-106523132D01*
X110684833Y-106650142D01*
X110724415Y-106668599D01*
X110808091Y-106707618D01*
X110860531Y-106753790D01*
X110879683Y-106820983D01*
X110859467Y-106887865D01*
X110808091Y-106932382D01*
X110684836Y-106989856D01*
X110684834Y-106989857D01*
X110503444Y-107116868D01*
X110346868Y-107273444D01*
X110219857Y-107454834D01*
X110219856Y-107454836D01*
X110126279Y-107655513D01*
X110126275Y-107655524D01*
X110068965Y-107869407D01*
X110068964Y-107869414D01*
X110049666Y-108089998D01*
X110049666Y-108090001D01*
X110068964Y-108310585D01*
X110068965Y-108310592D01*
X110126275Y-108524475D01*
X110126279Y-108524486D01*
X110212051Y-108708425D01*
X110219858Y-108725167D01*
X110346868Y-108906555D01*
X110503445Y-109063132D01*
X110684833Y-109190142D01*
X110724415Y-109208599D01*
X110808091Y-109247618D01*
X110860531Y-109293790D01*
X110879683Y-109360983D01*
X110859467Y-109427865D01*
X110808091Y-109472382D01*
X110684836Y-109529856D01*
X110684834Y-109529857D01*
X110503444Y-109656868D01*
X110346868Y-109813444D01*
X110219857Y-109994834D01*
X110219856Y-109994836D01*
X110126279Y-110195513D01*
X110126275Y-110195524D01*
X110068965Y-110409407D01*
X110068964Y-110409414D01*
X110049666Y-110629998D01*
X110049666Y-110630001D01*
X110068964Y-110850585D01*
X110068965Y-110850592D01*
X110126275Y-111064475D01*
X110126279Y-111064486D01*
X110212051Y-111248425D01*
X110219858Y-111265167D01*
X110346868Y-111446555D01*
X110503445Y-111603132D01*
X110684833Y-111730142D01*
X110724415Y-111748599D01*
X110808091Y-111787618D01*
X110860531Y-111833790D01*
X110879683Y-111900983D01*
X110859467Y-111967865D01*
X110808091Y-112012382D01*
X110684836Y-112069856D01*
X110684834Y-112069857D01*
X110503444Y-112196868D01*
X110346868Y-112353444D01*
X110219857Y-112534834D01*
X110219856Y-112534836D01*
X110126279Y-112735513D01*
X110126275Y-112735524D01*
X110068965Y-112949407D01*
X110068964Y-112949414D01*
X110049666Y-113169998D01*
X110049666Y-113170001D01*
X110068964Y-113390585D01*
X110068965Y-113390592D01*
X110126275Y-113604475D01*
X110126279Y-113604486D01*
X110205939Y-113775318D01*
X110219858Y-113805167D01*
X110346868Y-113986555D01*
X110503445Y-114143132D01*
X110684833Y-114270142D01*
X110746828Y-114299050D01*
X110808091Y-114327618D01*
X110860531Y-114373790D01*
X110879683Y-114440983D01*
X110859467Y-114507865D01*
X110808091Y-114552382D01*
X110684836Y-114609856D01*
X110684834Y-114609857D01*
X110503444Y-114736868D01*
X110346868Y-114893444D01*
X110219857Y-115074834D01*
X110219856Y-115074836D01*
X110126279Y-115275513D01*
X110126275Y-115275524D01*
X110068965Y-115489407D01*
X110068964Y-115489414D01*
X110049666Y-115709998D01*
X110049666Y-115710001D01*
X110068964Y-115930585D01*
X110068965Y-115930592D01*
X110126275Y-116144475D01*
X110126279Y-116144486D01*
X110176568Y-116252331D01*
X110219858Y-116345167D01*
X110346868Y-116526555D01*
X110503445Y-116683132D01*
X110684833Y-116810142D01*
X110808682Y-116867893D01*
X110861122Y-116914065D01*
X110880274Y-116981258D01*
X110860059Y-117048139D01*
X110808683Y-117092657D01*
X110685084Y-117150293D01*
X110619657Y-117196104D01*
X111182424Y-117758871D01*
X111123147Y-117774755D01*
X111006853Y-117841898D01*
X110911898Y-117936853D01*
X110844755Y-118053147D01*
X110828871Y-118112424D01*
X110266104Y-117549657D01*
X110220293Y-117615084D01*
X110126749Y-117815690D01*
X110126745Y-117815699D01*
X110069461Y-118029490D01*
X110069459Y-118029500D01*
X110050168Y-118249999D01*
X110050168Y-118250000D01*
X110069459Y-118470499D01*
X110069461Y-118470509D01*
X110126745Y-118684300D01*
X110126749Y-118684309D01*
X110220295Y-118884919D01*
X110266103Y-118950341D01*
X110266105Y-118950342D01*
X110828871Y-118387575D01*
X110844755Y-118446853D01*
X110911898Y-118563147D01*
X111006853Y-118658102D01*
X111123147Y-118725245D01*
X111182424Y-118741128D01*
X110619656Y-119303894D01*
X110685083Y-119349706D01*
X110685085Y-119349707D01*
X110885690Y-119443250D01*
X110885699Y-119443254D01*
X111099490Y-119500538D01*
X111099500Y-119500540D01*
X111319999Y-119519832D01*
X111320001Y-119519832D01*
X111540499Y-119500540D01*
X111540509Y-119500538D01*
X111754300Y-119443254D01*
X111754309Y-119443250D01*
X111954915Y-119349706D01*
X112020342Y-119303894D01*
X111457575Y-118741127D01*
X111516853Y-118725245D01*
X111633147Y-118658102D01*
X111728102Y-118563147D01*
X111795245Y-118446853D01*
X111811128Y-118387575D01*
X112373894Y-118950342D01*
X112419706Y-118884915D01*
X112513250Y-118684309D01*
X112513254Y-118684300D01*
X112570538Y-118470509D01*
X112570540Y-118470499D01*
X112589832Y-118250000D01*
X112589832Y-118249999D01*
X112570540Y-118029500D01*
X112570538Y-118029490D01*
X112513254Y-117815699D01*
X112513250Y-117815690D01*
X112419707Y-117615085D01*
X112419706Y-117615083D01*
X112373894Y-117549657D01*
X112373894Y-117549656D01*
X111811127Y-118112423D01*
X111795245Y-118053147D01*
X111728102Y-117936853D01*
X111633147Y-117841898D01*
X111516853Y-117774755D01*
X111457575Y-117758872D01*
X112020342Y-117196105D01*
X112020341Y-117196103D01*
X111954919Y-117150295D01*
X111831316Y-117092657D01*
X111778877Y-117046484D01*
X111759725Y-116979291D01*
X111779941Y-116912410D01*
X111831312Y-116867895D01*
X111955167Y-116810142D01*
X112136555Y-116683132D01*
X112293132Y-116526555D01*
X112420142Y-116345167D01*
X112513723Y-116144480D01*
X112571035Y-115930591D01*
X112590334Y-115710000D01*
X112571035Y-115489409D01*
X112513723Y-115275520D01*
X112420142Y-115074833D01*
X112293132Y-114893445D01*
X112136555Y-114736868D01*
X111955167Y-114609858D01*
X111831907Y-114552381D01*
X111779468Y-114506210D01*
X111760316Y-114439017D01*
X111780531Y-114372136D01*
X111831908Y-114327618D01*
X111955167Y-114270142D01*
X112136555Y-114143132D01*
X112293132Y-113986555D01*
X112420142Y-113805167D01*
X112513723Y-113604480D01*
X112571035Y-113390591D01*
X112590334Y-113170000D01*
X112571035Y-112949409D01*
X112513723Y-112735520D01*
X112420142Y-112534833D01*
X112293132Y-112353445D01*
X112136555Y-112196868D01*
X111955167Y-112069858D01*
X111831907Y-112012381D01*
X111779468Y-111966210D01*
X111760316Y-111899017D01*
X111780531Y-111832136D01*
X111831908Y-111787618D01*
X111955167Y-111730142D01*
X112136555Y-111603132D01*
X112293132Y-111446555D01*
X112420142Y-111265167D01*
X112513723Y-111064480D01*
X112571035Y-110850591D01*
X112590334Y-110630000D01*
X112571035Y-110409409D01*
X112513723Y-110195520D01*
X112420142Y-109994833D01*
X112293132Y-109813445D01*
X112136555Y-109656868D01*
X111955167Y-109529858D01*
X111831907Y-109472381D01*
X111779468Y-109426210D01*
X111760316Y-109359017D01*
X111780531Y-109292136D01*
X111831908Y-109247618D01*
X111955167Y-109190142D01*
X112136555Y-109063132D01*
X112293132Y-108906555D01*
X112420142Y-108725167D01*
X112513723Y-108524480D01*
X112571035Y-108310591D01*
X112590334Y-108090000D01*
X112571035Y-107869409D01*
X112513723Y-107655520D01*
X112420142Y-107454833D01*
X112293132Y-107273445D01*
X112136555Y-107116868D01*
X111955167Y-106989858D01*
X111831907Y-106932381D01*
X111779468Y-106886210D01*
X111760316Y-106819017D01*
X111780531Y-106752136D01*
X111831908Y-106707618D01*
X111955167Y-106650142D01*
X112136555Y-106523132D01*
X112293132Y-106366555D01*
X112420142Y-106185167D01*
X112513723Y-105984480D01*
X112571035Y-105770591D01*
X112590334Y-105550000D01*
X112571035Y-105329409D01*
X112513723Y-105115520D01*
X112420142Y-104914833D01*
X112293132Y-104733445D01*
X112136555Y-104576868D01*
X111955167Y-104449858D01*
X111831907Y-104392381D01*
X111779468Y-104346210D01*
X111760316Y-104279017D01*
X111780531Y-104212136D01*
X111831908Y-104167618D01*
X111955167Y-104110142D01*
X112136555Y-103983132D01*
X112293132Y-103826555D01*
X112420142Y-103645167D01*
X112513723Y-103444480D01*
X112571035Y-103230591D01*
X112590334Y-103010000D01*
X112571035Y-102789409D01*
X112513723Y-102575520D01*
X112420142Y-102374833D01*
X112293132Y-102193445D01*
X112136555Y-102036868D01*
X111955167Y-101909858D01*
X111831907Y-101852381D01*
X111779468Y-101806210D01*
X111760316Y-101739017D01*
X111780531Y-101672136D01*
X111831908Y-101627618D01*
X111955167Y-101570142D01*
X112136555Y-101443132D01*
X112293132Y-101286555D01*
X112420142Y-101105167D01*
X112513723Y-100904480D01*
X112571035Y-100690591D01*
X112590334Y-100470000D01*
X112571035Y-100249409D01*
X112513723Y-100035520D01*
X112420142Y-99834833D01*
X112293132Y-99653445D01*
X112136555Y-99496868D01*
X111955167Y-99369858D01*
X111831907Y-99312381D01*
X111779468Y-99266210D01*
X111760316Y-99199017D01*
X111780531Y-99132136D01*
X111831908Y-99087618D01*
X111955167Y-99030142D01*
X112136555Y-98903132D01*
X112293132Y-98746555D01*
X112420142Y-98565167D01*
X112513723Y-98364480D01*
X112571035Y-98150591D01*
X112590334Y-97930000D01*
X112571035Y-97709409D01*
X112513723Y-97495520D01*
X112420142Y-97294833D01*
X112293132Y-97113445D01*
X112136555Y-96956868D01*
X111955167Y-96829858D01*
X111831907Y-96772381D01*
X111779468Y-96726210D01*
X111760316Y-96659017D01*
X111780531Y-96592136D01*
X111831908Y-96547618D01*
X111955167Y-96490142D01*
X112136555Y-96363132D01*
X112293132Y-96206555D01*
X112420142Y-96025167D01*
X112513723Y-95824480D01*
X112571035Y-95610591D01*
X112590334Y-95390000D01*
X112571035Y-95169409D01*
X112513723Y-94955520D01*
X112420142Y-94754833D01*
X112293132Y-94573445D01*
X112136555Y-94416868D01*
X111955167Y-94289858D01*
X111831907Y-94232381D01*
X111779468Y-94186210D01*
X111760316Y-94119017D01*
X111780531Y-94052136D01*
X111831908Y-94007618D01*
X111955167Y-93950142D01*
X112136555Y-93823132D01*
X112293132Y-93666555D01*
X112420142Y-93485167D01*
X112513723Y-93284480D01*
X112571035Y-93070591D01*
X112590334Y-92850000D01*
X112571035Y-92629409D01*
X112513723Y-92415520D01*
X112420142Y-92214833D01*
X112293132Y-92033445D01*
X112136555Y-91876868D01*
X111955167Y-91749858D01*
X111831907Y-91692381D01*
X111779468Y-91646210D01*
X111760316Y-91579017D01*
X111780531Y-91512136D01*
X111831908Y-91467618D01*
X111955167Y-91410142D01*
X112136555Y-91283132D01*
X112293132Y-91126555D01*
X112420142Y-90945167D01*
X112513723Y-90744480D01*
X112571035Y-90530591D01*
X112590334Y-90310000D01*
X112571035Y-90089409D01*
X112513723Y-89875520D01*
X112420142Y-89674833D01*
X112293132Y-89493445D01*
X112136555Y-89336868D01*
X111955167Y-89209858D01*
X111831907Y-89152381D01*
X111779468Y-89106210D01*
X111760316Y-89039017D01*
X111780531Y-88972136D01*
X111831908Y-88927618D01*
X111955167Y-88870142D01*
X112136555Y-88743132D01*
X112293132Y-88586555D01*
X112420142Y-88405167D01*
X112513723Y-88204480D01*
X112571035Y-87990591D01*
X112590334Y-87770000D01*
X112571035Y-87549409D01*
X112513723Y-87335520D01*
X112420142Y-87134833D01*
X112293132Y-86953445D01*
X112136555Y-86796868D01*
X111955167Y-86669858D01*
X111831907Y-86612381D01*
X111779468Y-86566210D01*
X111760316Y-86499017D01*
X111780531Y-86432136D01*
X111831908Y-86387618D01*
X111955167Y-86330142D01*
X112136555Y-86203132D01*
X112293132Y-86046555D01*
X112420142Y-85865167D01*
X112513723Y-85664480D01*
X112571035Y-85450591D01*
X112590334Y-85230000D01*
X112571035Y-85009409D01*
X112513723Y-84795520D01*
X112420142Y-84594833D01*
X112293132Y-84413445D01*
X112136555Y-84256868D01*
X111955167Y-84129858D01*
X111831907Y-84072381D01*
X111779468Y-84026210D01*
X111760316Y-83959017D01*
X111780531Y-83892136D01*
X111831908Y-83847618D01*
X111955167Y-83790142D01*
X112136555Y-83663132D01*
X112293132Y-83506555D01*
X112420142Y-83325167D01*
X112513723Y-83124480D01*
X112571035Y-82910591D01*
X112590334Y-82690000D01*
X112571035Y-82469409D01*
X112513723Y-82255520D01*
X112420142Y-82054833D01*
X112293132Y-81873445D01*
X112136555Y-81716868D01*
X111955167Y-81589858D01*
X111831907Y-81532381D01*
X111779468Y-81486210D01*
X111760316Y-81419017D01*
X111780531Y-81352136D01*
X111831908Y-81307618D01*
X111841807Y-81303002D01*
X111955167Y-81250142D01*
X112136555Y-81123132D01*
X112293132Y-80966555D01*
X112420142Y-80785167D01*
X112513723Y-80584480D01*
X112571035Y-80370591D01*
X112590334Y-80150000D01*
X112571035Y-79929409D01*
X112513723Y-79715520D01*
X112420142Y-79514833D01*
X112293132Y-79333445D01*
X112136555Y-79176868D01*
X111955167Y-79049858D01*
X111831907Y-78992381D01*
X111779468Y-78946210D01*
X111760316Y-78879017D01*
X111780531Y-78812136D01*
X111831908Y-78767618D01*
X111841807Y-78763002D01*
X111955167Y-78710142D01*
X112136555Y-78583132D01*
X112293132Y-78426555D01*
X112420142Y-78245167D01*
X112513723Y-78044480D01*
X112571035Y-77830591D01*
X112590334Y-77610000D01*
X112571035Y-77389409D01*
X112513723Y-77175520D01*
X112420142Y-76974833D01*
X112293132Y-76793445D01*
X112136555Y-76636868D01*
X111955167Y-76509858D01*
X111831907Y-76452381D01*
X111779468Y-76406210D01*
X111760316Y-76339017D01*
X111780531Y-76272136D01*
X111831908Y-76227618D01*
X111841807Y-76223002D01*
X111955167Y-76170142D01*
X112136555Y-76043132D01*
X112293132Y-75886555D01*
X112420142Y-75705167D01*
X112513723Y-75504480D01*
X112571035Y-75290591D01*
X112590334Y-75070000D01*
X112571035Y-74849409D01*
X112513723Y-74635520D01*
X112420142Y-74434833D01*
X112293132Y-74253445D01*
X112136555Y-74096868D01*
X111955167Y-73969858D01*
X111831907Y-73912381D01*
X111779468Y-73866210D01*
X111760316Y-73799017D01*
X111780531Y-73732136D01*
X111831908Y-73687618D01*
X111841807Y-73683002D01*
X111955167Y-73630142D01*
X112136555Y-73503132D01*
X112293132Y-73346555D01*
X112420142Y-73165167D01*
X112513723Y-72964480D01*
X112571035Y-72750591D01*
X112590334Y-72530000D01*
X112571035Y-72309409D01*
X112513723Y-72095520D01*
X112420142Y-71894833D01*
X112293132Y-71713445D01*
X112136555Y-71556868D01*
X111955167Y-71429858D01*
X111831907Y-71372381D01*
X111779468Y-71326210D01*
X111760316Y-71259017D01*
X111780531Y-71192136D01*
X111831908Y-71147618D01*
X111841807Y-71143002D01*
X111955167Y-71090142D01*
X112136555Y-70963132D01*
X112293132Y-70806555D01*
X112420142Y-70625167D01*
X112513723Y-70424480D01*
X112571035Y-70210591D01*
X112590334Y-69990000D01*
X112587505Y-69957669D01*
X112584210Y-69919999D01*
X112571035Y-69769409D01*
X112513723Y-69555520D01*
X112420142Y-69354833D01*
X112293132Y-69173445D01*
X112136555Y-69016868D01*
X111955167Y-68889858D01*
X111831907Y-68832381D01*
X111779468Y-68786210D01*
X111760316Y-68719017D01*
X111780531Y-68652136D01*
X111831908Y-68607618D01*
X111955167Y-68550142D01*
X112136555Y-68423132D01*
X112293132Y-68266555D01*
X112420142Y-68085167D01*
X112513723Y-67884480D01*
X112571035Y-67670591D01*
X112587577Y-67481513D01*
X112590334Y-67450001D01*
X112590334Y-67449998D01*
X112584210Y-67380000D01*
X112571035Y-67229409D01*
X112513723Y-67015520D01*
X112420142Y-66814833D01*
X112293132Y-66633445D01*
X112136555Y-66476868D01*
X111955167Y-66349858D01*
X111831907Y-66292381D01*
X111779468Y-66246210D01*
X111760316Y-66179017D01*
X111780531Y-66112136D01*
X111831908Y-66067618D01*
X111841807Y-66063002D01*
X111955167Y-66010142D01*
X112136555Y-65883132D01*
X112293132Y-65726555D01*
X112420142Y-65545167D01*
X112513723Y-65344480D01*
X112571035Y-65130591D01*
X112590334Y-64910000D01*
X112571035Y-64689409D01*
X112513723Y-64475520D01*
X112420142Y-64274833D01*
X112293132Y-64093445D01*
X112136555Y-63936868D01*
X111955167Y-63809858D01*
X111831907Y-63752381D01*
X111779468Y-63706210D01*
X111760316Y-63639017D01*
X111780531Y-63572136D01*
X111831908Y-63527618D01*
X111955167Y-63470142D01*
X112136555Y-63343132D01*
X112293132Y-63186555D01*
X112420142Y-63005167D01*
X112513723Y-62804480D01*
X112571035Y-62590591D01*
X112590334Y-62370000D01*
X112571035Y-62149409D01*
X112513723Y-61935520D01*
X112420142Y-61734833D01*
X112293132Y-61553445D01*
X112136555Y-61396868D01*
X111955167Y-61269858D01*
X111831907Y-61212381D01*
X111779468Y-61166210D01*
X111760316Y-61099017D01*
X111780531Y-61032136D01*
X111831908Y-60987618D01*
X111955167Y-60930142D01*
X112136555Y-60803132D01*
X112293132Y-60646555D01*
X112420142Y-60465167D01*
X112513723Y-60264480D01*
X112571035Y-60050591D01*
X112590334Y-59830000D01*
X112571035Y-59609409D01*
X112513723Y-59395520D01*
X112420142Y-59194833D01*
X112293132Y-59013445D01*
X112136555Y-58856868D01*
X111955167Y-58729858D01*
X111955163Y-58729856D01*
X111831317Y-58672106D01*
X111778877Y-58625934D01*
X111759725Y-58558741D01*
X111779941Y-58491859D01*
X111831317Y-58447342D01*
X111954912Y-58389708D01*
X111954914Y-58389707D01*
X112020342Y-58343894D01*
X111457575Y-57781127D01*
X111516853Y-57765245D01*
X111633147Y-57698102D01*
X111728102Y-57603147D01*
X111795245Y-57486853D01*
X111811128Y-57427575D01*
X112373894Y-57990342D01*
X112419706Y-57924915D01*
X112425460Y-57912576D01*
X112471629Y-57860134D01*
X112538822Y-57840978D01*
X112605704Y-57861190D01*
X112625523Y-57877290D01*
X112854788Y-58106555D01*
X114016681Y-59268448D01*
X114050166Y-59329771D01*
X114053000Y-59356129D01*
X114053000Y-121044918D01*
X114053000Y-121044920D01*
X114052999Y-121044920D01*
X114081840Y-121189907D01*
X114081843Y-121189917D01*
X114138414Y-121326492D01*
X114171312Y-121375727D01*
X114171313Y-121375730D01*
X114220546Y-121449414D01*
X114220552Y-121449421D01*
X116365782Y-123594650D01*
X116399267Y-123655973D01*
X116401629Y-123693137D01*
X116387032Y-123859996D01*
X116387032Y-123860001D01*
X116406864Y-124086686D01*
X116406866Y-124086697D01*
X116465758Y-124306488D01*
X116465761Y-124306497D01*
X116561931Y-124512732D01*
X116561932Y-124512734D01*
X116692454Y-124699141D01*
X116853358Y-124860045D01*
X116853361Y-124860047D01*
X117039766Y-124990568D01*
X117246004Y-125086739D01*
X117465808Y-125145635D01*
X117627730Y-125159801D01*
X117692498Y-125165468D01*
X117692500Y-125165468D01*
X117692502Y-125165468D01*
X117749173Y-125160509D01*
X117919192Y-125145635D01*
X118138996Y-125086739D01*
X118345234Y-124990568D01*
X118531639Y-124860047D01*
X118692547Y-124699139D01*
X118823068Y-124512734D01*
X118919239Y-124306496D01*
X118978135Y-124086692D01*
X118997968Y-123860000D01*
X118997093Y-123849998D01*
X123387032Y-123849998D01*
X123387032Y-123850001D01*
X123406864Y-124076686D01*
X123406866Y-124076697D01*
X123465758Y-124296488D01*
X123465761Y-124296497D01*
X123561931Y-124502732D01*
X123561932Y-124502734D01*
X123692454Y-124689141D01*
X123853358Y-124850045D01*
X123853361Y-124850047D01*
X124039766Y-124980568D01*
X124246004Y-125076739D01*
X124465808Y-125135635D01*
X124627730Y-125149801D01*
X124692498Y-125155468D01*
X124692500Y-125155468D01*
X124692502Y-125155468D01*
X124749173Y-125150509D01*
X124919192Y-125135635D01*
X125138996Y-125076739D01*
X125345234Y-124980568D01*
X125531639Y-124850047D01*
X125692547Y-124689139D01*
X125823068Y-124502734D01*
X125919239Y-124296496D01*
X125978135Y-124076692D01*
X125997093Y-123859998D01*
X125997968Y-123850001D01*
X125997968Y-123849998D01*
X125984244Y-123693137D01*
X125978135Y-123623308D01*
X125921920Y-123413511D01*
X125919241Y-123403511D01*
X125919238Y-123403502D01*
X125823068Y-123197266D01*
X125692547Y-123010861D01*
X125692545Y-123010858D01*
X125531641Y-122849954D01*
X125345234Y-122719432D01*
X125345232Y-122719431D01*
X125138997Y-122623261D01*
X125138988Y-122623258D01*
X124919197Y-122564366D01*
X124919193Y-122564365D01*
X124919192Y-122564365D01*
X124919191Y-122564364D01*
X124919186Y-122564364D01*
X124692502Y-122544532D01*
X124692498Y-122544532D01*
X124465813Y-122564364D01*
X124465802Y-122564366D01*
X124246011Y-122623258D01*
X124246002Y-122623261D01*
X124039767Y-122719431D01*
X124039765Y-122719432D01*
X123853358Y-122849954D01*
X123692454Y-123010858D01*
X123561932Y-123197265D01*
X123561931Y-123197267D01*
X123465761Y-123403502D01*
X123465758Y-123403511D01*
X123406866Y-123623302D01*
X123406864Y-123623313D01*
X123387032Y-123849998D01*
X118997093Y-123849998D01*
X118978135Y-123633308D01*
X118919239Y-123413504D01*
X118823068Y-123207266D01*
X118692547Y-123020861D01*
X118692545Y-123020858D01*
X118531641Y-122859954D01*
X118345234Y-122729432D01*
X118345232Y-122729431D01*
X118138997Y-122633261D01*
X118138988Y-122633258D01*
X117919197Y-122574366D01*
X117919193Y-122574365D01*
X117919192Y-122574365D01*
X117919191Y-122574364D01*
X117919186Y-122574364D01*
X117692502Y-122554532D01*
X117692497Y-122554532D01*
X117525637Y-122569129D01*
X117457137Y-122555362D01*
X117427150Y-122533282D01*
X115590319Y-120696451D01*
X115556834Y-120635128D01*
X115554000Y-120608770D01*
X115554000Y-99119999D01*
X116844341Y-99119999D01*
X116844341Y-99120000D01*
X116864936Y-99355403D01*
X116864938Y-99355413D01*
X116926094Y-99583655D01*
X116926096Y-99583659D01*
X116926097Y-99583663D01*
X116973161Y-99684592D01*
X117025965Y-99797830D01*
X117025967Y-99797834D01*
X117161501Y-99991395D01*
X117161506Y-99991402D01*
X117328597Y-100158493D01*
X117328603Y-100158498D01*
X117514158Y-100288425D01*
X117557783Y-100343002D01*
X117564977Y-100412500D01*
X117533454Y-100474855D01*
X117514158Y-100491575D01*
X117328597Y-100621505D01*
X117161505Y-100788597D01*
X117025965Y-100982169D01*
X117025964Y-100982171D01*
X116926098Y-101196335D01*
X116926094Y-101196344D01*
X116864938Y-101424586D01*
X116864936Y-101424596D01*
X116844341Y-101659999D01*
X116844341Y-101660000D01*
X116864936Y-101895403D01*
X116864938Y-101895413D01*
X116926094Y-102123655D01*
X116926096Y-102123659D01*
X116926097Y-102123663D01*
X116973161Y-102224592D01*
X117025965Y-102337830D01*
X117025967Y-102337834D01*
X117161501Y-102531395D01*
X117161506Y-102531402D01*
X117328597Y-102698493D01*
X117328603Y-102698498D01*
X117514158Y-102828425D01*
X117557783Y-102883002D01*
X117564977Y-102952500D01*
X117533454Y-103014855D01*
X117514158Y-103031575D01*
X117328597Y-103161505D01*
X117161505Y-103328597D01*
X117025965Y-103522169D01*
X117025964Y-103522171D01*
X116926098Y-103736335D01*
X116926094Y-103736344D01*
X116864938Y-103964586D01*
X116864936Y-103964596D01*
X116844341Y-104199999D01*
X116844341Y-104200000D01*
X116864936Y-104435403D01*
X116864938Y-104435413D01*
X116926094Y-104663655D01*
X116926096Y-104663659D01*
X116926097Y-104663663D01*
X116973161Y-104764592D01*
X117025965Y-104877830D01*
X117025967Y-104877834D01*
X117161501Y-105071395D01*
X117161506Y-105071402D01*
X117328597Y-105238493D01*
X117328603Y-105238498D01*
X117514158Y-105368425D01*
X117557783Y-105423002D01*
X117564977Y-105492500D01*
X117533454Y-105554855D01*
X117514158Y-105571575D01*
X117328597Y-105701505D01*
X117161505Y-105868597D01*
X117025965Y-106062169D01*
X117025964Y-106062171D01*
X116926098Y-106276335D01*
X116926094Y-106276344D01*
X116864938Y-106504586D01*
X116864936Y-106504596D01*
X116844341Y-106739999D01*
X116844341Y-106740000D01*
X116864936Y-106975403D01*
X116864938Y-106975413D01*
X116926094Y-107203655D01*
X116926096Y-107203659D01*
X116926097Y-107203663D01*
X116973161Y-107304592D01*
X117025965Y-107417830D01*
X117025967Y-107417834D01*
X117161501Y-107611395D01*
X117161506Y-107611402D01*
X117328597Y-107778493D01*
X117328603Y-107778498D01*
X117514158Y-107908425D01*
X117557783Y-107963002D01*
X117564977Y-108032500D01*
X117533454Y-108094855D01*
X117514158Y-108111575D01*
X117328597Y-108241505D01*
X117161505Y-108408597D01*
X117025965Y-108602169D01*
X117025964Y-108602171D01*
X116926098Y-108816335D01*
X116926094Y-108816344D01*
X116864938Y-109044586D01*
X116864936Y-109044596D01*
X116844341Y-109279999D01*
X116844341Y-109280000D01*
X116864936Y-109515403D01*
X116864938Y-109515413D01*
X116926094Y-109743655D01*
X116926096Y-109743659D01*
X116926097Y-109743663D01*
X116973161Y-109844592D01*
X117025965Y-109957830D01*
X117025967Y-109957834D01*
X117161501Y-110151395D01*
X117161506Y-110151402D01*
X117328597Y-110318493D01*
X117328603Y-110318498D01*
X117514158Y-110448425D01*
X117557783Y-110503002D01*
X117564977Y-110572500D01*
X117533454Y-110634855D01*
X117514158Y-110651575D01*
X117328597Y-110781505D01*
X117161505Y-110948597D01*
X117025965Y-111142169D01*
X117025964Y-111142171D01*
X116926098Y-111356335D01*
X116926094Y-111356344D01*
X116864938Y-111584586D01*
X116864936Y-111584596D01*
X116844341Y-111819999D01*
X116844341Y-111820000D01*
X116864936Y-112055403D01*
X116864938Y-112055413D01*
X116926094Y-112283655D01*
X116926096Y-112283659D01*
X116926097Y-112283663D01*
X116973161Y-112384592D01*
X117025965Y-112497830D01*
X117025967Y-112497834D01*
X117161501Y-112691395D01*
X117161506Y-112691402D01*
X117328597Y-112858493D01*
X117328603Y-112858498D01*
X117514158Y-112988425D01*
X117557783Y-113043002D01*
X117564977Y-113112500D01*
X117533454Y-113174855D01*
X117514158Y-113191575D01*
X117328597Y-113321505D01*
X117161505Y-113488597D01*
X117025965Y-113682169D01*
X117025964Y-113682171D01*
X116926098Y-113896335D01*
X116926094Y-113896344D01*
X116864938Y-114124586D01*
X116864936Y-114124596D01*
X116844341Y-114359999D01*
X116844341Y-114360000D01*
X116864936Y-114595403D01*
X116864938Y-114595413D01*
X116926094Y-114823655D01*
X116926096Y-114823659D01*
X116926097Y-114823663D01*
X116958637Y-114893444D01*
X117025965Y-115037830D01*
X117025967Y-115037834D01*
X117134281Y-115192521D01*
X117161501Y-115231396D01*
X117161506Y-115231402D01*
X117283430Y-115353326D01*
X117316915Y-115414649D01*
X117311931Y-115484341D01*
X117270059Y-115540274D01*
X117239083Y-115557189D01*
X117107669Y-115606203D01*
X117107664Y-115606206D01*
X116992455Y-115692452D01*
X116992452Y-115692455D01*
X116906206Y-115807664D01*
X116906202Y-115807671D01*
X116855908Y-115942517D01*
X116849501Y-116002116D01*
X116849501Y-116002123D01*
X116849500Y-116002135D01*
X116849500Y-117797870D01*
X116849501Y-117797876D01*
X116855908Y-117857483D01*
X116906202Y-117992328D01*
X116906206Y-117992335D01*
X116992452Y-118107544D01*
X116992455Y-118107547D01*
X117107664Y-118193793D01*
X117107671Y-118193797D01*
X117242517Y-118244091D01*
X117242516Y-118244091D01*
X117249444Y-118244835D01*
X117302127Y-118250500D01*
X119097872Y-118250499D01*
X119157483Y-118244091D01*
X119292331Y-118193796D01*
X119407546Y-118107546D01*
X119493796Y-117992331D01*
X119544091Y-117857483D01*
X119550500Y-117797873D01*
X119550499Y-116002128D01*
X119544091Y-115942517D01*
X119539643Y-115930592D01*
X119493797Y-115807671D01*
X119493793Y-115807664D01*
X119407547Y-115692455D01*
X119407544Y-115692452D01*
X119292335Y-115606206D01*
X119292328Y-115606202D01*
X119160917Y-115557189D01*
X119104983Y-115515318D01*
X119080566Y-115449853D01*
X119095418Y-115381580D01*
X119116563Y-115353332D01*
X119238495Y-115231401D01*
X119374035Y-115037830D01*
X119473903Y-114823663D01*
X119535063Y-114595408D01*
X119555659Y-114360000D01*
X119535063Y-114124592D01*
X119473903Y-113896337D01*
X119374035Y-113682171D01*
X119325830Y-113613326D01*
X119238494Y-113488597D01*
X119071402Y-113321506D01*
X119071396Y-113321501D01*
X118885842Y-113191575D01*
X118842217Y-113136998D01*
X118835023Y-113067500D01*
X118866546Y-113005145D01*
X118885842Y-112988425D01*
X118941565Y-112949407D01*
X119071401Y-112858495D01*
X119238495Y-112691401D01*
X119374035Y-112497830D01*
X119473903Y-112283663D01*
X119535063Y-112055408D01*
X119555659Y-111820000D01*
X119535063Y-111584592D01*
X119473903Y-111356337D01*
X119374035Y-111142171D01*
X119319636Y-111064480D01*
X119238494Y-110948597D01*
X119071402Y-110781506D01*
X119071396Y-110781501D01*
X118885842Y-110651575D01*
X118842217Y-110596998D01*
X118835023Y-110527500D01*
X118866546Y-110465145D01*
X118885842Y-110448425D01*
X118941565Y-110409407D01*
X119071401Y-110318495D01*
X119238495Y-110151401D01*
X119374035Y-109957830D01*
X119473903Y-109743663D01*
X119535063Y-109515408D01*
X119555659Y-109280000D01*
X119535063Y-109044592D01*
X119473903Y-108816337D01*
X119374035Y-108602171D01*
X119319636Y-108524480D01*
X119238494Y-108408597D01*
X119071402Y-108241506D01*
X119071396Y-108241501D01*
X118885842Y-108111575D01*
X118842217Y-108056998D01*
X118835023Y-107987500D01*
X118866546Y-107925145D01*
X118885842Y-107908425D01*
X118941565Y-107869407D01*
X119071401Y-107778495D01*
X119238495Y-107611401D01*
X119374035Y-107417830D01*
X119473903Y-107203663D01*
X119535063Y-106975408D01*
X119555659Y-106740000D01*
X119535063Y-106504592D01*
X119473903Y-106276337D01*
X119374035Y-106062171D01*
X119319636Y-105984480D01*
X119238494Y-105868597D01*
X119071402Y-105701506D01*
X119071396Y-105701501D01*
X118885842Y-105571575D01*
X118842217Y-105516998D01*
X118835023Y-105447500D01*
X118866546Y-105385145D01*
X118885842Y-105368425D01*
X118941565Y-105329407D01*
X119071401Y-105238495D01*
X119238495Y-105071401D01*
X119374035Y-104877830D01*
X119473903Y-104663663D01*
X119535063Y-104435408D01*
X119555659Y-104200000D01*
X119535063Y-103964592D01*
X119473903Y-103736337D01*
X119374035Y-103522171D01*
X119319636Y-103444480D01*
X119238494Y-103328597D01*
X119071402Y-103161506D01*
X119071396Y-103161501D01*
X118885842Y-103031575D01*
X118842217Y-102976998D01*
X118835023Y-102907500D01*
X118866546Y-102845145D01*
X118885842Y-102828425D01*
X118941565Y-102789407D01*
X119071401Y-102698495D01*
X119238495Y-102531401D01*
X119374035Y-102337830D01*
X119473903Y-102123663D01*
X119535063Y-101895408D01*
X119555659Y-101660000D01*
X119535063Y-101424592D01*
X119473903Y-101196337D01*
X119374035Y-100982171D01*
X119319636Y-100904480D01*
X119238494Y-100788597D01*
X119071402Y-100621506D01*
X119071396Y-100621501D01*
X118885842Y-100491575D01*
X118842217Y-100436998D01*
X118835023Y-100367500D01*
X118866546Y-100305145D01*
X118885842Y-100288425D01*
X118941565Y-100249407D01*
X119071401Y-100158495D01*
X119238495Y-99991401D01*
X119374035Y-99797830D01*
X119473903Y-99583663D01*
X119535063Y-99355408D01*
X119555659Y-99120000D01*
X119535063Y-98884592D01*
X119473903Y-98656337D01*
X119374035Y-98442171D01*
X119319636Y-98364480D01*
X119238494Y-98248597D01*
X119071402Y-98081506D01*
X119071395Y-98081501D01*
X118877834Y-97945967D01*
X118877830Y-97945965D01*
X118843589Y-97929998D01*
X118663663Y-97846097D01*
X118663659Y-97846096D01*
X118663655Y-97846094D01*
X118435413Y-97784938D01*
X118435403Y-97784936D01*
X118200001Y-97764341D01*
X118199999Y-97764341D01*
X117964596Y-97784936D01*
X117964586Y-97784938D01*
X117736344Y-97846094D01*
X117736335Y-97846098D01*
X117522171Y-97945964D01*
X117522169Y-97945965D01*
X117328597Y-98081505D01*
X117161505Y-98248597D01*
X117025965Y-98442169D01*
X117025964Y-98442171D01*
X116926098Y-98656335D01*
X116926094Y-98656344D01*
X116864938Y-98884586D01*
X116864936Y-98884596D01*
X116844341Y-99119999D01*
X115554000Y-99119999D01*
X115554000Y-82659999D01*
X116844341Y-82659999D01*
X116844341Y-82660000D01*
X116864936Y-82895403D01*
X116864938Y-82895413D01*
X116926094Y-83123655D01*
X116926096Y-83123659D01*
X116926097Y-83123663D01*
X116926481Y-83124486D01*
X117025965Y-83337830D01*
X117025967Y-83337834D01*
X117161501Y-83531395D01*
X117161506Y-83531402D01*
X117328597Y-83698493D01*
X117328603Y-83698498D01*
X117514158Y-83828425D01*
X117557783Y-83883002D01*
X117564977Y-83952500D01*
X117533454Y-84014855D01*
X117514158Y-84031575D01*
X117328597Y-84161505D01*
X117161505Y-84328597D01*
X117025965Y-84522169D01*
X117025964Y-84522171D01*
X116926098Y-84736335D01*
X116926094Y-84736344D01*
X116864938Y-84964586D01*
X116864936Y-84964596D01*
X116844341Y-85199999D01*
X116844341Y-85200000D01*
X116864936Y-85435403D01*
X116864938Y-85435413D01*
X116926094Y-85663655D01*
X116926096Y-85663659D01*
X116926097Y-85663663D01*
X117007313Y-85837830D01*
X117025965Y-85877830D01*
X117025967Y-85877834D01*
X117161501Y-86071395D01*
X117161506Y-86071402D01*
X117328597Y-86238493D01*
X117328603Y-86238498D01*
X117514158Y-86368425D01*
X117557783Y-86423002D01*
X117564977Y-86492500D01*
X117533454Y-86554855D01*
X117514158Y-86571575D01*
X117328597Y-86701505D01*
X117161505Y-86868597D01*
X117025965Y-87062169D01*
X117025964Y-87062171D01*
X116926098Y-87276335D01*
X116926094Y-87276344D01*
X116864938Y-87504586D01*
X116864936Y-87504596D01*
X116844341Y-87739999D01*
X116844341Y-87740000D01*
X116864936Y-87975403D01*
X116864938Y-87975413D01*
X116926094Y-88203655D01*
X116926096Y-88203659D01*
X116926097Y-88203663D01*
X116926481Y-88204486D01*
X117025965Y-88417830D01*
X117025967Y-88417834D01*
X117161501Y-88611395D01*
X117161506Y-88611402D01*
X117328597Y-88778493D01*
X117328603Y-88778498D01*
X117514158Y-88908425D01*
X117557783Y-88963002D01*
X117564977Y-89032500D01*
X117533454Y-89094855D01*
X117514158Y-89111575D01*
X117328597Y-89241505D01*
X117161505Y-89408597D01*
X117025965Y-89602169D01*
X117025964Y-89602171D01*
X116926098Y-89816335D01*
X116926094Y-89816344D01*
X116864938Y-90044586D01*
X116864936Y-90044596D01*
X116844341Y-90279999D01*
X116844341Y-90280000D01*
X116864936Y-90515403D01*
X116864938Y-90515413D01*
X116926094Y-90743655D01*
X116926096Y-90743659D01*
X116926097Y-90743663D01*
X116926481Y-90744486D01*
X117025965Y-90957830D01*
X117025967Y-90957834D01*
X117161501Y-91151395D01*
X117161506Y-91151402D01*
X117328597Y-91318493D01*
X117328603Y-91318498D01*
X117514158Y-91448425D01*
X117557783Y-91503002D01*
X117564977Y-91572500D01*
X117533454Y-91634855D01*
X117514158Y-91651575D01*
X117328597Y-91781505D01*
X117161505Y-91948597D01*
X117025965Y-92142169D01*
X117025964Y-92142171D01*
X116926098Y-92356335D01*
X116926094Y-92356344D01*
X116864938Y-92584586D01*
X116864936Y-92584596D01*
X116844341Y-92819999D01*
X116844341Y-92820000D01*
X116864936Y-93055403D01*
X116864938Y-93055413D01*
X116926094Y-93283655D01*
X116926096Y-93283659D01*
X116926097Y-93283663D01*
X117020058Y-93485163D01*
X117025965Y-93497830D01*
X117025967Y-93497834D01*
X117067758Y-93557517D01*
X117161501Y-93691396D01*
X117161506Y-93691402D01*
X117283430Y-93813326D01*
X117316915Y-93874649D01*
X117311931Y-93944341D01*
X117270059Y-94000274D01*
X117239083Y-94017189D01*
X117107669Y-94066203D01*
X117107664Y-94066206D01*
X116992455Y-94152452D01*
X116992452Y-94152455D01*
X116906206Y-94267664D01*
X116906202Y-94267671D01*
X116855908Y-94402517D01*
X116849501Y-94462116D01*
X116849501Y-94462123D01*
X116849500Y-94462135D01*
X116849500Y-96257870D01*
X116849501Y-96257876D01*
X116855908Y-96317483D01*
X116906202Y-96452328D01*
X116906206Y-96452335D01*
X116992452Y-96567544D01*
X116992455Y-96567547D01*
X117107664Y-96653793D01*
X117107671Y-96653797D01*
X117242517Y-96704091D01*
X117242516Y-96704091D01*
X117249444Y-96704835D01*
X117302127Y-96710500D01*
X119097872Y-96710499D01*
X119157483Y-96704091D01*
X119292331Y-96653796D01*
X119407546Y-96567546D01*
X119493796Y-96452331D01*
X119544091Y-96317483D01*
X119550500Y-96257873D01*
X119550499Y-94462128D01*
X119544091Y-94402517D01*
X119533681Y-94374607D01*
X119493797Y-94267671D01*
X119493793Y-94267664D01*
X119407547Y-94152455D01*
X119407544Y-94152452D01*
X119292335Y-94066206D01*
X119292328Y-94066202D01*
X119160917Y-94017189D01*
X119104983Y-93975318D01*
X119099269Y-93959999D01*
X123521127Y-93959999D01*
X123521128Y-93960000D01*
X124484314Y-93960000D01*
X124479920Y-93964394D01*
X124427259Y-94055606D01*
X124400000Y-94157339D01*
X124400000Y-94262661D01*
X124427259Y-94364394D01*
X124479920Y-94455606D01*
X124484314Y-94460000D01*
X123521128Y-94460000D01*
X123573730Y-94656317D01*
X123573734Y-94656326D01*
X123669865Y-94862482D01*
X123800342Y-95048820D01*
X123961179Y-95209657D01*
X124147517Y-95340134D01*
X124353673Y-95436265D01*
X124353682Y-95436269D01*
X124549999Y-95488872D01*
X124550000Y-95488871D01*
X124550000Y-94525686D01*
X124554394Y-94530080D01*
X124645606Y-94582741D01*
X124747339Y-94610000D01*
X124852661Y-94610000D01*
X124954394Y-94582741D01*
X125045606Y-94530080D01*
X125050000Y-94525686D01*
X125050000Y-95488872D01*
X125246317Y-95436269D01*
X125246326Y-95436265D01*
X125452482Y-95340134D01*
X125638820Y-95209657D01*
X125799657Y-95048820D01*
X125930134Y-94862482D01*
X126026265Y-94656326D01*
X126026269Y-94656317D01*
X126078872Y-94460000D01*
X125115686Y-94460000D01*
X125120080Y-94455606D01*
X125172741Y-94364394D01*
X125200000Y-94262661D01*
X125200000Y-94157339D01*
X125172741Y-94055606D01*
X125120080Y-93964394D01*
X125115686Y-93960000D01*
X126078872Y-93960000D01*
X126078872Y-93959999D01*
X126026269Y-93763682D01*
X126026265Y-93763673D01*
X125930134Y-93557517D01*
X125799657Y-93371179D01*
X125638820Y-93210342D01*
X125452482Y-93079865D01*
X125246328Y-92983734D01*
X125050000Y-92931127D01*
X125050000Y-93894314D01*
X125045606Y-93889920D01*
X124954394Y-93837259D01*
X124852661Y-93810000D01*
X124747339Y-93810000D01*
X124645606Y-93837259D01*
X124554394Y-93889920D01*
X124550000Y-93894314D01*
X124550000Y-92931127D01*
X124353671Y-92983734D01*
X124147517Y-93079865D01*
X123961179Y-93210342D01*
X123800342Y-93371179D01*
X123669865Y-93557517D01*
X123573734Y-93763673D01*
X123573730Y-93763682D01*
X123521127Y-93959999D01*
X119099269Y-93959999D01*
X119080566Y-93909853D01*
X119095418Y-93841580D01*
X119116563Y-93813332D01*
X119238495Y-93691401D01*
X119374035Y-93497830D01*
X119473903Y-93283663D01*
X119535063Y-93055408D01*
X119555659Y-92820000D01*
X119535063Y-92584592D01*
X119473903Y-92356337D01*
X119374035Y-92142171D01*
X119238495Y-91948599D01*
X119238494Y-91948597D01*
X119071402Y-91781506D01*
X119071396Y-91781501D01*
X118885842Y-91651575D01*
X118842217Y-91596998D01*
X118835023Y-91527500D01*
X118866546Y-91465145D01*
X118885842Y-91448425D01*
X118940514Y-91410143D01*
X119071401Y-91318495D01*
X119238495Y-91151401D01*
X119374035Y-90957830D01*
X119473903Y-90743663D01*
X119535063Y-90515408D01*
X119555659Y-90280000D01*
X119535063Y-90044592D01*
X119473903Y-89816337D01*
X119374035Y-89602171D01*
X119346026Y-89562169D01*
X119238494Y-89408597D01*
X119071402Y-89241506D01*
X119071396Y-89241501D01*
X118885842Y-89111575D01*
X118842217Y-89056998D01*
X118835023Y-88987500D01*
X118866546Y-88925145D01*
X118885842Y-88908425D01*
X118940514Y-88870143D01*
X119071401Y-88778495D01*
X119238495Y-88611401D01*
X119374035Y-88417830D01*
X119473903Y-88203663D01*
X119535063Y-87975408D01*
X119555659Y-87740000D01*
X119535063Y-87504592D01*
X119473903Y-87276337D01*
X119374035Y-87062171D01*
X119356058Y-87036496D01*
X119238494Y-86868597D01*
X119071402Y-86701506D01*
X119071396Y-86701501D01*
X118885842Y-86571575D01*
X118842217Y-86516998D01*
X118835023Y-86447500D01*
X118866546Y-86385145D01*
X118885842Y-86368425D01*
X118940514Y-86330143D01*
X119071401Y-86238495D01*
X119238495Y-86071401D01*
X119374035Y-85877830D01*
X119473903Y-85663663D01*
X119535063Y-85435408D01*
X119555659Y-85200000D01*
X119535063Y-84964592D01*
X119473903Y-84736337D01*
X119374035Y-84522171D01*
X119346026Y-84482169D01*
X119238494Y-84328597D01*
X119071402Y-84161506D01*
X119071396Y-84161501D01*
X118885842Y-84031575D01*
X118842217Y-83976998D01*
X118835023Y-83907500D01*
X118866546Y-83845145D01*
X118885842Y-83828425D01*
X118940514Y-83790143D01*
X119071401Y-83698495D01*
X119238495Y-83531401D01*
X119374035Y-83337830D01*
X119473903Y-83123663D01*
X119535063Y-82895408D01*
X119555659Y-82660000D01*
X119535063Y-82424592D01*
X119473903Y-82196337D01*
X119374035Y-81982171D01*
X119346026Y-81942169D01*
X119238494Y-81788597D01*
X119071402Y-81621506D01*
X119071395Y-81621501D01*
X118877834Y-81485967D01*
X118877830Y-81485965D01*
X118877828Y-81485964D01*
X118663663Y-81386097D01*
X118663659Y-81386096D01*
X118663655Y-81386094D01*
X118435413Y-81324938D01*
X118435403Y-81324936D01*
X118200001Y-81304341D01*
X118199999Y-81304341D01*
X117964596Y-81324936D01*
X117964586Y-81324938D01*
X117736344Y-81386094D01*
X117736335Y-81386098D01*
X117522171Y-81485964D01*
X117522169Y-81485965D01*
X117328597Y-81621505D01*
X117161505Y-81788597D01*
X117025965Y-81982169D01*
X117025964Y-81982171D01*
X116926098Y-82196335D01*
X116926094Y-82196344D01*
X116864938Y-82424586D01*
X116864936Y-82424596D01*
X116844341Y-82659999D01*
X115554000Y-82659999D01*
X115554000Y-64839999D01*
X116844341Y-64839999D01*
X116844341Y-64840000D01*
X116864936Y-65075403D01*
X116864938Y-65075413D01*
X116926094Y-65303655D01*
X116926096Y-65303659D01*
X116926097Y-65303663D01*
X117025965Y-65517830D01*
X117025967Y-65517834D01*
X117161501Y-65711395D01*
X117161506Y-65711402D01*
X117328597Y-65878493D01*
X117328603Y-65878498D01*
X117514158Y-66008425D01*
X117557783Y-66063002D01*
X117564977Y-66132500D01*
X117533454Y-66194855D01*
X117514158Y-66211575D01*
X117328597Y-66341505D01*
X117161505Y-66508597D01*
X117025965Y-66702169D01*
X117025964Y-66702171D01*
X116926098Y-66916335D01*
X116926094Y-66916344D01*
X116864938Y-67144586D01*
X116864936Y-67144596D01*
X116848193Y-67335967D01*
X116844341Y-67380000D01*
X116852239Y-67470278D01*
X116864936Y-67615403D01*
X116864938Y-67615413D01*
X116926094Y-67843655D01*
X116926096Y-67843659D01*
X116926097Y-67843663D01*
X117020605Y-68046335D01*
X117025965Y-68057830D01*
X117025967Y-68057834D01*
X117161501Y-68251395D01*
X117161506Y-68251402D01*
X117328597Y-68418493D01*
X117328603Y-68418498D01*
X117514158Y-68548425D01*
X117557783Y-68603002D01*
X117564977Y-68672500D01*
X117533454Y-68734855D01*
X117514158Y-68751575D01*
X117328597Y-68881505D01*
X117161505Y-69048597D01*
X117025965Y-69242169D01*
X117025964Y-69242171D01*
X116926098Y-69456335D01*
X116926094Y-69456344D01*
X116864938Y-69684586D01*
X116864936Y-69684596D01*
X116844341Y-69919999D01*
X116844341Y-69920000D01*
X116864936Y-70155403D01*
X116864938Y-70155413D01*
X116926094Y-70383655D01*
X116926096Y-70383659D01*
X116926097Y-70383663D01*
X117025965Y-70597830D01*
X117025967Y-70597834D01*
X117161501Y-70791395D01*
X117161506Y-70791402D01*
X117328597Y-70958493D01*
X117328603Y-70958498D01*
X117514158Y-71088425D01*
X117557783Y-71143002D01*
X117564977Y-71212500D01*
X117533454Y-71274855D01*
X117514158Y-71291575D01*
X117328597Y-71421505D01*
X117161505Y-71588597D01*
X117025965Y-71782169D01*
X117025964Y-71782171D01*
X116926098Y-71996335D01*
X116926094Y-71996344D01*
X116864938Y-72224586D01*
X116864936Y-72224596D01*
X116844341Y-72459999D01*
X116844341Y-72460000D01*
X116864936Y-72695403D01*
X116864938Y-72695413D01*
X116926094Y-72923655D01*
X116926096Y-72923659D01*
X116926097Y-72923663D01*
X117025965Y-73137830D01*
X117025967Y-73137834D01*
X117161501Y-73331395D01*
X117161506Y-73331402D01*
X117328597Y-73498493D01*
X117328603Y-73498498D01*
X117514158Y-73628425D01*
X117557783Y-73683002D01*
X117564977Y-73752500D01*
X117533454Y-73814855D01*
X117514158Y-73831575D01*
X117328597Y-73961505D01*
X117161505Y-74128597D01*
X117025965Y-74322169D01*
X117025964Y-74322171D01*
X116926098Y-74536335D01*
X116926094Y-74536344D01*
X116864938Y-74764586D01*
X116864936Y-74764596D01*
X116844341Y-74999999D01*
X116844341Y-75000000D01*
X116864936Y-75235403D01*
X116864938Y-75235413D01*
X116926094Y-75463655D01*
X116926096Y-75463659D01*
X116926097Y-75463663D01*
X117025965Y-75677830D01*
X117025967Y-75677834D01*
X117161501Y-75871395D01*
X117161506Y-75871402D01*
X117328597Y-76038493D01*
X117328603Y-76038498D01*
X117514158Y-76168425D01*
X117557783Y-76223002D01*
X117564977Y-76292500D01*
X117533454Y-76354855D01*
X117514158Y-76371575D01*
X117328597Y-76501505D01*
X117161505Y-76668597D01*
X117025965Y-76862169D01*
X117025964Y-76862171D01*
X116973429Y-76974833D01*
X116928430Y-77071335D01*
X116926098Y-77076335D01*
X116926094Y-77076344D01*
X116864938Y-77304586D01*
X116864936Y-77304596D01*
X116844341Y-77539999D01*
X116844341Y-77540000D01*
X116864936Y-77775403D01*
X116864938Y-77775413D01*
X116926094Y-78003655D01*
X116926096Y-78003659D01*
X116926097Y-78003663D01*
X117023633Y-78212830D01*
X117025965Y-78217830D01*
X117025967Y-78217834D01*
X117134281Y-78372521D01*
X117161505Y-78411401D01*
X117328599Y-78578495D01*
X117394805Y-78624853D01*
X117522165Y-78714032D01*
X117522167Y-78714033D01*
X117522170Y-78714035D01*
X117736337Y-78813903D01*
X117964592Y-78875063D01*
X118152918Y-78891539D01*
X118199999Y-78895659D01*
X118200000Y-78895659D01*
X118200001Y-78895659D01*
X118239234Y-78892226D01*
X118435408Y-78875063D01*
X118663663Y-78813903D01*
X118877830Y-78714035D01*
X119071401Y-78578495D01*
X119238495Y-78411401D01*
X119374035Y-78217830D01*
X119473903Y-78003663D01*
X119535063Y-77775408D01*
X119555659Y-77540000D01*
X119555221Y-77534999D01*
X123444341Y-77534999D01*
X123444341Y-77535000D01*
X123464936Y-77770403D01*
X123464938Y-77770413D01*
X123526094Y-77998655D01*
X123526096Y-77998659D01*
X123526097Y-77998663D01*
X123547460Y-78044475D01*
X123625965Y-78212830D01*
X123625967Y-78212834D01*
X123734281Y-78367521D01*
X123761501Y-78406396D01*
X123761506Y-78406402D01*
X123883430Y-78528326D01*
X123916915Y-78589649D01*
X123911931Y-78659341D01*
X123870059Y-78715274D01*
X123839083Y-78732189D01*
X123707669Y-78781203D01*
X123707664Y-78781206D01*
X123592455Y-78867452D01*
X123592452Y-78867455D01*
X123506206Y-78982664D01*
X123506202Y-78982671D01*
X123455908Y-79117517D01*
X123449528Y-79176868D01*
X123449501Y-79177123D01*
X123449500Y-79177135D01*
X123449500Y-80972870D01*
X123449501Y-80972876D01*
X123455908Y-81032483D01*
X123506202Y-81167328D01*
X123506206Y-81167335D01*
X123592452Y-81282544D01*
X123592455Y-81282547D01*
X123707664Y-81368793D01*
X123707671Y-81368797D01*
X123752618Y-81385561D01*
X123842517Y-81419091D01*
X123902127Y-81425500D01*
X124025500Y-81425499D01*
X124092539Y-81445183D01*
X124138294Y-81497987D01*
X124149500Y-81549499D01*
X124149500Y-85393316D01*
X124129815Y-85460355D01*
X124096623Y-85494891D01*
X123960859Y-85589953D01*
X123799954Y-85750858D01*
X123669432Y-85937265D01*
X123669431Y-85937267D01*
X123573261Y-86143502D01*
X123573258Y-86143511D01*
X123514366Y-86363302D01*
X123514364Y-86363313D01*
X123494532Y-86589998D01*
X123494532Y-86590001D01*
X123514364Y-86816686D01*
X123514366Y-86816697D01*
X123573258Y-87036488D01*
X123573261Y-87036497D01*
X123669431Y-87242732D01*
X123669432Y-87242734D01*
X123799954Y-87429141D01*
X123960858Y-87590045D01*
X123960861Y-87590047D01*
X124147266Y-87720568D01*
X124353504Y-87816739D01*
X124573308Y-87875635D01*
X124735230Y-87889801D01*
X124799998Y-87895468D01*
X124800000Y-87895468D01*
X124800002Y-87895468D01*
X124856673Y-87890509D01*
X125026692Y-87875635D01*
X125246496Y-87816739D01*
X125452734Y-87720568D01*
X125639139Y-87590047D01*
X125800047Y-87429139D01*
X125930568Y-87242734D01*
X126026739Y-87036496D01*
X126085635Y-86816692D01*
X126105468Y-86590000D01*
X126104267Y-86576277D01*
X126095935Y-86481035D01*
X126085635Y-86363308D01*
X126026739Y-86143504D01*
X125930568Y-85937266D01*
X125800047Y-85750861D01*
X125800045Y-85750858D01*
X125639140Y-85589953D01*
X125503377Y-85494891D01*
X125459752Y-85440314D01*
X125450500Y-85393316D01*
X125450500Y-81549499D01*
X125470185Y-81482460D01*
X125522989Y-81436705D01*
X125574500Y-81425499D01*
X125697871Y-81425499D01*
X125697872Y-81425499D01*
X125757483Y-81419091D01*
X125892331Y-81368796D01*
X126007546Y-81282546D01*
X126093796Y-81167331D01*
X126144091Y-81032483D01*
X126150500Y-80972873D01*
X126150499Y-79177128D01*
X126144091Y-79117517D01*
X126118855Y-79049857D01*
X126093797Y-78982671D01*
X126093793Y-78982664D01*
X126007547Y-78867455D01*
X126007544Y-78867452D01*
X125892335Y-78781206D01*
X125892328Y-78781202D01*
X125760917Y-78732189D01*
X125704983Y-78690318D01*
X125680566Y-78624853D01*
X125695418Y-78556580D01*
X125716563Y-78528332D01*
X125838495Y-78406401D01*
X125974035Y-78212830D01*
X126073903Y-77998663D01*
X126135063Y-77770408D01*
X126155659Y-77535000D01*
X126135063Y-77299592D01*
X126073903Y-77071337D01*
X125974035Y-76857171D01*
X125838495Y-76663599D01*
X125838494Y-76663597D01*
X125671402Y-76496506D01*
X125671395Y-76496501D01*
X125477834Y-76360967D01*
X125477830Y-76360965D01*
X125464727Y-76354855D01*
X125263663Y-76261097D01*
X125263659Y-76261096D01*
X125263655Y-76261094D01*
X125035413Y-76199938D01*
X125035403Y-76199936D01*
X124800001Y-76179341D01*
X124799999Y-76179341D01*
X124564596Y-76199936D01*
X124564586Y-76199938D01*
X124336344Y-76261094D01*
X124336335Y-76261098D01*
X124122171Y-76360964D01*
X124122169Y-76360965D01*
X123928597Y-76496505D01*
X123761505Y-76663597D01*
X123625965Y-76857169D01*
X123625964Y-76857171D01*
X123526098Y-77071335D01*
X123526094Y-77071344D01*
X123464938Y-77299586D01*
X123464936Y-77299596D01*
X123444341Y-77534999D01*
X119555221Y-77534999D01*
X119542484Y-77389409D01*
X119535063Y-77304592D01*
X119473903Y-77076337D01*
X119374035Y-76862171D01*
X119238495Y-76668599D01*
X119238494Y-76668597D01*
X119071402Y-76501506D01*
X119071396Y-76501501D01*
X118885842Y-76371575D01*
X118842217Y-76316998D01*
X118835023Y-76247500D01*
X118866546Y-76185145D01*
X118885842Y-76168425D01*
X118981796Y-76101237D01*
X119071401Y-76038495D01*
X119238495Y-75871401D01*
X119374035Y-75677830D01*
X119473903Y-75463663D01*
X119535063Y-75235408D01*
X119555659Y-75000000D01*
X119535063Y-74764592D01*
X119473903Y-74536337D01*
X119374035Y-74322171D01*
X119238495Y-74128599D01*
X119238494Y-74128597D01*
X119071402Y-73961506D01*
X119071396Y-73961501D01*
X118885842Y-73831575D01*
X118842217Y-73776998D01*
X118835023Y-73707500D01*
X118866546Y-73645145D01*
X118885842Y-73628425D01*
X118981796Y-73561237D01*
X119071401Y-73498495D01*
X119238495Y-73331401D01*
X119374035Y-73137830D01*
X119473903Y-72923663D01*
X119535063Y-72695408D01*
X119555659Y-72460000D01*
X119535063Y-72224592D01*
X119473903Y-71996337D01*
X119374035Y-71782171D01*
X119238495Y-71588599D01*
X119238494Y-71588597D01*
X119071402Y-71421506D01*
X119071396Y-71421501D01*
X118885842Y-71291575D01*
X118842217Y-71236998D01*
X118835023Y-71167500D01*
X118866546Y-71105145D01*
X118885842Y-71088425D01*
X118981796Y-71021237D01*
X119071401Y-70958495D01*
X119238495Y-70791401D01*
X119374035Y-70597830D01*
X119473903Y-70383663D01*
X119535063Y-70155408D01*
X119555659Y-69920000D01*
X119535063Y-69684592D01*
X119473903Y-69456337D01*
X119374035Y-69242171D01*
X119335986Y-69187830D01*
X119238494Y-69048597D01*
X119071402Y-68881506D01*
X119071396Y-68881501D01*
X118885842Y-68751575D01*
X118842217Y-68696998D01*
X118835023Y-68627500D01*
X118866546Y-68565145D01*
X118885842Y-68548425D01*
X118940720Y-68509999D01*
X119071401Y-68418495D01*
X119238495Y-68251401D01*
X119374035Y-68057830D01*
X119473903Y-67843663D01*
X119535063Y-67615408D01*
X119555659Y-67380000D01*
X119551806Y-67335965D01*
X119542484Y-67229409D01*
X119535063Y-67144592D01*
X119473903Y-66916337D01*
X119374035Y-66702171D01*
X119238495Y-66508599D01*
X119238494Y-66508597D01*
X119071402Y-66341506D01*
X119071396Y-66341501D01*
X118885842Y-66211575D01*
X118842217Y-66156998D01*
X118835023Y-66087500D01*
X118866546Y-66025145D01*
X118885842Y-66008425D01*
X118937394Y-65972328D01*
X119071401Y-65878495D01*
X119238495Y-65711401D01*
X119374035Y-65517830D01*
X119473903Y-65303663D01*
X119535063Y-65075408D01*
X119555659Y-64840000D01*
X119535063Y-64604592D01*
X119473903Y-64376337D01*
X119374035Y-64162171D01*
X119247967Y-63982127D01*
X119238496Y-63968600D01*
X119192412Y-63922516D01*
X119116567Y-63846671D01*
X119083084Y-63785351D01*
X119088068Y-63715659D01*
X119129939Y-63659725D01*
X119160915Y-63642810D01*
X119292331Y-63593796D01*
X119407546Y-63507546D01*
X119493796Y-63392331D01*
X119544091Y-63257483D01*
X119550500Y-63197873D01*
X119550499Y-61402128D01*
X119544091Y-61342517D01*
X119516990Y-61269856D01*
X119493797Y-61207671D01*
X119493793Y-61207664D01*
X119407547Y-61092455D01*
X119407544Y-61092452D01*
X119292335Y-61006206D01*
X119292328Y-61006202D01*
X119157482Y-60955908D01*
X119157483Y-60955908D01*
X119097883Y-60949501D01*
X119097881Y-60949500D01*
X119097873Y-60949500D01*
X119097864Y-60949500D01*
X117302129Y-60949500D01*
X117302123Y-60949501D01*
X117242516Y-60955908D01*
X117107671Y-61006202D01*
X117107664Y-61006206D01*
X116992455Y-61092452D01*
X116992452Y-61092455D01*
X116906206Y-61207664D01*
X116906202Y-61207671D01*
X116855908Y-61342517D01*
X116850065Y-61396868D01*
X116849501Y-61402123D01*
X116849500Y-61402135D01*
X116849500Y-63197870D01*
X116849501Y-63197876D01*
X116855908Y-63257483D01*
X116906202Y-63392328D01*
X116906206Y-63392335D01*
X116992452Y-63507544D01*
X116992455Y-63507547D01*
X117107664Y-63593793D01*
X117107671Y-63593797D01*
X117239081Y-63642810D01*
X117295015Y-63684681D01*
X117319432Y-63750145D01*
X117304580Y-63818418D01*
X117283430Y-63846673D01*
X117161503Y-63968600D01*
X117025965Y-64162169D01*
X117025964Y-64162171D01*
X116926098Y-64376335D01*
X116926094Y-64376344D01*
X116864938Y-64604586D01*
X116864936Y-64604596D01*
X116844341Y-64839999D01*
X115554000Y-64839999D01*
X115554000Y-58919979D01*
X115525159Y-58774992D01*
X115525158Y-58774991D01*
X115525158Y-58774987D01*
X115482658Y-58672382D01*
X115468587Y-58638411D01*
X115468580Y-58638398D01*
X115386452Y-58515485D01*
X115353969Y-58483002D01*
X115281916Y-58410949D01*
X113964114Y-57093147D01*
X112611620Y-55740652D01*
X112578135Y-55679329D01*
X112578574Y-55630229D01*
X112578262Y-55630196D01*
X112578602Y-55627024D01*
X112578626Y-55624450D01*
X112579089Y-55622488D01*
X112579091Y-55622483D01*
X112585500Y-55562873D01*
X112585499Y-53937128D01*
X112579091Y-53877517D01*
X112568305Y-53848599D01*
X112528797Y-53742671D01*
X112528793Y-53742664D01*
X112442547Y-53627455D01*
X112442544Y-53627452D01*
X112327335Y-53541206D01*
X112327328Y-53541202D01*
X112192482Y-53490908D01*
X112192483Y-53490908D01*
X112132883Y-53484501D01*
X112132881Y-53484500D01*
X112132873Y-53484500D01*
X112132864Y-53484500D01*
X110507129Y-53484500D01*
X110507123Y-53484501D01*
X110447516Y-53490908D01*
X110312671Y-53541202D01*
X110312664Y-53541206D01*
X110197455Y-53627452D01*
X110197452Y-53627455D01*
X110111206Y-53742664D01*
X110111202Y-53742671D01*
X110060908Y-53877517D01*
X110054501Y-53937116D01*
X110054501Y-53937123D01*
X110054500Y-53937135D01*
X110054500Y-55562870D01*
X110054501Y-55562876D01*
X110060908Y-55622483D01*
X110111202Y-55757328D01*
X110111206Y-55757335D01*
X110197452Y-55872544D01*
X110197455Y-55872547D01*
X110312664Y-55958793D01*
X110312671Y-55958797D01*
X110357618Y-55975561D01*
X110447517Y-56009091D01*
X110475172Y-56012064D01*
X110539720Y-56038801D01*
X110579568Y-56096193D01*
X110583531Y-56111160D01*
X110598340Y-56185608D01*
X110598343Y-56185617D01*
X110654912Y-56322188D01*
X110654919Y-56322201D01*
X110737048Y-56445115D01*
X110737051Y-56445119D01*
X110841580Y-56549648D01*
X110841588Y-56549654D01*
X110964494Y-56631777D01*
X110964497Y-56631778D01*
X110964505Y-56631784D01*
X111028492Y-56658288D01*
X111068721Y-56685168D01*
X111182424Y-56798871D01*
X111123147Y-56814755D01*
X111006853Y-56881898D01*
X110911898Y-56976853D01*
X110844755Y-57093147D01*
X110828871Y-57152424D01*
X110266104Y-56589657D01*
X110220293Y-56655084D01*
X110126749Y-56855690D01*
X110126745Y-56855699D01*
X110069461Y-57069490D01*
X110069459Y-57069500D01*
X110050168Y-57289999D01*
X110050168Y-57290000D01*
X110069459Y-57510499D01*
X110069461Y-57510509D01*
X110126745Y-57724300D01*
X110126749Y-57724309D01*
X110220295Y-57924919D01*
X110266103Y-57990341D01*
X110266105Y-57990342D01*
X110828871Y-57427575D01*
X110844755Y-57486853D01*
X110911898Y-57603147D01*
X111006853Y-57698102D01*
X111123147Y-57765245D01*
X111182424Y-57781128D01*
X110619656Y-58343894D01*
X110685083Y-58389706D01*
X110685085Y-58389707D01*
X110808683Y-58447342D01*
X110861122Y-58493514D01*
X110880274Y-58560708D01*
X110860058Y-58627589D01*
X110808683Y-58672106D01*
X110684833Y-58729857D01*
X110503444Y-58856868D01*
X110346868Y-59013444D01*
X110219857Y-59194834D01*
X110219856Y-59194836D01*
X110126279Y-59395513D01*
X110126275Y-59395524D01*
X110068965Y-59609407D01*
X110068964Y-59609414D01*
X110049666Y-59829998D01*
X92270334Y-59829998D01*
X92251035Y-59609409D01*
X92193723Y-59395520D01*
X92100142Y-59194833D01*
X91973132Y-59013445D01*
X91816555Y-58856868D01*
X91635167Y-58729858D01*
X91511907Y-58672381D01*
X91459468Y-58626210D01*
X91440316Y-58559017D01*
X91460531Y-58492136D01*
X91511908Y-58447618D01*
X91512500Y-58447342D01*
X91635167Y-58390142D01*
X91816555Y-58263132D01*
X91973132Y-58106555D01*
X92100142Y-57925167D01*
X92193723Y-57724480D01*
X92251035Y-57510591D01*
X92270334Y-57290000D01*
X92251035Y-57069409D01*
X92193723Y-56855520D01*
X92100142Y-56654833D01*
X91973132Y-56473445D01*
X91816555Y-56316868D01*
X91816552Y-56316866D01*
X91816550Y-56316864D01*
X91757495Y-56275513D01*
X91708309Y-56241073D01*
X91664685Y-56186497D01*
X91657491Y-56116999D01*
X91689014Y-56054644D01*
X91749244Y-56019230D01*
X91779432Y-56015499D01*
X91812872Y-56015499D01*
X91872483Y-56009091D01*
X92007331Y-55958796D01*
X92122546Y-55872546D01*
X92208796Y-55757331D01*
X92259091Y-55622483D01*
X92265500Y-55562873D01*
X92265499Y-53937128D01*
X92259091Y-53877517D01*
X92248305Y-53848599D01*
X92208797Y-53742671D01*
X92208793Y-53742664D01*
X92122547Y-53627455D01*
X92122544Y-53627452D01*
X92007335Y-53541206D01*
X92007328Y-53541202D01*
X91872482Y-53490908D01*
X91872483Y-53490908D01*
X91812883Y-53484501D01*
X91812881Y-53484500D01*
X91812873Y-53484500D01*
X91812864Y-53484500D01*
X90187129Y-53484500D01*
X90187123Y-53484501D01*
X90127516Y-53490908D01*
X89992671Y-53541202D01*
X89992664Y-53541206D01*
X89877455Y-53627452D01*
X89877452Y-53627455D01*
X89791206Y-53742664D01*
X89791202Y-53742671D01*
X89740908Y-53877517D01*
X89734501Y-53937116D01*
X89734501Y-53937123D01*
X89734500Y-53937135D01*
X89734500Y-55562870D01*
X89734501Y-55562876D01*
X89740908Y-55622483D01*
X89791202Y-55757328D01*
X89791206Y-55757335D01*
X89877452Y-55872544D01*
X89877455Y-55872547D01*
X89992664Y-55958793D01*
X89992671Y-55958797D01*
X90127517Y-56009091D01*
X90127516Y-56009091D01*
X90134444Y-56009835D01*
X90187127Y-56015500D01*
X90220564Y-56015499D01*
X90287601Y-56035182D01*
X90333357Y-56087984D01*
X90343302Y-56157143D01*
X90314279Y-56220699D01*
X90291689Y-56241073D01*
X90183447Y-56316866D01*
X90183441Y-56316871D01*
X90026868Y-56473444D01*
X89899857Y-56654834D01*
X89899856Y-56654836D01*
X89806279Y-56855513D01*
X89806275Y-56855524D01*
X89748965Y-57069407D01*
X89748964Y-57069414D01*
X89729666Y-57289998D01*
X86353034Y-57289998D01*
X86355659Y-57260000D01*
X86335063Y-57024592D01*
X86273903Y-56796337D01*
X86174035Y-56582171D01*
X86151267Y-56549654D01*
X86038494Y-56388597D01*
X85871402Y-56221506D01*
X85871396Y-56221501D01*
X85685842Y-56091575D01*
X85642217Y-56036998D01*
X85635023Y-55967500D01*
X85666546Y-55905145D01*
X85685842Y-55888425D01*
X85708522Y-55872544D01*
X85871401Y-55758495D01*
X86038495Y-55591401D01*
X86174035Y-55397830D01*
X86273903Y-55183663D01*
X86335063Y-54955408D01*
X86355659Y-54720000D01*
X86335063Y-54484592D01*
X86273903Y-54256337D01*
X86174035Y-54042171D01*
X86100489Y-53937135D01*
X86038494Y-53848597D01*
X85871402Y-53681506D01*
X85871395Y-53681501D01*
X85677834Y-53545967D01*
X85677830Y-53545965D01*
X85546018Y-53484500D01*
X85463663Y-53446097D01*
X85463659Y-53446096D01*
X85463655Y-53446094D01*
X85235413Y-53384938D01*
X85235403Y-53384936D01*
X85000001Y-53364341D01*
X84999999Y-53364341D01*
X84764596Y-53384936D01*
X84764586Y-53384938D01*
X84536344Y-53446094D01*
X84536335Y-53446098D01*
X84322171Y-53545964D01*
X84322169Y-53545965D01*
X84128597Y-53681505D01*
X83961505Y-53848597D01*
X83825965Y-54042169D01*
X83825964Y-54042171D01*
X83726098Y-54256335D01*
X83726094Y-54256344D01*
X83664938Y-54484586D01*
X83664936Y-54484596D01*
X83644341Y-54719999D01*
X80850500Y-54719999D01*
X80850500Y-49774500D01*
X80870185Y-49707461D01*
X80922989Y-49661706D01*
X80974500Y-49650500D01*
X156425500Y-49650500D01*
X156492539Y-49670185D01*
G37*
%TD.AperFunction*%
%TD*%
M02*
