%TF.GenerationSoftware,KiCad,Pcbnew,8.0.6*%
%TF.CreationDate,2025-01-04T10:48:04+08:00*%
%TF.ProjectId,Internal Chamber,496e7465-726e-4616-9c20-4368616d6265,rev?*%
%TF.SameCoordinates,Original*%
%TF.FileFunction,Legend,Top*%
%TF.FilePolarity,Positive*%
%FSLAX46Y46*%
G04 Gerber Fmt 4.6, Leading zero omitted, Abs format (unit mm)*
G04 Created by KiCad (PCBNEW 8.0.6) date 2025-01-04 10:48:04*
%MOMM*%
%LPD*%
G01*
G04 APERTURE LIST*
%ADD10C,0.100000*%
%ADD11C,0.150000*%
%ADD12C,0.120000*%
%ADD13C,0.200000*%
%ADD14C,0.127000*%
G04 APERTURE END LIST*
D10*
X172756265Y-107146895D02*
X172756265Y-106346895D01*
X172756265Y-106346895D02*
X173061027Y-106346895D01*
X173061027Y-106346895D02*
X173137217Y-106384990D01*
X173137217Y-106384990D02*
X173175312Y-106423085D01*
X173175312Y-106423085D02*
X173213408Y-106499276D01*
X173213408Y-106499276D02*
X173213408Y-106613561D01*
X173213408Y-106613561D02*
X173175312Y-106689752D01*
X173175312Y-106689752D02*
X173137217Y-106727847D01*
X173137217Y-106727847D02*
X173061027Y-106765942D01*
X173061027Y-106765942D02*
X172756265Y-106765942D01*
X173480074Y-106346895D02*
X173670550Y-107146895D01*
X173670550Y-107146895D02*
X173822931Y-106575466D01*
X173822931Y-106575466D02*
X173975312Y-107146895D01*
X173975312Y-107146895D02*
X174165789Y-106346895D01*
X174470551Y-107146895D02*
X174470551Y-106346895D01*
X174470551Y-106346895D02*
X174737217Y-106918323D01*
X174737217Y-106918323D02*
X175003884Y-106346895D01*
X175003884Y-106346895D02*
X175003884Y-107146895D01*
X167468169Y-107108800D02*
X167582455Y-107146895D01*
X167582455Y-107146895D02*
X167772931Y-107146895D01*
X167772931Y-107146895D02*
X167849122Y-107108800D01*
X167849122Y-107108800D02*
X167887217Y-107070704D01*
X167887217Y-107070704D02*
X167925312Y-106994514D01*
X167925312Y-106994514D02*
X167925312Y-106918323D01*
X167925312Y-106918323D02*
X167887217Y-106842133D01*
X167887217Y-106842133D02*
X167849122Y-106804038D01*
X167849122Y-106804038D02*
X167772931Y-106765942D01*
X167772931Y-106765942D02*
X167620550Y-106727847D01*
X167620550Y-106727847D02*
X167544360Y-106689752D01*
X167544360Y-106689752D02*
X167506265Y-106651657D01*
X167506265Y-106651657D02*
X167468169Y-106575466D01*
X167468169Y-106575466D02*
X167468169Y-106499276D01*
X167468169Y-106499276D02*
X167506265Y-106423085D01*
X167506265Y-106423085D02*
X167544360Y-106384990D01*
X167544360Y-106384990D02*
X167620550Y-106346895D01*
X167620550Y-106346895D02*
X167811027Y-106346895D01*
X167811027Y-106346895D02*
X167925312Y-106384990D01*
X168268170Y-107146895D02*
X168268170Y-106346895D01*
X168268170Y-106346895D02*
X168458646Y-106346895D01*
X168458646Y-106346895D02*
X168572932Y-106384990D01*
X168572932Y-106384990D02*
X168649122Y-106461180D01*
X168649122Y-106461180D02*
X168687217Y-106537371D01*
X168687217Y-106537371D02*
X168725313Y-106689752D01*
X168725313Y-106689752D02*
X168725313Y-106804038D01*
X168725313Y-106804038D02*
X168687217Y-106956419D01*
X168687217Y-106956419D02*
X168649122Y-107032609D01*
X168649122Y-107032609D02*
X168572932Y-107108800D01*
X168572932Y-107108800D02*
X168458646Y-107146895D01*
X168458646Y-107146895D02*
X168268170Y-107146895D01*
X169030074Y-106918323D02*
X169411027Y-106918323D01*
X168953884Y-107146895D02*
X169220551Y-106346895D01*
X169220551Y-106346895D02*
X169487217Y-107146895D01*
X165218169Y-102108800D02*
X165332455Y-102146895D01*
X165332455Y-102146895D02*
X165522931Y-102146895D01*
X165522931Y-102146895D02*
X165599122Y-102108800D01*
X165599122Y-102108800D02*
X165637217Y-102070704D01*
X165637217Y-102070704D02*
X165675312Y-101994514D01*
X165675312Y-101994514D02*
X165675312Y-101918323D01*
X165675312Y-101918323D02*
X165637217Y-101842133D01*
X165637217Y-101842133D02*
X165599122Y-101804038D01*
X165599122Y-101804038D02*
X165522931Y-101765942D01*
X165522931Y-101765942D02*
X165370550Y-101727847D01*
X165370550Y-101727847D02*
X165294360Y-101689752D01*
X165294360Y-101689752D02*
X165256265Y-101651657D01*
X165256265Y-101651657D02*
X165218169Y-101575466D01*
X165218169Y-101575466D02*
X165218169Y-101499276D01*
X165218169Y-101499276D02*
X165256265Y-101423085D01*
X165256265Y-101423085D02*
X165294360Y-101384990D01*
X165294360Y-101384990D02*
X165370550Y-101346895D01*
X165370550Y-101346895D02*
X165561027Y-101346895D01*
X165561027Y-101346895D02*
X165675312Y-101384990D01*
X166475313Y-102070704D02*
X166437217Y-102108800D01*
X166437217Y-102108800D02*
X166322932Y-102146895D01*
X166322932Y-102146895D02*
X166246741Y-102146895D01*
X166246741Y-102146895D02*
X166132455Y-102108800D01*
X166132455Y-102108800D02*
X166056265Y-102032609D01*
X166056265Y-102032609D02*
X166018170Y-101956419D01*
X166018170Y-101956419D02*
X165980074Y-101804038D01*
X165980074Y-101804038D02*
X165980074Y-101689752D01*
X165980074Y-101689752D02*
X166018170Y-101537371D01*
X166018170Y-101537371D02*
X166056265Y-101461180D01*
X166056265Y-101461180D02*
X166132455Y-101384990D01*
X166132455Y-101384990D02*
X166246741Y-101346895D01*
X166246741Y-101346895D02*
X166322932Y-101346895D01*
X166322932Y-101346895D02*
X166437217Y-101384990D01*
X166437217Y-101384990D02*
X166475313Y-101423085D01*
X167199122Y-102146895D02*
X166818170Y-102146895D01*
X166818170Y-102146895D02*
X166818170Y-101346895D01*
X170713408Y-102146895D02*
X170446741Y-101765942D01*
X170256265Y-102146895D02*
X170256265Y-101346895D01*
X170256265Y-101346895D02*
X170561027Y-101346895D01*
X170561027Y-101346895D02*
X170637217Y-101384990D01*
X170637217Y-101384990D02*
X170675312Y-101423085D01*
X170675312Y-101423085D02*
X170713408Y-101499276D01*
X170713408Y-101499276D02*
X170713408Y-101613561D01*
X170713408Y-101613561D02*
X170675312Y-101689752D01*
X170675312Y-101689752D02*
X170637217Y-101727847D01*
X170637217Y-101727847D02*
X170561027Y-101765942D01*
X170561027Y-101765942D02*
X170256265Y-101765942D01*
X171056265Y-102146895D02*
X171056265Y-101346895D01*
X171056265Y-101346895D02*
X171246741Y-101346895D01*
X171246741Y-101346895D02*
X171361027Y-101384990D01*
X171361027Y-101384990D02*
X171437217Y-101461180D01*
X171437217Y-101461180D02*
X171475312Y-101537371D01*
X171475312Y-101537371D02*
X171513408Y-101689752D01*
X171513408Y-101689752D02*
X171513408Y-101804038D01*
X171513408Y-101804038D02*
X171475312Y-101956419D01*
X171475312Y-101956419D02*
X171437217Y-102032609D01*
X171437217Y-102032609D02*
X171361027Y-102108800D01*
X171361027Y-102108800D02*
X171246741Y-102146895D01*
X171246741Y-102146895D02*
X171056265Y-102146895D01*
X172008646Y-101765942D02*
X172008646Y-102146895D01*
X171741979Y-101346895D02*
X172008646Y-101765942D01*
X172008646Y-101765942D02*
X172275312Y-101346895D01*
X177641979Y-106346895D02*
X178099122Y-106346895D01*
X177870550Y-107146895D02*
X177870550Y-106346895D01*
X178365789Y-106727847D02*
X178632455Y-106727847D01*
X178746741Y-107146895D02*
X178365789Y-107146895D01*
X178365789Y-107146895D02*
X178365789Y-106346895D01*
X178365789Y-106346895D02*
X178746741Y-106346895D01*
X179089599Y-107146895D02*
X179089599Y-106346895D01*
X179089599Y-106346895D02*
X179356265Y-106918323D01*
X179356265Y-106918323D02*
X179622932Y-106346895D01*
X179622932Y-106346895D02*
X179622932Y-107146895D01*
X180003885Y-107146895D02*
X180003885Y-106346895D01*
X180003885Y-106346895D02*
X180308647Y-106346895D01*
X180308647Y-106346895D02*
X180384837Y-106384990D01*
X180384837Y-106384990D02*
X180422932Y-106423085D01*
X180422932Y-106423085D02*
X180461028Y-106499276D01*
X180461028Y-106499276D02*
X180461028Y-106613561D01*
X180461028Y-106613561D02*
X180422932Y-106689752D01*
X180422932Y-106689752D02*
X180384837Y-106727847D01*
X180384837Y-106727847D02*
X180308647Y-106765942D01*
X180308647Y-106765942D02*
X180003885Y-106765942D01*
X175675312Y-101384990D02*
X175599122Y-101346895D01*
X175599122Y-101346895D02*
X175484836Y-101346895D01*
X175484836Y-101346895D02*
X175370550Y-101384990D01*
X175370550Y-101384990D02*
X175294360Y-101461180D01*
X175294360Y-101461180D02*
X175256265Y-101537371D01*
X175256265Y-101537371D02*
X175218169Y-101689752D01*
X175218169Y-101689752D02*
X175218169Y-101804038D01*
X175218169Y-101804038D02*
X175256265Y-101956419D01*
X175256265Y-101956419D02*
X175294360Y-102032609D01*
X175294360Y-102032609D02*
X175370550Y-102108800D01*
X175370550Y-102108800D02*
X175484836Y-102146895D01*
X175484836Y-102146895D02*
X175561027Y-102146895D01*
X175561027Y-102146895D02*
X175675312Y-102108800D01*
X175675312Y-102108800D02*
X175713408Y-102070704D01*
X175713408Y-102070704D02*
X175713408Y-101804038D01*
X175713408Y-101804038D02*
X175561027Y-101804038D01*
X176056265Y-102146895D02*
X176056265Y-101346895D01*
X176056265Y-101346895D02*
X176513408Y-102146895D01*
X176513408Y-102146895D02*
X176513408Y-101346895D01*
X176894360Y-102146895D02*
X176894360Y-101346895D01*
X176894360Y-101346895D02*
X177084836Y-101346895D01*
X177084836Y-101346895D02*
X177199122Y-101384990D01*
X177199122Y-101384990D02*
X177275312Y-101461180D01*
X177275312Y-101461180D02*
X177313407Y-101537371D01*
X177313407Y-101537371D02*
X177351503Y-101689752D01*
X177351503Y-101689752D02*
X177351503Y-101804038D01*
X177351503Y-101804038D02*
X177313407Y-101956419D01*
X177313407Y-101956419D02*
X177275312Y-102032609D01*
X177275312Y-102032609D02*
X177199122Y-102108800D01*
X177199122Y-102108800D02*
X177084836Y-102146895D01*
X177084836Y-102146895D02*
X176894360Y-102146895D01*
X162141979Y-106346895D02*
X162408646Y-107146895D01*
X162408646Y-107146895D02*
X162675312Y-106346895D01*
X163399122Y-107070704D02*
X163361026Y-107108800D01*
X163361026Y-107108800D02*
X163246741Y-107146895D01*
X163246741Y-107146895D02*
X163170550Y-107146895D01*
X163170550Y-107146895D02*
X163056264Y-107108800D01*
X163056264Y-107108800D02*
X162980074Y-107032609D01*
X162980074Y-107032609D02*
X162941979Y-106956419D01*
X162941979Y-106956419D02*
X162903883Y-106804038D01*
X162903883Y-106804038D02*
X162903883Y-106689752D01*
X162903883Y-106689752D02*
X162941979Y-106537371D01*
X162941979Y-106537371D02*
X162980074Y-106461180D01*
X162980074Y-106461180D02*
X163056264Y-106384990D01*
X163056264Y-106384990D02*
X163170550Y-106346895D01*
X163170550Y-106346895D02*
X163246741Y-106346895D01*
X163246741Y-106346895D02*
X163361026Y-106384990D01*
X163361026Y-106384990D02*
X163399122Y-106423085D01*
X164199122Y-107070704D02*
X164161026Y-107108800D01*
X164161026Y-107108800D02*
X164046741Y-107146895D01*
X164046741Y-107146895D02*
X163970550Y-107146895D01*
X163970550Y-107146895D02*
X163856264Y-107108800D01*
X163856264Y-107108800D02*
X163780074Y-107032609D01*
X163780074Y-107032609D02*
X163741979Y-106956419D01*
X163741979Y-106956419D02*
X163703883Y-106804038D01*
X163703883Y-106804038D02*
X163703883Y-106689752D01*
X163703883Y-106689752D02*
X163741979Y-106537371D01*
X163741979Y-106537371D02*
X163780074Y-106461180D01*
X163780074Y-106461180D02*
X163856264Y-106384990D01*
X163856264Y-106384990D02*
X163970550Y-106346895D01*
X163970550Y-106346895D02*
X164046741Y-106346895D01*
X164046741Y-106346895D02*
X164161026Y-106384990D01*
X164161026Y-106384990D02*
X164199122Y-106423085D01*
X153500000Y-48000000D02*
X203500000Y-48000000D01*
X203500000Y-98000000D01*
X153500000Y-98000000D01*
X153500000Y-48000000D01*
X153803884Y-47872419D02*
X153803884Y-46872419D01*
X153803884Y-47348609D02*
X154375312Y-47348609D01*
X154375312Y-47872419D02*
X154375312Y-46872419D01*
X155232455Y-47824800D02*
X155137217Y-47872419D01*
X155137217Y-47872419D02*
X154946741Y-47872419D01*
X154946741Y-47872419D02*
X154851503Y-47824800D01*
X154851503Y-47824800D02*
X154803884Y-47729561D01*
X154803884Y-47729561D02*
X154803884Y-47348609D01*
X154803884Y-47348609D02*
X154851503Y-47253371D01*
X154851503Y-47253371D02*
X154946741Y-47205752D01*
X154946741Y-47205752D02*
X155137217Y-47205752D01*
X155137217Y-47205752D02*
X155232455Y-47253371D01*
X155232455Y-47253371D02*
X155280074Y-47348609D01*
X155280074Y-47348609D02*
X155280074Y-47443847D01*
X155280074Y-47443847D02*
X154803884Y-47539085D01*
X156137217Y-47872419D02*
X156137217Y-47348609D01*
X156137217Y-47348609D02*
X156089598Y-47253371D01*
X156089598Y-47253371D02*
X155994360Y-47205752D01*
X155994360Y-47205752D02*
X155803884Y-47205752D01*
X155803884Y-47205752D02*
X155708646Y-47253371D01*
X156137217Y-47824800D02*
X156041979Y-47872419D01*
X156041979Y-47872419D02*
X155803884Y-47872419D01*
X155803884Y-47872419D02*
X155708646Y-47824800D01*
X155708646Y-47824800D02*
X155661027Y-47729561D01*
X155661027Y-47729561D02*
X155661027Y-47634323D01*
X155661027Y-47634323D02*
X155708646Y-47539085D01*
X155708646Y-47539085D02*
X155803884Y-47491466D01*
X155803884Y-47491466D02*
X156041979Y-47491466D01*
X156041979Y-47491466D02*
X156137217Y-47443847D01*
X156470551Y-47205752D02*
X156851503Y-47205752D01*
X156613408Y-46872419D02*
X156613408Y-47729561D01*
X156613408Y-47729561D02*
X156661027Y-47824800D01*
X156661027Y-47824800D02*
X156756265Y-47872419D01*
X156756265Y-47872419D02*
X156851503Y-47872419D01*
X157565789Y-47824800D02*
X157470551Y-47872419D01*
X157470551Y-47872419D02*
X157280075Y-47872419D01*
X157280075Y-47872419D02*
X157184837Y-47824800D01*
X157184837Y-47824800D02*
X157137218Y-47729561D01*
X157137218Y-47729561D02*
X157137218Y-47348609D01*
X157137218Y-47348609D02*
X157184837Y-47253371D01*
X157184837Y-47253371D02*
X157280075Y-47205752D01*
X157280075Y-47205752D02*
X157470551Y-47205752D01*
X157470551Y-47205752D02*
X157565789Y-47253371D01*
X157565789Y-47253371D02*
X157613408Y-47348609D01*
X157613408Y-47348609D02*
X157613408Y-47443847D01*
X157613408Y-47443847D02*
X157137218Y-47539085D01*
X158041980Y-47872419D02*
X158041980Y-47205752D01*
X158041980Y-47396228D02*
X158089599Y-47300990D01*
X158089599Y-47300990D02*
X158137218Y-47253371D01*
X158137218Y-47253371D02*
X158232456Y-47205752D01*
X158232456Y-47205752D02*
X158327694Y-47205752D01*
X159327695Y-46872419D02*
X159994361Y-46872419D01*
X159994361Y-46872419D02*
X159327695Y-47872419D01*
X159327695Y-47872419D02*
X159994361Y-47872419D01*
X160518171Y-47872419D02*
X160422933Y-47824800D01*
X160422933Y-47824800D02*
X160375314Y-47777180D01*
X160375314Y-47777180D02*
X160327695Y-47681942D01*
X160327695Y-47681942D02*
X160327695Y-47396228D01*
X160327695Y-47396228D02*
X160375314Y-47300990D01*
X160375314Y-47300990D02*
X160422933Y-47253371D01*
X160422933Y-47253371D02*
X160518171Y-47205752D01*
X160518171Y-47205752D02*
X160661028Y-47205752D01*
X160661028Y-47205752D02*
X160756266Y-47253371D01*
X160756266Y-47253371D02*
X160803885Y-47300990D01*
X160803885Y-47300990D02*
X160851504Y-47396228D01*
X160851504Y-47396228D02*
X160851504Y-47681942D01*
X160851504Y-47681942D02*
X160803885Y-47777180D01*
X160803885Y-47777180D02*
X160756266Y-47824800D01*
X160756266Y-47824800D02*
X160661028Y-47872419D01*
X160661028Y-47872419D02*
X160518171Y-47872419D01*
X161280076Y-47205752D02*
X161280076Y-47872419D01*
X161280076Y-47300990D02*
X161327695Y-47253371D01*
X161327695Y-47253371D02*
X161422933Y-47205752D01*
X161422933Y-47205752D02*
X161565790Y-47205752D01*
X161565790Y-47205752D02*
X161661028Y-47253371D01*
X161661028Y-47253371D02*
X161708647Y-47348609D01*
X161708647Y-47348609D02*
X161708647Y-47872419D01*
X162565790Y-47824800D02*
X162470552Y-47872419D01*
X162470552Y-47872419D02*
X162280076Y-47872419D01*
X162280076Y-47872419D02*
X162184838Y-47824800D01*
X162184838Y-47824800D02*
X162137219Y-47729561D01*
X162137219Y-47729561D02*
X162137219Y-47348609D01*
X162137219Y-47348609D02*
X162184838Y-47253371D01*
X162184838Y-47253371D02*
X162280076Y-47205752D01*
X162280076Y-47205752D02*
X162470552Y-47205752D01*
X162470552Y-47205752D02*
X162565790Y-47253371D01*
X162565790Y-47253371D02*
X162613409Y-47348609D01*
X162613409Y-47348609D02*
X162613409Y-47443847D01*
X162613409Y-47443847D02*
X162137219Y-47539085D01*
X180303884Y-44762475D02*
X180303884Y-43762475D01*
X180780074Y-44095808D02*
X180780074Y-44762475D01*
X180780074Y-44191046D02*
X180827693Y-44143427D01*
X180827693Y-44143427D02*
X180922931Y-44095808D01*
X180922931Y-44095808D02*
X181065788Y-44095808D01*
X181065788Y-44095808D02*
X181161026Y-44143427D01*
X181161026Y-44143427D02*
X181208645Y-44238665D01*
X181208645Y-44238665D02*
X181208645Y-44762475D01*
X181541979Y-44095808D02*
X181922931Y-44095808D01*
X181684836Y-43762475D02*
X181684836Y-44619617D01*
X181684836Y-44619617D02*
X181732455Y-44714856D01*
X181732455Y-44714856D02*
X181827693Y-44762475D01*
X181827693Y-44762475D02*
X181922931Y-44762475D01*
X182637217Y-44714856D02*
X182541979Y-44762475D01*
X182541979Y-44762475D02*
X182351503Y-44762475D01*
X182351503Y-44762475D02*
X182256265Y-44714856D01*
X182256265Y-44714856D02*
X182208646Y-44619617D01*
X182208646Y-44619617D02*
X182208646Y-44238665D01*
X182208646Y-44238665D02*
X182256265Y-44143427D01*
X182256265Y-44143427D02*
X182351503Y-44095808D01*
X182351503Y-44095808D02*
X182541979Y-44095808D01*
X182541979Y-44095808D02*
X182637217Y-44143427D01*
X182637217Y-44143427D02*
X182684836Y-44238665D01*
X182684836Y-44238665D02*
X182684836Y-44333903D01*
X182684836Y-44333903D02*
X182208646Y-44429141D01*
X183113408Y-44762475D02*
X183113408Y-44095808D01*
X183113408Y-44286284D02*
X183161027Y-44191046D01*
X183161027Y-44191046D02*
X183208646Y-44143427D01*
X183208646Y-44143427D02*
X183303884Y-44095808D01*
X183303884Y-44095808D02*
X183399122Y-44095808D01*
X183732456Y-44095808D02*
X183732456Y-44762475D01*
X183732456Y-44191046D02*
X183780075Y-44143427D01*
X183780075Y-44143427D02*
X183875313Y-44095808D01*
X183875313Y-44095808D02*
X184018170Y-44095808D01*
X184018170Y-44095808D02*
X184113408Y-44143427D01*
X184113408Y-44143427D02*
X184161027Y-44238665D01*
X184161027Y-44238665D02*
X184161027Y-44762475D01*
X185065789Y-44762475D02*
X185065789Y-44238665D01*
X185065789Y-44238665D02*
X185018170Y-44143427D01*
X185018170Y-44143427D02*
X184922932Y-44095808D01*
X184922932Y-44095808D02*
X184732456Y-44095808D01*
X184732456Y-44095808D02*
X184637218Y-44143427D01*
X185065789Y-44714856D02*
X184970551Y-44762475D01*
X184970551Y-44762475D02*
X184732456Y-44762475D01*
X184732456Y-44762475D02*
X184637218Y-44714856D01*
X184637218Y-44714856D02*
X184589599Y-44619617D01*
X184589599Y-44619617D02*
X184589599Y-44524379D01*
X184589599Y-44524379D02*
X184637218Y-44429141D01*
X184637218Y-44429141D02*
X184732456Y-44381522D01*
X184732456Y-44381522D02*
X184970551Y-44381522D01*
X184970551Y-44381522D02*
X185065789Y-44333903D01*
X185684837Y-44762475D02*
X185589599Y-44714856D01*
X185589599Y-44714856D02*
X185541980Y-44619617D01*
X185541980Y-44619617D02*
X185541980Y-43762475D01*
X187399123Y-44667236D02*
X187351504Y-44714856D01*
X187351504Y-44714856D02*
X187208647Y-44762475D01*
X187208647Y-44762475D02*
X187113409Y-44762475D01*
X187113409Y-44762475D02*
X186970552Y-44714856D01*
X186970552Y-44714856D02*
X186875314Y-44619617D01*
X186875314Y-44619617D02*
X186827695Y-44524379D01*
X186827695Y-44524379D02*
X186780076Y-44333903D01*
X186780076Y-44333903D02*
X186780076Y-44191046D01*
X186780076Y-44191046D02*
X186827695Y-44000570D01*
X186827695Y-44000570D02*
X186875314Y-43905332D01*
X186875314Y-43905332D02*
X186970552Y-43810094D01*
X186970552Y-43810094D02*
X187113409Y-43762475D01*
X187113409Y-43762475D02*
X187208647Y-43762475D01*
X187208647Y-43762475D02*
X187351504Y-43810094D01*
X187351504Y-43810094D02*
X187399123Y-43857713D01*
X187827695Y-44762475D02*
X187827695Y-43762475D01*
X188256266Y-44762475D02*
X188256266Y-44238665D01*
X188256266Y-44238665D02*
X188208647Y-44143427D01*
X188208647Y-44143427D02*
X188113409Y-44095808D01*
X188113409Y-44095808D02*
X187970552Y-44095808D01*
X187970552Y-44095808D02*
X187875314Y-44143427D01*
X187875314Y-44143427D02*
X187827695Y-44191046D01*
X189161028Y-44762475D02*
X189161028Y-44238665D01*
X189161028Y-44238665D02*
X189113409Y-44143427D01*
X189113409Y-44143427D02*
X189018171Y-44095808D01*
X189018171Y-44095808D02*
X188827695Y-44095808D01*
X188827695Y-44095808D02*
X188732457Y-44143427D01*
X189161028Y-44714856D02*
X189065790Y-44762475D01*
X189065790Y-44762475D02*
X188827695Y-44762475D01*
X188827695Y-44762475D02*
X188732457Y-44714856D01*
X188732457Y-44714856D02*
X188684838Y-44619617D01*
X188684838Y-44619617D02*
X188684838Y-44524379D01*
X188684838Y-44524379D02*
X188732457Y-44429141D01*
X188732457Y-44429141D02*
X188827695Y-44381522D01*
X188827695Y-44381522D02*
X189065790Y-44381522D01*
X189065790Y-44381522D02*
X189161028Y-44333903D01*
X189637219Y-44762475D02*
X189637219Y-44095808D01*
X189637219Y-44191046D02*
X189684838Y-44143427D01*
X189684838Y-44143427D02*
X189780076Y-44095808D01*
X189780076Y-44095808D02*
X189922933Y-44095808D01*
X189922933Y-44095808D02*
X190018171Y-44143427D01*
X190018171Y-44143427D02*
X190065790Y-44238665D01*
X190065790Y-44238665D02*
X190065790Y-44762475D01*
X190065790Y-44238665D02*
X190113409Y-44143427D01*
X190113409Y-44143427D02*
X190208647Y-44095808D01*
X190208647Y-44095808D02*
X190351504Y-44095808D01*
X190351504Y-44095808D02*
X190446743Y-44143427D01*
X190446743Y-44143427D02*
X190494362Y-44238665D01*
X190494362Y-44238665D02*
X190494362Y-44762475D01*
X190970552Y-44762475D02*
X190970552Y-43762475D01*
X190970552Y-44143427D02*
X191065790Y-44095808D01*
X191065790Y-44095808D02*
X191256266Y-44095808D01*
X191256266Y-44095808D02*
X191351504Y-44143427D01*
X191351504Y-44143427D02*
X191399123Y-44191046D01*
X191399123Y-44191046D02*
X191446742Y-44286284D01*
X191446742Y-44286284D02*
X191446742Y-44571998D01*
X191446742Y-44571998D02*
X191399123Y-44667236D01*
X191399123Y-44667236D02*
X191351504Y-44714856D01*
X191351504Y-44714856D02*
X191256266Y-44762475D01*
X191256266Y-44762475D02*
X191065790Y-44762475D01*
X191065790Y-44762475D02*
X190970552Y-44714856D01*
X192256266Y-44714856D02*
X192161028Y-44762475D01*
X192161028Y-44762475D02*
X191970552Y-44762475D01*
X191970552Y-44762475D02*
X191875314Y-44714856D01*
X191875314Y-44714856D02*
X191827695Y-44619617D01*
X191827695Y-44619617D02*
X191827695Y-44238665D01*
X191827695Y-44238665D02*
X191875314Y-44143427D01*
X191875314Y-44143427D02*
X191970552Y-44095808D01*
X191970552Y-44095808D02*
X192161028Y-44095808D01*
X192161028Y-44095808D02*
X192256266Y-44143427D01*
X192256266Y-44143427D02*
X192303885Y-44238665D01*
X192303885Y-44238665D02*
X192303885Y-44333903D01*
X192303885Y-44333903D02*
X191827695Y-44429141D01*
X192732457Y-44762475D02*
X192732457Y-44095808D01*
X192732457Y-44286284D02*
X192780076Y-44191046D01*
X192780076Y-44191046D02*
X192827695Y-44143427D01*
X192827695Y-44143427D02*
X192922933Y-44095808D01*
X192922933Y-44095808D02*
X193018171Y-44095808D01*
X194113410Y-44762475D02*
X194113410Y-43762475D01*
X194113410Y-44238665D02*
X194684838Y-44238665D01*
X194684838Y-44762475D02*
X194684838Y-43762475D01*
X195303886Y-44762475D02*
X195208648Y-44714856D01*
X195208648Y-44714856D02*
X195161029Y-44667236D01*
X195161029Y-44667236D02*
X195113410Y-44571998D01*
X195113410Y-44571998D02*
X195113410Y-44286284D01*
X195113410Y-44286284D02*
X195161029Y-44191046D01*
X195161029Y-44191046D02*
X195208648Y-44143427D01*
X195208648Y-44143427D02*
X195303886Y-44095808D01*
X195303886Y-44095808D02*
X195446743Y-44095808D01*
X195446743Y-44095808D02*
X195541981Y-44143427D01*
X195541981Y-44143427D02*
X195589600Y-44191046D01*
X195589600Y-44191046D02*
X195637219Y-44286284D01*
X195637219Y-44286284D02*
X195637219Y-44571998D01*
X195637219Y-44571998D02*
X195589600Y-44667236D01*
X195589600Y-44667236D02*
X195541981Y-44714856D01*
X195541981Y-44714856D02*
X195446743Y-44762475D01*
X195446743Y-44762475D02*
X195303886Y-44762475D01*
X196494362Y-44095808D02*
X196494362Y-44762475D01*
X196065791Y-44095808D02*
X196065791Y-44619617D01*
X196065791Y-44619617D02*
X196113410Y-44714856D01*
X196113410Y-44714856D02*
X196208648Y-44762475D01*
X196208648Y-44762475D02*
X196351505Y-44762475D01*
X196351505Y-44762475D02*
X196446743Y-44714856D01*
X196446743Y-44714856D02*
X196494362Y-44667236D01*
X196922934Y-44714856D02*
X197018172Y-44762475D01*
X197018172Y-44762475D02*
X197208648Y-44762475D01*
X197208648Y-44762475D02*
X197303886Y-44714856D01*
X197303886Y-44714856D02*
X197351505Y-44619617D01*
X197351505Y-44619617D02*
X197351505Y-44571998D01*
X197351505Y-44571998D02*
X197303886Y-44476760D01*
X197303886Y-44476760D02*
X197208648Y-44429141D01*
X197208648Y-44429141D02*
X197065791Y-44429141D01*
X197065791Y-44429141D02*
X196970553Y-44381522D01*
X196970553Y-44381522D02*
X196922934Y-44286284D01*
X196922934Y-44286284D02*
X196922934Y-44238665D01*
X196922934Y-44238665D02*
X196970553Y-44143427D01*
X196970553Y-44143427D02*
X197065791Y-44095808D01*
X197065791Y-44095808D02*
X197208648Y-44095808D01*
X197208648Y-44095808D02*
X197303886Y-44143427D01*
X197780077Y-44762475D02*
X197780077Y-44095808D01*
X197780077Y-43762475D02*
X197732458Y-43810094D01*
X197732458Y-43810094D02*
X197780077Y-43857713D01*
X197780077Y-43857713D02*
X197827696Y-43810094D01*
X197827696Y-43810094D02*
X197780077Y-43762475D01*
X197780077Y-43762475D02*
X197780077Y-43857713D01*
X198256267Y-44095808D02*
X198256267Y-44762475D01*
X198256267Y-44191046D02*
X198303886Y-44143427D01*
X198303886Y-44143427D02*
X198399124Y-44095808D01*
X198399124Y-44095808D02*
X198541981Y-44095808D01*
X198541981Y-44095808D02*
X198637219Y-44143427D01*
X198637219Y-44143427D02*
X198684838Y-44238665D01*
X198684838Y-44238665D02*
X198684838Y-44762475D01*
X199589600Y-44095808D02*
X199589600Y-44905332D01*
X199589600Y-44905332D02*
X199541981Y-45000570D01*
X199541981Y-45000570D02*
X199494362Y-45048189D01*
X199494362Y-45048189D02*
X199399124Y-45095808D01*
X199399124Y-45095808D02*
X199256267Y-45095808D01*
X199256267Y-45095808D02*
X199161029Y-45048189D01*
X199589600Y-44714856D02*
X199494362Y-44762475D01*
X199494362Y-44762475D02*
X199303886Y-44762475D01*
X199303886Y-44762475D02*
X199208648Y-44714856D01*
X199208648Y-44714856D02*
X199161029Y-44667236D01*
X199161029Y-44667236D02*
X199113410Y-44571998D01*
X199113410Y-44571998D02*
X199113410Y-44286284D01*
X199113410Y-44286284D02*
X199161029Y-44191046D01*
X199161029Y-44191046D02*
X199208648Y-44143427D01*
X199208648Y-44143427D02*
X199303886Y-44095808D01*
X199303886Y-44095808D02*
X199494362Y-44095808D01*
X199494362Y-44095808D02*
X199589600Y-44143427D01*
X180161027Y-45372419D02*
X180494360Y-46372419D01*
X180494360Y-46372419D02*
X180827693Y-45372419D01*
X181446741Y-45372419D02*
X181446741Y-46086704D01*
X181446741Y-46086704D02*
X181399122Y-46229561D01*
X181399122Y-46229561D02*
X181303884Y-46324800D01*
X181303884Y-46324800D02*
X181161027Y-46372419D01*
X181161027Y-46372419D02*
X181065789Y-46372419D01*
X182637218Y-45467657D02*
X182684837Y-45420038D01*
X182684837Y-45420038D02*
X182780075Y-45372419D01*
X182780075Y-45372419D02*
X183018170Y-45372419D01*
X183018170Y-45372419D02*
X183113408Y-45420038D01*
X183113408Y-45420038D02*
X183161027Y-45467657D01*
X183161027Y-45467657D02*
X183208646Y-45562895D01*
X183208646Y-45562895D02*
X183208646Y-45658133D01*
X183208646Y-45658133D02*
X183161027Y-45800990D01*
X183161027Y-45800990D02*
X182589599Y-46372419D01*
X182589599Y-46372419D02*
X183208646Y-46372419D01*
X183827694Y-45372419D02*
X183922932Y-45372419D01*
X183922932Y-45372419D02*
X184018170Y-45420038D01*
X184018170Y-45420038D02*
X184065789Y-45467657D01*
X184065789Y-45467657D02*
X184113408Y-45562895D01*
X184113408Y-45562895D02*
X184161027Y-45753371D01*
X184161027Y-45753371D02*
X184161027Y-45991466D01*
X184161027Y-45991466D02*
X184113408Y-46181942D01*
X184113408Y-46181942D02*
X184065789Y-46277180D01*
X184065789Y-46277180D02*
X184018170Y-46324800D01*
X184018170Y-46324800D02*
X183922932Y-46372419D01*
X183922932Y-46372419D02*
X183827694Y-46372419D01*
X183827694Y-46372419D02*
X183732456Y-46324800D01*
X183732456Y-46324800D02*
X183684837Y-46277180D01*
X183684837Y-46277180D02*
X183637218Y-46181942D01*
X183637218Y-46181942D02*
X183589599Y-45991466D01*
X183589599Y-45991466D02*
X183589599Y-45753371D01*
X183589599Y-45753371D02*
X183637218Y-45562895D01*
X183637218Y-45562895D02*
X183684837Y-45467657D01*
X183684837Y-45467657D02*
X183732456Y-45420038D01*
X183732456Y-45420038D02*
X183827694Y-45372419D01*
X184541980Y-45467657D02*
X184589599Y-45420038D01*
X184589599Y-45420038D02*
X184684837Y-45372419D01*
X184684837Y-45372419D02*
X184922932Y-45372419D01*
X184922932Y-45372419D02*
X185018170Y-45420038D01*
X185018170Y-45420038D02*
X185065789Y-45467657D01*
X185065789Y-45467657D02*
X185113408Y-45562895D01*
X185113408Y-45562895D02*
X185113408Y-45658133D01*
X185113408Y-45658133D02*
X185065789Y-45800990D01*
X185065789Y-45800990D02*
X184494361Y-46372419D01*
X184494361Y-46372419D02*
X185113408Y-46372419D01*
X185970551Y-45705752D02*
X185970551Y-46372419D01*
X185732456Y-45324800D02*
X185494361Y-46039085D01*
X185494361Y-46039085D02*
X186113408Y-46039085D01*
D11*
X145916666Y-65394819D02*
X145916666Y-66109104D01*
X145916666Y-66109104D02*
X145869047Y-66251961D01*
X145869047Y-66251961D02*
X145773809Y-66347200D01*
X145773809Y-66347200D02*
X145630952Y-66394819D01*
X145630952Y-66394819D02*
X145535714Y-66394819D01*
X146297619Y-65394819D02*
X146916666Y-65394819D01*
X146916666Y-65394819D02*
X146583333Y-65775771D01*
X146583333Y-65775771D02*
X146726190Y-65775771D01*
X146726190Y-65775771D02*
X146821428Y-65823390D01*
X146821428Y-65823390D02*
X146869047Y-65871009D01*
X146869047Y-65871009D02*
X146916666Y-65966247D01*
X146916666Y-65966247D02*
X146916666Y-66204342D01*
X146916666Y-66204342D02*
X146869047Y-66299580D01*
X146869047Y-66299580D02*
X146821428Y-66347200D01*
X146821428Y-66347200D02*
X146726190Y-66394819D01*
X146726190Y-66394819D02*
X146440476Y-66394819D01*
X146440476Y-66394819D02*
X146345238Y-66347200D01*
X146345238Y-66347200D02*
X146297619Y-66299580D01*
X212416666Y-64894819D02*
X212416666Y-65609104D01*
X212416666Y-65609104D02*
X212369047Y-65751961D01*
X212369047Y-65751961D02*
X212273809Y-65847200D01*
X212273809Y-65847200D02*
X212130952Y-65894819D01*
X212130952Y-65894819D02*
X212035714Y-65894819D01*
X212845238Y-64990057D02*
X212892857Y-64942438D01*
X212892857Y-64942438D02*
X212988095Y-64894819D01*
X212988095Y-64894819D02*
X213226190Y-64894819D01*
X213226190Y-64894819D02*
X213321428Y-64942438D01*
X213321428Y-64942438D02*
X213369047Y-64990057D01*
X213369047Y-64990057D02*
X213416666Y-65085295D01*
X213416666Y-65085295D02*
X213416666Y-65180533D01*
X213416666Y-65180533D02*
X213369047Y-65323390D01*
X213369047Y-65323390D02*
X212797619Y-65894819D01*
X212797619Y-65894819D02*
X213416666Y-65894819D01*
X161133095Y-110869819D02*
X161133095Y-111679342D01*
X161133095Y-111679342D02*
X161180714Y-111774580D01*
X161180714Y-111774580D02*
X161228333Y-111822200D01*
X161228333Y-111822200D02*
X161323571Y-111869819D01*
X161323571Y-111869819D02*
X161514047Y-111869819D01*
X161514047Y-111869819D02*
X161609285Y-111822200D01*
X161609285Y-111822200D02*
X161656904Y-111774580D01*
X161656904Y-111774580D02*
X161704523Y-111679342D01*
X161704523Y-111679342D02*
X161704523Y-110869819D01*
X162704523Y-111869819D02*
X162133095Y-111869819D01*
X162418809Y-111869819D02*
X162418809Y-110869819D01*
X162418809Y-110869819D02*
X162323571Y-111012676D01*
X162323571Y-111012676D02*
X162228333Y-111107914D01*
X162228333Y-111107914D02*
X162133095Y-111155533D01*
X209334819Y-100416666D02*
X208858628Y-100749999D01*
X209334819Y-100988094D02*
X208334819Y-100988094D01*
X208334819Y-100988094D02*
X208334819Y-100607142D01*
X208334819Y-100607142D02*
X208382438Y-100511904D01*
X208382438Y-100511904D02*
X208430057Y-100464285D01*
X208430057Y-100464285D02*
X208525295Y-100416666D01*
X208525295Y-100416666D02*
X208668152Y-100416666D01*
X208668152Y-100416666D02*
X208763390Y-100464285D01*
X208763390Y-100464285D02*
X208811009Y-100511904D01*
X208811009Y-100511904D02*
X208858628Y-100607142D01*
X208858628Y-100607142D02*
X208858628Y-100988094D01*
X209334819Y-99464285D02*
X209334819Y-100035713D01*
X209334819Y-99749999D02*
X208334819Y-99749999D01*
X208334819Y-99749999D02*
X208477676Y-99845237D01*
X208477676Y-99845237D02*
X208572914Y-99940475D01*
X208572914Y-99940475D02*
X208620533Y-100035713D01*
X160384819Y-104583333D02*
X161099104Y-104583333D01*
X161099104Y-104583333D02*
X161241961Y-104630952D01*
X161241961Y-104630952D02*
X161337200Y-104726190D01*
X161337200Y-104726190D02*
X161384819Y-104869047D01*
X161384819Y-104869047D02*
X161384819Y-104964285D01*
X161384819Y-103583333D02*
X161384819Y-104154761D01*
X161384819Y-103869047D02*
X160384819Y-103869047D01*
X160384819Y-103869047D02*
X160527676Y-103964285D01*
X160527676Y-103964285D02*
X160622914Y-104059523D01*
X160622914Y-104059523D02*
X160670533Y-104154761D01*
X208764819Y-86911904D02*
X209574342Y-86911904D01*
X209574342Y-86911904D02*
X209669580Y-86864285D01*
X209669580Y-86864285D02*
X209717200Y-86816666D01*
X209717200Y-86816666D02*
X209764819Y-86721428D01*
X209764819Y-86721428D02*
X209764819Y-86530952D01*
X209764819Y-86530952D02*
X209717200Y-86435714D01*
X209717200Y-86435714D02*
X209669580Y-86388095D01*
X209669580Y-86388095D02*
X209574342Y-86340476D01*
X209574342Y-86340476D02*
X208764819Y-86340476D01*
X208764819Y-85959523D02*
X208764819Y-85340476D01*
X208764819Y-85340476D02*
X209145771Y-85673809D01*
X209145771Y-85673809D02*
X209145771Y-85530952D01*
X209145771Y-85530952D02*
X209193390Y-85435714D01*
X209193390Y-85435714D02*
X209241009Y-85388095D01*
X209241009Y-85388095D02*
X209336247Y-85340476D01*
X209336247Y-85340476D02*
X209574342Y-85340476D01*
X209574342Y-85340476D02*
X209669580Y-85388095D01*
X209669580Y-85388095D02*
X209717200Y-85435714D01*
X209717200Y-85435714D02*
X209764819Y-85530952D01*
X209764819Y-85530952D02*
X209764819Y-85816666D01*
X209764819Y-85816666D02*
X209717200Y-85911904D01*
X209717200Y-85911904D02*
X209669580Y-85959523D01*
D12*
%TO.C,J3*%
X144920000Y-69980000D02*
X144920000Y-72580000D01*
X144920000Y-69980000D02*
X147580000Y-69980000D01*
X144920000Y-72580000D02*
X147580000Y-72580000D01*
X146250000Y-67380000D02*
X147580000Y-67380000D01*
X147580000Y-67380000D02*
X147580000Y-68710000D01*
X147580000Y-69980000D02*
X147580000Y-72580000D01*
%TO.C,J2*%
X211420000Y-69480000D02*
X211420000Y-72080000D01*
X211420000Y-69480000D02*
X214080000Y-69480000D01*
X211420000Y-72080000D02*
X214080000Y-72080000D01*
X212750000Y-66880000D02*
X214080000Y-66880000D01*
X214080000Y-66880000D02*
X214080000Y-68210000D01*
X214080000Y-69480000D02*
X214080000Y-72080000D01*
D13*
%TO.C,U1*%
X158300000Y-114650000D02*
G75*
G02*
X158100000Y-114650000I-100000J0D01*
G01*
X158100000Y-114650000D02*
G75*
G02*
X158300000Y-114650000I100000J0D01*
G01*
D14*
X194000000Y-136250000D02*
X159000000Y-136250000D01*
X194000000Y-113250000D02*
X194000000Y-136250000D01*
X159000000Y-136250000D02*
X159000000Y-113250000D01*
X159000000Y-113250000D02*
X194000000Y-113250000D01*
D12*
%TO.C,R1*%
X212620000Y-103520000D02*
X212620000Y-96980000D01*
X212620000Y-96980000D02*
X209880000Y-96980000D01*
X211250000Y-106830000D02*
X211250000Y-103520000D01*
X211250000Y-93670000D02*
X211250000Y-96980000D01*
X209880000Y-103520000D02*
X212620000Y-103520000D01*
X209880000Y-96980000D02*
X209880000Y-103520000D01*
%TO.C,J1*%
X161930000Y-105580000D02*
X161930000Y-104250000D01*
X163260000Y-105580000D02*
X161930000Y-105580000D01*
X164530000Y-102920000D02*
X179830000Y-102920000D01*
X164530000Y-105580000D02*
X164530000Y-102920000D01*
X164530000Y-105580000D02*
X179830000Y-105580000D01*
X179830000Y-105580000D02*
X179830000Y-102920000D01*
%TO.C,U3*%
X208350000Y-86150000D02*
G75*
G02*
X203911522Y-87988478I-2600000J0D01*
G01*
X203911522Y-84311522D02*
G75*
G02*
X208350001Y-86150000I1838478J-1838478D01*
G01*
X203900000Y-84350000D02*
X203900000Y-87950000D01*
%TD*%
M02*
