%TF.GenerationSoftware,KiCad,Pcbnew,8.0.6*%
%TF.CreationDate,2025-01-04T10:48:04+08:00*%
%TF.ProjectId,Internal Chamber,496e7465-726e-4616-9c20-4368616d6265,rev?*%
%TF.SameCoordinates,Original*%
%TF.FileFunction,Copper,L1,Top*%
%TF.FilePolarity,Positive*%
%FSLAX46Y46*%
G04 Gerber Fmt 4.6, Leading zero omitted, Abs format (unit mm)*
G04 Created by KiCad (PCBNEW 8.0.6) date 2025-01-04 10:48:04*
%MOMM*%
%LPD*%
G01*
G04 APERTURE LIST*
%TA.AperFunction,ComponentPad*%
%ADD10R,1.700000X1.700000*%
%TD*%
%TA.AperFunction,ComponentPad*%
%ADD11O,1.700000X1.700000*%
%TD*%
%TA.AperFunction,ComponentPad*%
%ADD12C,1.650000*%
%TD*%
%TA.AperFunction,ComponentPad*%
%ADD13R,1.650000X1.650000*%
%TD*%
%TA.AperFunction,ComponentPad*%
%ADD14O,1.600000X1.600000*%
%TD*%
%TA.AperFunction,ComponentPad*%
%ADD15C,1.600000*%
%TD*%
%TA.AperFunction,ComponentPad*%
%ADD16O,1.500000X1.050000*%
%TD*%
%TA.AperFunction,ComponentPad*%
%ADD17R,1.500000X1.050000*%
%TD*%
%TA.AperFunction,Conductor*%
%ADD18C,0.200000*%
%TD*%
%TA.AperFunction,Conductor*%
%ADD19C,0.500000*%
%TD*%
G04 APERTURE END LIST*
D10*
%TO.P,J3,1,Pin_1*%
%TO.N,/Data*%
X146250000Y-68710000D03*
D11*
%TO.P,J3,2,Pin_2*%
X146250000Y-71250000D03*
%TD*%
D10*
%TO.P,J2,1,Pin_1*%
%TO.N,/Data*%
X212750000Y-68210000D03*
D11*
%TO.P,J2,2,Pin_2*%
X212750000Y-70750000D03*
%TD*%
D12*
%TO.P,U1,7,SEL*%
%TO.N,GND*%
X175640000Y-114650000D03*
%TO.P,U1,6,PWM*%
%TO.N,/PWM*%
X173100000Y-114650000D03*
%TO.P,U1,5,RDY*%
%TO.N,/RDY*%
X170560000Y-114650000D03*
%TO.P,U1,4,RX/SDA*%
%TO.N,/SDA*%
X168020000Y-114650000D03*
%TO.P,U1,3,TX/SCL*%
%TO.N,/SCL*%
X165480000Y-114650000D03*
%TO.P,U1,2,GND*%
%TO.N,GND*%
X162940000Y-114650000D03*
D13*
%TO.P,U1,1,VDD*%
%TO.N,/VCC*%
X160400000Y-114650000D03*
%TD*%
D14*
%TO.P,R1,2*%
%TO.N,Net-(U3-DQ)*%
X211250000Y-92630000D03*
D15*
%TO.P,R1,1*%
%TO.N,/TEMP*%
X211250000Y-107870000D03*
%TD*%
D10*
%TO.P,J1,1,Pin_1*%
%TO.N,/VCC*%
X163260000Y-104250000D03*
D11*
%TO.P,J1,2,Pin_2*%
%TO.N,/SCL*%
X165800000Y-104250000D03*
%TO.P,J1,3,Pin_3*%
%TO.N,/SDA*%
X168340000Y-104250000D03*
%TO.P,J1,4,Pin_4*%
%TO.N,/RDY*%
X170880000Y-104250000D03*
%TO.P,J1,5,Pin_5*%
%TO.N,/PWM*%
X173420000Y-104250000D03*
%TO.P,J1,6,Pin_6*%
%TO.N,GND*%
X175960000Y-104250000D03*
%TO.P,J1,7,Pin_7*%
%TO.N,/TEMP*%
X178500000Y-104250000D03*
%TD*%
D16*
%TO.P,U3,3,V_{DD}*%
%TO.N,/VCC*%
X205750000Y-88420000D03*
%TO.P,U3,2,DQ*%
%TO.N,Net-(U3-DQ)*%
X205750000Y-86150000D03*
D17*
%TO.P,U3,1,GND*%
%TO.N,GND*%
X205750000Y-83880000D03*
%TD*%
D18*
%TO.N,/PWM*%
X175000000Y-105830000D02*
X175000000Y-112750000D01*
X175000000Y-112750000D02*
X173100000Y-114650000D01*
X173420000Y-104250000D02*
X175000000Y-105830000D01*
%TO.N,/RDY*%
X172500000Y-112710000D02*
X170560000Y-114650000D01*
X172500000Y-105870000D02*
X172500000Y-112710000D01*
X170880000Y-104250000D02*
X172500000Y-105870000D01*
%TO.N,/SDA*%
X170000000Y-112670000D02*
X168020000Y-114650000D01*
X170000000Y-105910000D02*
X170000000Y-112670000D01*
X168340000Y-104250000D02*
X170000000Y-105910000D01*
%TO.N,/SCL*%
X167250000Y-112880000D02*
X165480000Y-114650000D01*
X167250000Y-105700000D02*
X167250000Y-112880000D01*
X165800000Y-104250000D02*
X167250000Y-105700000D01*
D19*
%TO.N,/VCC*%
X160400000Y-106600000D02*
X160400000Y-114650000D01*
X162750000Y-104250000D02*
X160400000Y-106600000D01*
X163260000Y-104250000D02*
X162750000Y-104250000D01*
X163260000Y-103490000D02*
X163260000Y-104250000D01*
X167250000Y-99500000D02*
X163260000Y-103490000D01*
X203000000Y-99500000D02*
X167250000Y-99500000D01*
X205750000Y-88420000D02*
X205750000Y-96750000D01*
X205750000Y-96750000D02*
X203000000Y-99500000D01*
D18*
%TO.N,Net-(U3-DQ)*%
X211250000Y-91650000D02*
X211250000Y-92630000D01*
X205750000Y-86150000D02*
X211250000Y-91650000D01*
%TO.N,/TEMP*%
X182120000Y-107870000D02*
X211250000Y-107870000D01*
X178500000Y-104250000D02*
X182120000Y-107870000D01*
%TO.N,/Data*%
X212750000Y-68210000D02*
X212750000Y-70750000D01*
X146250000Y-68710000D02*
X146250000Y-71250000D01*
%TD*%
%TA.AperFunction,Conductor*%
%TO.N,GND*%
G36*
X164778418Y-105145417D02*
G01*
X164806673Y-105166569D01*
X164928599Y-105288495D01*
X165015692Y-105349478D01*
X165122165Y-105424032D01*
X165122167Y-105424033D01*
X165122170Y-105424035D01*
X165336337Y-105523903D01*
X165564592Y-105585063D01*
X165752918Y-105601539D01*
X165799999Y-105605659D01*
X165800000Y-105605659D01*
X165800001Y-105605659D01*
X165839234Y-105602226D01*
X166035408Y-105585063D01*
X166163757Y-105550672D01*
X166233606Y-105552335D01*
X166283531Y-105582766D01*
X166613181Y-105912416D01*
X166646666Y-105973739D01*
X166649500Y-106000097D01*
X166649500Y-112579902D01*
X166629815Y-112646941D01*
X166613181Y-112667583D01*
X165943118Y-113337645D01*
X165881795Y-113371130D01*
X165823345Y-113369739D01*
X165711058Y-113339653D01*
X165711055Y-113339652D01*
X165711050Y-113339651D01*
X165711047Y-113339650D01*
X165711044Y-113339650D01*
X165480002Y-113319437D01*
X165479998Y-113319437D01*
X165248955Y-113339650D01*
X165248948Y-113339651D01*
X165024917Y-113399681D01*
X164814718Y-113497699D01*
X164814714Y-113497701D01*
X164624735Y-113630726D01*
X164624729Y-113630731D01*
X164460731Y-113794729D01*
X164460726Y-113794735D01*
X164327701Y-113984714D01*
X164327697Y-113984722D01*
X164322104Y-113996716D01*
X164275929Y-114049154D01*
X164208735Y-114068303D01*
X164141855Y-114048084D01*
X164097342Y-113996711D01*
X164091869Y-113984975D01*
X164091866Y-113984969D01*
X164036975Y-113906577D01*
X164036975Y-113906576D01*
X163463787Y-114479764D01*
X163452518Y-114437708D01*
X163380110Y-114312292D01*
X163277708Y-114209890D01*
X163152292Y-114137482D01*
X163110234Y-114126212D01*
X163683422Y-113553023D01*
X163605030Y-113498133D01*
X163394909Y-113400152D01*
X163394900Y-113400148D01*
X163170968Y-113340147D01*
X163170958Y-113340145D01*
X162940001Y-113319939D01*
X162939999Y-113319939D01*
X162709041Y-113340145D01*
X162709031Y-113340147D01*
X162485099Y-113400148D01*
X162485090Y-113400152D01*
X162274967Y-113498134D01*
X162196576Y-113553022D01*
X162769766Y-114126212D01*
X162727708Y-114137482D01*
X162602292Y-114209890D01*
X162499890Y-114312292D01*
X162427482Y-114437708D01*
X162416212Y-114479765D01*
X161836782Y-113900336D01*
X161791805Y-113891297D01*
X161741623Y-113842681D01*
X161725499Y-113781536D01*
X161725499Y-113777129D01*
X161725498Y-113777123D01*
X161725497Y-113777116D01*
X161719091Y-113717517D01*
X161668796Y-113582669D01*
X161668795Y-113582668D01*
X161668793Y-113582664D01*
X161582547Y-113467455D01*
X161582544Y-113467452D01*
X161467335Y-113381206D01*
X161467328Y-113381202D01*
X161332482Y-113330908D01*
X161332483Y-113330908D01*
X161272883Y-113324501D01*
X161272881Y-113324500D01*
X161272873Y-113324500D01*
X161272864Y-113324500D01*
X161269548Y-113324322D01*
X161269615Y-113323065D01*
X161207461Y-113304815D01*
X161161706Y-113252011D01*
X161150500Y-113200500D01*
X161150500Y-106962229D01*
X161170185Y-106895190D01*
X161186814Y-106874553D01*
X162424549Y-105636817D01*
X162485872Y-105603333D01*
X162512230Y-105600499D01*
X164157871Y-105600499D01*
X164157872Y-105600499D01*
X164217483Y-105594091D01*
X164352331Y-105543796D01*
X164467546Y-105457546D01*
X164553796Y-105342331D01*
X164602810Y-105210916D01*
X164644681Y-105154984D01*
X164710145Y-105130566D01*
X164778418Y-105145417D01*
G37*
%TD.AperFunction*%
%TA.AperFunction,Conductor*%
G36*
X218443039Y-39769685D02*
G01*
X218488794Y-39822489D01*
X218500000Y-39874000D01*
X218500000Y-139626000D01*
X218480315Y-139693039D01*
X218427511Y-139738794D01*
X218376000Y-139750000D01*
X138624000Y-139750000D01*
X138556961Y-139730315D01*
X138511206Y-139677511D01*
X138500000Y-139626000D01*
X138500000Y-113777135D01*
X159074500Y-113777135D01*
X159074500Y-115522870D01*
X159074501Y-115522876D01*
X159080908Y-115582483D01*
X159131202Y-115717328D01*
X159131206Y-115717335D01*
X159217452Y-115832544D01*
X159217455Y-115832547D01*
X159332664Y-115918793D01*
X159332671Y-115918797D01*
X159467517Y-115969091D01*
X159467516Y-115969091D01*
X159474444Y-115969835D01*
X159527127Y-115975500D01*
X161272872Y-115975499D01*
X161332483Y-115969091D01*
X161467331Y-115918796D01*
X161582546Y-115832546D01*
X161668796Y-115717331D01*
X161719091Y-115582483D01*
X161725500Y-115522873D01*
X161725499Y-115518474D01*
X161745175Y-115451436D01*
X161797973Y-115405674D01*
X161837599Y-115398846D01*
X162416212Y-114820233D01*
X162427482Y-114862292D01*
X162499890Y-114987708D01*
X162602292Y-115090110D01*
X162727708Y-115162518D01*
X162769765Y-115173787D01*
X162196576Y-115746975D01*
X162274969Y-115801867D01*
X162485090Y-115899847D01*
X162485099Y-115899851D01*
X162709031Y-115959852D01*
X162709041Y-115959854D01*
X162939999Y-115980061D01*
X162940001Y-115980061D01*
X163170958Y-115959854D01*
X163170968Y-115959852D01*
X163394900Y-115899851D01*
X163394909Y-115899847D01*
X163605030Y-115801867D01*
X163605034Y-115801865D01*
X163683422Y-115746976D01*
X163683422Y-115746975D01*
X163110235Y-115173787D01*
X163152292Y-115162518D01*
X163277708Y-115090110D01*
X163380110Y-114987708D01*
X163452518Y-114862292D01*
X163463787Y-114820234D01*
X164036975Y-115393422D01*
X164036976Y-115393422D01*
X164091864Y-115315034D01*
X164097339Y-115303294D01*
X164143509Y-115250852D01*
X164210701Y-115231697D01*
X164277584Y-115251909D01*
X164322105Y-115303286D01*
X164327699Y-115315282D01*
X164460730Y-115505269D01*
X164624731Y-115669270D01*
X164814718Y-115802301D01*
X165024921Y-115900320D01*
X165248950Y-115960349D01*
X165413985Y-115974787D01*
X165479998Y-115980563D01*
X165480000Y-115980563D01*
X165480002Y-115980563D01*
X165537894Y-115975498D01*
X165711050Y-115960349D01*
X165935079Y-115900320D01*
X166145282Y-115802301D01*
X166335269Y-115669270D01*
X166499270Y-115505269D01*
X166632301Y-115315282D01*
X166637618Y-115303878D01*
X166683790Y-115251440D01*
X166750984Y-115232288D01*
X166817865Y-115252504D01*
X166862381Y-115303878D01*
X166867699Y-115315282D01*
X167000730Y-115505269D01*
X167164731Y-115669270D01*
X167354718Y-115802301D01*
X167564921Y-115900320D01*
X167788950Y-115960349D01*
X167953985Y-115974787D01*
X168019998Y-115980563D01*
X168020000Y-115980563D01*
X168020002Y-115980563D01*
X168077894Y-115975498D01*
X168251050Y-115960349D01*
X168475079Y-115900320D01*
X168685282Y-115802301D01*
X168875269Y-115669270D01*
X169039270Y-115505269D01*
X169172301Y-115315282D01*
X169177618Y-115303878D01*
X169223790Y-115251440D01*
X169290984Y-115232288D01*
X169357865Y-115252504D01*
X169402381Y-115303878D01*
X169407699Y-115315282D01*
X169540730Y-115505269D01*
X169704731Y-115669270D01*
X169894718Y-115802301D01*
X170104921Y-115900320D01*
X170328950Y-115960349D01*
X170493985Y-115974787D01*
X170559998Y-115980563D01*
X170560000Y-115980563D01*
X170560002Y-115980563D01*
X170617894Y-115975498D01*
X170791050Y-115960349D01*
X171015079Y-115900320D01*
X171225282Y-115802301D01*
X171415269Y-115669270D01*
X171579270Y-115505269D01*
X171712301Y-115315282D01*
X171717618Y-115303878D01*
X171763790Y-115251440D01*
X171830984Y-115232288D01*
X171897865Y-115252504D01*
X171942381Y-115303878D01*
X171947699Y-115315282D01*
X172080730Y-115505269D01*
X172244731Y-115669270D01*
X172434718Y-115802301D01*
X172644921Y-115900320D01*
X172868950Y-115960349D01*
X173033985Y-115974787D01*
X173099998Y-115980563D01*
X173100000Y-115980563D01*
X173100002Y-115980563D01*
X173157894Y-115975498D01*
X173331050Y-115960349D01*
X173555079Y-115900320D01*
X173765282Y-115802301D01*
X173955269Y-115669270D01*
X174119270Y-115505269D01*
X174252301Y-115315282D01*
X174257893Y-115303289D01*
X174304062Y-115250851D01*
X174371255Y-115231697D01*
X174438137Y-115251911D01*
X174482656Y-115303286D01*
X174488132Y-115315029D01*
X174543023Y-115393422D01*
X175116212Y-114820233D01*
X175127482Y-114862292D01*
X175199890Y-114987708D01*
X175302292Y-115090110D01*
X175427708Y-115162518D01*
X175469765Y-115173787D01*
X174896576Y-115746975D01*
X174974969Y-115801867D01*
X175185090Y-115899847D01*
X175185099Y-115899851D01*
X175409031Y-115959852D01*
X175409041Y-115959854D01*
X175639999Y-115980061D01*
X175640001Y-115980061D01*
X175870958Y-115959854D01*
X175870968Y-115959852D01*
X176094900Y-115899851D01*
X176094909Y-115899847D01*
X176305030Y-115801867D01*
X176305034Y-115801865D01*
X176383422Y-115746976D01*
X176383422Y-115746975D01*
X175810235Y-115173787D01*
X175852292Y-115162518D01*
X175977708Y-115090110D01*
X176080110Y-114987708D01*
X176152518Y-114862292D01*
X176163787Y-114820234D01*
X176736975Y-115393422D01*
X176736976Y-115393422D01*
X176791865Y-115315034D01*
X176791867Y-115315030D01*
X176889847Y-115104909D01*
X176889851Y-115104900D01*
X176949852Y-114880968D01*
X176949854Y-114880958D01*
X176970061Y-114650000D01*
X176970061Y-114649999D01*
X176949854Y-114419041D01*
X176949852Y-114419031D01*
X176889851Y-114195099D01*
X176889847Y-114195090D01*
X176791867Y-113984971D01*
X176791866Y-113984969D01*
X176736975Y-113906577D01*
X176736975Y-113906576D01*
X176163787Y-114479764D01*
X176152518Y-114437708D01*
X176080110Y-114312292D01*
X175977708Y-114209890D01*
X175852292Y-114137482D01*
X175810234Y-114126212D01*
X176383422Y-113553023D01*
X176305030Y-113498133D01*
X176094909Y-113400152D01*
X176094900Y-113400148D01*
X175870968Y-113340147D01*
X175870958Y-113340145D01*
X175640001Y-113319939D01*
X175639998Y-113319939D01*
X175584103Y-113324829D01*
X175515603Y-113311062D01*
X175465420Y-113262447D01*
X175449487Y-113194418D01*
X175472863Y-113128575D01*
X175475696Y-113125254D01*
X175475574Y-113125161D01*
X175480514Y-113118721D01*
X175480520Y-113118716D01*
X175559577Y-112981784D01*
X175600501Y-112829057D01*
X175600501Y-112670942D01*
X175600501Y-112663347D01*
X175600500Y-112663329D01*
X175600500Y-105750945D01*
X175600500Y-105750943D01*
X175598454Y-105743307D01*
X175600115Y-105673459D01*
X175639277Y-105615595D01*
X175696216Y-105591211D01*
X175710000Y-105580634D01*
X175710000Y-104683012D01*
X175767007Y-104715925D01*
X175894174Y-104750000D01*
X176025826Y-104750000D01*
X176152993Y-104715925D01*
X176210000Y-104683012D01*
X176210000Y-105580633D01*
X176423483Y-105523433D01*
X176423492Y-105523429D01*
X176637578Y-105423600D01*
X176831082Y-105288105D01*
X176998105Y-105121082D01*
X177128119Y-104935405D01*
X177182696Y-104891781D01*
X177252195Y-104884588D01*
X177314549Y-104916110D01*
X177331269Y-104935405D01*
X177461505Y-105121401D01*
X177628599Y-105288495D01*
X177715692Y-105349478D01*
X177822165Y-105424032D01*
X177822167Y-105424033D01*
X177822170Y-105424035D01*
X178036337Y-105523903D01*
X178264592Y-105585063D01*
X178452918Y-105601539D01*
X178499999Y-105605659D01*
X178500000Y-105605659D01*
X178500001Y-105605659D01*
X178539234Y-105602226D01*
X178735408Y-105585063D01*
X178863757Y-105550672D01*
X178933606Y-105552335D01*
X178983531Y-105582766D01*
X181635139Y-108234374D01*
X181635149Y-108234385D01*
X181639479Y-108238715D01*
X181639480Y-108238716D01*
X181751284Y-108350520D01*
X181838095Y-108400639D01*
X181838097Y-108400641D01*
X181876151Y-108422611D01*
X181888215Y-108429577D01*
X182040943Y-108470500D01*
X182199057Y-108470500D01*
X210018308Y-108470500D01*
X210085347Y-108490185D01*
X210119880Y-108523374D01*
X210205480Y-108645624D01*
X210249954Y-108709141D01*
X210410858Y-108870045D01*
X210410861Y-108870047D01*
X210597266Y-109000568D01*
X210803504Y-109096739D01*
X211023308Y-109155635D01*
X211185230Y-109169801D01*
X211249998Y-109175468D01*
X211250000Y-109175468D01*
X211250002Y-109175468D01*
X211306673Y-109170509D01*
X211476692Y-109155635D01*
X211696496Y-109096739D01*
X211902734Y-109000568D01*
X212089139Y-108870047D01*
X212250047Y-108709139D01*
X212380568Y-108522734D01*
X212476739Y-108316496D01*
X212535635Y-108096692D01*
X212555468Y-107870000D01*
X212535635Y-107643308D01*
X212476739Y-107423504D01*
X212380568Y-107217266D01*
X212250047Y-107030861D01*
X212250045Y-107030858D01*
X212089141Y-106869954D01*
X211902734Y-106739432D01*
X211902732Y-106739431D01*
X211696497Y-106643261D01*
X211696488Y-106643258D01*
X211476697Y-106584366D01*
X211476693Y-106584365D01*
X211476692Y-106584365D01*
X211476691Y-106584364D01*
X211476686Y-106584364D01*
X211250002Y-106564532D01*
X211249998Y-106564532D01*
X211023313Y-106584364D01*
X211023302Y-106584366D01*
X210803511Y-106643258D01*
X210803502Y-106643261D01*
X210597267Y-106739431D01*
X210597265Y-106739432D01*
X210410858Y-106869954D01*
X210249954Y-107030858D01*
X210173450Y-107140118D01*
X210119881Y-107216624D01*
X210065307Y-107260248D01*
X210018308Y-107269500D01*
X182420097Y-107269500D01*
X182353058Y-107249815D01*
X182332416Y-107233181D01*
X179832766Y-104733531D01*
X179799281Y-104672208D01*
X179800672Y-104613757D01*
X179815878Y-104557007D01*
X179835063Y-104485408D01*
X179855659Y-104250000D01*
X179835063Y-104014592D01*
X179773903Y-103786337D01*
X179674035Y-103572171D01*
X179668731Y-103564595D01*
X179538494Y-103378597D01*
X179371402Y-103211506D01*
X179371395Y-103211501D01*
X179177834Y-103075967D01*
X179177830Y-103075965D01*
X179126501Y-103052030D01*
X178963663Y-102976097D01*
X178963659Y-102976096D01*
X178963655Y-102976094D01*
X178735413Y-102914938D01*
X178735403Y-102914936D01*
X178500001Y-102894341D01*
X178499999Y-102894341D01*
X178264596Y-102914936D01*
X178264586Y-102914938D01*
X178036344Y-102976094D01*
X178036335Y-102976098D01*
X177822171Y-103075964D01*
X177822169Y-103075965D01*
X177628597Y-103211505D01*
X177461508Y-103378594D01*
X177331269Y-103564595D01*
X177276692Y-103608219D01*
X177207193Y-103615412D01*
X177144839Y-103583890D01*
X177128119Y-103564594D01*
X176998113Y-103378926D01*
X176998108Y-103378920D01*
X176831082Y-103211894D01*
X176637578Y-103076399D01*
X176423492Y-102976570D01*
X176423486Y-102976567D01*
X176210000Y-102919364D01*
X176210000Y-103816988D01*
X176152993Y-103784075D01*
X176025826Y-103750000D01*
X175894174Y-103750000D01*
X175767007Y-103784075D01*
X175710000Y-103816988D01*
X175710000Y-102919364D01*
X175709999Y-102919364D01*
X175496513Y-102976567D01*
X175496507Y-102976570D01*
X175282422Y-103076399D01*
X175282420Y-103076400D01*
X175088926Y-103211886D01*
X175088920Y-103211891D01*
X174921891Y-103378920D01*
X174921890Y-103378922D01*
X174791880Y-103564595D01*
X174737303Y-103608219D01*
X174667804Y-103615412D01*
X174605450Y-103583890D01*
X174588730Y-103564594D01*
X174458494Y-103378597D01*
X174291402Y-103211506D01*
X174291395Y-103211501D01*
X174097834Y-103075967D01*
X174097830Y-103075965D01*
X174046501Y-103052030D01*
X173883663Y-102976097D01*
X173883659Y-102976096D01*
X173883655Y-102976094D01*
X173655413Y-102914938D01*
X173655403Y-102914936D01*
X173420001Y-102894341D01*
X173419999Y-102894341D01*
X173184596Y-102914936D01*
X173184586Y-102914938D01*
X172956344Y-102976094D01*
X172956335Y-102976098D01*
X172742171Y-103075964D01*
X172742169Y-103075965D01*
X172548597Y-103211505D01*
X172381505Y-103378597D01*
X172251575Y-103564158D01*
X172196998Y-103607783D01*
X172127500Y-103614977D01*
X172065145Y-103583454D01*
X172048425Y-103564158D01*
X171918494Y-103378597D01*
X171751402Y-103211506D01*
X171751395Y-103211501D01*
X171557834Y-103075967D01*
X171557830Y-103075965D01*
X171506501Y-103052030D01*
X171343663Y-102976097D01*
X171343659Y-102976096D01*
X171343655Y-102976094D01*
X171115413Y-102914938D01*
X171115403Y-102914936D01*
X170880001Y-102894341D01*
X170879999Y-102894341D01*
X170644596Y-102914936D01*
X170644586Y-102914938D01*
X170416344Y-102976094D01*
X170416335Y-102976098D01*
X170202171Y-103075964D01*
X170202169Y-103075965D01*
X170008597Y-103211505D01*
X169841505Y-103378597D01*
X169711575Y-103564158D01*
X169656998Y-103607783D01*
X169587500Y-103614977D01*
X169525145Y-103583454D01*
X169508425Y-103564158D01*
X169378494Y-103378597D01*
X169211402Y-103211506D01*
X169211395Y-103211501D01*
X169017834Y-103075967D01*
X169017830Y-103075965D01*
X168966501Y-103052030D01*
X168803663Y-102976097D01*
X168803659Y-102976096D01*
X168803655Y-102976094D01*
X168575413Y-102914938D01*
X168575403Y-102914936D01*
X168340001Y-102894341D01*
X168339999Y-102894341D01*
X168104596Y-102914936D01*
X168104586Y-102914938D01*
X167876344Y-102976094D01*
X167876335Y-102976098D01*
X167662171Y-103075964D01*
X167662169Y-103075965D01*
X167468597Y-103211505D01*
X167301505Y-103378597D01*
X167171575Y-103564158D01*
X167116998Y-103607783D01*
X167047500Y-103614977D01*
X166985145Y-103583454D01*
X166968425Y-103564158D01*
X166838494Y-103378597D01*
X166671402Y-103211506D01*
X166671395Y-103211501D01*
X166477834Y-103075967D01*
X166477830Y-103075965D01*
X166426501Y-103052030D01*
X166263663Y-102976097D01*
X166263659Y-102976096D01*
X166263655Y-102976094D01*
X166035413Y-102914938D01*
X166035403Y-102914936D01*
X165800001Y-102894341D01*
X165799999Y-102894341D01*
X165564596Y-102914936D01*
X165564586Y-102914938D01*
X165336344Y-102976094D01*
X165336335Y-102976098D01*
X165122171Y-103075964D01*
X165122169Y-103075965D01*
X164993054Y-103166372D01*
X164926847Y-103188699D01*
X164859080Y-103171688D01*
X164811268Y-103120740D01*
X164798590Y-103052030D01*
X164825072Y-102987374D01*
X164834241Y-102977125D01*
X167524548Y-100286819D01*
X167585871Y-100253334D01*
X167612229Y-100250500D01*
X203073920Y-100250500D01*
X203171462Y-100231096D01*
X203218913Y-100221658D01*
X203355495Y-100165084D01*
X203404729Y-100132186D01*
X203478416Y-100082952D01*
X206332951Y-97228416D01*
X206415084Y-97105495D01*
X206471658Y-96968913D01*
X206500500Y-96823918D01*
X206500500Y-96676083D01*
X206500500Y-89368509D01*
X206520185Y-89301470D01*
X206555607Y-89265408D01*
X206628718Y-89216558D01*
X206771558Y-89073718D01*
X206883786Y-88905756D01*
X206961091Y-88719127D01*
X207000248Y-88522271D01*
X207032632Y-88460360D01*
X207093348Y-88425786D01*
X207163118Y-88429525D01*
X207209546Y-88458781D01*
X210308107Y-91557342D01*
X210341592Y-91618665D01*
X210336608Y-91688357D01*
X210308109Y-91732703D01*
X210249952Y-91790861D01*
X210119432Y-91977265D01*
X210119431Y-91977267D01*
X210023261Y-92183502D01*
X210023258Y-92183511D01*
X209964366Y-92403302D01*
X209964364Y-92403313D01*
X209944532Y-92629998D01*
X209944532Y-92630001D01*
X209964364Y-92856686D01*
X209964366Y-92856697D01*
X210023258Y-93076488D01*
X210023261Y-93076497D01*
X210119431Y-93282732D01*
X210119432Y-93282734D01*
X210249954Y-93469141D01*
X210410858Y-93630045D01*
X210410861Y-93630047D01*
X210597266Y-93760568D01*
X210803504Y-93856739D01*
X211023308Y-93915635D01*
X211185230Y-93929801D01*
X211249998Y-93935468D01*
X211250000Y-93935468D01*
X211250002Y-93935468D01*
X211306673Y-93930509D01*
X211476692Y-93915635D01*
X211696496Y-93856739D01*
X211902734Y-93760568D01*
X212089139Y-93630047D01*
X212250047Y-93469139D01*
X212380568Y-93282734D01*
X212476739Y-93076496D01*
X212535635Y-92856692D01*
X212555468Y-92630000D01*
X212535635Y-92403308D01*
X212476739Y-92183504D01*
X212380568Y-91977266D01*
X212250047Y-91790861D01*
X212250045Y-91790858D01*
X212089141Y-91629954D01*
X211902735Y-91499432D01*
X211902727Y-91499428D01*
X211872671Y-91485412D01*
X211820232Y-91439239D01*
X211810514Y-91420480D01*
X211809579Y-91418224D01*
X211809577Y-91418216D01*
X211809572Y-91418207D01*
X211730524Y-91281290D01*
X211730518Y-91281282D01*
X206997550Y-86548314D01*
X206964065Y-86486991D01*
X206963614Y-86436442D01*
X207000499Y-86251006D01*
X207000500Y-86251004D01*
X207000500Y-86048996D01*
X207000499Y-86048992D01*
X206961092Y-85850880D01*
X206961091Y-85850873D01*
X206883786Y-85664244D01*
X206883784Y-85664241D01*
X206883782Y-85664237D01*
X206771558Y-85496281D01*
X206628718Y-85353441D01*
X206460762Y-85241217D01*
X206460752Y-85241212D01*
X206274127Y-85163909D01*
X206274119Y-85163907D01*
X206207306Y-85150617D01*
X206145395Y-85118232D01*
X206110821Y-85057517D01*
X206114560Y-84987747D01*
X206155427Y-84931075D01*
X206220445Y-84905494D01*
X206231497Y-84905000D01*
X206547828Y-84905000D01*
X206547844Y-84904999D01*
X206607372Y-84898598D01*
X206607379Y-84898596D01*
X206742086Y-84848354D01*
X206742093Y-84848350D01*
X206857187Y-84762190D01*
X206857190Y-84762187D01*
X206943350Y-84647093D01*
X206943354Y-84647086D01*
X206993596Y-84512379D01*
X206993598Y-84512372D01*
X206999999Y-84452844D01*
X207000000Y-84452827D01*
X207000000Y-84130000D01*
X206030330Y-84130000D01*
X206050075Y-84110255D01*
X206099444Y-84024745D01*
X206125000Y-83929370D01*
X206125000Y-83830630D01*
X206099444Y-83735255D01*
X206050075Y-83649745D01*
X206030330Y-83630000D01*
X207000000Y-83630000D01*
X207000000Y-83307172D01*
X206999999Y-83307155D01*
X206993598Y-83247627D01*
X206993596Y-83247620D01*
X206943354Y-83112913D01*
X206943350Y-83112906D01*
X206857190Y-82997812D01*
X206857187Y-82997809D01*
X206742093Y-82911649D01*
X206742086Y-82911645D01*
X206607379Y-82861403D01*
X206607372Y-82861401D01*
X206547844Y-82855000D01*
X206000000Y-82855000D01*
X206000000Y-83599670D01*
X205980255Y-83579925D01*
X205894745Y-83530556D01*
X205799370Y-83505000D01*
X205700630Y-83505000D01*
X205605255Y-83530556D01*
X205519745Y-83579925D01*
X205500000Y-83599670D01*
X205500000Y-82855000D01*
X204952155Y-82855000D01*
X204892627Y-82861401D01*
X204892620Y-82861403D01*
X204757913Y-82911645D01*
X204757906Y-82911649D01*
X204642812Y-82997809D01*
X204642809Y-82997812D01*
X204556649Y-83112906D01*
X204556645Y-83112913D01*
X204506403Y-83247620D01*
X204506401Y-83247627D01*
X204500000Y-83307155D01*
X204500000Y-83630000D01*
X205469670Y-83630000D01*
X205449925Y-83649745D01*
X205400556Y-83735255D01*
X205375000Y-83830630D01*
X205375000Y-83929370D01*
X205400556Y-84024745D01*
X205449925Y-84110255D01*
X205469670Y-84130000D01*
X204500000Y-84130000D01*
X204500000Y-84452844D01*
X204506401Y-84512372D01*
X204506403Y-84512379D01*
X204556645Y-84647086D01*
X204556649Y-84647093D01*
X204642809Y-84762187D01*
X204642812Y-84762190D01*
X204757906Y-84848350D01*
X204757913Y-84848354D01*
X204892620Y-84898596D01*
X204892627Y-84898598D01*
X204952155Y-84904999D01*
X204952172Y-84905000D01*
X205268503Y-84905000D01*
X205335542Y-84924685D01*
X205381297Y-84977489D01*
X205391241Y-85046647D01*
X205362216Y-85110203D01*
X205303438Y-85147977D01*
X205292694Y-85150617D01*
X205225880Y-85163907D01*
X205225872Y-85163909D01*
X205039247Y-85241212D01*
X205039237Y-85241217D01*
X204871281Y-85353441D01*
X204728441Y-85496281D01*
X204616217Y-85664237D01*
X204616212Y-85664247D01*
X204538909Y-85850872D01*
X204538907Y-85850880D01*
X204499500Y-86048992D01*
X204499500Y-86251007D01*
X204538907Y-86449119D01*
X204538909Y-86449127D01*
X204616212Y-86635752D01*
X204616217Y-86635762D01*
X204728441Y-86803718D01*
X204871281Y-86946558D01*
X205039237Y-87058782D01*
X205039241Y-87058784D01*
X205039244Y-87058786D01*
X205225873Y-87136091D01*
X205277777Y-87146415D01*
X205363077Y-87163383D01*
X205424988Y-87195768D01*
X205459562Y-87256483D01*
X205455823Y-87326253D01*
X205414956Y-87382925D01*
X205363077Y-87406617D01*
X205225880Y-87433907D01*
X205225872Y-87433909D01*
X205039247Y-87511212D01*
X205039237Y-87511217D01*
X204871281Y-87623441D01*
X204728441Y-87766281D01*
X204616217Y-87934237D01*
X204616212Y-87934247D01*
X204538909Y-88120872D01*
X204538907Y-88120880D01*
X204499500Y-88318992D01*
X204499500Y-88521007D01*
X204538907Y-88719119D01*
X204538909Y-88719127D01*
X204616212Y-88905752D01*
X204616217Y-88905762D01*
X204728441Y-89073718D01*
X204871279Y-89216556D01*
X204871282Y-89216558D01*
X204944391Y-89265408D01*
X204989195Y-89319018D01*
X204999500Y-89368509D01*
X204999500Y-96387770D01*
X204979815Y-96454809D01*
X204963181Y-96475451D01*
X202725451Y-98713181D01*
X202664128Y-98746666D01*
X202637770Y-98749500D01*
X167176080Y-98749500D01*
X167031092Y-98778340D01*
X167031082Y-98778343D01*
X166894511Y-98834912D01*
X166894498Y-98834919D01*
X166771584Y-98917048D01*
X166771580Y-98917051D01*
X162825449Y-102863181D01*
X162764126Y-102896666D01*
X162737768Y-102899500D01*
X162362130Y-102899500D01*
X162362123Y-102899501D01*
X162302516Y-102905908D01*
X162167671Y-102956202D01*
X162167664Y-102956206D01*
X162052455Y-103042452D01*
X162052452Y-103042455D01*
X161966206Y-103157664D01*
X161966202Y-103157671D01*
X161915908Y-103292517D01*
X161909501Y-103352116D01*
X161909500Y-103352135D01*
X161909500Y-103977769D01*
X161889815Y-104044808D01*
X161873181Y-104065450D01*
X159817052Y-106121578D01*
X159817049Y-106121581D01*
X159777668Y-106180519D01*
X159777669Y-106180520D01*
X159734914Y-106244508D01*
X159678343Y-106381082D01*
X159678340Y-106381092D01*
X159649500Y-106526079D01*
X159649500Y-113200500D01*
X159629815Y-113267539D01*
X159577011Y-113313294D01*
X159530389Y-113323450D01*
X159530423Y-113324099D01*
X159530429Y-113324146D01*
X159530426Y-113324146D01*
X159530436Y-113324324D01*
X159527123Y-113324501D01*
X159467516Y-113330908D01*
X159332671Y-113381202D01*
X159332664Y-113381206D01*
X159217455Y-113467452D01*
X159217452Y-113467455D01*
X159131206Y-113582664D01*
X159131202Y-113582671D01*
X159080908Y-113717517D01*
X159074501Y-113777116D01*
X159074501Y-113777123D01*
X159074500Y-113777135D01*
X138500000Y-113777135D01*
X138500000Y-71249999D01*
X144894341Y-71249999D01*
X144894341Y-71250000D01*
X144914936Y-71485403D01*
X144914938Y-71485413D01*
X144976094Y-71713655D01*
X144976096Y-71713659D01*
X144976097Y-71713663D01*
X145074194Y-71924032D01*
X145075965Y-71927830D01*
X145075967Y-71927834D01*
X145184281Y-72082521D01*
X145211505Y-72121401D01*
X145378599Y-72288495D01*
X145475384Y-72356265D01*
X145572165Y-72424032D01*
X145572167Y-72424033D01*
X145572170Y-72424035D01*
X145786337Y-72523903D01*
X146014592Y-72585063D01*
X146202918Y-72601539D01*
X146249999Y-72605659D01*
X146250000Y-72605659D01*
X146250001Y-72605659D01*
X146289234Y-72602226D01*
X146485408Y-72585063D01*
X146713663Y-72523903D01*
X146927830Y-72424035D01*
X147121401Y-72288495D01*
X147288495Y-72121401D01*
X147424035Y-71927830D01*
X147523903Y-71713663D01*
X147585063Y-71485408D01*
X147605659Y-71250000D01*
X147585063Y-71014592D01*
X147523903Y-70786337D01*
X147506958Y-70749999D01*
X211394341Y-70749999D01*
X211394341Y-70750000D01*
X211414936Y-70985403D01*
X211414938Y-70985413D01*
X211476094Y-71213655D01*
X211476096Y-71213659D01*
X211476097Y-71213663D01*
X211575965Y-71427830D01*
X211575967Y-71427834D01*
X211616285Y-71485413D01*
X211711505Y-71621401D01*
X211878599Y-71788495D01*
X211975384Y-71856265D01*
X212072165Y-71924032D01*
X212072167Y-71924033D01*
X212072170Y-71924035D01*
X212286337Y-72023903D01*
X212514592Y-72085063D01*
X212702918Y-72101539D01*
X212749999Y-72105659D01*
X212750000Y-72105659D01*
X212750001Y-72105659D01*
X212789234Y-72102226D01*
X212985408Y-72085063D01*
X213213663Y-72023903D01*
X213427830Y-71924035D01*
X213621401Y-71788495D01*
X213788495Y-71621401D01*
X213924035Y-71427830D01*
X214023903Y-71213663D01*
X214085063Y-70985408D01*
X214105659Y-70750000D01*
X214085063Y-70514592D01*
X214023903Y-70286337D01*
X213924035Y-70072171D01*
X213922322Y-70069725D01*
X213788496Y-69878600D01*
X213788495Y-69878599D01*
X213666567Y-69756671D01*
X213633084Y-69695351D01*
X213638068Y-69625659D01*
X213679939Y-69569725D01*
X213710915Y-69552810D01*
X213842331Y-69503796D01*
X213957546Y-69417546D01*
X214043796Y-69302331D01*
X214094091Y-69167483D01*
X214100500Y-69107873D01*
X214100499Y-67312128D01*
X214094091Y-67252517D01*
X214043796Y-67117669D01*
X214043795Y-67117668D01*
X214043793Y-67117664D01*
X213957547Y-67002455D01*
X213957544Y-67002452D01*
X213842335Y-66916206D01*
X213842328Y-66916202D01*
X213707482Y-66865908D01*
X213707483Y-66865908D01*
X213647883Y-66859501D01*
X213647881Y-66859500D01*
X213647873Y-66859500D01*
X213647864Y-66859500D01*
X211852129Y-66859500D01*
X211852123Y-66859501D01*
X211792516Y-66865908D01*
X211657671Y-66916202D01*
X211657664Y-66916206D01*
X211542455Y-67002452D01*
X211542452Y-67002455D01*
X211456206Y-67117664D01*
X211456202Y-67117671D01*
X211405908Y-67252517D01*
X211399501Y-67312116D01*
X211399501Y-67312123D01*
X211399500Y-67312135D01*
X211399500Y-69107870D01*
X211399501Y-69107876D01*
X211405908Y-69167483D01*
X211456202Y-69302328D01*
X211456206Y-69302335D01*
X211542452Y-69417544D01*
X211542455Y-69417547D01*
X211657664Y-69503793D01*
X211657671Y-69503797D01*
X211789081Y-69552810D01*
X211845015Y-69594681D01*
X211869432Y-69660145D01*
X211854580Y-69728418D01*
X211833430Y-69756673D01*
X211711503Y-69878600D01*
X211575965Y-70072169D01*
X211575964Y-70072171D01*
X211476098Y-70286335D01*
X211476094Y-70286344D01*
X211414938Y-70514586D01*
X211414936Y-70514596D01*
X211394341Y-70749999D01*
X147506958Y-70749999D01*
X147424035Y-70572171D01*
X147288495Y-70378599D01*
X147166567Y-70256671D01*
X147133084Y-70195351D01*
X147138068Y-70125659D01*
X147179939Y-70069725D01*
X147210915Y-70052810D01*
X147342331Y-70003796D01*
X147457546Y-69917546D01*
X147543796Y-69802331D01*
X147594091Y-69667483D01*
X147600500Y-69607873D01*
X147600499Y-67812128D01*
X147594091Y-67752517D01*
X147543796Y-67617669D01*
X147543795Y-67617668D01*
X147543793Y-67617664D01*
X147457547Y-67502455D01*
X147457544Y-67502452D01*
X147342335Y-67416206D01*
X147342328Y-67416202D01*
X147207482Y-67365908D01*
X147207483Y-67365908D01*
X147147883Y-67359501D01*
X147147881Y-67359500D01*
X147147873Y-67359500D01*
X147147864Y-67359500D01*
X145352129Y-67359500D01*
X145352123Y-67359501D01*
X145292516Y-67365908D01*
X145157671Y-67416202D01*
X145157664Y-67416206D01*
X145042455Y-67502452D01*
X145042452Y-67502455D01*
X144956206Y-67617664D01*
X144956202Y-67617671D01*
X144905908Y-67752517D01*
X144899501Y-67812116D01*
X144899501Y-67812123D01*
X144899500Y-67812135D01*
X144899500Y-69607870D01*
X144899501Y-69607876D01*
X144905908Y-69667483D01*
X144956202Y-69802328D01*
X144956206Y-69802335D01*
X145042452Y-69917544D01*
X145042455Y-69917547D01*
X145157664Y-70003793D01*
X145157671Y-70003797D01*
X145289081Y-70052810D01*
X145345015Y-70094681D01*
X145369432Y-70160145D01*
X145354580Y-70228418D01*
X145333430Y-70256673D01*
X145211503Y-70378600D01*
X145075965Y-70572169D01*
X145075964Y-70572171D01*
X144976098Y-70786335D01*
X144976094Y-70786344D01*
X144914938Y-71014586D01*
X144914936Y-71014596D01*
X144894341Y-71249999D01*
X138500000Y-71249999D01*
X138500000Y-39874000D01*
X138519685Y-39806961D01*
X138572489Y-39761206D01*
X138624000Y-39750000D01*
X218376000Y-39750000D01*
X218443039Y-39769685D01*
G37*
%TD.AperFunction*%
%TD*%
M02*
